
<svg width="111px" height="118px" viewBox="0 0 111 118" version="1.1" xmlns="http://www.w3.org/2000/svg" xmlns:xlink="http://www.w3.org/1999/xlink">
    <g id="Page-1" stroke="none" stroke-width="1" fill="none" fill-rule="evenodd">
        <g id="MedPrompt" transform="translate(-59.000000, -287.000000)" fill-rule="nonzero">
            <g id="medicine" transform="translate(59.000000, 287.000000)">
                <polygon id="Path" fill="#E3F2FF" points="2 54 2 92.9976647 49.3016351 92.9976647 49.3039352 93 71 76.7656854 71 54"></polygon>
                <path d="M105.873565,75.0977713 C110.233666,82.8103641 107.688933,92.7224904 100.068781,97.2145443 L86.8597772,105 L71,76.9572781 C88.6307358,66.5654134 83.1087255,69.8204176 84.2090038,69.1718224 C91.794489,64.7010491 101.493977,67.3539516 105.873565,75.0977713 Z" id="Path" fill="#FE73B1"></path>
                <path d="M70.7454418,77 L87,105.318599 L72.3846916,113.806657 C64.6103888,118.321646 54.6694618,115.642645 50.1808573,107.82241 C45.6627608,99.9290627 48.4143503,89.971046 56.1301334,85.4880582 L70.7454418,77 Z" id="Path" fill="#FEC459"></path>
                <path d="M57.2,31.1428571 L69.159908,46.9895923 C70.3536677,48.5736715 71,50.4981106 71,52.4753523 L71,54 L2,54 L2,52.4753523 C2,50.4981106 2.64633232,48.5736715 3.840092,46.9895923 L15.8,31.1428571 L15.8,22 L57.2,22 L57.2,31.1428571 Z" id="Path" fill="#ED5151"></path>
                <path d="M63,6.65114656 L63,17.3488534 C63,19.9185078 60.9251235,22 58.3636364,22 L16.6363636,22 C14.0748765,22 12,19.9185078 12,17.3488534 L12,6.65114656 C12,4.08149216 14.0748765,2 16.6363636,2 L58.3636364,2 C60.9251235,2 63,4.08149216 63,6.65114656 Z" id="Path" fill="#57555C"></path>
                <path d="M49.7792933,92.0023335 L49.77697,92 L2,92 L2,96.6666667 C2,101.821024 6.16067064,106 11.292451,106 L49.9976768,106 L50,105.997667 L49.7792933,92.0023335 Z" id="Path" fill="#ED5151"></path>
                <path d="M25,33 C26.1041104,33 27,32.1039104 27,31 C27,29.8958896 26.1039104,29 25,29 C23.8958896,29 23,29.8960896 23,31 C22.9998,32.1039104 23.8958896,33 25,33 Z" id="Path" fill="#000000"></path>
                <path d="M45.700046,72.199954 L38.799954,72.199954 L38.799954,65.299931 C38.799954,64.0297821 37.7699316,63 36.5,63 C35.2300684,63 34.200046,64.0300121 34.200046,65.299931 L34.200046,72.199954 L27.299954,72.199954 C26.0297924,72.199954 25,73.2299661 25,74.500115 C25,75.7702639 26.0300224,76.800046 27.299954,76.800046 L34.200046,76.800046 L34.200046,83.700069 C34.200046,84.9702179 35.2300684,86 36.5,86 C37.7699316,86 38.799954,84.9699879 38.799954,83.700069 L38.799954,76.800046 L45.700046,76.800046 C46.9702076,76.800046 48,75.7700339 48,74.500115 C48.00023,73.2299661 46.9704376,72.199954 45.700046,72.199954 Z" id="Path" fill="#000000"></path>
                <path d="M83.2855031,67.4593405 L73.9042463,72.8638314 L73.9042463,52.8508515 C73.9042463,50.37677 73.0843275,47.921587 71.5946159,45.9372515 L60.0471568,30.5739776 L60.0471568,24.0318931 C62.7351047,23.0805183 64.6661866,20.5190892 64.6661866,17.5144688 L64.6661866,6.91360002 C64.6661866,3.10141728 61.558117,0 57.7377574,0 L16.1664889,0 C12.3461293,0 9.2378287,3.10141728 9.2378287,6.91360002 L9.2378287,17.5146992 C9.2378287,20.5188587 11.1689107,23.0807488 13.8568585,24.0321236 L13.8568585,30.574208 L2.30847558,45.9384038 C0.819687828,47.9218175 0,50.37677 0,52.8508515 L0,97.4834197 C0,103.837211 5.18027002,109.006163 11.5474591,109.006163 L48.6636815,109.006163 C53.8421038,117.667868 65.0082429,120.566473 73.7610492,115.523588 L101.761853,99.3914701 C110.528056,94.3400571 113.655064,83.079126 108.523758,74.2072335 C103.418551,65.3835089 92.1297707,62.3634471 83.2855031,67.4593405 Z M48.3906832,90.5695892 L4.61879887,90.5695892 L4.61879887,56.6925343 L69.2852165,56.6925343 L69.2852165,75.5245926 L55.284468,83.591458 C52.3653261,85.2741099 50.0058077,87.6693711 48.3906832,90.5695892 Z M13.8568585,6.91360002 C13.8568585,5.64279562 14.8929587,4.60914351 16.166258,4.60914351 L57.7375264,4.60914351 C59.0110566,4.60914351 60.0471568,5.64302609 60.0471568,6.91360002 L60.0471568,17.5146992 C60.0471568,18.7855036 59.0110566,19.8191557 57.7375264,19.8191557 L16.1664889,19.8191557 C14.8929587,19.8191557 13.8570895,18.7852732 13.8570895,17.5146992 C13.8568585,17.5146992 13.8568585,6.91360002 13.8568585,6.91360002 Z M18.0139623,32.7249419 C18.3137523,32.3262311 18.4758884,31.840864 18.4758884,31.3421297 L18.4758884,24.4285297 L55.428127,24.4285297 L55.428127,29.0376732 L34.6426082,29.0376732 C33.3672303,29.0376732 32.3332088,30.0697121 32.3332088,31.3421297 C32.3332088,32.6147779 33.3674613,33.6465863 34.6426082,33.6465863 L56.5829422,33.6465863 L67.8985144,48.7012626 C68.638058,49.6865163 69.0974435,50.8653637 69.2362523,52.0831603 L4.66799399,52.0831603 C4.80657182,50.8653637 5.2659573,49.6867468 6.00480807,48.7024149 L18.0139623,32.7249419 Z M4.61879887,97.4834197 L4.61879887,95.1559163 L46.5790091,95.1559163 C45.8466253,98.143943 45.8514755,101.335474 46.6901023,104.39725 L11.5474591,104.39725 C7.72709945,104.39702 4.61879887,101.295602 4.61879887,97.4834197 Z M71.4516498,111.53187 C64.8237034,115.350967 56.3542888,113.092373 52.5244597,106.474004 C48.6763845,99.7917942 51.0084183,91.3787648 57.5945603,87.5827149 L70.1305412,80.3602868 L83.9876307,104.309442 L71.4516498,111.53187 Z M99.4522229,95.3999827 L87.9879105,102.004985 L74.1305901,78.0553694 L85.5951334,71.4508279 C92.2274681,67.6301178 100.69388,69.892629 104.523709,76.5112291 C108.370399,83.1632471 106.031205,91.6090031 99.4522229,95.3999827 Z" id="Shape" fill="#000000"></path>
            </g>
        </g>
    </g>
</svg>