
<svg width="161px" height="110px" viewBox="0 0 161 110" version="1.1" xmlns="http://www.w3.org/2000/svg" xmlns:xlink="http://www.w3.org/1999/xlink">
    <g id="Page-1" stroke="none" stroke-width="1" fill="none" fill-rule="evenodd">
        <g id="EnterReadingIntro" transform="translate(-155.000000, -279.000000)" fill-rule="nonzero">
            <g id="tap-(1)" transform="translate(235.500000, 334.000000) scale(1, -1) rotate(-90.000000) translate(-235.500000, -334.000000) translate(180.500000, 253.500000)">
                <path d="M59.1422431,39 C67.1698981,35.2103983 71.4860916,26.3870476 69.5338478,17.7582853 C67.5828259,9.12952266 59.8850241,3 50.9997501,3 C42.1156976,3 34.4178956,9.12952266 32.4656521,17.7582853 C30.5146302,26.3870476 34.8308234,35.2103983 42.8584787,39 L59.1422431,39 Z" id="Path" fill="#3B97D3"></path>
                <path d="M30.198957,45 C29.4263993,45 28.686609,44.6973615 28.1572876,44.1626609 C16.5273313,32.4781918 15.9022275,14.3976482 26.6991318,2.01340296 C27.3280166,1.25620925 28.3400295,0.880602696 29.3432204,1.03371613 C30.3464112,1.18682957 31.1832437,1.84354259 31.5298232,2.75026137 C31.8764031,3.65697984 31.6797978,4.67016023 31.0131045,5.39864517 C22.0133738,15.7194477 22.5401749,30.7903554 32.2393666,40.5226281 C33.0043627,41.2941762 33.2135706,42.4245842 32.7699486,43.3982898 C32.3263265,44.3707993 31.3155741,45 30.198957,45 Z" id="Path" fill="#2980BA"></path>
                <path d="M78.1478655,37.999998 C77.2261018,37.999998 76.37222,37.5082534 75.8922836,36.702915 C75.4123474,35.8963562 75.3754292,34.893344 75.79582,34.0538397 C80.61662,24.4410277 79.3780746,12.8087683 72.6470564,4.48693807 C72.0182564,3.74383043 71.8312837,2.71031273 72.1587835,1.78539392 C72.4874747,0.860474804 73.2782383,0.190579751 74.2262017,0.0343929074 C75.1741656,-0.121793936 76.1304654,0.26135207 76.7247291,1.03374474 C84.8026655,11.0236014 86.2889201,24.9852411 80.5046744,36.5259847 C80.0521293,37.4326003 79.1410836,38.0012182 78.1478655,37.999998 Z" id="Path" fill="#2980BA"></path>
                <path d="M109.498058,77.1450316 L109.498058,119.944 C109.498058,119.944 109.498058,134.516607 100.395094,142.952995 C99.3640251,143.953386 98.7920107,145.345658 98.8196499,146.791478 L98.8196499,155.09156 C98.8112381,158.074478 96.4258406,160.490264 93.4804456,160.5 L50.7656103,160.5 C47.8202157,160.490264 45.4348181,158.074478 45.4264064,155.09156 L45.4264064,154.091169 C45.4312129,149.757358 43.7079588,145.603666 40.6471995,142.574501 C35.4942606,137.491006 27.5389304,128.704116 24.0683876,119.944 C18.7291837,106.425334 8.0507751,87.4994439 2.71157082,82.0922209 C-2.62763345,76.6849976 2.71157082,71.2777743 8.0507751,71.2777743 C13.3899794,71.2777743 24.0683876,82.0922209 29.4075919,90.2036642 C31.1068118,92.8141736 33.0956444,95.2177897 35.334433,97.3682655 C36.6635258,98.6193628 38.529784,99.0988688 40.2866861,98.6388351 C42.0435884,98.1788011 43.4471875,96.8437294 44.0107901,95.0973046 C45.0274378,91.7638846 45.5057192,88.2844225 45.4264064,84.7964409 L45.4264064,22.6115483 C45.4095823,19.1746817 47.5570408,16.1077894 50.7656103,14.9869134 C51.617624,14.6595349 52.5225127,14.495237 53.4346118,14.5001051 C57.8581118,14.5001051 61.4440189,18.131695 61.4440189,22.6115483 L61.4440189,55.0561048 C61.4271948,51.6180212 63.5746533,48.5523458 66.7832229,47.4314698 C67.6364382,47.104091 68.5413269,46.9385762 69.453426,46.9446615 C73.8757243,46.9446615 77.4616314,50.5762514 77.4616314,55.0561048 L77.4616314,63.1663311 C77.4616314,61.0158553 78.3076363,58.9530051 79.8109775,57.4353804 C80.6473687,56.5749467 81.6712269,55.9262747 82.8008357,55.5429131 C83.6540507,55.2155346 84.5589394,55.0500197 85.4710385,55.0561048 C89.8945385,55.0561048 93.4804456,58.6876947 93.4804456,63.1663311 L93.4804456,76.6849976 C93.4804456,74.5345219 94.3252488,72.4716719 95.8297916,70.954047 C96.6649812,70.0936132 97.6900411,69.4449412 98.8196499,69.0603627 C99.8603322,68.6733499 100.970714,68.5163543 102.076288,68.6015456 C106.365196,69.0652308 109.59059,72.7771439 109.498058,77.1450316 Z" id="Path" fill="#FDD7AD"></path>
                <g id="Group" transform="translate(40.500000, 13.500000)" fill="#CBB292">
                    <path d="M11.8400154,0.170898437 C10.9433309,0.166015625 10.0537349,0.330810625 9.21612035,0.659179687 C6.06177599,1.78344719 3.95060976,4.85961906 3.96714954,8.30688469 L3.96714954,70.6799316 C4.04512195,74.1784669 3.57492363,77.6684569 2.57545732,81.0119628 C2.16196661,82.2680663 1.32317073,83.3276369 0.213833766,83.9953613 C1.57835366,84.8229981 3.23113575,84.9670409 4.7102516,84.3872069 C6.19054878,83.8073731 7.33532767,82.5659181 7.82442843,81.0119628 C8.82389474,77.6684569 9.29409306,74.1784669 9.21612035,70.6799316 L9.21612035,8.30688469 C9.19958087,4.85961906 11.3107471,1.78344719 14.4650915,0.659179688 C13.6262959,0.330810625 12.7366996,0.166015625 11.8400154,0.170898437 Z" id="Path"></path>
                    <path d="M24.9630334,33.2019044 C21.808689,34.3261719 19.6975228,37.4011231 19.7140626,40.8496094 L19.7140626,65.2563475 C19.7140626,66.7541503 20.8895578,67.9675294 22.3391386,67.9675294 C23.7875382,67.9675294 24.9630334,66.7541503 24.9630334,65.2563475 L24.9630334,40.8496094 C24.9476752,37.4011231 27.0576601,34.3261719 30.2120045,33.2019044 C28.5190549,32.5512694 26.6559833,32.5512694 24.9630334,33.2019044 L24.9630334,33.2019044 Z" id="Path"></path>
                    <path d="M40.7099467,41.3378906 C39.5994284,41.7224122 38.5928736,42.3730469 37.7706175,43.2360841 C36.2926829,44.7583006 35.4609756,46.8273925 35.4609756,48.984375 L35.4609756,65.2563475 C35.4609756,66.7541503 36.6364711,67.9675294 38.086052,67.9675294 C39.5356325,67.9675294 40.7099467,66.7541503 40.7099467,65.2563475 L40.7099467,48.984375 C40.6945886,45.5371094 42.8057545,42.4621581 45.9600992,41.3378906 C44.2671495,40.6872559 42.4040777,40.6872559 40.7099467,41.3378906 L40.7099467,41.3378906 Z" id="Path"></path>
                    <path d="M59.0819358,54.4091797 C58.1864329,54.4030762 57.2956553,54.5678712 56.4580411,54.8962403 C55.3475228,55.2819825 54.3397866,55.9326172 53.5187118,56.7956544 C52.039596,58.3178712 51.20907,60.3869628 51.20907,62.5439453 L51.20907,67.9675294 C51.20907,69.4653319 52.3833841,70.6799316 53.832965,70.6799316 C55.2825456,70.6799316 56.4580411,69.4653319 56.4580411,67.9675294 L56.4580411,62.5439453 C56.4415016,59.0966797 58.5526675,56.0217284 61.7070122,54.8962403 C60.8682163,54.5678712 59.9786204,54.4030762 59.0819358,54.4091797 L59.0819358,54.4091797 Z" id="Path"></path>
                </g>
                <path d="M97.5005626,95 C96.1197387,95 95,96.2876274 95,97.8754851 L95,115.124515 C95,116.712373 96.1197387,118 97.5005626,118 C98.8813865,118 100,116.712373 100,115.124515 L100,97.8754851 C100,96.2876274 98.8813865,95 97.5005626,95 L97.5005626,95 Z" id="Path" fill="#FEE7CE"></path>
                <path d="M98.910395,122.5 C97.4792974,122.52353 96.300465,123.671535 96.1880816,125.148956 C95.9896167,126.545881 95.3248797,127.826395 94.3110361,128.770062 C93.6199966,129.461095 93.3438198,130.48402 93.5865207,131.445025 C93.8292212,132.407268 94.5549324,133.158982 95.4826949,133.410379 C96.411653,133.661776 97.3991942,133.375704 98.0663222,132.659904 C100.086836,130.723033 101.315882,128.057977 101.5,125.212115 C101.497609,123.727263 100.345079,122.519815 98.910395,122.5 L98.910395,122.5 Z" id="Path" fill="#FEE7CE"></path>
                <path d="M56.8329331,147.5 L54.1670666,147.5 C52.6942984,147.5 51.5,148.618614 51.5,149.999437 C51.5,151.380261 52.6942984,152.5 54.1670666,152.5 L56.8329331,152.5 C58.3057013,152.5 59.5,151.380261 59.5,149.999437 C59.5,148.618614 58.3057013,147.5 56.8329331,147.5 L56.8329331,147.5 Z" id="Path" fill="#FEE7CE"></path>
                <path d="M87.8340003,147.5 L69.1672003,147.5 C67.6943584,147.5 66.5,148.618614 66.5,149.999437 C66.5,151.380261 67.6943584,152.5 69.1672003,152.5 L87.8340003,152.5 C89.3068419,152.5 90.5,151.380261 90.5,149.999437 C90.5,148.618614 89.3068419,147.5 87.8340003,147.5 L87.8340003,147.5 Z" id="Path" fill="#FEE7CE"></path>
            </g>
        </g>
    </g>
</svg>