
<svg width="124px" height="38px" viewBox="0 0 124 38" version="1.1" xmlns="http://www.w3.org/2000/svg" xmlns:xlink="http://www.w3.org/1999/xlink">
    <defs>
        <path d="M25.2431641,23.7329102 C25.2041014,23.708496 25.1772462,23.676758 25.1625977,23.6376953 C25.1479491,23.5986326 25.1394043,23.5559084 25.1369629,23.5095215 C25.1345215,23.4631345 25.1333008,23.417969 25.1333008,23.3740234 C25.1333008,23.3300779 25.1308594,23.2934572 25.1259766,23.2641602 C25.1259766,23.2543945 25.1137697,23.2189944 25.0893555,23.157959 C25.0649413,23.0969235 25.0478516,23.051758 25.0380859,23.0224609 C25.0332031,23.0175781 25.0234376,23.0017091 25.0087891,22.9748535 C24.9941406,22.9479979 24.9794923,22.919922 24.9648438,22.890625 C24.9501952,22.861328 24.9343263,22.8320314 24.9172363,22.8027344 C24.9001464,22.7734374 24.8891602,22.7490235 24.8842773,22.7294922 C24.8745117,22.7099608 24.857422,22.6818849 24.8330078,22.6452637 C24.8085936,22.6086424 24.7817384,22.5854493 24.7524414,22.5756836 C24.7426757,22.5756836 24.7109378,22.5720215 24.6572266,22.5646973 C24.6035154,22.557373 24.5644532,22.5488282 24.5400391,22.5390625 L24.3276367,22.5390625 C24.2836912,22.5390625 24.2421877,22.5378418 24.203125,22.5354004 C24.1640623,22.532959 24.1372071,22.5292969 24.1225586,22.5244141 C24.0932616,22.5244141 24.0310063,22.5268554 23.935791,22.5317383 C23.8405757,22.5366211 23.7392583,22.5402832 23.6318359,22.5427246 C23.5244135,22.545166 23.4230962,22.5488281 23.3278809,22.5537109 C23.2326655,22.5585938 23.1728517,22.5610352 23.1484375,22.5610352 C23.1191405,22.5610352 23.0483404,22.5549317 22.9360352,22.5427246 C22.8237299,22.5305175 22.7016608,22.5183106 22.5698242,22.5061035 C22.4379876,22.4938964 22.3159185,22.4816895 22.2036133,22.4694824 C22.091308,22.4572753 22.020508,22.4511719 21.9912109,22.4511719 C21.7958975,22.4414062 21.5932628,22.4438476 21.3833008,22.4584961 C21.1733388,22.4731446 20.9755869,22.4853515 20.7900391,22.4951172 C20.7851562,22.4951172 20.7802735,22.4963379 20.7753906,22.4987793 C20.7705078,22.5012207 20.7631836,22.5024414 20.753418,22.5024414 L20.7314453,22.5024414 C20.6972655,22.5024414 20.6496585,22.5061035 20.588623,22.5134277 L20.4055176,22.5354004 C20.3444821,22.5427246 20.289551,22.5500488 20.2407227,22.557373 C20.1918943,22.5646973 20.1625977,22.5683594 20.152832,22.5683594 C20.1381835,22.578125 20.1186525,22.5842285 20.0942383,22.5866699 C20.0698241,22.5891113 20.0454103,22.5952148 20.0209961,22.6049805 C19.9965819,22.6147461 19.9697267,22.6220703 19.9404297,22.6269531 C19.8916013,22.6660158 19.8403323,22.7209469 19.7866211,22.791748 C19.7329099,22.8625492 19.6914064,22.9272458 19.6621094,22.9858398 C19.5742183,23.1762705 19.492432,23.3618155 19.416748,23.5424805 C19.3410641,23.7231454 19.2641605,23.9160146 19.1860352,24.1210938 C19.161621,24.1943363 19.1396485,24.2700191 19.1201172,24.3481445 C19.1005858,24.4262699 19.0798341,24.5031734 19.0578613,24.5788574 C19.0358886,24.6545414 19.0102541,24.7302242 18.980957,24.8059082 C18.95166,24.8815922 18.9125979,24.9560543 18.8637695,25.0292969 C18.849121,25.0292969 18.8125003,25.0317383 18.7539062,25.0366211 C18.6953122,25.0415039 18.6586915,25.0439453 18.644043,25.0439453 C18.5024407,25.053711 18.3571785,25.0573731 18.208252,25.0549316 C18.0593254,25.0524902 17.9140632,25.0390626 17.7724609,25.0146484 C17.6601557,24.9902343 17.5454107,24.959717 17.4282227,24.9230957 C17.3110346,24.8864744 17.1962896,24.8608399 17.0839844,24.8461914 C17.0742187,24.8413086 17.053467,24.8376465 17.0217285,24.8352051 C16.9899901,24.8327637 16.9558107,24.831543 16.9191895,24.831543 C16.8825682,24.831543 16.8483888,24.8303223 16.8166504,24.8278809 C16.784912,24.8254394 16.7641602,24.8242188 16.7543945,24.8242188 C16.7446289,24.8242188 16.720215,24.8266601 16.6811523,24.831543 C16.6420896,24.8364258 16.6005862,24.8400879 16.5566406,24.8425293 C16.5126951,24.8449707 16.4724123,24.8474121 16.435791,24.8498535 C16.3991697,24.8522949 16.3735352,24.8510742 16.3588867,24.8461914 C16.3442382,24.8461914 16.3198244,24.8376466 16.2856445,24.8205566 C16.2514647,24.8034667 16.234375,24.782715 16.234375,24.7583008 L16.234375,24.7290039 C16.2294922,24.7045897 16.2307129,24.6606448 16.2380371,24.597168 C16.2453614,24.5336911 16.2514648,24.4921876 16.2563477,24.4726562 C16.3247074,24.4482421 16.3759764,24.4055179 16.4101562,24.3444824 C16.4443361,24.283447 16.4736327,24.2236331 16.4980469,24.1650391 C16.5615238,23.9746084 16.6249997,23.7854013 16.6884766,23.5974121 C16.7519534,23.4094229 16.8203121,23.2226572 16.8935547,23.0371094 C16.9667972,22.8271474 17.0559077,22.6257334 17.1608887,22.4328613 C17.2658697,22.2399893 17.3623042,22.0385753 17.4501953,21.8286133 C17.4501953,21.8188476 17.4550781,21.7993166 17.4648438,21.7700195 C17.4746094,21.7407225 17.484375,21.7089845 17.4941406,21.6748047 C17.5039063,21.6406248 17.5136718,21.6088869 17.5234375,21.5795898 C17.5332032,21.5502928 17.5405273,21.5307618 17.5454102,21.5209961 C17.550293,21.5063476 17.566162,21.4685062 17.5930176,21.4074707 C17.6198732,21.3464352 17.6479491,21.2829593 17.6772461,21.217041 C17.7065431,21.1511227 17.7333983,21.0876468 17.7578125,21.0266113 C17.7822267,20.9655759 17.7993164,20.9277344 17.809082,20.9130859 C17.809082,20.9033203 17.8164062,20.8789064 17.8310547,20.8398438 C17.8457032,20.8007811 17.8603515,20.7592776 17.875,20.715332 C17.8896485,20.6713865 17.9042968,20.629883 17.9189453,20.5908203 C17.9335938,20.5517576 17.940918,20.5273438 17.940918,20.5175781 C18.0092777,20.3466788 18.0861812,20.1867683 18.1716309,20.0378418 C18.2570805,19.8889153 18.3315427,19.7192392 18.3950195,19.5288086 C18.5219733,19.1186503 18.6599114,18.7109395 18.8088379,18.3056641 C18.9577644,17.9003886 19.1030266,17.4975606 19.2446289,17.097168 C19.3520513,16.7944321 19.4655756,16.4929214 19.5852051,16.192627 C19.7048346,15.8923325 19.8232416,15.5883804 19.9404297,15.2807617 C19.9404297,15.2758789 19.9440918,15.2563478 19.951416,15.222168 C19.9587403,15.1879881 19.9685058,15.1513674 19.9807129,15.1123047 C19.99292,15.073242 20.0039062,15.037842 20.0136719,15.0061035 C20.0234375,14.9743651 20.0307617,14.9536133 20.0356445,14.9438477 C20.0454102,14.934082 20.0588378,14.9047854 20.0759277,14.855957 C20.0930177,14.8071287 20.1064453,14.7778321 20.1162109,14.7680664 C20.1162109,14.7631836 20.119873,14.749756 20.1271973,14.7277832 L20.1491699,14.6618652 C20.1564942,14.6398925 20.1625976,14.6191407 20.1674805,14.5996094 C20.1723633,14.580078 20.1748047,14.5678711 20.1748047,14.5629883 C20.1796875,14.5434569 20.1918944,14.5092776 20.2114258,14.4604492 C20.2309571,14.4116208 20.2492675,14.3615725 20.2663574,14.3103027 C20.2834474,14.2590329 20.300537,14.211426 20.317627,14.1674805 C20.3347169,14.1235349 20.3457031,14.0942384 20.3505859,14.0795898 C20.3554688,14.074707 20.3652343,14.055176 20.3798828,14.0209961 C20.3945313,13.9868162 20.4104003,13.9489748 20.4274902,13.9074707 C20.4445802,13.8659666 20.4604491,13.8281252 20.4750977,13.7939453 C20.4897462,13.7597655 20.4970703,13.7353516 20.4970703,13.7207031 C20.5019531,13.7060546 20.5117187,13.6804201 20.5263672,13.6437988 C20.5410157,13.6071776 20.5568847,13.5693361 20.5739746,13.5302734 C20.5910645,13.4912107 20.6069335,13.4533693 20.621582,13.416748 C20.6362305,13.3801268 20.6484375,13.3544923 20.6582031,13.3398438 C20.6582031,13.3300781 20.6618652,13.3068849 20.6691895,13.2702637 C20.6765137,13.2336424 20.6850585,13.215332 20.6948242,13.215332 C20.6948242,13.2006835 20.7033691,13.1738283 20.720459,13.1347656 C20.7375489,13.0957029 20.7558593,13.0541994 20.7753906,13.0102539 C20.794922,12.9663084 20.814453,12.9248049 20.8339844,12.8857422 L20.8706055,12.8125 C20.885254,12.7880858 20.9023437,12.7465823 20.921875,12.6879883 C20.9414063,12.6293942 20.9658202,12.6000977 20.9951172,12.6000977 L21.0244141,12.5927734 C21.2148447,12.6171876 21.4016104,12.6367187 21.5847168,12.6513672 C21.7678232,12.6660157 21.9570303,12.6684571 22.1523438,12.6586914 C22.3623057,12.6489257 22.5246576,12.6489257 22.6394043,12.6586914 C22.754151,12.6684571 22.8432614,12.6782226 22.9067383,12.6879883 C22.9702152,12.697754 23.0190428,12.7050781 23.0532227,12.7099609 C23.0874025,12.7148438 23.1313474,12.7050782 23.1850586,12.6806641 C23.2094728,12.6806641 23.2436521,12.6879882 23.2875977,12.7026367 C23.3315432,12.7172852 23.3754881,12.7368163 23.4194336,12.7612305 C23.4633791,12.7856447 23.5036619,12.8100585 23.5402832,12.8344727 C23.5769045,12.8588868 23.6000976,12.8784179 23.6098633,12.8930664 C23.6342775,12.9321291 23.6733396,12.9943843 23.7270508,13.079834 C23.780762,13.1652836 23.8356931,13.2543941 23.8918457,13.347168 C23.9479983,13.4399419 24.000488,13.5290523 24.0493164,13.614502 C24.0981448,13.6999516 24.1347655,13.7646482 24.1591797,13.8085938 C24.2324222,13.9404303 24.3142085,14.0905753 24.404541,14.2590332 C24.4948735,14.4274911 24.5668943,14.5849602 24.6206055,14.7314453 C24.6303711,14.7460938 24.6413574,14.7680663 24.6535645,14.7973633 C24.6657715,14.8266603 24.671875,14.8461914 24.671875,14.855957 C24.6767578,14.8657227 24.6865234,14.8815917 24.7011719,14.9035645 C24.7158204,14.9255372 24.7304687,14.949951 24.7451172,14.9768066 C24.7597657,15.0036622 24.7731933,15.0292968 24.7854004,15.0537109 C24.7976075,15.0781251 24.8037109,15.0927734 24.8037109,15.0976562 C24.920899,15.3417981 25.0124508,15.5883777 25.0783691,15.8374023 C25.1442874,16.086427 25.2285151,16.335448 25.3310547,16.5844727 C25.4287114,16.813966 25.5361322,17.0397938 25.6533203,17.2619629 C25.7705084,17.484132 25.8779292,17.7124012 25.9755859,17.9467773 C25.9804688,17.956543 25.991455,17.9846189 26.0085449,18.0310059 C26.0256349,18.0773928 26.0451659,18.1274411 26.0671387,18.1811523 C26.0891114,18.2348635 26.1098632,18.2861326 26.1293945,18.3349609 C26.1489259,18.3837893 26.1611328,18.4130859 26.1660156,18.4228516 C26.2343753,18.5937509 26.3161616,18.7585441 26.411377,18.9172363 C26.5065923,19.0759285 26.5859372,19.2407218 26.6494141,19.4116211 C26.800782,19.7875995 26.9448235,20.1660137 27.081543,20.546875 C27.2182624,20.9277363 27.3549798,21.3098125 27.4916992,21.6931152 C27.6284187,22.0764179 27.7724602,22.4560528 27.9238281,22.8320312 C28.0751961,23.2080097 28.2436514,23.5790997 28.4291992,23.9453125 C28.4340821,23.9550782 28.4487303,23.979492 28.4731445,24.0185547 C28.4975587,24.0576174 28.5231932,24.1003416 28.5500488,24.1467285 C28.5769044,24.1931155 28.6013182,24.2370603 28.623291,24.2785645 C28.6452638,24.3200686 28.6611328,24.3457031 28.6708984,24.3554688 C28.6806641,24.3750001 28.6977538,24.4104001 28.722168,24.4616699 C28.7465822,24.5129397 28.7587891,24.543457 28.7587891,24.5532227 C28.7587891,24.5629883 28.755127,24.5825194 28.7478027,24.6118164 C28.7404785,24.6411134 28.7319336,24.6630859 28.722168,24.6777344 C28.7172851,24.6875 28.6892092,24.699707 28.6379395,24.7143555 C28.5866697,24.729004 28.5292972,24.7424316 28.4658203,24.7546387 C28.4023434,24.7668458 28.3413089,24.777832 28.2827148,24.7875977 C28.2241208,24.7973633 28.1875001,24.8022461 28.1728516,24.8022461 C27.9677724,24.8168946 27.7663584,24.8156739 27.5686035,24.798584 C27.3708486,24.7814941 27.1694346,24.7802734 26.9643555,24.7949219 C26.9057614,24.7998047 26.8508303,24.8168944 26.7995605,24.8461914 C26.7482908,24.8754884 26.6909183,24.8950195 26.6274414,24.9047852 C26.6176757,24.9047852 26.5847171,24.9060058 26.5285645,24.9084473 C26.4724118,24.9108887 26.432129,24.9145508 26.4077148,24.9194336 C26.373535,24.9194336 26.3271487,24.921875 26.2685547,24.9267578 C26.2099606,24.9316406 26.1757813,24.934082 26.1660156,24.934082 C26.1416014,24.934082 26.1062014,24.9316406 26.0598145,24.9267578 C26.0134275,24.921875 25.9645999,24.9157715 25.9133301,24.9084473 C25.8620603,24.901123 25.815674,24.8876954 25.7741699,24.8681641 C25.7326658,24.8486327 25.7045899,24.8242189 25.6899414,24.7949219 L25.2431641,23.7329102 Z M21.4052734,19.7998047 C21.5566414,19.7753905 21.7080071,19.7631836 21.859375,19.7631836 C22.0107429,19.7631836 22.1633293,19.7680664 22.3171387,19.777832 C22.470948,19.7875977 22.6235344,19.7961425 22.7749023,19.8034668 C22.9262703,19.8107911 23.077636,19.8095704 23.2290039,19.7998047 C23.2436524,19.7998047 23.2692869,19.798584 23.3059082,19.7961426 C23.3425295,19.7937012 23.3803709,19.7912598 23.4194336,19.7888184 C23.4584963,19.7863769 23.4938963,19.7839356 23.5256348,19.7814941 C23.5573732,19.7790527 23.5805663,19.777832 23.5952148,19.777832 C23.6538089,19.7534178 23.6904296,19.729004 23.7050781,19.7045898 C23.7197266,19.6801757 23.722168,19.6362308 23.7124023,19.5727539 L23.7124023,19.4702148 C23.7075195,19.465332 23.6989747,19.449463 23.6867676,19.4226074 C23.6745605,19.3957518 23.6635743,19.3676759 23.6538086,19.3383789 L23.6245117,19.2504883 C23.614746,19.2211913 23.6074219,19.2016602 23.6025391,19.1918945 L23.5256348,19.0124512 C23.4890135,18.9270015 23.4499514,18.8391118 23.4084473,18.7487793 C23.3669432,18.6584468 23.327881,18.5729984 23.2912598,18.4924316 C23.2546385,18.4118648 23.229004,18.3569337 23.2143555,18.3276367 C23.199707,18.3032225 23.1752931,18.2604984 23.1411133,18.1994629 C23.1069334,18.1384274 23.0800782,18.0981446 23.0605469,18.0786133 C23.0605469,18.0688476 23.04834,18.05542 23.0239258,18.0383301 C22.9995116,18.0212401 22.9848633,18.0078125 22.9799805,17.9980469 C22.9702148,17.9882812 22.9592286,17.9553225 22.9470215,17.8991699 C22.9348144,17.8430173 22.9287109,17.8076173 22.9287109,17.7929688 C22.9189453,17.7734374 22.9006349,17.7331546 22.8737793,17.6721191 C22.8469237,17.6110837 22.8286133,17.5683595 22.8188477,17.5439453 C22.8041991,17.5195311 22.781006,17.4743656 22.7492676,17.4084473 C22.7175291,17.342529 22.6833498,17.2729496 22.6467285,17.199707 C22.6101072,17.1264645 22.5759279,17.0568851 22.5441895,16.9909668 C22.512451,16.9250485 22.4892579,16.8798829 22.4746094,16.8554688 C22.4648437,16.8310546 22.4416506,16.7883304 22.4050293,16.7272949 C22.368408,16.6662595 22.3452149,16.628418 22.3354492,16.6137695 L22.3208008,16.5991211 C22.3159179,16.5991211 22.3085938,16.6040039 22.2988281,16.6137695 L22.2915039,16.6210938 C22.2817382,16.6308594 22.2683106,16.6503905 22.2512207,16.6796875 C22.2341308,16.7089845 22.2255859,16.7285156 22.2255859,16.7382812 C22.2207031,16.7529298 22.2084962,16.7871091 22.1889648,16.8408203 C22.1694335,16.8945315 22.1499024,16.9506833 22.1303711,17.0092773 L22.0754395,17.1740723 C22.0583495,17.2253421 22.0498047,17.2558593 22.0498047,17.265625 C22.040039,17.2753907 22.0266114,17.2985838 22.0095215,17.3352051 C21.9924316,17.3718264 21.9729005,17.4121092 21.9509277,17.4560547 L21.8886719,17.5805664 C21.8691405,17.6196291 21.8544922,17.6440429 21.8447266,17.6538086 C21.7226556,17.9614273 21.6091314,18.2653794 21.5041504,18.5656738 C21.3991694,18.8659683 21.2880865,19.167479 21.1708984,19.4702148 C21.1708984,19.4750977 21.1672364,19.4909667 21.1599121,19.5178223 C21.1525879,19.5446779 21.1428223,19.5739745 21.1306152,19.6057129 C21.1184081,19.6374513 21.1086426,19.6667479 21.1013184,19.6936035 C21.0939941,19.7204591 21.090332,19.7363281 21.090332,19.7412109 C21.0805664,19.7509766 21.0769043,19.7607421 21.0793457,19.7705078 C21.0817871,19.7802735 21.0830078,19.790039 21.0830078,19.7998047 C21.0976563,19.7998047 21.1208495,19.7937012 21.1525879,19.7814941 C21.1843263,19.769287 21.217285,19.7595215 21.2514648,19.7521973 C21.2856447,19.744873 21.3173827,19.7436523 21.3466797,19.7485352 C21.3759767,19.753418 21.3955078,19.7705077 21.4052734,19.7998047 Z M28.890625,21.5063477 C28.890625,21.467285 28.8979491,21.4306642 28.9125977,21.3964844 C28.9272462,21.3623045 28.9345703,21.3256838 28.9345703,21.2866211 C28.9345703,21.1352531 28.9272462,20.9875495 28.9125977,20.8435059 C28.8979491,20.6994622 28.890625,20.5517586 28.890625,20.4003906 L28.890625,20.1000977 C28.9052735,19.7875961 28.9284666,19.4873061 28.9602051,19.1992188 C28.9919435,18.9111314 29.0383298,18.6291518 29.0993652,18.3532715 C29.1604007,18.0773912 29.2385249,17.8051771 29.3337402,17.5366211 C29.4289556,17.2680651 29.5473626,16.9970717 29.6889648,16.7236328 C29.6938477,16.7138671 29.7072753,16.6882326 29.729248,16.6467285 C29.7512208,16.6052244 29.7731932,16.5612795 29.795166,16.5148926 C29.8171388,16.4685056 29.8378905,16.4245608 29.8574219,16.3830566 C29.8769532,16.3415525 29.8891601,16.315918 29.894043,16.3061523 C29.9038086,16.2915038 29.9257811,16.2622073 29.9599609,16.2182617 C29.9941408,16.1743162 30.0185546,16.147461 30.0332031,16.1376953 C30.0527345,16.1132811 30.0869138,16.0766604 30.1357422,16.027832 L30.2822266,15.8813477 C30.3310549,15.8325193 30.3762205,15.7885744 30.4177246,15.7495117 C30.4592287,15.710449 30.4848632,15.6860352 30.4946289,15.6762695 C30.4995117,15.6713867 30.5153807,15.6591798 30.5422363,15.6396484 C30.5690919,15.6201171 30.6008299,15.5993653 30.6374512,15.5773926 C30.6740724,15.5554198 30.7094725,15.5334474 30.7436523,15.5114746 C30.7778322,15.4895018 30.8046874,15.4736329 30.8242188,15.4638672 C30.8437501,15.4541015 30.8706053,15.4394532 30.9047852,15.4199219 C30.938965,15.4003905 30.9731444,15.3820802 31.0073242,15.3649902 C31.0415041,15.3479003 31.0744627,15.333252 31.1062012,15.3210449 C31.1379396,15.3088378 31.1586914,15.3027344 31.168457,15.3027344 C31.1977541,15.2880859 31.2539058,15.2648927 31.3369141,15.2331543 C31.4199223,15.2014159 31.5090327,15.1696779 31.604248,15.1379395 C31.6994634,15.106201 31.7885738,15.0781251 31.871582,15.0537109 C31.9545903,15.0292968 32.0156248,15.0122071 32.0546875,15.0024414 L32.1425781,14.9804688 C32.1816408,14.9707031 32.2231443,14.9609375 32.2670898,14.9511719 C32.3110354,14.9414062 32.3537596,14.9328614 32.3952637,14.9255371 C32.4367678,14.9182129 32.4648437,14.9121094 32.4794922,14.9072266 L32.8676758,14.9072266 C33.0483407,14.9072266 33.2094719,14.9218749 33.3510742,14.9511719 C33.4926765,14.9804689 33.6489249,15.019531 33.8198242,15.0683594 C34.0102549,15.1025392 34.1957999,15.1525876 34.3764648,15.2185059 C34.5571298,15.2844242 34.7316886,15.360107 34.9001465,15.4455566 C35.0686044,15.5310063 35.2309562,15.618896 35.387207,15.7092285 C35.5434578,15.799561 35.6923821,15.8837887 35.8339844,15.9619141 C35.8388672,15.9570312 35.84375,15.9411622 35.8486328,15.9143066 C35.8535156,15.887451 35.8583984,15.8581545 35.8632812,15.826416 C35.8681641,15.7946776 35.8718262,15.7641603 35.8742676,15.7348633 C35.876709,15.7055663 35.8779297,15.6860352 35.8779297,15.6762695 L35.8779297,15.6176758 C35.8779297,15.3881824 35.8706055,15.1599132 35.855957,14.9328613 C35.8413085,14.7058094 35.8339844,14.4775402 35.8339844,14.2480469 L35.8339844,13.9477539 C35.8388672,13.8940427 35.8413086,13.8208012 35.8413086,13.7280273 C35.8413086,13.6352534 35.8400879,13.5400396 35.8376465,13.4423828 C35.8352051,13.3447261 35.8327637,13.2531743 35.8303223,13.1677246 C35.8278808,13.082275 35.8266602,13.0200197 35.8266602,12.980957 C35.8364258,12.922363 35.8510741,12.8625491 35.8706055,12.8015137 C35.8901368,12.7404782 35.8999023,12.7050782 35.8999023,12.6953125 L35.9438477,12.6513672 L36.0756836,12.6367188 C36.1147463,12.6318359 36.151367,12.6269531 36.1855469,12.6220703 C36.2197267,12.6171875 36.2490233,12.6123047 36.2734375,12.6074219 C36.439454,12.5976562 36.5847162,12.5903321 36.7092285,12.5854492 C36.8337409,12.5805664 36.9667962,12.578125 37.1083984,12.578125 C37.2304694,12.578125 37.3415522,12.5744629 37.4416504,12.5671387 C37.5417485,12.5598144 37.6394038,12.553711 37.7346191,12.5488281 C37.8298345,12.5439453 37.9274897,12.5427246 38.0275879,12.545166 C38.127686,12.5476074 38.2363275,12.5585937 38.3535156,12.578125 C38.4658209,12.6416019 38.5292968,12.712402 38.5439453,12.7905273 C38.5439453,12.800293 38.545166,12.8234861 38.5476074,12.8601074 C38.5500488,12.8967287 38.5512695,12.9345701 38.5512695,12.9736328 C38.5512695,13.0126955 38.5524902,13.0505369 38.5549316,13.0871582 C38.5573731,13.1237795 38.5585938,13.149414 38.5585938,13.1640625 C38.5585938,13.1884767 38.5573731,13.2214353 38.5549316,13.2629395 C38.5524902,13.3044436 38.5512695,13.3447264 38.5512695,13.3837891 C38.5512695,13.4228518 38.5500488,13.4582518 38.5476074,13.4899902 C38.545166,13.5217287 38.5439453,13.540039 38.5439453,13.5449219 C38.5341796,13.8037122 38.5280762,14.0539539 38.5256348,14.2956543 C38.5231933,14.5373547 38.5219727,14.7766101 38.5219727,15.0134277 C38.5219727,15.2502453 38.5195313,15.4895007 38.5146484,15.7312012 C38.5097656,15.9729016 38.5024415,16.2231432 38.4926758,16.4819336 C38.4829101,16.7602553 38.4719239,17.0568832 38.4597168,17.3718262 C38.4475097,17.6867692 38.4414062,17.983397 38.4414062,18.2617188 C38.4414062,18.3007814 38.4426269,18.3886712 38.4450684,18.5253906 C38.4475098,18.6621101 38.4499512,18.8098137 38.4523926,18.9685059 C38.454834,19.1271981 38.4572754,19.2761224 38.4597168,19.4152832 C38.4621582,19.5544441 38.4633789,19.6435545 38.4633789,19.6826172 C38.4633789,19.6875 38.4621582,19.7119138 38.4597168,19.7558594 C38.4572754,19.7998049 38.4560547,19.8522946 38.4560547,19.9133301 C38.4560547,19.9743655 38.454834,20.0366208 38.4523926,20.1000977 C38.4499512,20.1635745 38.4487305,20.2124022 38.4487305,20.246582 C38.4487305,20.2856447 38.4499512,20.3369137 38.4523926,20.4003906 C38.454834,20.4638675 38.4560547,20.5273434 38.4560547,20.5908203 C38.4560547,20.6542972 38.4572754,20.7116697 38.4597168,20.7629395 C38.4621582,20.8142092 38.4633789,20.8422851 38.4633789,20.847168 C38.4633789,20.8618165 38.4597168,20.8959958 38.4523926,20.949707 C38.4450683,21.0034182 38.4377442,21.05957 38.4304199,21.1181641 C38.4230957,21.1767581 38.4157715,21.2316892 38.4084473,21.282959 C38.401123,21.3342288 38.3974609,21.3671874 38.3974609,21.3818359 C38.4023438,21.4062501 38.4035645,21.4575191 38.401123,21.5356445 C38.3986816,21.6137699 38.3950196,21.6967769 38.3901367,21.784668 C38.3852539,21.872559 38.3815918,21.9567867 38.3791504,22.0373535 C38.376709,22.1179203 38.3754883,22.1728514 38.3754883,22.2021484 C38.3754883,22.2265626 38.3742676,22.2924799 38.3718262,22.3999023 C38.3693848,22.5073248 38.3669434,22.6220697 38.364502,22.7441406 C38.3620605,22.8662115 38.3596192,22.9809565 38.3571777,23.0883789 C38.3547363,23.1958013 38.3535156,23.2617186 38.3535156,23.2861328 C38.3535156,23.2958985 38.3547363,23.3239744 38.3571777,23.3703613 C38.3596192,23.4167483 38.3608398,23.4716794 38.3608398,23.5351562 C38.3608398,23.5986331 38.3620605,23.6621091 38.364502,23.7255859 C38.3669434,23.7890628 38.3681641,23.8378905 38.3681641,23.8720703 C38.3681641,23.8964845 38.3669434,23.9465328 38.364502,24.0222168 C38.3620605,24.0979008 38.3608398,24.1796871 38.3608398,24.2675781 C38.3608398,24.3554692 38.3596192,24.4384762 38.3571777,24.5166016 C38.3547363,24.594727 38.3535156,24.6435546 38.3535156,24.6630859 C38.34375,24.7656255 38.2851568,24.838867 38.1777344,24.8828125 C38.070312,24.926758 37.9506843,24.9536132 37.8188477,24.9633789 C37.6870111,24.9731446 37.5637213,24.975586 37.4489746,24.9707031 C37.3342279,24.9658203 37.2670899,24.9682617 37.2475586,24.9780273 L37.027832,24.9780273 C36.9497066,24.9780273 36.8764652,24.9926756 36.8081055,25.0219727 L35.8779297,25.0219727 L35.8046875,24.9414062 L35.7167969,24.2236328 C35.5166006,24.4091806 35.3042003,24.5532221 35.0795898,24.6557617 C34.8549793,24.7583013 34.6389171,24.8376462 34.4313965,24.8937988 C34.2238759,24.9499515 34.0322274,24.9865722 33.8564453,25.0036621 C33.6806632,25.020752 33.5415044,25.0341796 33.4389648,25.0439453 L33.2045898,25.0439453 C33.1313473,25.0390625 33.0349127,25.0341797 32.9152832,25.0292969 C32.7956537,25.024414 32.6735846,25.020752 32.5490723,25.0183105 C32.4245599,25.0158691 32.3122564,25.0122071 32.2121582,25.0073242 C32.11206,25.0024414 32.044922,24.9975586 32.0107422,24.9926758 C31.9765623,24.9877929 31.9228519,24.9768067 31.8496094,24.9597168 C31.7763668,24.9426269 31.6994633,24.9255372 31.6188965,24.9084473 C31.5383297,24.8913573 31.4626468,24.873047 31.3918457,24.8535156 C31.3210446,24.8339843 31.2734376,24.819336 31.2490234,24.8095703 C31.2343749,24.8046875 31.202637,24.7912599 31.1538086,24.7692871 C31.1049802,24.7473143 31.0537112,24.7229005 31,24.6960449 C30.9462888,24.6691893 30.8962405,24.6423341 30.8498535,24.6154785 C30.8034666,24.5886229 30.7705079,24.5678712 30.7509766,24.5532227 C30.7265624,24.5385741 30.6850589,24.5117189 30.6264648,24.4726562 L30.4396973,24.3481445 C30.373779,24.304199 30.3139651,24.2626955 30.2602539,24.2236328 C30.2065427,24.1845701 30.169922,24.1552735 30.1503906,24.1357422 C30.1210936,24.1015623 30.0942384,24.0698244 30.0698242,24.0405273 C30.04541,24.0161132 30.0209962,23.989258 29.996582,23.9599609 C29.9721678,23.9306639 29.9526368,23.9086915 29.9379883,23.894043 C29.8208002,23.7377922 29.7243656,23.5827644 29.6486816,23.4289551 C29.5729977,23.2751457 29.4912114,23.1054697 29.4033203,22.9199219 C29.3496091,22.8076166 29.2934573,22.6892096 29.2348633,22.5646973 C29.1762692,22.4401849 29.1323244,22.3193365 29.1030273,22.2021484 C29.0981445,22.1923828 29.0895997,22.1606448 29.0773926,22.1069336 C29.0651855,22.0532224 29.0529786,21.9946292 29.0407715,21.9311523 C29.0285644,21.8676755 29.0163575,21.8090823 29.0041504,21.7553711 C28.9919433,21.7016599 28.9833985,21.6699219 28.9785156,21.6601562 C28.96875,21.6503906 28.9541017,21.6284181 28.9345703,21.5942383 C28.915039,21.5600584 28.9003907,21.538086 28.890625,21.5283203 L28.890625,21.5063477 Z M32.2670898,21.8212891 C32.2670898,21.8261719 32.2792968,21.8432616 32.3037109,21.8725586 C32.3281251,21.9018556 32.3574217,21.9335936 32.3916016,21.9677734 C32.4257814,22.0019533 32.4624021,22.0373533 32.5014648,22.0739746 C32.5405275,22.1105959 32.5722655,22.1386718 32.5966797,22.1582031 C32.6064454,22.1679688 32.6333006,22.1826171 32.6772461,22.2021484 C32.7211916,22.2216798 32.7480468,22.2363281 32.7578125,22.2460938 C32.7675782,22.2558594 32.7907713,22.2705077 32.8273926,22.2900391 C32.8640139,22.3095704 32.887207,22.3242187 32.8969727,22.3339844 C32.9116212,22.34375 32.9396971,22.3583983 32.9812012,22.3779297 C33.0227053,22.397461 33.0483398,22.4072266 33.0581055,22.4072266 C33.1411137,22.4414064 33.2131345,22.4584961 33.2741699,22.4584961 L33.512207,22.4584961 C33.751466,22.4584961 33.9895008,22.419434 34.2263184,22.3413086 C34.4631359,22.2631832 34.7084948,22.1386727 34.9624023,21.9677734 C35.0063479,21.9287107 35.0539548,21.89209 35.1052246,21.8579102 C35.1564944,21.8237303 35.20166,21.7871096 35.2407227,21.7480469 C35.2407227,21.743164 35.2529296,21.7260744 35.2773438,21.6967773 C35.3017579,21.6674803 35.3298338,21.6345217 35.3615723,21.5979004 C35.3933107,21.5612791 35.4226073,21.5283205 35.4494629,21.4990234 C35.4763185,21.4697264 35.4921875,21.4501954 35.4970703,21.4404297 C35.506836,21.4208983 35.5251464,21.386719 35.552002,21.3378906 C35.5788576,21.2890623 35.6057128,21.2377932 35.6325684,21.184082 C35.659424,21.1303708 35.6862792,21.0803225 35.7131348,21.0339355 C35.7399904,20.9875486 35.7583007,20.9521486 35.7680664,20.9277344 C35.7827149,20.8886717 35.7937011,20.8581544 35.8010254,20.8361816 C35.8083496,20.8142089 35.8120117,20.7836916 35.8120117,20.7446289 L35.8413086,20.6494141 C35.8559571,20.6054685 35.8754882,20.5358891 35.8999023,20.4406738 C35.9243165,20.3454585 35.9584959,20.2124032 36.0024414,20.0415039 C36.0024414,20.0317382 36.0073242,19.9963382 36.0170898,19.9353027 C36.0268555,19.8742673 36.036621,19.8242189 36.0463867,19.7851562 C36.0512696,19.7607421 36.0549316,19.72168 36.057373,19.6679688 C36.0598145,19.6142575 36.0610352,19.5556644 36.0610352,19.4921875 L36.0610352,19.2578125 C36.0610352,19.243164 36.0598145,19.2138674 36.057373,19.1699219 C36.0549316,19.1259763 36.0512696,19.0795901 36.0463867,19.0307617 C36.0415039,18.9819333 36.0366211,18.9355471 36.0317383,18.8916016 C36.0268554,18.847656 36.0219727,18.8159181 36.0170898,18.7963867 C36.0170898,18.786621 36.0122071,18.7719728 36.0024414,18.7524414 C35.9926757,18.7329101 35.9829102,18.7182618 35.9731445,18.7084961 C35.9633789,18.6987304 35.9475099,18.6804201 35.9255371,18.6535645 C35.9035643,18.6267089 35.8791505,18.5974123 35.8522949,18.5656738 C35.8254393,18.5339354 35.7985841,18.5034181 35.7717285,18.4741211 C35.7448729,18.4448241 35.7265625,18.4228516 35.7167969,18.4082031 C35.5800774,18.2666009 35.4299325,18.1372076 35.2663574,18.0200195 C35.1027824,17.9028314 34.9282236,17.8051762 34.7426758,17.7270508 C34.7329101,17.7270508 34.7084963,17.722168 34.6694336,17.7124023 C34.6499022,17.7075195 34.6328126,17.7026367 34.6181641,17.6977539 L33.6147461,17.6977539 C33.5903319,17.6538084 33.5695802,17.6281739 33.5524902,17.6208496 C33.5354003,17.6135254 33.5073244,17.6098633 33.4682617,17.6098633 C33.3803707,17.6098633 33.2851568,17.6196288 33.1826172,17.6391602 C33.0800776,17.6586915 32.979981,17.6892088 32.8823242,17.7307129 C32.7846675,17.772217 32.691895,17.8210446 32.6040039,17.8771973 C32.5161128,17.9333499 32.4428714,17.9980465 32.3842773,18.0712891 C32.3745117,18.0859376 32.3537599,18.1164548 32.3220215,18.1628418 C32.290283,18.2092287 32.2536623,18.2617185 32.2121582,18.3203125 C32.1706541,18.3789065 32.131592,18.436279 32.0949707,18.4924316 C32.0583494,18.5485843 32.0302735,18.5888671 32.0107422,18.6132812 C32.0107422,18.6230469 32.003418,18.6389159 31.9887695,18.6608887 C31.974121,18.6828614 31.9667969,18.6987304 31.9667969,18.7084961 C31.8837886,18.8549812 31.8068851,19.0002434 31.736084,19.1442871 C31.6652828,19.2883308 31.6176759,19.4506827 31.5932617,19.6313477 C31.5883789,19.6557618 31.5834961,19.6936033 31.5786133,19.744873 C31.5737304,19.7961428 31.5688477,19.8510739 31.5639648,19.909668 C31.559082,19.968262 31.5554199,20.0219724 31.5529785,20.0708008 C31.5505371,20.1196292 31.5493164,20.1538085 31.5493164,20.1733398 C31.5493164,20.1879884 31.5541992,20.2233884 31.5639648,20.279541 C31.5737305,20.3356936 31.583496,20.3710937 31.5932617,20.3857422 L31.6591797,20.5834961 C31.6884767,20.6713872 31.7177733,20.7604976 31.7470703,20.8508301 C31.7763673,20.9411626 31.8032225,21.0241695 31.8276367,21.0998535 C31.8520509,21.1755375 31.8691406,21.2231444 31.8789062,21.2426758 L32.2670898,21.8212891 Z M39.1958008,21.5063477 C39.1958008,21.467285 39.2031249,21.4306642 39.2177734,21.3964844 C39.2324219,21.3623045 39.2397461,21.3256838 39.2397461,21.2866211 C39.2397461,21.1352531 39.2324219,20.9875495 39.2177734,20.8435059 C39.2031249,20.6994622 39.1958008,20.5517586 39.1958008,20.4003906 L39.1958008,20.1000977 C39.2104493,19.7875961 39.2336424,19.4873061 39.2653809,19.1992188 C39.2971193,18.9111314 39.3435056,18.6291518 39.404541,18.3532715 C39.4655765,18.0773912 39.5437007,17.8051771 39.638916,17.5366211 C39.7341313,17.2680651 39.8525384,16.9970717 39.9941406,16.7236328 C39.9990235,16.7138671 40.0124511,16.6882326 40.0344238,16.6467285 C40.0563966,16.6052244 40.078369,16.5612795 40.1003418,16.5148926 C40.1223146,16.4685056 40.1430663,16.4245608 40.1625977,16.3830566 C40.182129,16.3415525 40.1943359,16.315918 40.1992188,16.3061523 C40.2089844,16.2915038 40.2309569,16.2622073 40.2651367,16.2182617 C40.2993166,16.1743162 40.3237304,16.147461 40.3383789,16.1376953 C40.3579103,16.1132811 40.3920896,16.0766604 40.440918,16.027832 L40.5874023,15.8813477 C40.6362307,15.8325193 40.6813963,15.7885744 40.7229004,15.7495117 C40.7644045,15.710449 40.790039,15.6860352 40.7998047,15.6762695 C40.8046875,15.6713867 40.8205565,15.6591798 40.8474121,15.6396484 C40.8742677,15.6201171 40.9060057,15.5993653 40.942627,15.5773926 C40.9792482,15.5554198 41.0146483,15.5334474 41.0488281,15.5114746 C41.083008,15.4895018 41.1098632,15.4736329 41.1293945,15.4638672 C41.1489259,15.4541015 41.1757811,15.4394532 41.2099609,15.4199219 C41.2441408,15.4003905 41.2783201,15.3820802 41.3125,15.3649902 C41.3466799,15.3479003 41.3796385,15.333252 41.411377,15.3210449 C41.4431154,15.3088378 41.4638671,15.3027344 41.4736328,15.3027344 C41.5029298,15.2880859 41.5590816,15.2648927 41.6420898,15.2331543 C41.7250981,15.2014159 41.8142085,15.1696779 41.9094238,15.1379395 C42.0046391,15.106201 42.0937496,15.0781251 42.1767578,15.0537109 C42.259766,15.0292968 42.3208006,15.0122071 42.3598633,15.0024414 L42.4477539,14.9804688 C42.4868166,14.9707031 42.5283201,14.9609375 42.5722656,14.9511719 C42.6162112,14.9414062 42.6589353,14.9328614 42.7004395,14.9255371 C42.7419436,14.9182129 42.7700195,14.9121094 42.784668,14.9072266 L43.1728516,14.9072266 C43.3535165,14.9072266 43.5146477,14.9218749 43.65625,14.9511719 C43.7978523,14.9804689 43.9541007,15.019531 44.125,15.0683594 C44.3154306,15.1025392 44.5009757,15.1525876 44.6816406,15.2185059 C44.8623056,15.2844242 45.0368644,15.360107 45.2053223,15.4455566 C45.3737801,15.5310063 45.536132,15.618896 45.6923828,15.7092285 C45.8486336,15.799561 45.9975579,15.8837887 46.1391602,15.9619141 C46.144043,15.9570312 46.1489258,15.9411622 46.1538086,15.9143066 C46.1586914,15.887451 46.1635742,15.8581545 46.168457,15.826416 C46.1733399,15.7946776 46.1770019,15.7641603 46.1794434,15.7348633 C46.1818848,15.7055663 46.1831055,15.6860352 46.1831055,15.6762695 L46.1831055,15.6176758 C46.1831055,15.3881824 46.1757813,15.1599132 46.1611328,14.9328613 C46.1464843,14.7058094 46.1391602,14.4775402 46.1391602,14.2480469 L46.1391602,13.9477539 C46.144043,13.8940427 46.1464844,13.8208012 46.1464844,13.7280273 C46.1464844,13.6352534 46.1452637,13.5400396 46.1428223,13.4423828 C46.1403808,13.3447261 46.1379395,13.2531743 46.135498,13.1677246 C46.1330566,13.082275 46.1318359,13.0200197 46.1318359,12.980957 C46.1416016,12.922363 46.1562499,12.8625491 46.1757812,12.8015137 C46.1953126,12.7404782 46.2050781,12.7050782 46.2050781,12.6953125 L46.2490234,12.6513672 L46.3808594,12.6367188 C46.4199221,12.6318359 46.4565428,12.6269531 46.4907227,12.6220703 C46.5249025,12.6171875 46.5541991,12.6123047 46.5786133,12.6074219 C46.7446297,12.5976562 46.889892,12.5903321 47.0144043,12.5854492 C47.1389166,12.5805664 47.2719719,12.578125 47.4135742,12.578125 C47.5356451,12.578125 47.646728,12.5744629 47.7468262,12.5671387 C47.8469243,12.5598144 47.9445796,12.553711 48.0397949,12.5488281 C48.1350102,12.5439453 48.2326655,12.5427246 48.3327637,12.545166 C48.4328618,12.5476074 48.5415033,12.5585937 48.6586914,12.578125 C48.7709967,12.6416019 48.8344726,12.712402 48.8491211,12.7905273 C48.8491211,12.800293 48.8503418,12.8234861 48.8527832,12.8601074 C48.8552246,12.8967287 48.8564453,12.9345701 48.8564453,12.9736328 C48.8564453,13.0126955 48.857666,13.0505369 48.8601074,13.0871582 C48.8625488,13.1237795 48.8637695,13.149414 48.8637695,13.1640625 C48.8637695,13.1884767 48.8625488,13.2214353 48.8601074,13.2629395 C48.857666,13.3044436 48.8564453,13.3447264 48.8564453,13.3837891 C48.8564453,13.4228518 48.8552246,13.4582518 48.8527832,13.4899902 C48.8503418,13.5217287 48.8491211,13.540039 48.8491211,13.5449219 C48.8393554,13.8037122 48.833252,14.0539539 48.8308105,14.2956543 C48.8283691,14.5373547 48.8271484,14.7766101 48.8271484,15.0134277 C48.8271484,15.2502453 48.8247071,15.4895007 48.8198242,15.7312012 C48.8149414,15.9729016 48.8076172,16.2231432 48.7978516,16.4819336 C48.7880859,16.7602553 48.7770997,17.0568832 48.7648926,17.3718262 C48.7526855,17.6867692 48.746582,17.983397 48.746582,18.2617188 C48.746582,18.3007814 48.7478027,18.3886712 48.7502441,18.5253906 C48.7526856,18.6621101 48.7551269,18.8098137 48.7575684,18.9685059 C48.7600098,19.1271981 48.7624512,19.2761224 48.7648926,19.4152832 C48.767334,19.5544441 48.7685547,19.6435545 48.7685547,19.6826172 C48.7685547,19.6875 48.767334,19.7119138 48.7648926,19.7558594 C48.7624512,19.7998049 48.7612305,19.8522946 48.7612305,19.9133301 C48.7612305,19.9743655 48.7600098,20.0366208 48.7575684,20.1000977 C48.7551269,20.1635745 48.7539062,20.2124022 48.7539062,20.246582 C48.7539062,20.2856447 48.7551269,20.3369137 48.7575684,20.4003906 C48.7600098,20.4638675 48.7612305,20.5273434 48.7612305,20.5908203 C48.7612305,20.6542972 48.7624512,20.7116697 48.7648926,20.7629395 C48.767334,20.8142092 48.7685547,20.8422851 48.7685547,20.847168 C48.7685547,20.8618165 48.7648926,20.8959958 48.7575684,20.949707 C48.7502441,21.0034182 48.74292,21.05957 48.7355957,21.1181641 C48.7282714,21.1767581 48.7209473,21.2316892 48.713623,21.282959 C48.7062988,21.3342288 48.7026367,21.3671874 48.7026367,21.3818359 C48.7075196,21.4062501 48.7087402,21.4575191 48.7062988,21.5356445 C48.7038574,21.6137699 48.7001953,21.6967769 48.6953125,21.784668 C48.6904297,21.872559 48.6867676,21.9567867 48.6843262,22.0373535 C48.6818848,22.1179203 48.6806641,22.1728514 48.6806641,22.2021484 C48.6806641,22.2265626 48.6794434,22.2924799 48.677002,22.3999023 C48.6745605,22.5073248 48.6721192,22.6220697 48.6696777,22.7441406 C48.6672363,22.8662115 48.6647949,22.9809565 48.6623535,23.0883789 C48.6599121,23.1958013 48.6586914,23.2617186 48.6586914,23.2861328 C48.6586914,23.2958985 48.6599121,23.3239744 48.6623535,23.3703613 C48.6647949,23.4167483 48.6660156,23.4716794 48.6660156,23.5351562 C48.6660156,23.5986331 48.6672363,23.6621091 48.6696777,23.7255859 C48.6721192,23.7890628 48.6733398,23.8378905 48.6733398,23.8720703 C48.6733398,23.8964845 48.6721192,23.9465328 48.6696777,24.0222168 C48.6672363,24.0979008 48.6660156,24.1796871 48.6660156,24.2675781 C48.6660156,24.3554692 48.6647949,24.4384762 48.6623535,24.5166016 C48.6599121,24.594727 48.6586914,24.6435546 48.6586914,24.6630859 C48.6489257,24.7656255 48.5903326,24.838867 48.4829102,24.8828125 C48.3754877,24.926758 48.25586,24.9536132 48.1240234,24.9633789 C47.9921868,24.9731446 47.8688971,24.975586 47.7541504,24.9707031 C47.6394037,24.9658203 47.5722657,24.9682617 47.5527344,24.9780273 L47.3330078,24.9780273 C47.2548824,24.9780273 47.181641,24.9926756 47.1132812,25.0219727 L46.1831055,25.0219727 L46.1098633,24.9414062 L46.0219727,24.2236328 C45.8217763,24.4091806 45.6093761,24.5532221 45.3847656,24.6557617 C45.1601551,24.7583013 44.9440928,24.8376462 44.7365723,24.8937988 C44.5290517,24.9499515 44.3374032,24.9865722 44.1616211,25.0036621 C43.985839,25.020752 43.8466802,25.0341796 43.7441406,25.0439453 L43.5097656,25.0439453 C43.4365231,25.0390625 43.3400885,25.0341797 43.220459,25.0292969 C43.1008295,25.024414 42.9787604,25.020752 42.854248,25.0183105 C42.7297357,25.0158691 42.6174321,25.0122071 42.517334,25.0073242 C42.4172358,25.0024414 42.3500978,24.9975586 42.315918,24.9926758 C42.2817381,24.9877929 42.2280277,24.9768067 42.1547852,24.9597168 C42.0815426,24.9426269 42.0046391,24.9255372 41.9240723,24.9084473 C41.8435055,24.8913573 41.7678226,24.873047 41.6970215,24.8535156 C41.6262203,24.8339843 41.5786134,24.819336 41.5541992,24.8095703 C41.5395507,24.8046875 41.5078127,24.7912599 41.4589844,24.7692871 C41.410156,24.7473143 41.358887,24.7229005 41.3051758,24.6960449 C41.2514646,24.6691893 41.2014162,24.6423341 41.1550293,24.6154785 C41.1086423,24.5886229 41.0756837,24.5678712 41.0561523,24.5532227 C41.0317382,24.5385741 40.9902347,24.5117189 40.9316406,24.4726562 L40.744873,24.3481445 C40.6789547,24.304199 40.6191409,24.2626955 40.5654297,24.2236328 C40.5117185,24.1845701 40.4750978,24.1552735 40.4555664,24.1357422 C40.4262694,24.1015623 40.3994142,24.0698244 40.375,24.0405273 C40.3505858,24.0161132 40.326172,23.989258 40.3017578,23.9599609 C40.2773436,23.9306639 40.2578126,23.9086915 40.2431641,23.894043 C40.125976,23.7377922 40.0295414,23.5827644 39.9538574,23.4289551 C39.8781734,23.2751457 39.7963872,23.1054697 39.7084961,22.9199219 C39.6547849,22.8076166 39.5986331,22.6892096 39.5400391,22.5646973 C39.481445,22.4401849 39.4375001,22.3193365 39.4082031,22.2021484 C39.4033203,22.1923828 39.3947755,22.1606448 39.3825684,22.1069336 C39.3703613,22.0532224 39.3581544,21.9946292 39.3459473,21.9311523 C39.3337402,21.8676755 39.3215333,21.8090823 39.3093262,21.7553711 C39.2971191,21.7016599 39.2885742,21.6699219 39.2836914,21.6601562 C39.2739257,21.6503906 39.2592774,21.6284181 39.2397461,21.5942383 C39.2202147,21.5600584 39.2055665,21.538086 39.1958008,21.5283203 L39.1958008,21.5063477 Z M42.5722656,21.8212891 C42.5722656,21.8261719 42.5844725,21.8432616 42.6088867,21.8725586 C42.6333009,21.9018556 42.6625975,21.9335936 42.6967773,21.9677734 C42.7309572,22.0019533 42.7675779,22.0373533 42.8066406,22.0739746 C42.8457033,22.1105959 42.8774413,22.1386718 42.9018555,22.1582031 C42.9116211,22.1679688 42.9384763,22.1826171 42.9824219,22.2021484 C43.0263674,22.2216798 43.0532226,22.2363281 43.0629883,22.2460938 C43.072754,22.2558594 43.0959471,22.2705077 43.1325684,22.2900391 C43.1691896,22.3095704 43.1923828,22.3242187 43.2021484,22.3339844 C43.2167969,22.34375 43.2448728,22.3583983 43.286377,22.3779297 C43.3278811,22.397461 43.3535156,22.4072266 43.3632812,22.4072266 C43.4462895,22.4414064 43.5183102,22.4584961 43.5793457,22.4584961 L43.8173828,22.4584961 C44.0566418,22.4584961 44.2946766,22.419434 44.5314941,22.3413086 C44.7683117,22.2631832 45.0136706,22.1386727 45.2675781,21.9677734 C45.3115237,21.9287107 45.3591306,21.89209 45.4104004,21.8579102 C45.4616702,21.8237303 45.5068357,21.7871096 45.5458984,21.7480469 C45.5458984,21.743164 45.5581053,21.7260744 45.5825195,21.6967773 C45.6069337,21.6674803 45.6350096,21.6345217 45.666748,21.5979004 C45.6984865,21.5612791 45.7277831,21.5283205 45.7546387,21.4990234 C45.7814943,21.4697264 45.7973633,21.4501954 45.8022461,21.4404297 C45.8120118,21.4208983 45.8303221,21.386719 45.8571777,21.3378906 C45.8840333,21.2890623 45.9108885,21.2377932 45.9377441,21.184082 C45.9645997,21.1303708 45.9914549,21.0803225 46.0183105,21.0339355 C46.0451661,20.9875486 46.0634765,20.9521486 46.0732422,20.9277344 C46.0878907,20.8886717 46.0988769,20.8581544 46.1062012,20.8361816 C46.1135254,20.8142089 46.1171875,20.7836916 46.1171875,20.7446289 L46.1464844,20.6494141 C46.1611329,20.6054685 46.1806639,20.5358891 46.2050781,20.4406738 C46.2294923,20.3454585 46.2636717,20.2124032 46.3076172,20.0415039 C46.3076172,20.0317382 46.3125,19.9963382 46.3222656,19.9353027 C46.3320313,19.8742673 46.3417968,19.8242189 46.3515625,19.7851562 C46.3564453,19.7607421 46.3601074,19.72168 46.3625488,19.6679688 C46.3649902,19.6142575 46.3662109,19.5556644 46.3662109,19.4921875 L46.3662109,19.2578125 C46.3662109,19.243164 46.3649902,19.2138674 46.3625488,19.1699219 C46.3601074,19.1259763 46.3564453,19.0795901 46.3515625,19.0307617 C46.3466797,18.9819333 46.3417969,18.9355471 46.3369141,18.8916016 C46.3320312,18.847656 46.3271485,18.8159181 46.3222656,18.7963867 C46.3222656,18.786621 46.3173829,18.7719728 46.3076172,18.7524414 C46.2978515,18.7329101 46.288086,18.7182618 46.2783203,18.7084961 C46.2685546,18.6987304 46.2526857,18.6804201 46.2307129,18.6535645 C46.2087401,18.6267089 46.1843263,18.5974123 46.1574707,18.5656738 C46.1306151,18.5339354 46.1037599,18.5034181 46.0769043,18.4741211 C46.0500487,18.4448241 46.0317383,18.4228516 46.0219727,18.4082031 C45.8852532,18.2666009 45.7351082,18.1372076 45.5715332,18.0200195 C45.4079582,17.9028314 45.2333994,17.8051762 45.0478516,17.7270508 C45.0380859,17.7270508 45.0136721,17.722168 44.9746094,17.7124023 C44.955078,17.7075195 44.9379884,17.7026367 44.9233398,17.6977539 L43.9199219,17.6977539 C43.8955077,17.6538084 43.8747559,17.6281739 43.857666,17.6208496 C43.8405761,17.6135254 43.8125002,17.6098633 43.7734375,17.6098633 C43.6855464,17.6098633 43.5903325,17.6196288 43.487793,17.6391602 C43.3852534,17.6586915 43.2851567,17.6892088 43.1875,17.7307129 C43.0898433,17.772217 42.9970708,17.8210446 42.9091797,17.8771973 C42.8212886,17.9333499 42.7480472,17.9980465 42.6894531,18.0712891 C42.6796875,18.0859376 42.6589357,18.1164548 42.6271973,18.1628418 C42.5954588,18.2092287 42.5588381,18.2617185 42.517334,18.3203125 C42.4758299,18.3789065 42.4367678,18.436279 42.4001465,18.4924316 C42.3635252,18.5485843 42.3354493,18.5888671 42.315918,18.6132812 C42.315918,18.6230469 42.3085938,18.6389159 42.2939453,18.6608887 C42.2792968,18.6828614 42.2719727,18.6987304 42.2719727,18.7084961 C42.1889644,18.8549812 42.1120609,19.0002434 42.0412598,19.1442871 C41.9704586,19.2883308 41.9228517,19.4506827 41.8984375,19.6313477 C41.8935547,19.6557618 41.8886719,19.6936033 41.8837891,19.744873 C41.8789062,19.7961428 41.8740235,19.8510739 41.8691406,19.909668 C41.8642578,19.968262 41.8605957,20.0219724 41.8581543,20.0708008 C41.8557129,20.1196292 41.8544922,20.1538085 41.8544922,20.1733398 C41.8544922,20.1879884 41.859375,20.2233884 41.8691406,20.279541 C41.8789063,20.3356936 41.8886718,20.3710937 41.8984375,20.3857422 L41.9643555,20.5834961 C41.9936525,20.6713872 42.0229491,20.7604976 42.0522461,20.8508301 C42.0815431,20.9411626 42.1083983,21.0241695 42.1328125,21.0998535 C42.1572267,21.1755375 42.1743164,21.2231444 42.184082,21.2426758 L42.5722656,21.8212891 Z M53.8515625,22.8979492 C53.8564453,22.8002925 53.838135,22.7087407 53.7966309,22.623291 C53.7551267,22.5378414 53.7075198,22.4560551 53.6538086,22.3779297 C53.6538086,22.368164 53.6379396,22.3449709 53.6062012,22.3083496 C53.5744627,22.2717283 53.553711,22.2460938 53.5439453,22.2314453 C53.5390625,22.2216796 53.5366211,22.2119141 53.5366211,22.2021484 L53.5366211,22.1582031 C53.5366211,22.1484375 53.5390625,22.1337892 53.5439453,22.1142578 C53.5488281,22.0947265 53.5512695,22.0800782 53.5512695,22.0703125 C53.565918,22.0605468 53.5878905,22.0422365 53.6171875,22.0153809 C53.6464845,21.9885253 53.6782225,21.9604494 53.7124023,21.9311523 C53.7465822,21.9018553 53.7783202,21.8750001 53.8076172,21.8505859 C53.8369142,21.8261718 53.8588866,21.8090821 53.8735352,21.7993164 C53.8930665,21.7797851 53.93457,21.744385 53.9980469,21.6931152 C54.0615238,21.6418454 54.1286618,21.5893557 54.1994629,21.5356445 C54.270264,21.4819333 54.337402,21.4306643 54.4008789,21.3818359 C54.4643558,21.3330076 54.5083007,21.3012696 54.5327148,21.2866211 C54.5375977,21.2817383 54.5571287,21.26709 54.5913086,21.2426758 C54.6254885,21.2182616 54.6633299,21.1926271 54.704834,21.1657715 C54.7463381,21.1389159 54.7829588,21.1145021 54.8146973,21.0925293 C54.8464357,21.0705565 54.8671875,21.0571289 54.8769531,21.0522461 C54.881836,21.0473633 54.8977049,21.036377 54.9245605,21.0192871 C54.9514161,21.0021972 54.9807127,20.9826661 55.0124512,20.9606934 C55.0441896,20.9387206 55.0722655,20.9191895 55.0966797,20.9020996 C55.1210939,20.8850097 55.1381835,20.8715821 55.1479492,20.8618164 C55.1625977,20.8520507 55.1979978,20.8325197 55.2541504,20.8032227 C55.310303,20.7739256 55.3481444,20.756836 55.3676758,20.7519531 L55.375,20.7446289 C55.3798828,20.7446289 55.3835449,20.7434082 55.3859863,20.7409668 C55.3884277,20.7385254 55.3920898,20.7373047 55.3969727,20.7373047 L55.4116211,20.7519531 C55.445801,20.7910158 55.5080562,20.8618159 55.5983887,20.9643555 C55.6887212,21.066895 55.783935,21.1743158 55.8840332,21.2866211 C55.9841314,21.3989263 56.0781246,21.5063471 56.1660156,21.6088867 C56.2539067,21.7114263 56.3173826,21.7822264 56.3564453,21.8212891 C56.3710938,21.8310547 56.4028318,21.8591306 56.4516602,21.9055176 C56.5004885,21.9519045 56.5541989,22.0019529 56.612793,22.0556641 C56.671387,22.1093753 56.7299802,22.161865 56.7885742,22.2131348 C56.8471683,22.2644046 56.8935545,22.302246 56.9277344,22.3266602 C56.9472657,22.3413087 56.9753416,22.3645018 57.0119629,22.3962402 C57.0485842,22.4279787 57.0864256,22.4584959 57.1254883,22.487793 L57.2280273,22.5646973 C57.2573244,22.58667 57.2768554,22.6000976 57.2866211,22.6049805 C57.2963868,22.6049805 57.3256833,22.6123046 57.3745117,22.6269531 C57.4233401,22.6416016 57.4648436,22.6538085 57.4990234,22.6635742 L57.5429688,22.6635742 C57.59668,22.6782227 57.6699214,22.6879883 57.7626953,22.6928711 C57.8554692,22.6977539 57.947021,22.6904298 58.0373535,22.6708984 C58.127686,22.6513671 58.2119137,22.6159671 58.2900391,22.5646973 C58.3681645,22.5134275 58.4194335,22.4389653 58.4438477,22.3413086 L58.3486328,21.6455078 C58.3486328,21.6357421 58.340088,21.6040042 58.322998,21.550293 C58.3059081,21.4965818 58.2949219,21.4575197 58.2900391,21.4331055 L58.0556641,21.0449219 C58.0507812,21.0351562 58.0458985,21.0229493 58.0410156,21.0083008 L58.0263672,20.9790039 C58.0214844,20.9692382 58.019043,20.9594727 58.019043,20.949707 C57.9213862,20.7885734 57.8139654,20.6420905 57.6967773,20.5102539 C57.5795893,20.3784173 57.4587409,20.2526861 57.3342285,20.1330566 C57.2097162,20.0134271 57.0803229,19.8974615 56.9460449,19.7851562 C56.8117669,19.672851 56.6762702,19.5532233 56.5395508,19.4262695 C56.4174799,19.3139643 56.2978521,19.1992193 56.1806641,19.0820312 C56.063476,18.9648432 55.9462896,18.854981 55.8291016,18.7524414 C55.6923821,18.6352533 55.5593268,18.5217291 55.4299316,18.4118652 C55.3005365,18.3020014 55.1748053,18.1884771 55.0527344,18.0712891 C54.8867179,17.8906241 54.7231453,17.6867687 54.5620117,17.4597168 C54.4008781,17.2326649 54.2568366,16.9934095 54.1298828,16.7419434 C54.0029291,16.4904773 53.9028324,16.2329115 53.8295898,15.9692383 C53.7563473,15.7055651 53.7270507,15.44922 53.7416992,15.2001953 C53.7563477,14.9951162 53.7990719,14.8034677 53.869873,14.6252441 C53.9406742,14.4470206 54.0297846,14.2749032 54.137207,14.1088867 C54.1469727,14.1088867 54.1591796,14.0966798 54.1738281,14.0722656 C54.1835938,14.0625 54.1909179,14.050293 54.1958008,14.0356445 C54.220215,14.0014647 54.2507322,13.9562991 54.2873535,13.9001465 C54.3239748,13.8439939 54.3605955,13.7902835 54.3972168,13.7390137 C54.4338381,13.6877439 54.4643553,13.643799 54.4887695,13.6071777 C54.5131837,13.5705565 54.5253906,13.5498047 54.5253906,13.5449219 C54.5302735,13.540039 54.5571287,13.5156252 54.605957,13.4716797 C54.6547854,13.4277342 54.7084958,13.3776858 54.7670898,13.3215332 C54.8256839,13.2653806 54.8854977,13.2104495 54.9465332,13.1567383 C55.0075687,13.1030271 55.0551756,13.0615236 55.0893555,13.0322266 C55.2114264,12.929687 55.3347162,12.8454593 55.4592285,12.779541 C55.5837409,12.7136227 55.7119134,12.6550296 55.84375,12.6037598 C55.9755866,12.55249 56.1098626,12.5061037 56.246582,12.4645996 C56.3833015,12.4230955 56.5249016,12.3779299 56.6713867,12.3291016 C56.7202151,12.3144531 56.783691,12.3034668 56.8618164,12.2961426 C56.9399418,12.2888183 57.0205074,12.2839356 57.1035156,12.2814941 C57.1865239,12.2790527 57.2670895,12.2790527 57.3452148,12.2814941 C57.4233402,12.2839356 57.4892575,12.2875976 57.5429688,12.2924805 C57.7529307,12.307129 57.9457999,12.3327635 58.121582,12.3693848 C58.2973642,12.406006 58.4645988,12.4548337 58.623291,12.5158691 C58.7819832,12.5769046 58.9394523,12.6501461 59.0957031,12.7355957 C59.2519539,12.8210453 59.4155265,12.9174799 59.5864258,13.0249023 C59.5913086,13.0297852 59.5986328,13.0346679 59.6083984,13.0395508 L59.6376953,13.0541992 C59.647461,13.0639649 59.6572265,13.071289 59.6669922,13.0761719 L59.9160156,13.2519531 C59.9160156,13.2617188 59.9306639,13.2836912 59.9599609,13.3178711 C59.989258,13.352051 60.0112304,13.3740234 60.0258789,13.3837891 C60.0405274,13.3984376 60.0795895,13.436279 60.1430664,13.4973145 C60.2065433,13.5583499 60.274902,13.6242672 60.3481445,13.6950684 C60.4213871,13.7658695 60.4885251,13.8342282 60.5495605,13.9001465 C60.610596,13.9660648 60.6484374,14.008789 60.6630859,14.0283203 C60.6679688,14.0332031 60.6801757,14.0478514 60.699707,14.0722656 C60.7192384,14.0966798 60.7412108,14.1247557 60.765625,14.1564941 C60.7900392,14.1882326 60.8156737,14.2199705 60.8425293,14.251709 C60.8693849,14.2834474 60.8901366,14.3090819 60.9047852,14.3286133 C60.9438479,14.3920902 60.9792479,14.4470213 61.0109863,14.4934082 C61.0427248,14.5397952 61.0561524,14.6020504 61.0512695,14.6801758 L61.0512695,14.753418 C61.0415039,14.7631836 61.0231935,14.7827147 60.9963379,14.8120117 C60.9694823,14.8413087 60.9414064,14.8706053 60.9121094,14.8999023 L60.7729492,15.0390625 C60.7680664,15.0439453 60.7558595,15.0537109 60.7363281,15.0683594 C60.7167968,15.0830079 60.6948243,15.0988769 60.6704102,15.1159668 C60.645996,15.1330567 60.6215822,15.1489257 60.597168,15.1635742 C60.5727538,15.1782227 60.5581055,15.1855469 60.5532227,15.1855469 C60.5190428,15.2197267 60.4555669,15.2783199 60.362793,15.3613281 C60.2700191,15.4443364 60.1699224,15.5310054 60.0625,15.6213379 C59.9550776,15.7116704 59.8537602,15.7983394 59.7585449,15.8813477 C59.6633296,15.9643559 59.598633,16.022949 59.5644531,16.0571289 C59.5302733,16.0913088 59.4765629,16.1035157 59.4033203,16.09375 C59.3789061,16.09375 59.3435061,16.0900879 59.2971191,16.0827637 C59.2507322,16.0754394 59.2153322,16.0595704 59.190918,16.0351562 C59.1860351,16.0302734 59.178711,16.0156251 59.1689453,15.9912109 C59.1591796,15.9667968 59.1494141,15.9399416 59.1396484,15.9106445 C59.1298828,15.8813475 59.1188965,15.8544923 59.1066895,15.8300781 L59.0810547,15.7788086 C59.0371092,15.6860347 58.9846194,15.5908208 58.923584,15.4931641 C58.8625485,15.3955073 58.7941898,15.3027348 58.7185059,15.2148438 C58.6428219,15.1269527 58.5622563,15.0451664 58.4768066,14.9694824 C58.391357,14.8937984 58.3046879,14.8339846 58.2167969,14.7900391 C58.2070312,14.7900391 58.1862795,14.7851563 58.154541,14.7753906 C58.1228026,14.765625 58.0874025,14.7546387 58.0483398,14.7424316 C58.0092771,14.7302245 57.9726564,14.7180176 57.9384766,14.7058105 C57.9042967,14.6936035 57.8798829,14.6875 57.8652344,14.6875 C57.8701172,14.6777343 57.8554689,14.6667481 57.8212891,14.654541 C57.7871092,14.6423339 57.7651368,14.6362305 57.7553711,14.6362305 L57.6967773,14.6362305 C57.6870117,14.6362305 57.6772461,14.6337891 57.6674805,14.6289062 L57.4074707,14.6289062 C57.3220211,14.6289062 57.2402348,14.6362304 57.1621094,14.6508789 C57.083984,14.6655274 57.0107425,14.6923826 56.9423828,14.7314453 C56.8740231,14.770508 56.8129885,14.8291012 56.7592773,14.9072266 C56.7495117,14.9316407 56.7336427,14.9645994 56.7116699,15.0061035 C56.6896972,15.0476076 56.6787109,15.0732421 56.6787109,15.0830078 C56.6787109,15.0927735 56.6774902,15.1135252 56.6750488,15.1452637 C56.6726074,15.1770021 56.670166,15.2111815 56.6677246,15.2478027 C56.6652832,15.284424 56.6628418,15.319824 56.6604004,15.3540039 C56.657959,15.3881838 56.6567383,15.4077148 56.6567383,15.4125977 C56.6567383,15.4223633 56.6481934,15.4370116 56.6311035,15.456543 C56.6140136,15.4760743 56.6054688,15.4907226 56.6054688,15.5004883 L56.6054688,15.5444336 C56.6542971,15.6665045 56.7189937,15.7824702 56.7995605,15.892334 C56.8801274,16.0021978 56.9655757,16.1071772 57.0559082,16.2072754 C57.1462407,16.3073735 57.2414546,16.4050288 57.3415527,16.5002441 C57.4416509,16.5954595 57.5380855,16.6894527 57.6308594,16.7822266 C57.6357422,16.7919922 57.6552733,16.8151854 57.6894531,16.8518066 C57.723633,16.8884279 57.7407227,16.911621 57.7407227,16.9213867 C57.760254,16.9360352 57.8029782,16.9702146 57.8688965,17.0239258 C57.9348148,17.077637 58.0080562,17.1362302 58.088623,17.199707 C58.1691899,17.2631839 58.2497555,17.3242185 58.3303223,17.3828125 C58.4108891,17.4414065 58.4731443,17.4853514 58.5170898,17.5146484 L58.590332,17.565918 L58.6306152,17.6062012 C58.652588,17.6281739 58.6745604,17.6513671 58.6965332,17.6757812 C58.718506,17.7001954 58.7392577,17.7246093 58.7587891,17.7490234 C58.7783204,17.7734376 58.7929687,17.7880859 58.8027344,17.7929688 L58.8759766,17.8369141 C59.041993,17.9541021 59.1982415,18.0957023 59.3447266,18.2617188 C59.4912117,18.4277352 59.6279291,18.586425 59.7548828,18.737793 C59.7695313,18.7524415 59.80249,18.7915036 59.8537598,18.8549805 C59.9050296,18.9184573 59.95874,18.9843747 60.0148926,19.0527344 C60.0710452,19.1210941 60.1235349,19.1857907 60.1723633,19.2468262 C60.2211917,19.3078616 60.2504882,19.3457031 60.2602539,19.3603516 C60.2700196,19.3701172 60.2846679,19.3859862 60.3041992,19.407959 C60.3237306,19.4299318 60.3383789,19.4458007 60.3481445,19.4555664 C60.3579102,19.4653321 60.3713378,19.493408 60.3884277,19.5397949 C60.4055177,19.5861819 60.4165039,19.6166991 60.4213867,19.6313477 C60.4262696,19.6411133 60.4384765,19.6630858 60.4580078,19.6972656 C60.4775392,19.7314455 60.5007323,19.7692869 60.5275879,19.810791 C60.5544435,19.8522951 60.5788573,19.8925779 60.6008301,19.9316406 C60.6228028,19.9707033 60.6411132,19.9999999 60.6557617,20.0195312 C60.6557617,20.0292969 60.6606445,20.0427245 60.6704102,20.0598145 C60.6801758,20.0769044 60.6923827,20.0952147 60.7070312,20.1147461 C60.7216798,20.1342774 60.7351074,20.1525878 60.7473145,20.1696777 C60.7595215,20.1867677 60.7680664,20.1977539 60.7729492,20.2026367 C60.7778321,20.2172852 60.7924803,20.253906 60.8168945,20.3125 C60.8413087,20.371094 60.8681639,20.43457 60.8974609,20.5029297 C60.926758,20.5712894 60.9548339,20.6347653 60.9816895,20.6933594 C61.0085451,20.7519534 61.0268554,20.7885741 61.0366211,20.8032227 C61.0366211,20.8129883 61.0524901,20.8422849 61.0842285,20.8911133 C61.115967,20.9399417 61.1367187,20.9692382 61.1464844,20.9790039 C61.1464844,20.9887696 61.1452637,21.0156248 61.1428223,21.0595703 C61.1403808,21.1035158 61.1391602,21.130371 61.1391602,21.1401367 C61.1342773,21.1499024 61.1416015,21.1779783 61.1611328,21.2243652 C61.1806642,21.2707522 61.1977538,21.3061522 61.2124023,21.3305664 L61.3076172,21.8286133 L61.2563477,22.7148438 C61.2563477,22.7294923 61.2502442,22.7526854 61.2380371,22.7844238 C61.22583,22.8161623 61.2148438,22.8393554 61.2050781,22.8540039 C61.1611326,23.0151375 61.1049808,23.1603997 61.0366211,23.2897949 C60.9682614,23.4191901 60.8657233,23.5424799 60.7290039,23.659668 C60.7143554,23.6791993 60.676514,23.71582 60.6154785,23.7695312 C60.5544431,23.8232425 60.4860844,23.8818356 60.4104004,23.9453125 C60.3347164,24.0087894 60.2602543,24.0686032 60.1870117,24.1247559 C60.1137692,24.1809085 60.0576174,24.2211913 60.0185547,24.2456055 C59.8476554,24.3872077 59.6572276,24.5263665 59.4472656,24.6630859 C59.2373036,24.7998054 59.022462,24.9072262 58.8027344,24.9853516 C58.7099605,25.0097657 58.6269535,25.024414 58.5537109,25.0292969 C58.4804684,25.0341797 58.3925786,25.048828 58.2900391,25.0732422 C58.1337883,25.1025392 57.9836433,25.1367186 57.8395996,25.1757812 C57.6955559,25.2148439 57.5454109,25.2294922 57.3891602,25.2197266 C57.2475579,25.2099609 57.1083991,25.1904298 56.9716797,25.1611328 C56.8349603,25.1318358 56.6958015,25.0976564 56.5541992,25.0585938 C56.1879865,24.9462885 55.865724,24.802247 55.5874023,24.6264648 C55.3090806,24.4506827 55.0673838,24.2431653 54.8623047,24.0039062 C54.852539,23.9892577 54.8220217,23.9562991 54.770752,23.9050293 C54.7194822,23.8537595 54.6657718,23.7988284 54.6096191,23.7402344 C54.5534665,23.6816403 54.5009768,23.6254885 54.4521484,23.5717773 C54.4033201,23.5180661 54.3740235,23.4838868 54.3642578,23.4692383 C54.3447265,23.4497069 54.3105471,23.4118655 54.2617188,23.3557129 C54.2128904,23.2995603 54.1604007,23.2409671 54.104248,23.1799316 C54.0480954,23.1188962 53.9956057,23.0615237 53.9467773,23.0078125 C53.897949,22.9541013 53.866211,22.9174806 53.8515625,22.8979492 Z M63.0581055,24.699707 C63.0678711,24.6899414 63.0776367,24.6704103 63.0874023,24.6411133 C63.097168,24.6118163 63.1020508,24.5922852 63.1020508,24.5825195 C63.1020508,24.5581053 63.1032715,24.5166019 63.1057129,24.4580078 C63.1081543,24.3994138 63.1105957,24.3371585 63.1130371,24.2712402 C63.1154785,24.2053219 63.1166992,24.1442874 63.1166992,24.0881348 L63.1166992,23.9672852 C63.1166992,23.9282225 63.1179199,23.8757328 63.1203613,23.8098145 L63.1276855,23.6120605 C63.130127,23.5461422 63.1313477,23.4887698 63.1313477,23.4399414 L63.1313477,23.1359863 C63.1313477,23.0212397 63.130127,22.8979499 63.1276855,22.7661133 C63.1252441,22.6342767 63.1228027,22.5109869 63.1203613,22.3962402 C63.1179199,22.2814936 63.1166992,22.2094728 63.1166992,22.1801758 C63.1166992,22.1655273 63.1179199,22.1289065 63.1203613,22.0703125 C63.1228027,22.0117185 63.1252441,21.9482425 63.1276855,21.8798828 C63.130127,21.8115231 63.1313477,21.7480472 63.1313477,21.6894531 C63.1313477,21.6308591 63.1289063,21.5942384 63.1240234,21.5795898 C63.1240234,21.5649413 63.1215821,21.5246585 63.1166992,21.4587402 C63.1118164,21.3928219 63.1057129,21.3232426 63.0983887,21.25 C63.0910644,21.1767574 63.0837403,21.1071781 63.076416,21.0412598 C63.0690918,20.9753415 63.0654297,20.9350587 63.0654297,20.9204102 C63.0605469,20.8520504 63.0568848,20.7495124 63.0544434,20.612793 C63.0520019,20.4760735 63.0483399,20.3210458 63.043457,20.1477051 C63.0385742,19.9743644 63.0336914,19.7924814 63.0288086,19.6020508 C63.0239258,19.4116201 63.019043,19.2309579 63.0141602,19.0600586 C63.0092773,18.8891593 63.0043946,18.7353522 62.9995117,18.5986328 C62.9946289,18.4619134 62.9921875,18.3593753 62.9921875,18.2910156 L62.9702148,18.203125 C62.7797842,18.2128907 62.5783702,18.2141114 62.3659668,18.2067871 C62.1535634,18.1994629 61.949708,18.1811525 61.7543945,18.1518555 C61.7543945,18.1420898 61.7519531,18.1311036 61.7470703,18.1188965 L61.7250977,18.0639648 C61.7250977,18.0541992 61.7153321,18.0517578 61.6958008,18.0566406 C61.6762694,18.0615235 61.6713867,18.0590821 61.6811523,18.0493164 C61.6811523,18.0053709 61.6774903,17.9345708 61.670166,17.8369141 C61.6628418,17.7392573 61.6555176,17.6269538 61.6481934,17.5 C61.6408691,17.3730462 61.633545,17.2399909 61.6262207,17.1008301 C61.6188964,16.9616692 61.6115723,16.8286139 61.604248,16.7016602 C61.5969238,16.5747064 61.5908203,16.4611821 61.5859375,16.361084 C61.5810547,16.2609858 61.5761719,16.1889651 61.5712891,16.1450195 L61.5712891,16.0644531 C61.5712891,15.9814449 61.5944822,15.9094241 61.6408691,15.8483887 C61.6872561,15.7873532 61.7519527,15.7470704 61.8349609,15.7275391 C62.0058602,15.7519532 62.1816397,15.7495119 62.3623047,15.7202148 C62.5429697,15.6909178 62.7163078,15.6762695 62.8823242,15.6762695 L62.9995117,15.6762695 C63.0385744,15.6762695 63.0751951,15.6616212 63.109375,15.6323242 L63.109375,15.4931641 C63.1191407,15.1171856 63.1069338,14.748537 63.0727539,14.387207 C63.038574,14.0258771 63.0263671,13.6572284 63.0361328,13.28125 L63.0361328,13.1787109 C63.0361328,13.1298826 63.0373535,13.0773929 63.0397949,13.0212402 C63.0422363,12.9650876 63.0446777,12.9113772 63.0471191,12.8601074 C63.0495606,12.8088376 63.0507812,12.7734376 63.0507812,12.7539062 C63.0556641,12.7148436 63.08374,12.689209 63.1350098,12.677002 C63.1862796,12.6647949 63.2802728,12.6733397 63.4169922,12.7026367 C63.451172,12.6977539 63.5085445,12.6916504 63.5891113,12.6843262 C63.6696781,12.6770019 63.7539058,12.6684571 63.8417969,12.6586914 C63.9296879,12.6489257 64.0126949,12.6403809 64.0908203,12.6330566 C64.1689457,12.6257324 64.2226561,12.6196289 64.2519531,12.6147461 C64.2666016,12.6147461 64.3068844,12.6159668 64.3728027,12.6184082 C64.438721,12.6208496 64.5083004,12.6220703 64.581543,12.6220703 C64.6547855,12.6220703 64.7231442,12.623291 64.7866211,12.6257324 C64.850098,12.6281738 64.8867187,12.6293945 64.8964844,12.6293945 L64.984375,12.6293945 C65.013672,12.6293945 65.0576169,12.6306152 65.1162109,12.6330566 C65.174805,12.6354981 65.2333981,12.6391601 65.2919922,12.644043 C65.3603519,12.6489258 65.431152,12.6538086 65.5043945,12.6586914 L65.5849609,12.746582 C65.5849609,12.7612305 65.5825196,12.7844237 65.5776367,12.8161621 C65.5727539,12.8479005 65.5678711,12.8808592 65.5629883,12.9150391 C65.5581054,12.9492189 65.5544434,12.9821776 65.552002,13.013916 C65.5495605,13.0456545 65.5507812,13.0688476 65.5556641,13.0834961 C65.5654297,13.0932618 65.5751953,13.1079101 65.5849609,13.1274414 C65.5947266,13.1469728 65.5996094,13.161621 65.5996094,13.1713867 C65.6240236,13.3667002 65.6411132,13.557128 65.6508789,13.7426758 C65.6606446,13.9282236 65.6655273,14.1284169 65.6655273,14.3432617 C65.6655273,14.3969729 65.666748,14.4738765 65.6691895,14.5739746 C65.6716309,14.6740728 65.6740723,14.7851556 65.6765137,14.9072266 C65.6789551,15.0292975 65.6813965,15.153808 65.6838379,15.2807617 C65.6862793,15.4077155 65.6850586,15.5249018 65.6801758,15.6323242 C65.6801758,15.6616212 65.6874999,15.682373 65.7021484,15.6945801 C65.7167969,15.7067872 65.7375487,15.7141113 65.7644043,15.7165527 C65.7912599,15.7189942 65.8181151,15.7177735 65.8449707,15.7128906 C65.8718263,15.7080078 65.8950194,15.7055664 65.9145508,15.7055664 L65.9438477,15.7055664 C66.1000984,15.656738 66.2514641,15.6323242 66.3979492,15.6323242 L66.8740234,15.6323242 C66.8886719,15.6323242 66.9106444,15.6335449 66.9399414,15.6359863 C66.9692384,15.6384277 66.998535,15.6396484 67.027832,15.6396484 C67.0620119,15.6445313 67.101074,15.6469727 67.1450195,15.6469727 L67.1889648,15.8959961 C67.1938477,16.1499036 67.192627,16.3952625 67.1853027,16.6320801 C67.1779785,16.8688977 67.1938475,17.1191393 67.2329102,17.3828125 L67.2329102,17.9467773 C67.2329102,18.0004885 67.2207032,18.041992 67.1962891,18.0712891 C67.1718749,18.1005861 67.143799,18.1225585 67.1120605,18.137207 C67.0803221,18.1518555 67.0461428,18.1640625 67.0095215,18.1738281 C66.9729002,18.1835938 66.9399416,18.1933593 66.9106445,18.203125 L66.6982422,18.2470703 L65.8925781,18.2470703 L65.8779297,18.8769531 C65.8779297,18.8867188 65.8754883,18.9099119 65.8706055,18.9465332 C65.8657226,18.9831545 65.8620606,19.0222166 65.8596191,19.0637207 C65.8571777,19.1052248 65.8547363,19.1430662 65.8522949,19.1772461 C65.8498535,19.211426 65.8535156,19.230957 65.8632812,19.2358398 C65.8535156,19.4018563 65.8510742,19.5556634 65.855957,19.6972656 C65.8608399,19.8388679 65.8693847,19.976806 65.8815918,20.111084 C65.8937989,20.245362 65.9084472,20.3820794 65.9255371,20.5212402 C65.942627,20.6604011 65.958496,20.8081047 65.9731445,20.9643555 L65.8925781,24.8022461 C65.8925781,24.8510745 65.8669436,24.8913573 65.8156738,24.9230957 C65.764404,24.9548341 65.7192385,24.9707031 65.6801758,24.9707031 L64.0761719,24.9633789 C64.0615234,24.9731446 64.0322268,24.9816894 63.9882812,24.9890137 C63.9443357,24.9963379 63.9174805,25 63.9077148,25 C63.8979492,25 63.8759767,24.9938965 63.8417969,24.9816895 C63.807617,24.9694824 63.7856446,24.9633789 63.7758789,24.9633789 C63.7612304,24.9633789 63.7331545,24.9609375 63.6916504,24.9560547 C63.6501463,24.9511719 63.6062014,24.9462891 63.5598145,24.9414062 C63.5134275,24.9365234 63.4694826,24.9316406 63.4279785,24.9267578 C63.3864744,24.921875 63.3608399,24.9169922 63.3510742,24.9121094 C63.297363,24.9072265 63.2351078,24.8962403 63.1643066,24.8791504 C63.0935055,24.8620605 63.0581055,24.8120121 63.0581055,24.7290039 L63.0581055,24.699707 Z M68.1191406,19.9536133 C68.1484376,19.7729483 68.1850584,19.5959481 68.2290039,19.4226074 C68.2729494,19.2492667 68.3217771,19.0747079 68.3754883,18.8989258 C68.414551,18.771972 68.4475096,18.6596685 68.4743652,18.5620117 C68.5012208,18.464355 68.5341795,18.3544928 68.5732422,18.2324219 C68.5732422,18.2226562 68.5793456,18.195801 68.5915527,18.1518555 C68.6037598,18.1079099 68.6184081,18.060303 68.635498,18.0090332 C68.652588,17.9577634 68.668457,17.9113772 68.6831055,17.869873 C68.697754,17.8283689 68.7075195,17.8027344 68.7124023,17.7929688 C68.7661135,17.6220695 68.8442378,17.4682624 68.9467773,17.331543 C69.0493169,17.1948235 69.1567377,17.0581062 69.269043,16.9213867 C69.2739258,16.9165039 69.2897948,16.8981935 69.3166504,16.8664551 C69.343506,16.8347166 69.3740233,16.8005373 69.4082031,16.763916 C69.442383,16.7272947 69.4741209,16.6918947 69.503418,16.6577148 C69.532715,16.623535 69.5546874,16.5991212 69.5693359,16.5844727 C69.5742188,16.5795898 69.5839843,16.5673829 69.5986328,16.5478516 C69.6132813,16.5283202 69.6291503,16.5051271 69.6462402,16.4782715 C69.6633302,16.4514159 69.6791991,16.4282228 69.6938477,16.4086914 C69.7084962,16.3891601 69.7207031,16.3769531 69.7304688,16.3720703 C69.9355479,16.1962882 70.1613757,16.0375984 70.407959,15.8959961 C70.6545422,15.7543938 70.9108873,15.6323247 71.177002,15.5297852 C71.4431166,15.4272456 71.7141099,15.3479007 71.9899902,15.291748 C72.2658705,15.2355954 72.5380846,15.2050781 72.8066406,15.2001953 C73.1093765,15.1757811 73.4243148,15.1806639 73.7514648,15.2148438 C74.0786149,15.2490236 74.3837876,15.3295892 74.6669922,15.456543 C74.9062512,15.5297855 75.112548,15.6127925 75.2858887,15.7055664 C75.4592294,15.7983403 75.6057123,15.8886714 75.7253418,15.9765625 C75.8449713,16.0644536 75.9438473,16.1437985 76.0219727,16.2145996 C76.100098,16.2854007 76.1684567,16.3354491 76.2270508,16.3647461 C76.3784187,16.4965827 76.5151361,16.6259759 76.637207,16.7529297 C76.759278,16.8798834 76.8703608,17.0117181 76.970459,17.1484375 C77.0705571,17.2851569 77.1645503,17.4304192 77.2524414,17.5842285 C77.3403325,17.7380379 77.4257808,17.9101553 77.5087891,18.1005859 C77.5234376,18.1445315 77.5441893,18.2238764 77.5710449,18.338623 C77.5979005,18.4533697 77.6259764,18.5742181 77.6552734,18.7011719 C77.6845705,18.8281256 77.7114257,18.948974 77.7358398,19.0637207 C77.760254,19.1784674 77.7749023,19.2578123 77.7797852,19.3017578 C77.784668,19.3115235 77.7883301,19.3334959 77.7907715,19.3676758 C77.7932129,19.4018556 77.7944336,19.4433591 77.7944336,19.4921875 L77.7944336,19.7485352 C77.7944336,19.7778322 77.7932129,19.818115 77.7907715,19.8693848 C77.7883301,19.9206546 77.7871094,19.9719236 77.7871094,20.0231934 L77.7871094,20.1586914 C77.7871094,20.1977541 77.784668,20.2197265 77.7797852,20.2246094 C77.7797852,20.2392579 77.772461,20.2697752 77.7578125,20.3161621 C77.743164,20.3625491 77.7285157,20.4113767 77.7138672,20.4626465 C77.6992187,20.5139163 77.6857911,20.5627439 77.673584,20.6091309 C77.6613769,20.6555178 77.6552734,20.6835937 77.6552734,20.6933594 C77.5576167,20.7910161 77.4587407,20.8581541 77.3586426,20.8947754 C77.2585444,20.9313967 77.1413581,20.9545898 77.0070801,20.9643555 C76.8728021,20.9741211 76.7116709,20.9802246 76.5236816,20.982666 C76.3356924,20.9851074 76.1074232,21.0009764 75.8388672,21.0302734 L75.4580078,21.0302734 C75.3701167,21.0302734 75.2895511,21.0314941 75.2163086,21.0339355 C75.143066,21.036377 75.0966798,21.0375977 75.0771484,21.0375977 L75.0039062,21.0375977 C74.9941406,21.0473633 74.9733888,21.0546875 74.9416504,21.0595703 C74.909912,21.0644531 74.8769533,21.0656738 74.8427734,21.0632324 C74.8085936,21.060791 74.7780763,21.0546875 74.7512207,21.0449219 C74.7243651,21.0351562 74.7084961,21.0205079 74.7036133,21.0009766 C74.6987304,21.0009766 74.676758,21.0021973 74.6376953,21.0046387 C74.5986326,21.0070801 74.5559084,21.0083008 74.5095215,21.0083008 L74.3703613,21.0083008 C74.3239744,21.0083008 74.2934571,21.0058594 74.2788086,21.0009766 C74.2739258,21.0058594 74.2666016,21.0083008 74.2568359,21.0083008 L74.2202148,21.0083008 C74.1030268,21.0131836 73.9687508,21.0180664 73.8173828,21.0229492 C73.6660149,21.0278321 73.5109871,21.0327148 73.3522949,21.0375977 C73.1936027,21.0424805 73.038575,21.0461426 72.887207,21.048584 C72.7358391,21.0510254 72.6015631,21.0522461 72.484375,21.0522461 C72.3085929,21.0620118 72.1511237,21.0632325 72.0119629,21.0559082 C71.872802,21.0485839 71.738526,21.0412598 71.6091309,21.0339355 C71.4797357,21.0266113 71.3454597,21.0205078 71.2062988,21.015625 C71.067138,21.0107422 70.9096688,21.0107422 70.7338867,21.015625 C70.7094725,21.015625 70.6850587,21.0168457 70.6606445,21.0192871 C70.6362303,21.0217285 70.6191407,21.0351561 70.609375,21.0595703 C70.609375,21.0839845 70.6154785,21.1206052 70.6276855,21.1694336 C70.6398926,21.218262 70.6459961,21.2499999 70.6459961,21.2646484 C70.6899416,21.4404306 70.7204589,21.5661617 70.7375488,21.6418457 C70.7546388,21.7175297 70.7705077,21.7712401 70.7851562,21.8029785 C70.7998048,21.834717 70.8181151,21.8615722 70.8400879,21.8835449 C70.8620607,21.9055177 70.8974607,21.9506833 70.9462891,22.019043 C70.9462891,22.0239258 70.9548339,22.034912 70.9719238,22.052002 C70.9890138,22.0690919 71.0085448,22.0874022 71.0305176,22.1069336 C71.0524903,22.1264649 71.0720214,22.1447753 71.0891113,22.1618652 C71.1062013,22.1789552 71.1147461,22.1899414 71.1147461,22.1948242 C71.2758797,22.4536146 71.4882799,22.6403803 71.7519531,22.755127 C72.0156263,22.8698736 72.2866197,22.9223633 72.5649414,22.9125977 C72.6040041,22.9125977 72.6577145,22.911377 72.7260742,22.9089355 C72.7944339,22.9064941 72.833496,22.9052734 72.8432617,22.9052734 C72.9409185,22.8955078 73.0117185,22.8918457 73.0556641,22.8942871 C73.0996096,22.8967285 73.1362303,22.9003906 73.1655273,22.9052734 C73.1948244,22.9101563 73.2253416,22.9138183 73.2570801,22.9162598 C73.2888185,22.9187012 73.3400875,22.9150391 73.4108887,22.9052734 C73.4816898,22.8955078 73.5793451,22.8771974 73.7038574,22.8503418 C73.8283698,22.8234862 74.0004872,22.7832034 74.2202148,22.7294922 C74.2250977,22.7294922 74.2519529,22.7172853 74.3007812,22.6928711 C74.3496096,22.6684569 74.4020993,22.6416017 74.458252,22.6123047 C74.5144046,22.5830077 74.568115,22.5549318 74.6193848,22.5280762 C74.6706546,22.5012206 74.7011718,22.4853516 74.7109375,22.4804688 C74.8378913,22.4023434 74.9526362,22.3254398 75.0551758,22.2497559 C75.1577154,22.1740719 75.2517086,22.1044925 75.3371582,22.0410156 C75.4226078,21.9775387 75.5031734,21.921387 75.5788574,21.8725586 C75.6545414,21.8237302 75.7290035,21.7846681 75.8022461,21.7553711 L75.8461914,21.7553711 C75.8559571,21.7504883 75.8706054,21.7541503 75.8901367,21.7663574 C75.9096681,21.7785645 75.9194336,21.7895507 75.9194336,21.7993164 C75.9633791,21.8383791 76.0292964,21.8884274 76.1171875,21.9494629 C76.2050786,22.0104984 76.294189,22.0727536 76.3845215,22.1362305 C76.474854,22.1997073 76.561523,22.2619626 76.6445312,22.322998 C76.7275395,22.3840335 76.788574,22.4365232 76.8276367,22.4804688 C76.8422852,22.4902344 76.8764646,22.5146482 76.9301758,22.5537109 C76.983887,22.5927736 77.0400388,22.6354978 77.0986328,22.6818848 C77.1572269,22.7282717 77.2084959,22.7722166 77.2524414,22.8137207 C77.2963869,22.8552248 77.3183594,22.8784179 77.3183594,22.8833008 L77.3183594,22.9125977 C77.3183594,22.9223633 77.3195801,22.9296875 77.3220215,22.9345703 C77.3244629,22.9394531 77.3256836,22.9467773 77.3256836,22.956543 C77.3305664,23.0786139 77.2951664,23.1860347 77.2194824,23.2788086 C77.1437984,23.3715825 77.0644535,23.4619136 76.9814453,23.5498047 C76.751952,23.7988294 76.5090345,24.0417469 76.2526855,24.2785645 C75.9963366,24.515382 75.7167984,24.7119133 75.4140625,24.8681641 C75.3164058,24.9121096 75.2187505,24.9450682 75.1210938,24.967041 C75.023437,24.9890138 74.9257817,25.0170897 74.828125,25.0512695 C74.7011712,25.0903322 74.5791021,25.1184081 74.4619141,25.135498 C74.344726,25.152588 74.229981,25.1635742 74.1176758,25.168457 C74.0053705,25.1733399 73.8894049,25.1745606 73.7697754,25.1721191 C73.6501459,25.1696777 73.5219733,25.1708984 73.3852539,25.1757812 C73.0336896,25.1855469 72.6992203,25.17334 72.3818359,25.1391602 C72.0644515,25.1049803 71.7373064,25.039063 71.4003906,24.9414062 C71.2734369,24.9023436 71.1562505,24.8596194 71.0488281,24.8132324 C70.9414057,24.7668455 70.8400884,24.7155765 70.744873,24.6594238 C70.6496577,24.6032712 70.5556645,24.5397953 70.4628906,24.4689941 C70.3701167,24.398193 70.2749028,24.3212895 70.1772461,24.2382812 C70.0063468,24.0917961 69.8330087,23.950196 69.6572266,23.8134766 C69.4814444,23.6767571 69.3154305,23.5156259 69.1591797,23.3300781 C69.149414,23.3251953 69.1286623,23.2958987 69.0969238,23.2421875 C69.0651854,23.1884763 69.046875,23.1542969 69.0419922,23.1396484 C69.0322265,23.1298828 69.0126955,23.1066896 68.9833984,23.0700684 C68.9541014,23.0334471 68.9235841,22.994385 68.8918457,22.9528809 C68.8601073,22.9113767 68.8283693,22.8723146 68.7966309,22.8356934 C68.7648924,22.7990721 68.7465821,22.775879 68.7416992,22.7661133 C68.7319335,22.7514648 68.7111818,22.7136234 68.6794434,22.6525879 C68.6477049,22.5915524 68.6110842,22.5207524 68.5695801,22.4401855 C68.528076,22.3596187 68.4890139,22.2802738 68.4523926,22.2021484 C68.4157713,22.124023 68.3876954,22.0605471 68.3681641,22.0117188 C68.3583984,22.0019531 68.3486329,21.982422 68.3388672,21.953125 C68.3291015,21.923828 68.3242188,21.9042969 68.3242188,21.8945312 C68.2656247,21.572264 68.2155764,21.2573258 68.1740723,20.949707 C68.1325682,20.6420883 68.1142578,20.3222673 68.1191406,19.9902344 L68.1191406,19.9536133 Z M73.3339844,17.6098633 C73.0849597,17.6147461 72.8530284,17.6452634 72.6381836,17.701416 C72.4233388,17.7575686 72.2133799,17.8564446 72.0083008,17.9980469 C71.9399411,18.0419924 71.8630375,18.0981442 71.7775879,18.1665039 C71.6921382,18.2348636 71.6091313,18.3093258 71.5285645,18.3898926 C71.4479976,18.4704594 71.3808596,18.5559078 71.3271484,18.6462402 C71.2734372,18.7365727 71.246582,18.8256832 71.246582,18.9135742 C71.3735358,18.9038085 71.4907221,18.8891603 71.5981445,18.8696289 C71.7055669,18.8500976 71.8203119,18.8378906 71.9423828,18.8330078 L71.9716797,18.8330078 C71.9814454,18.8378906 72.0119626,18.8415527 72.0632324,18.8439941 C72.1145022,18.8464356 72.170654,18.8488769 72.2316895,18.8513184 C72.2927249,18.8537598 72.3500974,18.8562012 72.4038086,18.8586426 C72.4575198,18.861084 72.4916991,18.8623047 72.5063477,18.8623047 L73.2094727,18.8623047 C73.2534182,18.8623047 73.3144527,18.8598633 73.3925781,18.8549805 C73.4707035,18.8500976 73.5500484,18.8452149 73.6306152,18.840332 C73.711182,18.8354492 73.7832028,18.8317871 73.8466797,18.8293457 C73.9101566,18.8269043 73.9467773,18.8256836 73.956543,18.8256836 C74.0053713,18.8256836 74.0944818,18.8244629 74.223877,18.8220215 C74.3532721,18.8195801 74.4912102,18.8171387 74.6376953,18.8146973 C74.7841804,18.8122558 74.9221185,18.8085938 75.0515137,18.8037109 C75.1809089,18.7988281 75.2700193,18.7939453 75.3188477,18.7890625 C75.3286133,18.7890625 75.3383789,18.7841797 75.3481445,18.7744141 L75.362793,18.7597656 C75.362793,18.75 75.3579102,18.7353517 75.3481445,18.7158203 C75.3383789,18.696289 75.3286133,18.6816407 75.3188477,18.671875 C75.309082,18.6523437 75.2956544,18.6267091 75.2785645,18.5949707 C75.2614745,18.5632323 75.2431642,18.5314943 75.2236328,18.4997559 C75.2041015,18.4680174 75.1870118,18.4411622 75.1723633,18.4191895 C75.1577148,18.3972167 75.1479492,18.3837891 75.1430664,18.3789062 C74.9282216,18.1103502 74.6560075,17.9125983 74.326416,17.7856445 C73.9968245,17.6586908 73.6660173,17.6000976 73.3339844,17.6098633 Z M88.1069336,18.671875 C88.1069336,18.7109377 88.0996094,18.7475584 88.0849609,18.7817383 C88.0703124,18.8159181 88.0629883,18.8525389 88.0629883,18.8916016 C88.0629883,19.0429695 88.0703124,19.1906731 88.0849609,19.3347168 C88.0996094,19.4787605 88.1069336,19.6264641 88.1069336,19.777832 L88.1069336,20.078125 C88.0922851,20.3906266 88.0703126,20.6787096 88.0410156,20.9423828 C88.0117186,21.206056 87.9677737,21.4611804 87.9091797,21.7077637 C87.8505856,21.9543469 87.7736821,22.1997058 87.6784668,22.4438477 C87.5832515,22.6879895 87.4648445,22.9443346 87.3232422,23.2128906 C87.3134765,23.2226563 87.2988282,23.2482908 87.2792969,23.2897949 C87.2597655,23.331299 87.2390138,23.3752439 87.217041,23.4216309 C87.1950682,23.4680178 87.1743165,23.5119627 87.1547852,23.5534668 C87.1352538,23.5949709 87.1230469,23.6206054 87.1181641,23.6303711 C87.1083984,23.6450196 87.086426,23.6743162 87.0522461,23.7182617 C87.0180662,23.7622073 86.9936524,23.7890625 86.9790039,23.7988281 C86.9545897,23.8232423 86.9167483,23.8586423 86.8654785,23.9050293 C86.8142087,23.9514162 86.7604983,23.9978025 86.7043457,24.0441895 C86.6481931,24.0905764 86.5969241,24.1333006 86.5505371,24.1723633 C86.5041502,24.211426 86.4760743,24.2333984 86.4663086,24.2382812 C86.4565429,24.2529298 86.4187015,24.283447 86.3527832,24.329834 C86.2868649,24.3762209 86.2343752,24.411621 86.1953125,24.4360352 C86.1757812,24.4458008 86.148926,24.4604491 86.1147461,24.4799805 C86.0805662,24.4995118 86.0463869,24.5178222 86.012207,24.5349121 C85.9780272,24.552002 85.9450685,24.5666503 85.9133301,24.5788574 C85.8815916,24.5910645 85.8608399,24.597168 85.8510742,24.597168 C85.8217772,24.6118165 85.7668461,24.6325682 85.6862793,24.6594238 C85.6057125,24.6862794 85.5202641,24.7119139 85.4299316,24.7363281 C85.3395992,24.7607423 85.2529301,24.7839354 85.1699219,24.8059082 C85.0869136,24.827881 85.0283205,24.8413086 84.9941406,24.8461914 C84.9746093,24.8559571 84.9453127,24.8645019 84.90625,24.8718262 C84.8671873,24.8791504 84.8256838,24.8876953 84.7817383,24.8974609 C84.7377927,24.9072266 84.6950686,24.9157714 84.6535645,24.9230957 C84.6120603,24.93042 84.5839844,24.9365234 84.5693359,24.9414062 L83.6794434,24.9414062 C83.525634,24.9414062 83.3632821,24.9169924 83.1923828,24.8681641 C82.8115215,24.7998043 82.4477556,24.7131353 82.1010742,24.6081543 C81.7543928,24.5031733 81.4418959,24.3725594 81.1635742,24.2163086 C81.1586914,24.2260743 81.1538086,24.2431639 81.1489258,24.2675781 C81.1440429,24.2919923 81.1391602,24.3200682 81.1342773,24.3518066 C81.1293945,24.3835451 81.1257324,24.4140624 81.123291,24.4433594 C81.1208496,24.4726564 81.1196289,24.4921875 81.1196289,24.5019531 L81.1196289,24.5605469 C81.1196289,24.7900402 81.1269531,25.0183094 81.1416016,25.2453613 C81.1562501,25.4724132 81.1635742,25.7006824 81.1635742,25.9301758 L81.1635742,26.2304688 C81.1586914,26.28418 81.1538086,26.3854973 81.1489258,26.5344238 C81.1440429,26.6833504 81.1391602,26.8383781 81.1342773,26.9995117 C81.1293945,27.1606453 81.1257324,27.3107903 81.123291,27.4499512 C81.1208496,27.589112 81.1196289,27.6782225 81.1196289,27.7172852 C81.1098632,27.7758792 81.0952149,27.8356931 81.0756836,27.8967285 C81.0561522,27.957764 81.0463867,27.993164 81.0463867,28.0029297 L81.0024414,28.046875 L80.8706055,28.0615234 C80.8315428,28.0664063 80.794922,28.071289 80.7607422,28.0761719 C80.7265623,28.0810547 80.6972657,28.0859375 80.6728516,28.0908203 C80.5068351,28.100586 80.3615729,28.1079101 80.2370605,28.112793 C80.1125482,28.1176758 79.9794929,28.1201172 79.8378906,28.1201172 C79.7158197,28.1201172 79.6047368,28.1237793 79.5046387,28.1311035 C79.4045405,28.1384278 79.3068852,28.1445312 79.2116699,28.1494141 C79.1164546,28.1542969 79.0187993,28.1555176 78.9187012,28.1530762 C78.818603,28.1506348 78.7099615,28.1396485 78.5927734,28.1201172 C78.4804682,28.0566403 78.4169923,27.9858402 78.4023438,27.9077148 C78.4023438,27.8979492 78.4011231,27.8759767 78.3986816,27.8417969 C78.3962402,27.807617 78.3950195,27.7697756 78.3950195,27.7282715 C78.3950195,27.6867674 78.3937988,27.6477053 78.3913574,27.611084 C78.388916,27.5744627 78.3876953,27.5488282 78.3876953,27.5341797 C78.3876953,27.5097655 78.388916,27.4780275 78.3913574,27.4389648 C78.3937988,27.3999021 78.3950195,27.3596193 78.3950195,27.3181152 C78.3950195,27.2766111 78.3962402,27.2399904 78.3986816,27.208252 C78.4011231,27.1765135 78.4023438,27.1582031 78.4023438,27.1533203 C78.4121094,26.89453 78.4206543,26.6174331 78.4279785,26.3220215 C78.4353028,26.0266099 78.4426269,25.7275406 78.4499512,25.4248047 C78.4572754,25.1220688 78.4658203,24.8229995 78.4755859,24.5275879 C78.4853516,24.2321763 78.4951171,23.9550794 78.5048828,23.6962891 C78.5146485,23.4179674 78.5256347,23.1213395 78.5378418,22.8063965 C78.5500489,22.4914535 78.5561523,22.1948256 78.5561523,21.9165039 L78.5561523,21.7700195 C78.5561523,21.696777 78.5549317,21.6125493 78.5524902,21.517334 C78.5500488,21.4221187 78.5476074,21.3195806 78.545166,21.2097168 C78.5427246,21.099853 78.5402832,20.9960942 78.5378418,20.8984375 C78.5354004,20.8007808 78.5341797,20.7153324 78.5341797,20.6420898 L78.5341797,20.4956055 C78.5341797,20.4907226 78.5354004,20.4663088 78.5378418,20.4223633 C78.5402832,20.3784177 78.5415039,20.325928 78.5415039,20.2648926 C78.5415039,20.2038571 78.5427246,20.1428226 78.545166,20.0817871 C78.5476074,20.0207516 78.5488281,19.9707033 78.5488281,19.9316406 C78.5488281,19.8925779 78.5476074,19.8413089 78.545166,19.777832 C78.5427246,19.7143552 78.5415039,19.6508792 78.5415039,19.5874023 C78.5415039,19.5239255 78.5402832,19.4677737 78.5378418,19.4189453 C78.5354004,19.3701169 78.5341797,19.3408204 78.5341797,19.3310547 C78.5341797,19.3164062 78.5378418,19.2822268 78.545166,19.2285156 C78.5524903,19.1748044 78.5598144,19.1186526 78.5671387,19.0600586 C78.5744629,19.0014646 78.5817871,18.9465335 78.5891113,18.8952637 C78.5964356,18.8439939 78.6000977,18.8110352 78.6000977,18.7963867 C78.5952148,18.7719725 78.5939941,18.7207035 78.5964355,18.6425781 C78.598877,18.5644527 78.6013183,18.4814458 78.6037598,18.3935547 C78.6062012,18.3056636 78.6098633,18.2214359 78.6147461,18.1408691 C78.6196289,18.0603023 78.6220703,18.0053712 78.6220703,17.9760742 C78.6220703,17.95166 78.623291,17.8857427 78.6257324,17.7783203 C78.6281738,17.6708979 78.6306152,17.556153 78.6330566,17.434082 C78.6354981,17.3120111 78.6379394,17.1972662 78.6403809,17.0898438 C78.6428223,16.9824213 78.644043,16.916504 78.644043,16.8920898 C78.644043,16.887207 78.6428223,16.8603518 78.6403809,16.8115234 C78.6379394,16.7626951 78.6367188,16.7065433 78.6367188,16.6430664 C78.6367188,16.5795895 78.6354981,16.5173343 78.6330566,16.4562988 C78.6306152,16.3952634 78.6293945,16.345215 78.6293945,16.3061523 C78.6293945,16.286621 78.6306152,16.2377934 78.6330566,16.159668 C78.6354981,16.0815426 78.6367188,15.9985356 78.6367188,15.9106445 C78.6367188,15.8227535 78.6379394,15.7409672 78.6403809,15.6652832 C78.6428223,15.5895992 78.644043,15.5395509 78.644043,15.5151367 C78.6538086,15.4125971 78.7124018,15.3393557 78.8198242,15.2954102 C78.9272466,15.2514646 79.0468743,15.2246094 79.1787109,15.2148438 C79.3105475,15.2050781 79.4338373,15.2026367 79.548584,15.2075195 C79.6633307,15.2124024 79.7304687,15.209961 79.75,15.2001953 L79.9697266,15.2001953 C80.047852,15.2001953 80.1210934,15.185547 80.1894531,15.15625 L81.1196289,15.15625 L81.1928711,15.2368164 L81.2807617,15.9545898 C81.480958,15.7739249 81.6933583,15.631104 81.9179688,15.526123 C82.1425792,15.4211421 82.3586415,15.3405765 82.5661621,15.2844238 C82.7736827,15.2282712 82.9653312,15.1916505 83.1411133,15.1745605 C83.3168954,15.1574706 83.4560542,15.144043 83.5585938,15.1342773 L83.7929688,15.1342773 C83.8662113,15.1391602 83.9577631,15.147705 84.067627,15.1599121 C84.1774908,15.1721192 84.2885737,15.1867675 84.4008789,15.2038574 C84.5131842,15.2209474 84.6157222,15.2355956 84.7084961,15.2478027 C84.80127,15.2600098 84.8647459,15.2685547 84.8989258,15.2734375 C84.9331056,15.2832032 84.986816,15.2954101 85.0600586,15.3100586 C85.1333011,15.3247071 85.2102047,15.3417968 85.2907715,15.3613281 C85.3713383,15.3808595 85.4470211,15.3991698 85.5178223,15.4162598 C85.5886234,15.4333497 85.6362303,15.4467773 85.6606445,15.456543 C85.675293,15.4614258 85.707031,15.4748534 85.7558594,15.4968262 C85.8046877,15.5187989 85.8559568,15.5432128 85.909668,15.5700684 C85.9633792,15.596924 86.0134275,15.6237792 86.0598145,15.6506348 C86.1062014,15.6774904 86.1391601,15.6982421 86.1586914,15.7128906 C86.1831056,15.7275391 86.2221677,15.7543943 86.2758789,15.793457 C86.3295901,15.8325197 86.3857419,15.8740232 86.4443359,15.9179688 C86.50293,15.9619143 86.5578611,16.0046385 86.6091309,16.0461426 C86.6604006,16.0876467 86.6958007,16.118164 86.715332,16.1376953 C86.7495119,16.1718752 86.7836912,16.2036131 86.8178711,16.2329102 C86.8471681,16.2573243 86.875244,16.2829589 86.9020996,16.3098145 C86.9289552,16.3366701 86.9521483,16.3574218 86.9716797,16.3720703 C87.0888678,16.5283211 87.1999506,16.6687005 87.3049316,16.7932129 C87.4099126,16.9177252 87.5063472,17.072753 87.5942383,17.2583008 C87.6479495,17.370606 87.7041013,17.489013 87.7626953,17.6135254 C87.8212894,17.7380377 87.8652342,17.8588861 87.8945312,17.9760742 C87.8994141,17.9858399 87.9079589,18.0175779 87.920166,18.0712891 C87.9323731,18.1250003 87.94458,18.1835934 87.9567871,18.2470703 C87.9689942,18.3105472 87.9812011,18.3691404 87.9934082,18.4228516 C88.0056153,18.4765628 88.0141601,18.5083007 88.019043,18.5180664 C88.0288086,18.5278321 88.0434569,18.5498045 88.0629883,18.5839844 C88.0825196,18.6181642 88.0971679,18.6401367 88.1069336,18.6499023 L88.1069336,18.671875 Z M84.7304688,18.3569336 C84.7304688,18.3520508 84.7182618,18.3349611 84.6938477,18.3056641 C84.6694335,18.276367 84.6401369,18.2446291 84.605957,18.2104492 C84.5717772,18.1762694 84.5351564,18.1408693 84.4960938,18.104248 C84.4570311,18.0676268 84.4252931,18.0395509 84.4008789,18.0200195 C84.3911132,18.0102539 84.364258,17.9956056 84.3203125,17.9760742 C84.276367,17.9565429 84.2495118,17.9418946 84.2397461,17.9321289 C84.2299804,17.9223632 84.2067873,17.9077149 84.170166,17.8881836 C84.1335447,17.8686522 84.1103516,17.854004 84.1005859,17.8442383 C84.0859374,17.8344726 84.0578615,17.8198243 84.0163574,17.800293 C83.9748533,17.7807616 83.9492188,17.7709961 83.9394531,17.7709961 C83.8564449,17.7368162 83.7844241,17.7197266 83.7233887,17.7197266 C83.6623532,17.7197266 83.5830083,17.7197266 83.4853516,17.7197266 C83.2460926,17.7197266 83.0080578,17.7587887 82.7712402,17.8369141 C82.5344226,17.9150395 82.2890638,18.0395499 82.0351562,18.2104492 C81.9912107,18.2495119 81.9436038,18.2861326 81.892334,18.3203125 C81.8410642,18.3544924 81.7958986,18.3911131 81.7568359,18.4301758 C81.7568359,18.4350586 81.744629,18.4521483 81.7202148,18.4814453 C81.6958007,18.5107423 81.6677248,18.543701 81.6359863,18.5803223 C81.6042479,18.6169435 81.5749513,18.6511229 81.5480957,18.6828613 C81.5212401,18.7145998 81.5053711,18.7329101 81.5004883,18.737793 C81.4907226,18.7622072 81.4724122,18.7976072 81.4455566,18.8439941 C81.418701,18.8903811 81.3918458,18.9404294 81.3649902,18.9941406 C81.3381346,19.0478518 81.3112794,19.0991208 81.2844238,19.1479492 C81.2575682,19.1967776 81.2392579,19.2309569 81.2294922,19.2504883 C81.2148437,19.289551 81.2038575,19.3200682 81.1965332,19.342041 C81.1892089,19.3640138 81.1855469,19.3945311 81.1855469,19.4335938 C81.1855469,19.4482423 81.1757813,19.4824216 81.15625,19.5361328 C81.1416015,19.5849612 81.1208497,19.6545406 81.0939941,19.744873 C81.0671385,19.8352055 81.0341799,19.9658195 80.9951172,20.1367188 C80.9951172,20.1464844 80.9902344,20.1818845 80.9804688,20.2429199 C80.9707031,20.3039554 80.9609375,20.3540037 80.9511719,20.3930664 C80.946289,20.4174806 80.942627,20.4589841 80.9401855,20.5175781 C80.9377441,20.5761722 80.9365234,20.6347653 80.9365234,20.6933594 L80.9365234,20.9204102 C80.9365234,20.9350587 80.9377441,20.9643552 80.9401855,21.0083008 C80.942627,21.0522463 80.946289,21.0986326 80.9511719,21.1474609 C80.9560547,21.1962893 80.9609375,21.2426756 80.9658203,21.2866211 C80.9707031,21.3305666 80.9755859,21.3623046 80.9804688,21.3818359 C80.9804688,21.3916016 80.9853515,21.4062499 80.9951172,21.4257812 C81.0048829,21.4453126 81.0146484,21.4599609 81.0244141,21.4697266 C81.0292969,21.4794922 81.0439452,21.4978026 81.0683594,21.5246582 C81.0927736,21.5515138 81.1184081,21.5808104 81.1452637,21.6125488 C81.1721193,21.6442873 81.1989745,21.6748045 81.2258301,21.7041016 C81.2526857,21.7333986 81.270996,21.755371 81.2807617,21.7700195 C81.3491214,21.8432621 81.4211422,21.8994139 81.4968262,21.9384766 C81.5725101,21.9775393 81.6518551,22.0104979 81.7348633,22.0373535 C81.8178715,22.0642091 81.9045406,22.0898436 81.994873,22.1142578 C82.0852055,22.138672 82.1767573,22.17041 82.2695312,22.2094727 C82.2792969,22.2094727 82.3037107,22.2143554 82.3427734,22.2241211 C82.3623048,22.2290039 82.3793945,22.2338867 82.394043,22.2387695 L83.3974609,22.2387695 C83.4218751,22.2827151 83.4426269,22.3083496 83.4597168,22.3156738 C83.4768067,22.3229981 83.5048826,22.3266602 83.5439453,22.3266602 C83.6318364,22.3266602 83.7270503,22.3168946 83.8295898,22.2973633 C83.9321294,22.2778319 84.0322261,22.2473147 84.1298828,22.2058105 C84.2275396,22.1643064 84.3203121,22.1154788 84.4082031,22.0593262 C84.4960942,22.0031735 84.5693356,21.9384769 84.6279297,21.8652344 C84.6328125,21.8505859 84.6523436,21.8200686 84.6865234,21.7736816 C84.7207033,21.7272947 84.757324,21.674805 84.7963867,21.6162109 C84.8354494,21.5576169 84.8745115,21.5002444 84.9135742,21.4440918 C84.9526369,21.3879392 84.9819335,21.3476564 85.0014648,21.3232422 C85.0014648,21.3134765 85.008789,21.2976075 85.0234375,21.2756348 C85.038086,21.253662 85.0454102,21.237793 85.0454102,21.2280273 C85.1284184,21.0815422 85.2053219,20.93628 85.276123,20.7922363 C85.3469242,20.6481926 85.3945311,20.4858407 85.4189453,20.3051758 C85.428711,20.2563474 85.4360351,20.2038577 85.440918,20.1477051 C85.4458008,20.0915525 85.4482422,20.0439455 85.4482422,20.0048828 C85.4482422,19.9902343 85.4433594,19.9548343 85.4335938,19.8986816 C85.4238281,19.842529 85.4140625,19.807129 85.4042969,19.7924805 C85.3896484,19.7485349 85.3676759,19.6826176 85.3383789,19.5947266 C85.3090819,19.5068355 85.2797853,19.4177251 85.2504883,19.3273926 C85.2211913,19.2370601 85.1931154,19.1540531 85.1662598,19.0783691 C85.1394042,19.0026852 85.1235352,18.9550782 85.1186523,18.9355469 L84.7304688,18.3569336 Z" id="path-1"></path>
    </defs>
    <g id="Page-1" stroke="none" stroke-width="1" fill="none" fill-rule="evenodd">
        <g id="Next-Btn-Copy-3" fill="#FFFFFF">
            <rect id="Rectangle" x="0" y="0" width="124" height="38" rx="19"></rect>
        </g>
        <path d="M106.5,16.5 L106.5,22.5" id="Path-6-Copy" stroke="#3C90EB" stroke-width="3" fill="#3F8FE8" stroke-linecap="round" stroke-linejoin="bevel" transform="translate(106.500000, 19.500000) rotate(90.000000) translate(-106.500000, -19.500000) "></path>
        <path d="M106.5,16.5 L106.5,22.5" id="Path-6-Copy-2" stroke="#3C90EB" stroke-width="3" fill="#3F8FE8" stroke-linecap="round" transform="translate(106.500000, 19.500000) rotate(180.000000) translate(-106.500000, -19.500000) "></path>
        <g id="AddStep" fill-rule="nonzero">
            <use fill="#FFFFFF" xlink:href="#path-1"></use>
            <use fill="#3F8FE8" xlink:href="#path-1"></use>
        </g>
    </g>
</svg>