
<svg width="89px" height="38px" viewBox="0 0 89 38" version="1.1" xmlns="http://www.w3.org/2000/svg" xmlns:xlink="http://www.w3.org/1999/xlink">
    <defs>
        <path d="M34.4394531,25.5385742 L34.4394531,25.4946289 C34.473633,25.4262692 34.4980468,25.367676 34.5126953,25.3188477 C34.5273438,25.2700193 34.5371094,25.204102 34.5419922,25.1210938 C34.546875,25.0673825 34.5493164,25.0173342 34.5493164,24.9709473 C34.5493164,24.9245603 34.5371095,24.8793948 34.5126953,24.8354492 C34.5371095,24.4594708 34.5444336,24.0847187 34.534668,23.7111816 C34.5249023,23.3376446 34.5322264,22.9677753 34.5566406,22.6015625 L34.5200195,22.5136719 L34.5786133,21.0854492 L34.5493164,20.9975586 C34.5493164,20.9633787 34.5505371,20.9035649 34.5529785,20.8181152 C34.5554199,20.7326656 34.559082,20.6435552 34.5639648,20.5507812 C34.5688477,20.4580073 34.5737304,20.3701176 34.5786133,20.2871094 C34.5834961,20.2041011 34.5859375,20.145508 34.5859375,20.1113281 C34.5810547,20.0820311 34.5761719,20.007569 34.5712891,19.8879395 C34.5664062,19.7683099 34.5627442,19.6389167 34.5603027,19.4997559 C34.5578613,19.360595 34.5554199,19.2312018 34.5529785,19.1115723 C34.5505371,18.9919428 34.5493164,18.9150392 34.5493164,18.8808594 L34.5493164,18.6574707 C34.5493164,18.542724 34.5505371,18.408448 34.5529785,18.2546387 C34.5554199,18.1008293 34.5566406,17.9335947 34.5566406,17.7529297 C34.5566406,17.5722647 34.5578613,17.3964852 34.5603027,17.2255859 C34.5627442,17.0546866 34.5639648,16.8959968 34.5639648,16.7495117 L34.5639648,16.3979492 C34.5639648,16.3881835 34.5651855,16.362549 34.567627,16.3210449 C34.5700684,16.2795408 34.5712891,16.2343752 34.5712891,16.1855469 C34.5712891,16.1367185 34.5725098,16.0927736 34.5749512,16.0537109 C34.5773926,16.0146482 34.5786133,15.9902344 34.5786133,15.9804688 C34.5932618,15.6582015 34.5895997,15.3408219 34.567627,15.0283203 C34.5456542,14.7158187 34.534668,14.3984391 34.534668,14.0761719 L34.534668,13.9736328 C34.534668,13.9589843 34.5371094,13.9467774 34.5419922,13.9370117 C34.5419922,13.8637692 34.5529784,13.8173829 34.5749512,13.7978516 C34.5969239,13.7783202 34.6237791,13.767334 34.6555176,13.7648926 C34.687256,13.7624512 34.7202147,13.7587891 34.7543945,13.7539062 C34.7885744,13.7490234 34.8203124,13.7197268 34.8496094,13.6660156 C35.1083997,13.6708985 35.3513172,13.6696778 35.5783691,13.6623535 C35.8054211,13.6550293 36.0275868,13.6489258 36.244873,13.644043 C36.4621593,13.6391601 36.6794423,13.6379394 36.8967285,13.6403809 C37.1140148,13.6428223 37.342284,13.6562499 37.581543,13.6806641 C37.879396,13.6953126 38.1931136,13.7160643 38.5227051,13.7429199 C38.8522966,13.7697755 39.1757797,13.8234859 39.4931641,13.9040527 C39.8105485,13.9846195 40.1071764,14.0993645 40.3830566,14.248291 C40.6589369,14.3972175 40.8920889,14.5986315 41.0825195,14.8525391 C41.1459964,14.9404301 41.207031,15.0466302 41.265625,15.1711426 C41.324219,15.2956549 41.3767088,15.4274895 41.4230957,15.5666504 C41.4694827,15.7058112 41.5085448,15.8437493 41.5402832,15.9804688 C41.5720216,16.1171882 41.5976562,16.2392573 41.6171875,16.3466797 L41.6171875,16.4455566 C41.6171875,16.4870608 41.6196289,16.5297849 41.6245117,16.5737305 C41.6293946,16.617676 41.6318359,16.6579588 41.6318359,16.6945801 L41.6318359,16.7641602 C41.6318359,16.7739258 41.6269532,16.8044431 41.6171875,16.8557129 C41.6074218,16.9069827 41.5976563,16.9667965 41.5878906,17.0351562 C41.578125,17.103516 41.5671387,17.1718747 41.5549316,17.2402344 C41.5427245,17.3085941 41.5341797,17.3598631 41.5292969,17.394043 C41.4804685,17.6284191 41.3901374,17.8347159 41.2583008,18.0129395 C41.1264642,18.191163 40.9897468,18.3706046 40.8481445,18.5512695 C40.8286132,18.5805666 40.7932131,18.6245114 40.7419434,18.6831055 C40.6906736,18.7416995 40.6369632,18.8027341 40.5808105,18.8662109 C40.5246579,18.9296878 40.4721682,18.9895017 40.4233398,19.0456543 C40.3745115,19.1018069 40.3403321,19.1396483 40.3208008,19.1591797 C40.3208008,19.1689454 40.3183594,19.1787109 40.3134766,19.1884766 C40.3134766,19.2177736 40.3439938,19.2421874 40.4050293,19.2617188 C40.4660648,19.2812501 40.5039062,19.2958984 40.5185547,19.3056641 C40.6748055,19.4082036 40.8078608,19.509521 40.9177246,19.6096191 C41.0275884,19.7097173 41.1362299,19.8305657 41.2436523,19.972168 C41.2583009,19.9916993 41.2753905,20.0026855 41.2949219,20.005127 L41.4121094,20.0197754 C41.4316407,20.0222168 41.4487304,20.033203 41.4633789,20.0527344 C41.4633789,20.0673829 41.4682617,20.0979002 41.4780273,20.1442871 C41.487793,20.1906741 41.4926758,20.21875 41.4926758,20.2285156 C41.5073243,20.2675783 41.5317381,20.304199 41.565918,20.3383789 C41.6000978,20.3725588 41.6354979,20.4042967 41.6721191,20.4335938 C41.7087404,20.4628908 41.7404784,20.489746 41.767334,20.5141602 C41.7941896,20.5385743 41.8125,20.5605468 41.8222656,20.5800781 C41.8222656,20.5898438 41.8210449,20.616699 41.8186035,20.6606445 C41.8161621,20.7045901 41.8149414,20.7314453 41.8149414,20.7412109 C41.8149414,20.7851565 41.828369,20.8193358 41.8552246,20.84375 C41.8820802,20.8681642 41.9101561,20.8901366 41.9394531,20.909668 C41.9687501,20.9291993 41.9943847,20.9511718 42.0163574,20.9755859 C42.0383302,21.0000001 42.0493164,21.0292967 42.0493164,21.0634766 L42.0493164,21.0927734 C42.0395507,21.1025391 42.0236818,21.1232909 42.001709,21.1550293 C41.9797362,21.1867677 41.9638672,21.2075195 41.9541016,21.2172852 L41.9541016,21.2612305 C41.9638672,21.2856447 41.9821776,21.3271481 42.0090332,21.3857422 C42.0358888,21.4443362 42.0541992,21.4858397 42.0639648,21.5102539 C42.0737305,21.5541994 42.0895995,21.631103 42.1115723,21.7409668 C42.133545,21.8508306 42.1555175,21.9667963 42.1774902,22.0888672 C42.199463,22.2109381 42.2189941,22.3269037 42.236084,22.4367676 C42.2531739,22.5466314 42.2641601,22.6235349 42.269043,22.6674805 C42.2739258,22.6723633 42.2788086,22.6870116 42.2836914,22.7114258 C42.2885742,22.73584 42.293457,22.7626952 42.2983398,22.7919922 C42.3032227,22.8212892 42.3068848,22.8493651 42.3093262,22.8762207 C42.3117676,22.9030763 42.3129883,22.9189453 42.3129883,22.9238281 L42.3496094,22.953125 L42.3496094,23.0410156 C42.3496094,23.0507813 42.3483887,23.0666503 42.3459473,23.088623 C42.3435058,23.1105958 42.3422852,23.1264648 42.3422852,23.1362305 C42.3422852,23.1459961 42.3276369,23.1789548 42.2983398,23.2351074 C42.2690428,23.29126 42.2495118,23.3266601 42.2397461,23.3413086 C42.2397461,23.3461914 42.2373047,23.359619 42.2324219,23.3815918 C42.227539,23.4035646 42.223877,23.4291991 42.2214355,23.4584961 C42.2189941,23.4877931 42.2153321,23.515869 42.2104492,23.5427246 C42.2055664,23.5695802 42.203125,23.5854492 42.203125,23.590332 C42.1201168,23.9223649 41.980958,24.2165515 41.7856445,24.4729004 C41.5903311,24.7292493 41.3681653,24.9672841 41.1191406,25.1870117 C41.109375,25.1918946 41.093506,25.2016601 41.0715332,25.2163086 C41.0495604,25.2309571 41.027588,25.2468261 41.0056152,25.263916 C40.9836425,25.2810059 40.96167,25.2968749 40.9396973,25.3115234 C40.9177245,25.3261719 40.9042969,25.3359375 40.8994141,25.3408203 C40.7919917,25.4042972 40.6748053,25.4519041 40.5478516,25.4836426 C40.4208978,25.515381 40.3085942,25.5727535 40.2109375,25.6557617 C40.1767576,25.6655274 40.1157231,25.678955 40.027832,25.6960449 C39.939941,25.7131349 39.8471685,25.7302245 39.7495117,25.7473145 C39.651855,25.7644044 39.5578618,25.7814941 39.4675293,25.798584 C39.3771968,25.8156739 39.3125002,25.8266601 39.2734375,25.831543 C39.0097643,25.8706057 38.7558606,25.8950195 38.5117188,25.9047852 C38.2675769,25.9145508 38.0136732,25.9243164 37.75,25.934082 C37.3056618,25.9536134 36.862551,25.9682617 36.4206543,25.9780273 C35.9787576,25.987793 35.5356468,25.9804689 35.0913086,25.9560547 C35.0620116,25.9658204 35.0375978,25.9768066 35.0180664,25.9890137 C34.9985351,26.0012208 34.9802247,26.0134277 34.9631348,26.0256348 C34.9460448,26.0378419 34.9265138,26.0476074 34.904541,26.0549316 C34.8825682,26.0622559 34.8544924,26.065918 34.8203125,26.065918 C34.7812498,26.065918 34.7531739,26.0671387 34.736084,26.0695801 C34.7189941,26.0720215 34.6982423,26.0537111 34.6738281,26.0146484 C34.6640625,25.9999999 34.6494142,25.9707033 34.6298828,25.9267578 C34.6103515,25.8828123 34.6005859,25.8559571 34.6005859,25.8461914 C34.5908203,25.8364257 34.5895996,25.8022464 34.5969238,25.7436523 C34.6042481,25.6850583 34.6079102,25.650879 34.6079102,25.6411133 C34.5932616,25.6264648 34.5676271,25.605713 34.5310059,25.5788574 C34.4943846,25.5520018 34.4638673,25.5385742 34.4394531,25.5385742 Z M37.1860352,23.3120117 C37.1860352,23.3608401 37.1848145,23.4072263 37.182373,23.4511719 C37.1799316,23.4951174 37.1848144,23.5354002 37.1970215,23.5720215 C37.2092286,23.6086428 37.2287596,23.63916 37.2556152,23.6635742 C37.2824708,23.6879884 37.3227536,23.7075195 37.3764648,23.722168 C37.3862305,23.722168 37.4069823,23.7233887 37.4387207,23.7258301 C37.4704591,23.7282715 37.498535,23.7294922 37.5229492,23.7294922 C37.5375977,23.7294922 37.5644529,23.7307129 37.6035156,23.7331543 C37.6425783,23.7355957 37.6669921,23.7368164 37.6767578,23.7368164 C37.6816406,23.7368164 37.6975096,23.7331543 37.7243652,23.7258301 C37.7512208,23.7185058 37.7792967,23.709961 37.8085938,23.7001953 C37.8378908,23.6904296 37.864746,23.6818848 37.8891602,23.6745605 C37.9135743,23.6672363 37.930664,23.6611328 37.9404297,23.65625 C37.9453125,23.65625 37.9624022,23.6574707 37.9916992,23.6599121 C38.0209962,23.6623535 38.0527342,23.6647949 38.0869141,23.6672363 C38.1210939,23.6696777 38.1516112,23.6721191 38.1784668,23.6745605 C38.2053224,23.677002 38.2211914,23.6757813 38.2260742,23.6708984 C38.3872078,23.6513671 38.5520011,23.5988774 38.720459,23.5134277 C38.8889169,23.4279781 39.0427239,23.3205573 39.1818848,23.1911621 C39.3210456,23.0617669 39.4357906,22.9165047 39.526123,22.7553711 C39.6164555,22.5942375 39.6665039,22.4282235 39.6762695,22.2573242 C39.6811524,22.1596675 39.6726075,22.070557 39.6506348,21.9899902 C39.628662,21.9094234 39.5883792,21.8276371 39.5297852,21.7446289 C39.4125971,21.5737296 39.2819831,21.4382329 39.1379395,21.3381348 C38.9938958,21.2380366 38.838868,21.1586917 38.6728516,21.1000977 C38.5068351,21.0415036 38.3322763,20.9975587 38.1491699,20.9682617 C37.9660635,20.9389647 37.7792978,20.9047854 37.5888672,20.8657227 C37.5156246,20.8461913 37.4216314,20.8242189 37.3068848,20.7998047 C37.1921381,20.7753905 37.085938,20.7607422 36.9882812,20.7558594 L36.9882812,20.7998047 C36.9882812,20.819336 36.993164,20.8339843 37.0029297,20.84375 C37.0029297,20.8535157 37.0065918,20.8815916 37.013916,20.9279785 C37.0212403,20.9743655 37.0249023,21.0024414 37.0249023,21.012207 L37.0249023,21.0854492 C37.0249023,21.1245119 37.0236817,21.1647947 37.0212402,21.2062988 C37.0187988,21.2478029 37.0163574,21.2880857 37.013916,21.3271484 C37.0114746,21.3662111 37.0102539,21.390625 37.0102539,21.4003906 C37.0102539,21.4980474 37.0261229,21.6005854 37.0578613,21.7080078 C37.0895998,21.8154302 37.1103515,21.922851 37.1201172,22.0302734 C37.1201172,22.0400391 37.1213379,22.0803219 37.1237793,22.151123 C37.1262207,22.2219242 37.1298828,22.3024898 37.1347656,22.3928223 L37.1494141,22.6638184 C37.1542969,22.7541508 37.1567383,22.8237302 37.1567383,22.8725586 L37.1567383,22.9677734 C37.166504,22.9775391 37.1799316,23.0043943 37.1970215,23.0483398 C37.2141114,23.0922854 37.227539,23.1191406 37.2373047,23.1289062 L37.2373047,23.1435547 C37.2324219,23.1777345 37.2226563,23.2070311 37.2080078,23.2314453 C37.1933593,23.2558595 37.1860352,23.2827147 37.1860352,23.3120117 Z M37.0102539,16.4125977 C37.0004882,16.5981455 37.005371,16.7763663 37.0249023,16.9472656 C37.0444337,17.1181649 37.0688475,17.291503 37.0981445,17.4672852 C37.1079102,17.5747076 37.112793,17.6821284 37.112793,17.7895508 C37.112793,17.8969732 37.1225585,17.9995112 37.1420898,18.097168 C37.1469727,18.1313478 37.1542968,18.154541 37.1640625,18.166748 C37.1738282,18.1789551 37.1848144,18.1887207 37.1970215,18.1960449 C37.2092286,18.2033692 37.2214355,18.2131347 37.2336426,18.2253418 C37.2458497,18.2375489 37.2592773,18.2583006 37.2739258,18.2875977 C37.2739258,18.2973633 37.2788085,18.3193358 37.2885742,18.3535156 C37.2983399,18.3876955 37.3081054,18.4047852 37.3178711,18.4047852 C37.3374024,18.4291993 37.3862301,18.4609373 37.4643555,18.5 C37.5424809,18.5390627 37.601074,18.5585938 37.6401367,18.5585938 C37.6499024,18.5585938 37.6706541,18.553711 37.7023926,18.5439453 C37.734131,18.5341796 37.7573241,18.5244141 37.7719727,18.5146484 C37.791504,18.5097656 37.8342282,18.4914552 37.9001465,18.4597168 C37.9660648,18.4279784 38.0063476,18.4047852 38.0209961,18.3901367 C38.0356446,18.3852539 38.0624998,18.3718263 38.1015625,18.3498535 C38.1406252,18.3278807 38.1833494,18.3046876 38.2297363,18.2802734 C38.2761233,18.2558593 38.3200682,18.2326661 38.3615723,18.2106934 C38.4030764,18.1887206 38.4335937,18.1704102 38.453125,18.1557617 C38.511719,18.1264647 38.5837398,18.0849612 38.6691895,18.03125 C38.7546391,17.9775388 38.8376461,17.9177249 38.9182129,17.8518066 C38.9987797,17.7858883 39.0683591,17.716309 39.1269531,17.6430664 C39.1855472,17.5698239 39.2148438,17.4965824 39.2148438,17.4233398 C39.2197266,17.3940428 39.2197266,17.3671876 39.2148438,17.3427734 C39.2099609,17.3183593 39.1928712,17.2939454 39.1635742,17.2695312 C39.0219719,17.0937491 38.8803718,16.9436041 38.7387695,16.8190918 C38.5971673,16.6945795 38.4458016,16.5920414 38.284668,16.5114746 C38.1235344,16.4309078 37.9501962,16.3698733 37.7646484,16.3283691 C37.5791006,16.286865 37.3740246,16.2612305 37.1494141,16.2514648 C37.1347656,16.2514648 37.1103517,16.2551269 37.0761719,16.2624512 C37.041992,16.2697754 37.0200196,16.2783203 37.0102539,16.2880859 L37.0102539,16.4125977 Z M50.1425781,25.9560547 C50.0839841,25.9218748 50.0583496,25.8730472 50.0656738,25.8095703 C50.0729981,25.7460934 50.0742188,25.6850589 50.0693359,25.6264648 C50.0693359,25.6166992 50.0620118,25.6020509 50.0473633,25.5825195 C50.0327148,25.5629882 50.0253906,25.5483399 50.0253906,25.5385742 L50.0253906,25.4726562 C50.0253906,25.4042965 50.0400389,25.343262 50.0693359,25.2895508 C50.098633,25.2358396 50.1132812,25.1772464 50.1132812,25.1137695 L50.1132812,25.0698242 C50.0986327,25.0698242 50.0754396,25.074707 50.0437012,25.0844727 C50.0119627,25.0942383 49.991211,25.1040039 49.9814453,25.1137695 C49.9472655,25.1381837 49.8923344,25.1748044 49.8166504,25.2236328 C49.7409664,25.2724612 49.6591801,25.3237302 49.5712891,25.3774414 C49.483398,25.4311526 49.3979496,25.4799802 49.3149414,25.5239258 C49.2319332,25.5678713 49.1684573,25.5922851 49.1245117,25.597168 L48.5532227,25.831543 L48.5092773,25.831543 C48.4995117,25.831543 48.482422,25.8339844 48.4580078,25.8388672 C48.4335936,25.84375 48.4079591,25.8498535 48.3811035,25.8571777 C48.3542479,25.864502 48.3273927,25.8706054 48.3005371,25.8754883 C48.2736815,25.8803711 48.2578125,25.8828125 48.2529297,25.8828125 L47.5571289,25.8828125 C47.4838864,25.8828125 47.414307,25.8803711 47.3483887,25.8754883 C47.2824704,25.8706054 47.2141117,25.8657227 47.1433105,25.8608398 C47.0725094,25.855957 46.9931645,25.8461915 46.9052734,25.831543 C46.8955078,25.8266601 46.8698733,25.819336 46.8283691,25.8095703 C46.786865,25.7998046 46.7429202,25.7900391 46.6965332,25.7802734 C46.6501463,25.7705078 46.6062014,25.7619629 46.5646973,25.7546387 C46.5231932,25.7473144 46.4975586,25.7436523 46.487793,25.7436523 L46.1069336,25.7436523 L45.8652344,25.6484375 C45.8310545,25.633789 45.7785648,25.6069338 45.7077637,25.5678711 C45.6369625,25.5288084 45.5612797,25.4873049 45.4807129,25.4433594 C45.4001461,25.3994138 45.3232426,25.3579104 45.25,25.3188477 C45.1767574,25.279785 45.123047,25.2529298 45.0888672,25.2382812 C45.0595702,25.2236327 45.0156253,25.202881 44.9570312,25.1760254 C44.8984372,25.1491698 44.8386234,25.1198732 44.7775879,25.0881348 C44.7165524,25.0563963 44.65918,25.0283204 44.6054688,25.0039062 C44.5517575,24.9794921 44.5175782,24.9624024 44.5029297,24.9526367 C44.4980469,24.9477539 44.4858399,24.9367677 44.4663086,24.9196777 C44.4467772,24.9025878 44.4235841,24.8818361 44.3967285,24.8574219 C44.3698729,24.8330077 44.3430177,24.8098146 44.3161621,24.7878418 C44.2893065,24.765869 44.2685548,24.75 44.2539062,24.7402344 C44.1318353,24.6181635 44.014649,24.4838875 43.9023438,24.3374023 C43.7900385,24.1909172 43.6777349,24.0517585 43.5654297,23.9199219 C43.4628901,23.797851 43.3774417,23.6367198 43.309082,23.4365234 C43.2407223,23.2363271 43.1845705,23.0251476 43.140625,22.8029785 C43.0966795,22.5808094 43.0649415,22.3623058 43.0454102,22.1474609 C43.0258788,21.9326161 43.0161133,21.7470711 43.0161133,21.5908203 C43.0161133,21.390624 43.017334,21.205079 43.0197754,21.0341797 C43.0222168,20.8632804 43.0319823,20.6960457 43.0490723,20.5324707 C43.0661622,20.3688957 43.0917967,20.2041024 43.1259766,20.0380859 C43.1601564,19.8720695 43.2089841,19.6938486 43.2724609,19.503418 C43.2773438,19.4741209 43.2956541,19.4118657 43.3273926,19.3166504 C43.359131,19.2214351 43.3920897,19.1262212 43.4262695,19.0310059 C43.4604494,18.9357905 43.489746,18.858887 43.5141602,18.800293 C43.5385743,18.7416989 43.5483399,18.7392575 43.543457,18.7929688 C43.6215824,18.5683583 43.7241205,18.3596201 43.8510742,18.166748 C43.978028,17.973876 44.1220695,17.7944344 44.2832031,17.628418 C44.4443367,17.4624015 44.6188955,17.3085945 44.8068848,17.1669922 C44.994874,17.0253899 45.1889638,16.8935553 45.3891602,16.7714844 C45.4086915,16.7568359 45.4538571,16.7312014 45.5246582,16.6945801 C45.5954593,16.6579588 45.6711422,16.6201174 45.751709,16.5810547 C45.8322758,16.541992 45.9104,16.5041506 45.986084,16.4675293 C46.061768,16.430908 46.1142577,16.4077149 46.1435547,16.3979492 C46.1484375,16.3930664 46.1643065,16.3869629 46.1911621,16.3796387 C46.2180177,16.3723144 46.2497557,16.3637696 46.286377,16.3540039 C46.3229982,16.3442382 46.359619,16.3356934 46.3962402,16.3283691 L46.487793,16.3100586 C46.51709,16.3002929 46.5561521,16.2905274 46.6049805,16.2807617 C46.6538088,16.270996 46.6831054,16.2661133 46.6928711,16.2661133 L48.1357422,16.2661133 C48.3066415,16.3149417 48.4726554,16.3601072 48.6337891,16.4016113 C48.7949227,16.4431154 48.9499504,16.4943845 49.098877,16.5554199 C49.2478035,16.6164554 49.391845,16.6896968 49.5310059,16.7751465 C49.6701667,16.8605961 49.8056634,16.971679 49.9375,17.1083984 L49.9667969,17.1083984 C49.9667969,17.0937499 49.9680176,17.0729982 49.970459,17.0461426 C49.9729004,17.019287 49.9741211,16.9912111 49.9741211,16.9619141 C49.9741211,16.932617 49.9753418,16.9045411 49.9777832,16.8776855 C49.9802246,16.8508299 49.9814453,16.8325196 49.9814453,16.8227539 C49.9814453,16.8178711 49.9838867,16.8007814 49.9887695,16.7714844 C49.9936524,16.7421874 49.9997558,16.7104494 50.0070801,16.6762695 C50.0144043,16.6420897 50.0217285,16.6115724 50.0290527,16.5847168 C50.036377,16.5578612 50.0400391,16.5419922 50.0400391,16.5371094 C50.0156249,16.5029295 50.0131835,16.4675295 50.0327148,16.4309082 C50.0522462,16.3942869 50.0803221,16.3637697 50.1169434,16.3393555 C50.1535646,16.3149413 50.1938474,16.2990723 50.237793,16.291748 C50.2817385,16.2844238 50.3183592,16.2905272 50.3476562,16.3100586 C50.5917981,16.3100586 50.8066397,16.3112793 50.9921875,16.3137207 C51.1777353,16.3161621 51.3583976,16.3210449 51.5341797,16.3283691 C51.7099618,16.3356934 51.8918448,16.349121 52.079834,16.3686523 C52.2678232,16.3881837 52.4838855,16.4125975 52.7280273,16.4418945 C52.7426759,16.4516602 52.7670897,16.4650878 52.8012695,16.4821777 C52.8354494,16.4992677 52.8525391,16.5200194 52.8525391,16.5444336 C52.8525391,16.5883791 52.8549804,16.6420895 52.8598633,16.7055664 C52.8647461,16.7690433 52.8696289,16.8361813 52.8745117,16.9069824 C52.8793946,16.9777836 52.8842773,17.0461422 52.8891602,17.1120605 C52.894043,17.1779788 52.894043,17.2353513 52.8891602,17.2841797 C52.8891602,17.2939454 52.8867188,17.3232419 52.8818359,17.3720703 C52.8769531,17.4208987 52.8720703,17.4746091 52.8671875,17.5332031 C52.8623047,17.5917972 52.8574219,17.6455076 52.8525391,17.6943359 C52.8476562,17.7431643 52.8452148,17.7724609 52.8452148,17.7822266 C52.8452148,17.7968751 52.8378907,17.8322751 52.8232422,17.8884277 C52.8085937,17.9445804 52.8012695,17.977539 52.8012695,17.9873047 C52.8012695,18.0019532 52.8024902,18.0324705 52.8049316,18.0788574 C52.8073731,18.1252444 52.8085938,18.174072 52.8085938,18.2253418 L52.8085938,18.3718262 C52.8085938,18.4182131 52.8061524,18.446289 52.8012695,18.4560547 C52.8012695,18.4707032 52.7963868,18.4926756 52.7866211,18.5219727 C52.7768554,18.5512697 52.7670899,18.5732421 52.7573242,18.5878906 L52.7426758,20.3164062 L52.7426758,20.7558594 C52.7426758,20.9414072 52.7438965,21.1721178 52.7463379,21.447998 C52.7487793,21.7238783 52.7524414,22.0302718 52.7573242,22.3671875 C52.7622071,22.7041032 52.7670898,23.0397932 52.7719727,23.3742676 C52.7768555,23.7087419 52.7817383,24.0249009 52.7866211,24.3227539 C52.7915039,24.620607 52.7988281,24.8696279 52.8085938,25.0698242 C52.8085938,25.0844727 52.8049317,25.1223141 52.7976074,25.1833496 C52.7902832,25.2443851 52.782959,25.3115231 52.7756348,25.3847656 C52.7683105,25.4580082 52.7609864,25.5251462 52.7536621,25.5861816 C52.7463379,25.6472171 52.7451172,25.6850585 52.75,25.699707 L52.75,25.8168945 C52.7402343,25.831543 52.7072757,25.8486327 52.651123,25.8681641 C52.5949704,25.8876954 52.5620118,25.9023437 52.5522461,25.9121094 C52.4204095,25.9121094 52.3068852,25.9169921 52.2116699,25.9267578 C52.1164546,25.9365235 52.0261235,25.9475097 51.9406738,25.9597168 C51.8552242,25.9719239 51.7673344,25.9829101 51.677002,25.9926758 C51.5866695,26.0024415 51.4755866,26.0048828 51.34375,26 L50.9995117,26 C50.9653319,26 50.9079594,25.9987793 50.8273926,25.9963379 C50.7468258,25.9938965 50.6613774,25.9902344 50.5710449,25.9853516 C50.4807124,25.9804687 50.3952641,25.975586 50.3146973,25.9707031 C50.2341305,25.9658203 50.176758,25.9609375 50.1425781,25.9560547 Z M45.8139648,21.1367188 C45.8139648,21.3955091 45.856689,21.6347645 45.9421387,21.8544922 C46.0275883,22.0742198 46.1386712,22.2915028 46.2753906,22.5063477 C46.2851563,22.5209962 46.2998046,22.5441893 46.3193359,22.5759277 C46.3388673,22.6076662 46.3535156,22.6235352 46.3632812,22.6235352 C46.4804693,22.7504889 46.6013177,22.872558 46.7258301,22.9897461 C46.8503424,23.1069342 46.982177,23.2106929 47.1213379,23.3010254 C47.2604987,23.3913579 47.4082023,23.4633786 47.5644531,23.5170898 C47.7207039,23.570801 47.8916006,23.5976562 48.0771484,23.5976562 C48.2333992,23.5976562 48.392089,23.570801 48.5532227,23.5170898 C48.7143563,23.4633786 48.8657219,23.4072269 49.0073242,23.3486328 C49.0268556,23.3388671 49.0549315,23.3254395 49.0915527,23.3083496 L49.201416,23.2570801 C49.2380373,23.2399901 49.2697753,23.2241212 49.2966309,23.2094727 C49.3234865,23.1948241 49.3417968,23.1850586 49.3515625,23.1801758 C49.5322275,23.0434563 49.6811518,22.8811045 49.7983398,22.6931152 C49.9155279,22.505126 50.0095211,22.3049327 50.0803223,22.0925293 C50.1511234,21.8801259 50.199951,21.6604015 50.2268066,21.4333496 C50.2536622,21.2062977 50.2719726,20.987794 50.2817383,20.777832 C50.2817383,20.7534178 50.2805176,20.7119144 50.2780762,20.6533203 C50.2756348,20.5947263 50.2719727,20.5336917 50.2670898,20.4702148 C50.262207,20.406738 50.2573242,20.3469241 50.2524414,20.2907715 C50.2475586,20.2346189 50.2426758,20.1967774 50.237793,20.1772461 L50.171875,20.0454102 C50.1523437,20.0063475 50.1328126,19.9697267 50.1132812,19.9355469 C50.0937499,19.901367 50.0791016,19.8720704 50.0693359,19.8476562 C49.9716792,19.6621084 49.8728032,19.4826669 49.7727051,19.3093262 C49.6726069,19.1359855 49.5395516,18.9980474 49.3735352,18.8955078 L49.2416992,18.7966309 C49.1928708,18.7600096 49.1403811,18.7233889 49.0842285,18.6867676 C49.0280759,18.6501463 48.9731448,18.615967 48.9194336,18.5842285 C48.8657224,18.5524901 48.8168948,18.5317383 48.7729492,18.5219727 C48.7534179,18.5170898 48.7180178,18.5073243 48.666748,18.4926758 C48.6154783,18.4780273 48.5605472,18.463379 48.5019531,18.4487305 C48.4433591,18.434082 48.388428,18.421875 48.3371582,18.4121094 C48.2858884,18.4023437 48.2504884,18.3950196 48.230957,18.3901367 C48.20166,18.3461912 48.1577151,18.3205567 48.0991211,18.3132324 C48.0405271,18.3059082 47.9758304,18.3059082 47.9050293,18.3132324 C47.8342282,18.3205567 47.7646488,18.3315429 47.6962891,18.3461914 C47.6279293,18.3608399 47.5717776,18.3681641 47.527832,18.3681641 C47.4545895,18.3681641 47.3764653,18.3815917 47.293457,18.4084473 C47.2104488,18.4353029 47.1311039,18.4707029 47.0554199,18.5146484 C46.9797359,18.558594 46.9064945,18.6074216 46.8356934,18.6611328 C46.7648922,18.714844 46.702637,18.7709958 46.6489258,18.8295898 C46.6391601,18.8393555 46.6184084,18.8637693 46.5866699,18.902832 C46.5549315,18.9418947 46.5207521,18.9821775 46.4841309,19.0236816 C46.4475096,19.0651858 46.4121095,19.1054686 46.3779297,19.1445312 C46.3437498,19.1835939 46.3242188,19.2080078 46.3193359,19.2177734 C46.1337881,19.4228526 46.0043949,19.6645494 45.9311523,19.9428711 C45.8872068,20.1381846 45.8566895,20.3347158 45.8395996,20.5324707 C45.8225097,20.7302256 45.8139648,20.9316396 45.8139648,21.1367188 Z M54.2368164,23.2241211 C54.2221679,23.1948241 54.1989748,23.1435551 54.1672363,23.0703125 C54.1354979,22.9970699 54.1013185,22.9189457 54.0646973,22.8359375 C54.028076,22.7529293 53.9951173,22.6748051 53.9658203,22.6015625 C53.9365233,22.5283199 53.9169922,22.4770509 53.9072266,22.4477539 C53.9072266,22.4379882 53.9035645,22.4050296 53.8962402,22.348877 C53.888916,22.2927243 53.8828125,22.2500001 53.8779297,22.2207031 C53.80957,21.7617165 53.8010251,21.2929711 53.8522949,20.8144531 C53.9035647,20.3359351 53.985351,19.8793967 54.0976562,19.4448242 C54.195313,19.09326 54.3259269,18.7514665 54.489502,18.4194336 C54.653077,18.0874007 54.8508289,17.7834486 55.0827637,17.5075684 C55.3146984,17.2316881 55.580809,16.9924327 55.8811035,16.7897949 C56.181398,16.5871572 56.5195294,16.4394536 56.8955078,16.3466797 C57.1494153,16.2832028 57.419188,16.2294924 57.704834,16.1855469 C57.9904799,16.1416013 58.2651354,16.1098634 58.5288086,16.090332 C58.5532228,16.090332 58.5861814,16.0878906 58.6276855,16.0830078 C58.6691897,16.078125 58.7094725,16.0744629 58.7485352,16.0720215 C58.7875979,16.0695801 58.8217772,16.0671387 58.8510742,16.0646973 C58.8803712,16.0622558 58.8974609,16.0610352 58.9023438,16.0610352 C59.1269542,16.0610352 59.3662097,16.0659179 59.6201172,16.0756836 C59.8740247,16.0854493 60.1206043,16.1171872 60.3598633,16.1708984 C60.5698253,16.214844 60.7944324,16.2685544 61.0336914,16.3320312 C61.2729504,16.3955081 61.4926748,16.4809565 61.6928711,16.5883789 C61.7075196,16.5932617 61.7441403,16.6103514 61.8027344,16.6396484 C61.8613284,16.6689455 61.9235837,16.7006834 61.989502,16.7348633 C62.0554203,16.7690431 62.1164548,16.8007811 62.1726074,16.8300781 C62.22876,16.8593751 62.2641601,16.8764648 62.2788086,16.8813477 C62.4106452,16.9936529 62.5058591,17.0766599 62.5644531,17.1303711 C62.6230472,17.1840823 62.6755369,17.2341306 62.7219238,17.2805176 L62.8867188,17.4453125 C62.9501956,17.5087894 63.0527337,17.608886 63.1943359,17.7456055 C63.2089844,17.7700197 63.2297362,17.7968749 63.2565918,17.8261719 C63.2834474,17.8554689 63.3029785,17.8908689 63.3151855,17.932373 C63.3273926,17.9738772 63.3249513,18.0239255 63.3078613,18.0825195 C63.2907714,18.1411136 63.2480472,18.2070309 63.1796875,18.2802734 C63.1748047,18.2851563 63.1320805,18.3168942 63.0515137,18.3754883 C62.9709469,18.4340823 62.8769537,18.5061031 62.7695312,18.5915527 C62.6621088,18.6770024 62.554688,18.7648921 62.4472656,18.8552246 C62.3398432,18.9455571 62.2592776,19.0224606 62.2055664,19.0859375 C62.0883783,19.2617196 61.9724127,19.3715818 61.857666,19.4155273 C61.7429193,19.4594729 61.6440434,19.4692384 61.5610352,19.4448242 L61.5170898,19.4448242 C61.4291988,19.4301757 61.3645022,19.4155274 61.322998,19.4008789 C61.2814939,19.3862304 61.2460939,19.3691407 61.2167969,19.3496094 C61.1874999,19.330078 61.1557619,19.3056642 61.121582,19.2763672 C61.0874022,19.2470702 61.0336918,19.2104494 60.9604492,19.1665039 C60.877441,19.1176755 60.7761236,19.0737307 60.6564941,19.034668 C60.5368646,18.9956053 60.4306645,18.9687501 60.3378906,18.9541016 C60.2695309,18.9394531 60.1828619,18.9223634 60.0778809,18.902832 C59.9728999,18.8833007 59.8691411,18.8649903 59.7666016,18.8479004 C59.664062,18.8308105 59.5737309,18.8149415 59.4956055,18.800293 C59.4174801,18.7856445 59.3735352,18.7758789 59.3637695,18.7709961 C59.3295897,18.7709961 59.2954103,18.7734375 59.2612305,18.7783203 C59.2319334,18.7832031 59.2014162,18.7868652 59.1696777,18.7893066 C59.1379393,18.7917481 59.1123048,18.7929688 59.0927734,18.7929688 C58.9902339,18.8027344 58.8999027,18.8088379 58.8217773,18.8112793 C58.743652,18.8137207 58.6630864,18.8344725 58.5800781,18.8735352 C58.3994132,18.9565434 58.2431647,19.0688469 58.1113281,19.2104492 C57.9794915,19.3520515 57.8647466,19.5070792 57.7670898,19.6755371 C57.6694331,19.843995 57.5864261,20.0197745 57.5180664,20.2028809 C57.4497067,20.3859872 57.3862308,20.5654288 57.3276367,20.7412109 C57.2836912,20.8828132 57.2531739,21.0317375 57.236084,21.1879883 C57.2189941,21.3442391 57.2226561,21.4980461 57.2470703,21.6494141 C57.2763673,21.859376 57.3239743,22.0510245 57.3898926,22.2243652 C57.4558109,22.3977059 57.5437006,22.5502923 57.6535645,22.6821289 C57.7634283,22.8139655 57.8964836,22.9250484 58.0527344,23.0153809 C58.2089852,23.1057133 58.3969716,23.1728513 58.6166992,23.2167969 C58.6606448,23.2265625 58.7216793,23.2375488 58.7998047,23.2497559 C58.8779301,23.261963 58.9536129,23.2741699 59.0268555,23.286377 C59.100098,23.298584 59.1647946,23.3095703 59.2209473,23.3193359 C59.2770999,23.3291016 59.3100585,23.3339844 59.3198242,23.3339844 L59.3820801,23.3339844 C59.4187014,23.3339844 59.4614255,23.3327637 59.5102539,23.3303223 C59.5590823,23.3278808 59.6066892,23.3254395 59.6530762,23.322998 C59.6994631,23.3205566 59.7373045,23.3193359 59.7666016,23.3193359 C59.7812501,23.3193359 59.8105467,23.3168946 59.8544922,23.3120117 C59.8984377,23.3071289 59.9436033,23.3010254 59.9899902,23.2937012 C60.0363772,23.2863769 60.0803221,23.2802735 60.1218262,23.2753906 C60.1633303,23.2705078 60.1914062,23.2680664 60.2060547,23.2680664 C60.2744144,23.2338865 60.3427731,23.208252 60.4111328,23.1911621 C60.4794925,23.1740722 60.5429685,23.1459963 60.6015625,23.1069336 C60.6943364,23.0581052 60.8078607,22.9909672 60.9421387,22.9055176 C61.0764167,22.8200679 61.1850582,22.7431644 61.2680664,22.6748047 C61.3657231,22.6015621 61.4523922,22.5368655 61.5280762,22.4807129 C61.6037601,22.4245603 61.7075189,22.3916016 61.8393555,22.3818359 L61.9858398,22.3671875 C62.0346682,22.3623047 62.0786131,22.3745116 62.1176758,22.4038086 C62.1274415,22.4135743 62.1542967,22.434326 62.1982422,22.4660645 C62.2421877,22.4978029 62.2690429,22.5136719 62.2788086,22.5136719 C62.2885743,22.5234375 62.3227536,22.5478514 62.3813477,22.5869141 L62.5681152,22.7114258 C62.6340335,22.7553713 62.6975095,22.7968748 62.7585449,22.8359375 C62.8195804,22.8750002 62.8598632,22.899414 62.8793945,22.9091797 L62.9306641,22.9384766 C62.9453126,22.9482422 62.9758298,22.968994 63.0222168,23.0007324 C63.0686037,23.0324709 63.1186521,23.0654295 63.1723633,23.0996094 C63.2260745,23.1337892 63.2761228,23.1655272 63.3225098,23.1948242 C63.3688967,23.2241212 63.3969726,23.2412109 63.4067383,23.2460938 C63.4360353,23.2705079 63.456787,23.2875976 63.4689941,23.2973633 C63.4812012,23.307129 63.4909668,23.3168945 63.498291,23.3266602 C63.5056153,23.3364258 63.510498,23.3486327 63.5129395,23.3632812 C63.5153809,23.3779298 63.5190429,23.4023436 63.5239258,23.4365234 C63.5336915,23.4951175 63.5373535,23.536621 63.5349121,23.5610352 C63.5324707,23.5854493 63.5117189,23.6245115 63.4726562,23.6782227 C63.2236316,24.0151384 62.9575209,24.3227525 62.6743164,24.6010742 C62.3911119,24.8793959 62.0883805,25.1503893 61.7661133,25.4140625 C61.5415028,25.5410163 61.3339853,25.6398922 61.1435547,25.7106934 C60.953124,25.7814945 60.7736825,25.8339842 60.6052246,25.8681641 C60.4367667,25.9023439 60.2756355,25.925537 60.1218262,25.9377441 C59.9680168,25.9499512 59.8178718,25.9633788 59.6713867,25.9780273 C59.6469725,25.9780273 59.605469,25.9804687 59.546875,25.9853516 C59.488281,25.9902344 59.4272464,25.9951172 59.3637695,26 C59.3002927,26.0048828 59.2404788,26.0085449 59.1843262,26.0109863 C59.1281735,26.0134277 59.0854494,26.0146484 59.0561523,26.0146484 C58.8022448,25.9999999 58.5593273,25.9816896 58.3273926,25.9597168 C58.0954578,25.937744 57.8598645,25.8852543 57.6206055,25.8022461 C57.605957,25.7973633 57.5681155,25.786377 57.5070801,25.7692871 C57.4460446,25.7521972 57.3789066,25.7338868 57.3056641,25.7143555 C57.2324215,25.6948241 57.1640628,25.6765138 57.1005859,25.6594238 C57.0371091,25.6423339 56.9956056,25.6313477 56.9760742,25.6264648 C56.7661122,25.5532223 56.5561534,25.455567 56.3461914,25.3334961 C56.1362294,25.2114252 55.932374,25.0747078 55.7346191,24.9233398 C55.5368642,24.7719719 55.3513192,24.60962 55.1779785,24.4362793 C55.0046378,24.2629386 54.8520514,24.0908212 54.7202148,23.9199219 C54.7104492,23.9052734 54.687256,23.8698733 54.6506348,23.8137207 C54.6140135,23.7575681 54.5749514,23.6965335 54.5334473,23.6306152 C54.4919432,23.5646969 54.452881,23.5036624 54.4162598,23.4475098 C54.3796385,23.3913571 54.3564454,23.3559571 54.3466797,23.3413086 C54.336914,23.3315429 54.3186036,23.3120119 54.291748,23.2827148 C54.2648924,23.2534178 54.2465821,23.2338868 54.2368164,23.2241211 Z M69.8520508,24.9526367 C69.8422851,24.9477539 69.8239747,24.9331056 69.7971191,24.9086914 C69.7702635,24.8842772 69.7421876,24.8586427 69.7128906,24.8317871 C69.6835936,24.8049315 69.6579591,24.779297 69.6359863,24.7548828 C69.6140136,24.7304686 69.600586,24.7158203 69.5957031,24.7109375 C69.5859375,24.7011718 69.5700685,24.6779787 69.5480957,24.6413574 C69.5261229,24.6047361 69.510254,24.581543 69.5004883,24.5717773 C69.4614256,24.5278318 69.400391,24.4472662 69.3173828,24.3300781 C69.2343746,24.21289 69.1452641,24.0883796 69.0500488,23.956543 C68.9548335,23.8247064 68.8632817,23.6989752 68.7753906,23.5793457 C68.6874996,23.4597162 68.6215823,23.3754885 68.5776367,23.3266602 L68.4458008,23.1948242 C68.4311523,23.1801757 68.416504,23.163086 68.4018555,23.1435547 C68.3774413,23.1093748 68.3652344,23.0874024 68.3652344,23.0776367 C68.3261717,23.0288083 68.2541509,22.9494634 68.1491699,22.8395996 C68.0441889,22.7297358 67.9318854,22.6149908 67.8122559,22.4953613 C67.6926264,22.3757318 67.5803228,22.2609869 67.4753418,22.151123 C67.3703608,22.0412592 67.29834,21.9619143 67.2592773,21.9130859 L67.2592773,22.081543 C67.2788087,22.2329109 67.293457,22.39038 67.3032227,22.5539551 C67.3129883,22.7175301 67.3215332,22.8811027 67.3288574,23.0446777 C67.3361817,23.2082528 67.3422851,23.3706047 67.347168,23.5317383 C67.3520508,23.6928719 67.359375,23.846679 67.3691406,23.9931641 C67.3837891,24.2714858 67.4045409,24.5436998 67.4313965,24.8098145 C67.4582521,25.0759291 67.4765625,25.3530259 67.4863281,25.6411133 C67.4960938,25.7827156 67.4802248,25.8730467 67.4387207,25.9121094 C67.3972166,25.9511721 67.3398441,25.9707031 67.2666016,25.9707031 C67.1103508,25.9707031 66.9589851,25.9743652 66.8125,25.9816895 C66.6660149,25.9890137 66.5146492,25.9804689 66.3583984,25.9560547 C66.1826163,25.9414062 66.0275886,25.9414062 65.8933105,25.9560547 C65.7590325,25.9707032 65.6284186,25.9853515 65.5014648,26 C65.3745111,26.0146485 65.2426765,26.0231933 65.105957,26.0256348 C64.9692376,26.0280762 64.8105478,26.0097658 64.6298828,25.9707031 C64.6054686,25.9609375 64.5810548,25.9487305 64.5566406,25.934082 C64.5322264,25.9194335 64.5200195,25.8999025 64.5200195,25.8754883 L64.5200195,25.8461914 C64.5249024,25.8413086 64.5249024,25.8254396 64.5200195,25.798584 C64.5151367,25.7717284 64.5090332,25.7436525 64.501709,25.7143555 C64.4943847,25.6850584 64.4882813,25.6582032 64.4833984,25.6337891 C64.4785156,25.6093749 64.4785156,25.5947266 64.4833984,25.5898438 L64.4321289,22.2573242 L64.3955078,20.9975586 L64.3881836,18.5292969 C64.3881836,18.4902342 64.3857422,18.3986824 64.3808594,18.2546387 C64.3759765,18.110595 64.3710938,17.9421396 64.3662109,17.7492676 C64.3613281,17.5563955 64.3552246,17.3488781 64.3479004,17.126709 C64.3405761,16.9045399 64.3344727,16.6970224 64.3295898,16.5041504 C64.324707,16.3112783 64.3186036,16.142823 64.3112793,15.9987793 C64.303955,15.8547356 64.300293,15.7631838 64.300293,15.7241211 C64.300293,15.4311509 64.2954102,15.1394057 64.2856445,14.848877 C64.2758789,14.5583482 64.2709961,14.2714858 64.2709961,13.9882812 L64.2709961,13.8637695 C64.2709961,13.7368158 64.2868651,13.645264 64.3186035,13.5891113 C64.350342,13.5329587 64.41748,13.4975587 64.5200195,13.4829102 L64.6884766,13.4829102 C64.8984385,13.4829102 65.1108388,13.4816895 65.3256836,13.479248 C65.5405284,13.4768066 65.7529286,13.4755859 65.9628906,13.4755859 C66.070313,13.4755859 66.1789545,13.4731446 66.2888184,13.4682617 C66.3986822,13.4633789 66.5073237,13.4609375 66.6147461,13.4609375 C66.7221685,13.4609375 66.8198238,13.4682616 66.9077148,13.4829102 C66.9956059,13.4975587 67.0810543,13.5341794 67.1640625,13.5927734 C67.1738282,13.6318361 67.1884765,13.65625 67.2080078,13.6660156 C67.2275392,13.6757813 67.2373047,13.6953124 67.2373047,13.7246094 L67.2373047,13.7685547 C67.2373047,13.7978517 67.236084,13.8198241 67.2336426,13.8344727 C67.2312012,13.8491212 67.2226563,13.8710936 67.2080078,13.9003906 L67.2080078,14.3764648 C67.2080078,14.400879 67.2092285,14.4362791 67.2116699,14.482666 C67.2141113,14.529053 67.215332,14.5742185 67.215332,14.6181641 C67.215332,14.6621096 67.2165527,14.7011717 67.2189941,14.7353516 C67.2214356,14.7695314 67.2226562,14.7890625 67.2226562,14.7939453 C67.2226562,14.803711 67.2238769,14.823242 67.2263184,14.8525391 C67.2287598,14.8818361 67.2324219,14.9123534 67.2373047,14.9440918 C67.2421875,14.9758302 67.2458496,15.0051268 67.248291,15.0319824 C67.2507324,15.058838 67.2519531,15.074707 67.2519531,15.0795898 C67.256836,15.104004 67.2592773,15.1650386 67.2592773,15.2626953 L67.2592773,15.5739746 C67.2592773,15.6838384 67.2580567,15.7863765 67.2556152,15.8815918 C67.2531738,15.9768071 67.2519531,16.0341796 67.2519531,16.0537109 C67.256836,16.0878908 67.2617187,16.1452633 67.2666016,16.2258301 C67.2714844,16.3063969 67.2763672,16.3906246 67.28125,16.4785156 C67.2861328,16.5664067 67.2897949,16.6506344 67.2922363,16.7312012 C67.2946777,16.811768 67.2958984,16.8666991 67.2958984,16.8959961 C67.2958984,16.9057618 67.2910157,16.9436032 67.28125,17.0095215 C67.2714843,17.0754398 67.2604981,17.1486812 67.248291,17.229248 C67.2360839,17.3098149 67.2250977,17.384277 67.215332,17.4526367 C67.2055664,17.5209964 67.2006836,17.5576172 67.2006836,17.5625 L67.2006836,17.6503906 C67.2202149,17.9921892 67.239746,18.3083482 67.2592773,18.598877 C67.2788087,18.8894057 67.3032225,19.1665026 67.3325195,19.4301758 C67.3422852,19.4155273 67.3728025,19.3789065 67.4240723,19.3203125 C67.4753421,19.2617185 67.5363766,19.1933598 67.6071777,19.1152344 C67.6779789,19.037109 67.7536617,18.9528813 67.8342285,18.8625488 C67.9147953,18.7722163 67.9904782,18.6879887 68.0612793,18.6098633 C68.1320804,18.5317379 68.1918943,18.4633792 68.2407227,18.4047852 C68.289551,18.3461911 68.321289,18.3095704 68.3359375,18.2949219 C68.350586,18.2802734 68.3933102,18.2387699 68.4641113,18.1704102 C68.5349125,18.1020504 68.6093746,18.028809 68.6875,17.9506836 C68.7656254,17.8725582 68.8388668,17.7980961 68.9072266,17.7272949 C68.9755863,17.6564938 69.0170898,17.6113282 69.0317383,17.5917969 C69.0610353,17.5624999 69.1049802,17.5148929 69.1635742,17.4489746 C69.2221683,17.3830563 69.2844235,17.3110355 69.3503418,17.2329102 C69.4162601,17.1547848 69.4821774,17.0803226 69.5480957,17.0095215 C69.614014,16.9387203 69.6665037,16.8813479 69.7055664,16.8374023 C69.7104492,16.8325195 69.7275389,16.8166505 69.7568359,16.7897949 C69.786133,16.7629393 69.8178709,16.732422 69.8520508,16.6982422 L69.9912109,16.559082 C70.0107423,16.5493164 70.0449216,16.5175784 70.09375,16.4638672 C70.1425784,16.410156 70.1938474,16.3527835 70.2475586,16.291748 C70.3012698,16.2307126 70.3513181,16.1733401 70.3977051,16.1196289 C70.444092,16.0659177 70.4746093,16.0341797 70.4892578,16.0244141 C70.513672,16.0097656 70.54541,16.0122069 70.5844727,16.0317383 C70.6235354,16.0512696 70.6479492,16.0561524 70.6577148,16.0463867 L70.730957,16.0463867 L72.8476562,16.5151367 C72.8671876,16.5395509 72.9013669,16.5554199 72.9501953,16.5627441 C72.9990237,16.5700684 73.049072,16.5773925 73.1003418,16.5847168 C73.1516116,16.5920411 73.1955565,16.6018066 73.2321777,16.6140137 C73.268799,16.6262208 73.2871094,16.6494139 73.2871094,16.6835938 L73.2871094,16.7275391 C73.1748041,16.9228525 73.068604,17.0937493 72.9685059,17.2402344 C72.8684077,17.3867195 72.732911,17.530761 72.5620117,17.6723633 C72.4497065,17.7749029 72.3447271,17.881103 72.2470703,17.9909668 C72.1494136,18.1008306 72.0468755,18.2070307 71.9394531,18.3095703 L69.8154297,20.3603516 C69.8203125,20.3505859 69.8142091,20.354248 69.7971191,20.3713379 C69.7800292,20.3884278 69.7568361,20.4104003 69.7275391,20.4372559 C69.698242,20.4641115 69.6665041,20.4946287 69.6323242,20.5288086 C69.5981444,20.5629885 69.5712892,20.592285 69.5517578,20.6166992 C69.517578,20.6557619 69.4956055,20.6691895 69.4858398,20.6569824 C69.4760742,20.6447753 69.4711914,20.6582029 69.4711914,20.6972656 C69.4711914,20.7412112 69.5017087,20.7924802 69.5627441,20.8510742 C69.6237796,20.9096683 69.6713865,20.9584959 69.7055664,20.9975586 C69.7202149,21.0170899 69.7543943,21.0646969 69.8081055,21.1403809 C69.8618167,21.2160648 69.9240719,21.3015132 69.994873,21.3967285 C70.0656742,21.4919438 70.1401363,21.5847163 70.2182617,21.6750488 C70.2963871,21.7653813 70.3671872,21.8325193 70.4306641,21.8764648 C70.4843753,21.9545902 70.5429684,22.0217282 70.6064453,22.0778809 C70.6699222,22.1340335 70.7333981,22.1865232 70.796875,22.2353516 C70.8603519,22.2841799 70.9250485,22.335449 70.9909668,22.3891602 C71.0568851,22.4428714 71.1191403,22.5063473 71.1777344,22.5795898 C71.1875,22.5942384 71.219238,22.6320798 71.2729492,22.6931152 C71.3266604,22.7541507 71.3840329,22.8212887 71.4450684,22.8945312 C71.5061038,22.9677738 71.5622556,23.0361325 71.6135254,23.0996094 C71.6647952,23.1630863 71.6977538,23.2021484 71.7124023,23.2167969 C71.722168,23.2314454 71.7490232,23.2656247 71.7929688,23.3193359 C71.8369143,23.3730471 71.8845212,23.4304196 71.935791,23.4914551 C71.9870608,23.5524905 72.0346677,23.609863 72.0786133,23.6635742 C72.1225588,23.7172854 72.1518554,23.7514648 72.1665039,23.7661133 C72.1713867,23.775879 72.186035,23.7966307 72.2104492,23.8283691 C72.2348634,23.8601076 72.2617186,23.8955076 72.2910156,23.9345703 C72.3203126,23.973633 72.3471678,24.009033 72.371582,24.0407715 C72.3959962,24.0725099 72.4130859,24.0932617 72.4228516,24.1030273 C72.5156255,24.2104498 72.6096187,24.3105464 72.704834,24.4033203 C72.8000493,24.4960942 72.8940425,24.5888667 72.9868164,24.6816406 C73.0795903,24.7744145 73.1723628,24.8696284 73.2651367,24.9672852 C73.3579106,25.0649419 73.4482417,25.1723627 73.5361328,25.2895508 L73.5361328,25.3481445 C73.5751955,25.4360356 73.5617679,25.5092771 73.4958496,25.5678711 C73.4299313,25.6264651 73.3554692,25.6557617 73.2724609,25.6557617 C73.2333982,25.6606446 73.1760258,25.6679687 73.1003418,25.6777344 C73.0246578,25.6875 72.9440922,25.6972656 72.8586426,25.7070312 C72.7731929,25.7167969 72.6914066,25.7253418 72.6132812,25.732666 C72.5351559,25.7399903 72.4790041,25.7436523 72.4448242,25.7436523 C72.42041,25.7436523 72.3752445,25.7485351 72.3093262,25.7583008 C72.2434079,25.7680665 72.2031251,25.777832 72.1884766,25.7875977 L71.6464844,25.8754883 C71.568359,25.8901368 71.5061037,25.9035644 71.4597168,25.9157715 C71.4133298,25.9279786 71.3718264,25.9377441 71.3352051,25.9450684 C71.2985838,25.9523926 71.258301,25.9621581 71.2143555,25.9743652 C71.1704099,25.9865723 71.1118168,25.9999999 71.0385742,26.0146484 C70.955566,26.0732425 70.8823245,26.0878908 70.8188477,26.0585938 C70.7553708,26.0292967 70.6967776,25.9829105 70.6430664,25.9194336 C70.6333007,25.9096679 70.6235352,25.897461 70.6137695,25.8828125 C70.6040039,25.8730468 70.5966797,25.864502 70.5917969,25.8571777 C70.586914,25.8498535 70.5795899,25.8461914 70.5698242,25.8461914 L69.8520508,24.9526367 Z" id="path-1"></path>
    </defs>
    <g id="Page-1" stroke="none" stroke-width="1" fill="none" fill-rule="evenodd">
        <g id="Back-Btn">
            <rect id="Rectangle-Copy" fill="#FFFFFF" transform="translate(44.500000, 19.000000) scale(-1, 1) translate(-44.500000, -19.000000) " x="0" y="0" width="89" height="38" rx="19"></rect>
            <polyline id="Path-4-Copy" stroke="#3F8FE8" stroke-width="4" stroke-linecap="round" stroke-linejoin="round" transform="translate(16.000000, 19.500000) scale(-1, 1) translate(-16.000000, -19.500000) " points="14 16 15.7287023 17.5126145 18 19.5 14 23"></polyline>
        </g>
        <g id="Back" fill-rule="nonzero">
            <use fill="#FFFFFF" xlink:href="#path-1"></use>
            <use fill="#3F8FE8" xlink:href="#path-1"></use>
        </g>
    </g>
</svg>