
<svg width="89px" height="38px" viewBox="0 0 89 38" version="1.1" xmlns="http://www.w3.org/2000/svg" xmlns:xlink="http://www.w3.org/1999/xlink">
    <defs>
        <path d="M20.5410156,25.8388672 C20.1943342,25.7070306 19.898927,25.5825201 19.6547852,25.465332 C19.4106433,25.3481439 19.2031259,25.2395025 19.0322266,25.1394043 C18.8613273,25.0393061 18.7233892,24.9465336 18.6184082,24.861084 C18.5134272,24.7756343 18.4255375,24.6987308 18.3547363,24.6303711 C18.2839352,24.5620114 18.225342,24.5009768 18.1789551,24.4472656 C18.1325681,24.3935544 18.0849612,24.3471682 18.0361328,24.3081055 C18.0263671,24.3081055 18.0104982,24.2971193 17.9885254,24.2751465 C17.9665526,24.2531737 17.9555664,24.2373047 17.9555664,24.2275391 C17.9458007,24.2177734 17.9360352,24.2031251 17.9262695,24.1835938 C17.9165039,24.1640624 17.9116211,24.1494141 17.9116211,24.1396484 L17.7248535,23.9528809 C17.6931151,23.9211424 17.6650392,23.8942872 17.640625,23.8723145 C17.6162108,23.8503417 17.6015625,23.8393555 17.5966797,23.8393555 L17.4355469,23.5830078 L17.4355469,23.5756836 C17.4355469,23.5708008 17.4367676,23.5671387 17.439209,23.5646973 C17.4416504,23.5622558 17.4428711,23.5585938 17.4428711,23.5537109 L17.4428711,23.5390625 C17.3305658,23.3876946 17.2377933,23.2229013 17.1645508,23.0446777 C17.0913082,22.8664542 17.029053,22.6833505 16.9777832,22.4953613 C16.9265134,22.3073721 16.8789065,22.118165 16.8349609,21.9277344 C16.7910154,21.7373037 16.7421878,21.5542001 16.6884766,21.378418 C16.6640624,21.2954097 16.6518555,21.2185062 16.6518555,21.1477051 C16.6518555,21.0769039 16.6420899,21.0000004 16.6225586,20.9169922 C16.5932616,20.8046869 16.5615236,20.6923834 16.5273438,20.5800781 C16.4931639,20.4677729 16.4711915,20.3554693 16.4614258,20.2431641 C16.4614258,20.1992185 16.4577637,20.1186529 16.4504395,20.0014648 C16.4431152,19.8842768 16.4345704,19.7585456 16.4248047,19.6242676 C16.415039,19.4899896 16.4064942,19.3630377 16.3991699,19.2434082 C16.3918457,19.1237787 16.3857422,19.0371096 16.3808594,18.9833984 L16.3808594,18.800293 C16.3857422,18.6049795 16.4028319,18.4279793 16.4321289,18.2692871 C16.4614259,18.1105949 16.5029294,17.9384775 16.5566406,17.7529297 C16.5615235,17.743164 16.571289,17.7138674 16.5859375,17.6650391 C16.600586,17.6162107 16.6152343,17.5625003 16.6298828,17.5039062 L16.670166,17.3427734 C16.6823731,17.2939451 16.6909179,17.2646485 16.6958008,17.2548828 C16.7446292,17.0839835 16.7983396,16.9375006 16.8569336,16.8154297 C16.9155276,16.6933588 16.9704587,16.5932621 17.0217285,16.5151367 C17.0729983,16.4370113 17.1157225,16.3784182 17.1499023,16.3393555 L17.2011719,16.2807617 C17.2402346,16.1635736 17.3037105,16.0402839 17.3916016,15.9108887 C17.4794926,15.7814935 17.5820307,15.6521003 17.6992188,15.5227051 C17.8164068,15.3933099 17.9433587,15.2651374 18.0800781,15.1381836 C18.2167976,15.0112298 18.3535149,14.8916021 18.4902344,14.7792969 C18.6562508,14.6132804 18.8564441,14.4753423 19.0908203,14.3654785 C19.3251965,14.2556147 19.5473622,14.1591801 19.7573242,14.0761719 C19.7719727,14.071289 19.8098141,14.0529787 19.8708496,14.0212402 C19.9318851,13.9895018 19.9990231,13.9577638 20.0722656,13.9260254 C20.1455082,13.894287 20.2126462,13.8637697 20.2736816,13.8344727 C20.3347171,13.8051756 20.3725585,13.7856446 20.387207,13.7758789 C20.3920899,13.7758789 20.4116209,13.7709961 20.4458008,13.7612305 C20.4799806,13.7514648 20.5166014,13.7392579 20.5556641,13.7246094 C20.5947268,13.7099609 20.6313475,13.6965333 20.6655273,13.6843262 C20.6997072,13.6721191 20.7216796,13.6635742 20.7314453,13.6586914 C20.741211,13.6489257 20.7705076,13.6342774 20.8193359,13.6147461 C20.8681643,13.5952147 20.8974609,13.5805665 20.9072266,13.5708008 C20.9121094,13.5708008 20.925537,13.5720215 20.9475098,13.5744629 C20.9694825,13.5769043 20.995117,13.578125 21.0244141,13.578125 L21.1049805,13.578125 C21.1293947,13.578125 21.1464843,13.5756836 21.15625,13.5708008 C21.1660157,13.5708008 21.1867674,13.5683594 21.2185059,13.5634766 C21.2502443,13.5585937 21.286865,13.5524903 21.3283691,13.545166 C21.3698733,13.5378418 21.4101561,13.5305176 21.4492188,13.5231934 C21.4882814,13.5158691 21.517578,13.5097656 21.5371094,13.5048828 C21.7421885,13.4462888 21.9423818,13.4182129 22.1376953,13.4206543 C22.3330088,13.4230957 22.5380849,13.4243164 22.7529297,13.4243164 L22.9287109,13.4243164 C23.0019535,13.4243164 23.0739743,13.4255371 23.1447754,13.4279785 C23.2155765,13.4304199 23.2778318,13.4316406 23.331543,13.4316406 L23.4267578,13.4316406 C23.4462892,13.4316406 23.4804685,13.4328613 23.5292969,13.4353027 C23.5781252,13.4377442 23.6318356,13.4414062 23.6904297,13.4462891 C23.7490237,13.4511719 23.8051755,13.4572754 23.8588867,13.4645996 C23.9125979,13.4719239 23.95166,13.4780273 23.9760742,13.4829102 C23.9858399,13.4829102 24.0163572,13.4877929 24.067627,13.4975586 C24.1188967,13.5073243 24.1591795,13.5170898 24.1884766,13.5268555 C24.1982422,13.5268555 24.2263181,13.5317382 24.2727051,13.5415039 C24.319092,13.5512696 24.3471679,13.5610351 24.3569336,13.5708008 C24.3666993,13.5708008 24.3959958,13.5732422 24.4448242,13.578125 C24.4936526,13.5830078 24.5461423,13.5866699 24.6022949,13.5891113 C24.6584475,13.5915527 24.7121579,13.5952148 24.7634277,13.6000977 C24.8146975,13.6049805 24.8476562,13.6074219 24.8623047,13.6074219 C24.8769532,13.6171875 24.9050291,13.6269531 24.9465332,13.6367188 C24.9880373,13.6464844 25.0136718,13.6513672 25.0234375,13.6513672 C25.0332032,13.6611329 25.0588377,13.6782225 25.1003418,13.7026367 C25.1418459,13.7270509 25.1857908,13.7526854 25.2321777,13.779541 C25.2785647,13.8063966 25.3225096,13.8332518 25.3640137,13.8601074 C25.4055178,13.886963 25.4311523,13.902832 25.440918,13.9077148 C25.4506836,13.9174805 25.4787595,13.9333495 25.5251465,13.9553223 C25.5715334,13.977295 25.5996093,13.993164 25.609375,14.0029297 C25.6191407,14.0029297 25.6411131,14.0163573 25.675293,14.0432129 C25.7094728,14.0700685 25.7314453,14.0834961 25.7412109,14.0834961 C25.7412109,14.0883789 25.7534178,14.0908203 25.777832,14.0908203 C25.7875977,14.0908203 25.7998046,14.0883789 25.8144531,14.0834961 C25.8632815,14.0981446 25.8986815,14.1420895 25.9206543,14.215332 C25.9426271,14.2885746 25.9536133,14.3496091 25.9536133,14.3984375 L25.9536133,14.4716797 C25.9438476,14.491211 25.9316407,14.5083007 25.9169922,14.5229492 C25.9023437,14.5424806 25.8828126,14.564453 25.8583984,14.5888672 C25.8486328,14.5986329 25.827881,14.6267088 25.7961426,14.6730957 C25.7644041,14.7194827 25.7290041,14.769531 25.6899414,14.8232422 C25.6508787,14.8769534 25.6154787,14.925781 25.5837402,14.9697266 C25.5520018,15.0136721 25.53125,15.0405273 25.5214844,15.050293 C25.4677732,15.0747072 25.4067386,15.1430658 25.3383789,15.2553711 C25.2700192,15.3676763 25.1943364,15.4824213 25.1113281,15.5996094 C25.0283199,15.7167975 24.9392095,15.8168941 24.8439941,15.8999023 C24.7487788,15.9829106 24.6474615,16.0073244 24.5400391,15.9731445 C24.271483,15.9047848 24.0126966,15.848633 23.7636719,15.8046875 C23.5146472,15.760742 23.2534193,15.7363281 22.9799805,15.7314453 C22.9555663,15.7314453 22.9262697,15.732666 22.8920898,15.7351074 C22.85791,15.7375488 22.8212893,15.7387695 22.7822266,15.7387695 C22.738281,15.7436524 22.6943362,15.7460938 22.6503906,15.7460938 C22.640625,15.7460938 22.6186525,15.7497558 22.5844727,15.7570801 C22.5502928,15.7644043 22.5148928,15.7729492 22.4782715,15.7827148 C22.4416502,15.7924805 22.4062502,15.8010254 22.3720703,15.8083496 C22.3378905,15.8156739 22.315918,15.8193359 22.3061523,15.8193359 C22.2915038,15.8242188 22.251221,15.8303222 22.1853027,15.8376465 C22.1193844,15.8449707 22.0485844,15.8535156 21.9729004,15.8632812 C21.8972164,15.8730469 21.8264163,15.8815918 21.760498,15.888916 C21.6945797,15.8962403 21.6518556,15.9023437 21.6323242,15.9072266 C21.6225585,15.9072266 21.5981447,15.91333 21.559082,15.9255371 C21.5200193,15.9377442 21.4760745,15.9523925 21.4272461,15.9694824 L21.2807617,16.020752 C21.2319333,16.0378419 21.1953126,16.0512695 21.1708984,16.0610352 C20.9462879,16.1538091 20.7448739,16.2709954 20.5666504,16.4125977 C20.3884268,16.5541999 20.2211922,16.7153311 20.0649414,16.8959961 C20.0502929,16.9106446 20.0209963,16.9472653 19.9770508,17.0058594 C19.9331052,17.0644534 19.8854983,17.1267087 19.8342285,17.192627 C19.7829587,17.2585453 19.7341311,17.3208005 19.6877441,17.3793945 C19.6413572,17.4379886 19.6108399,17.4746093 19.5961914,17.4892578 C19.547363,17.542969 19.4997561,17.5979001 19.4533691,17.6540527 C19.4069822,17.7102054 19.3715822,17.7797847 19.347168,17.862793 C19.3374023,17.8872072 19.3239747,17.9335934 19.3068848,18.0019531 C19.2897948,18.0703128 19.2727052,18.1423336 19.2556152,18.2180176 C19.2385253,18.2937016 19.2202149,18.3657223 19.2006836,18.434082 C19.1811522,18.5024417 19.1689453,18.5512694 19.1640625,18.5805664 C19.1591797,18.5903321 19.1567383,18.6000976 19.1567383,18.6098633 L19.1567383,18.6611328 C19.1567383,18.714844 19.1640624,18.7673337 19.1787109,18.8186035 C19.1933594,18.8698733 19.2006836,18.9272458 19.2006836,18.9907227 L19.2006836,19.0053711 C19.1909179,19.0151368 19.1689455,19.041992 19.1347656,19.0859375 C19.1005858,19.129883 19.0834961,19.1567382 19.0834961,19.1665039 L19.0834961,19.1958008 C19.0786133,19.4252941 19.0847167,19.6743151 19.1018066,19.9428711 C19.1188966,20.2114271 19.1640621,20.4580067 19.2373047,20.6826172 L19.3544922,21.0854492 L19.347168,21.1000977 C19.3520508,21.119629 19.363037,21.1525877 19.380127,21.1989746 C19.3972169,21.2453616 19.4155272,21.2929685 19.4350586,21.3417969 C19.4545899,21.3906252 19.4716796,21.4370115 19.4863281,21.480957 C19.5009766,21.5249026 19.5131835,21.5541991 19.5229492,21.5688477 C19.5864261,21.6079104 19.6279296,21.6604001 19.6474609,21.7263184 C19.6669923,21.7922367 19.6962889,21.8569333 19.7353516,21.9204102 C19.8574225,22.1010751 19.9892571,22.2731925 20.1308594,22.4367676 C20.2724616,22.6003426 20.4262687,22.7492669 20.5922852,22.8835449 C20.7583016,23.0178229 20.9377432,23.1337886 21.1306152,23.2314453 C21.3234873,23.3291021 21.5297841,23.4023435 21.7495117,23.4511719 C21.7836916,23.4609375 21.8410641,23.4719238 21.9216309,23.4841309 C22.0021977,23.496338 22.0852047,23.5097656 22.1706543,23.5244141 C22.2561039,23.5390626 22.3342282,23.5512695 22.4050293,23.5610352 C22.4758304,23.5708008 22.520996,23.5756836 22.5405273,23.5756836 C22.5454102,23.5756836 22.5649412,23.5769043 22.5991211,23.5793457 C22.633301,23.5817871 22.6735838,23.5830078 22.7199707,23.5830078 C22.7663577,23.5830078 22.8139646,23.5842285 22.862793,23.5866699 C22.9116213,23.5891113 22.9506834,23.590332 22.9799805,23.590332 C23.1850596,23.5952149 23.3815909,23.58667 23.5695801,23.5646973 C23.7575693,23.5427245 23.9492178,23.4975589 24.1445312,23.4291992 C24.1591798,23.4243164 24.1811522,23.4145509 24.2104492,23.3999023 C24.2397462,23.3852538 24.2702635,23.3706055 24.302002,23.355957 C24.3337404,23.3413085 24.3618163,23.3278809 24.3862305,23.3156738 C24.4106447,23.3034667 24.4252929,23.2949219 24.4301758,23.2900391 C24.4887698,23.2656249 24.5400388,23.2387697 24.5839844,23.2094727 C24.6279299,23.1801756 24.6706541,23.1533204 24.7121582,23.1289062 C24.7536623,23.1044921 24.7976072,23.0837403 24.8439941,23.0666504 C24.8903811,23.0495605 24.9428708,23.0410156 25.0014648,23.0410156 C25.0161134,23.0410156 25.0429686,23.043457 25.0820312,23.0483398 C25.1210939,23.0532227 25.1455078,23.0556641 25.1552734,23.0556641 C25.2724615,23.1630865 25.381103,23.27539 25.4812012,23.3925781 C25.5812993,23.5097662 25.6630856,23.6367181 25.7265625,23.7734375 C25.741211,23.7929688 25.7644041,23.835693 25.7961426,23.9016113 C25.827881,23.9675296 25.8620604,24.0383297 25.8986816,24.1140137 C25.9353029,24.1896976 25.970703,24.2604977 26.0048828,24.326416 C26.0390627,24.3923343 26.0610351,24.4326171 26.0708008,24.4472656 C26.0756836,24.4570313 26.0891112,24.4765624 26.111084,24.5058594 C26.1330568,24.5351564 26.1550292,24.5656737 26.177002,24.5974121 C26.1989747,24.6291505 26.2197265,24.6608885 26.2392578,24.692627 C26.2587892,24.7243654 26.2709961,24.7426758 26.2758789,24.7475586 C26.3051759,24.8696295 26.3161621,24.9550779 26.3088379,25.0039062 C26.3015136,25.0527346 26.2746584,25.090576 26.2282715,25.1174316 C26.1818845,25.1442872 26.1196293,25.1723631 26.0415039,25.2016602 C25.9633785,25.2309572 25.870606,25.2895503 25.7631836,25.3774414 C25.7534179,25.3823242 25.7460938,25.387207 25.7412109,25.3920898 C25.7314453,25.3969727 25.7253418,25.4018554 25.7229004,25.4067383 C25.720459,25.4116211 25.7167969,25.4165039 25.7119141,25.4213867 C25.5898431,25.5141606 25.4628913,25.5886228 25.3310547,25.6447754 C25.1992181,25.700928 25.0625007,25.7473143 24.9208984,25.7839355 C24.7792962,25.8205568 24.6340339,25.8486327 24.4851074,25.8681641 C24.3361809,25.8876954 24.1860359,25.9047851 24.034668,25.9194336 C24.0053709,25.9194336 23.9284674,25.9243164 23.8039551,25.934082 C23.6794427,25.9438477 23.5463874,25.9536132 23.4047852,25.9633789 C23.2631829,25.9731446 23.1301276,25.9829101 23.0056152,25.9926758 C22.8811029,26.0024415 22.8041994,26.0097656 22.7749023,26.0146484 L22.3061523,26.0146484 C22.2915038,26.0146484 22.2573245,26.0122071 22.2036133,26.0073242 C22.1499021,26.0024414 22.0925296,25.9975586 22.0314941,25.9926758 C21.9704587,25.9877929 21.9130862,25.9829102 21.859375,25.9780273 C21.8056638,25.9731445 21.7714844,25.9707031 21.7568359,25.9707031 L21.1745605,25.9707031 C21.1037594,25.9707031 21.0610352,25.9682617 21.0463867,25.9633789 C21.036621,25.9633789 21.0097658,25.9584961 20.9658203,25.9487305 C20.9218748,25.9389648 20.8718265,25.9279786 20.8156738,25.9157715 C20.7595212,25.9035644 20.7058108,25.8901368 20.654541,25.8754883 C20.6032712,25.8608398 20.5654298,25.8486329 20.5410156,25.8388672 Z M33.6586914,25.9560547 C33.6000974,25.9218748 33.5744629,25.8730472 33.5817871,25.8095703 C33.5891114,25.7460934 33.5903321,25.6850589 33.5854492,25.6264648 C33.5854492,25.6166992 33.5781251,25.6020509 33.5634766,25.5825195 C33.5488281,25.5629882 33.5415039,25.5483399 33.5415039,25.5385742 L33.5415039,25.4726562 C33.5415039,25.4042965 33.5561522,25.343262 33.5854492,25.2895508 C33.6147462,25.2358396 33.6293945,25.1772464 33.6293945,25.1137695 L33.6293945,25.0698242 C33.614746,25.0698242 33.5915529,25.074707 33.5598145,25.0844727 C33.528076,25.0942383 33.5073243,25.1040039 33.4975586,25.1137695 C33.4633787,25.1381837 33.4084476,25.1748044 33.3327637,25.2236328 C33.2570797,25.2724612 33.1752934,25.3237302 33.0874023,25.3774414 C32.9995113,25.4311526 32.9140629,25.4799802 32.8310547,25.5239258 C32.7480465,25.5678713 32.6845705,25.5922851 32.640625,25.597168 L32.0693359,25.831543 L32.0253906,25.831543 C32.015625,25.831543 31.9985353,25.8339844 31.9741211,25.8388672 C31.9497069,25.84375 31.9240724,25.8498535 31.8972168,25.8571777 C31.8703612,25.864502 31.843506,25.8706054 31.8166504,25.8754883 C31.7897948,25.8803711 31.7739258,25.8828125 31.769043,25.8828125 L31.0732422,25.8828125 C30.9999996,25.8828125 30.9304203,25.8803711 30.864502,25.8754883 C30.7985837,25.8706054 30.730225,25.8657227 30.6594238,25.8608398 C30.5886227,25.855957 30.5092778,25.8461915 30.4213867,25.831543 C30.411621,25.8266601 30.3859865,25.819336 30.3444824,25.8095703 C30.3029783,25.7998046 30.2590334,25.7900391 30.2126465,25.7802734 C30.1662595,25.7705078 30.1223147,25.7619629 30.0808105,25.7546387 C30.0393064,25.7473144 30.0136719,25.7436523 30.0039062,25.7436523 L29.6230469,25.7436523 L29.3813477,25.6484375 C29.3471678,25.633789 29.2946781,25.6069338 29.223877,25.5678711 C29.1530758,25.5288084 29.077393,25.4873049 28.9968262,25.4433594 C28.9162594,25.3994138 28.8393558,25.3579104 28.7661133,25.3188477 C28.6928707,25.279785 28.6391603,25.2529298 28.6049805,25.2382812 C28.5756834,25.2236327 28.5317386,25.202881 28.4731445,25.1760254 C28.4145505,25.1491698 28.3547366,25.1198732 28.2937012,25.0881348 C28.2326657,25.0563963 28.1752932,25.0283204 28.121582,25.0039062 C28.0678708,24.9794921 28.0336915,24.9624024 28.019043,24.9526367 C28.0141601,24.9477539 28.0019532,24.9367677 27.9824219,24.9196777 C27.9628905,24.9025878 27.9396974,24.8818361 27.9128418,24.8574219 C27.8859862,24.8330077 27.859131,24.8098146 27.8322754,24.7878418 C27.8054198,24.765869 27.784668,24.75 27.7700195,24.7402344 C27.6479486,24.6181635 27.5307623,24.4838875 27.418457,24.3374023 C27.3061518,24.1909172 27.1938482,24.0517585 27.081543,23.9199219 C26.9790034,23.797851 26.893555,23.6367198 26.8251953,23.4365234 C26.7568356,23.2363271 26.7006838,23.0251476 26.6567383,22.8029785 C26.6127927,22.5808094 26.5810548,22.3623058 26.5615234,22.1474609 C26.5419921,21.9326161 26.5322266,21.7470711 26.5322266,21.5908203 C26.5322266,21.390624 26.5334473,21.205079 26.5358887,21.0341797 C26.5383301,20.8632804 26.5480956,20.6960457 26.5651855,20.5324707 C26.5822755,20.3688957 26.60791,20.2041024 26.6420898,20.0380859 C26.6762697,19.8720695 26.7250973,19.6938486 26.7885742,19.503418 C26.7934571,19.4741209 26.8117674,19.4118657 26.8435059,19.3166504 C26.8752443,19.2214351 26.908203,19.1262212 26.9423828,19.0310059 C26.9765627,18.9357905 27.0058593,18.858887 27.0302734,18.800293 C27.0546876,18.7416989 27.0644531,18.7392575 27.0595703,18.7929688 C27.1376957,18.5683583 27.2402337,18.3596201 27.3671875,18.166748 C27.4941413,17.973876 27.6381828,17.7944344 27.7993164,17.628418 C27.96045,17.4624015 28.1350088,17.3085945 28.322998,17.1669922 C28.5109873,17.0253899 28.7050771,16.8935553 28.9052734,16.7714844 C28.9248048,16.7568359 28.9699703,16.7312014 29.0407715,16.6945801 C29.1115726,16.6579588 29.1872555,16.6201174 29.2678223,16.5810547 C29.3483891,16.541992 29.4265133,16.5041506 29.5021973,16.4675293 C29.5778812,16.430908 29.6303709,16.4077149 29.659668,16.3979492 C29.6645508,16.3930664 29.6804198,16.3869629 29.7072754,16.3796387 C29.734131,16.3723144 29.765869,16.3637696 29.8024902,16.3540039 C29.8391115,16.3442382 29.8757322,16.3356934 29.9123535,16.3283691 L30.0039062,16.3100586 C30.0332033,16.3002929 30.0722654,16.2905274 30.1210938,16.2807617 C30.1699221,16.270996 30.1992187,16.2661133 30.2089844,16.2661133 L31.6518555,16.2661133 C31.8227548,16.3149417 31.9887687,16.3601072 32.1499023,16.4016113 C32.311036,16.4431154 32.4660637,16.4943845 32.6149902,16.5554199 C32.7639168,16.6164554 32.9079583,16.6896968 33.0471191,16.7751465 C33.18628,16.8605961 33.3217767,16.971679 33.4536133,17.1083984 L33.4829102,17.1083984 C33.4829102,17.0937499 33.4841308,17.0729982 33.4865723,17.0461426 C33.4890137,17.019287 33.4902344,16.9912111 33.4902344,16.9619141 C33.4902344,16.932617 33.4914551,16.9045411 33.4938965,16.8776855 C33.4963379,16.8508299 33.4975586,16.8325196 33.4975586,16.8227539 C33.4975586,16.8178711 33.5,16.8007814 33.5048828,16.7714844 C33.5097656,16.7421874 33.5158691,16.7104494 33.5231934,16.6762695 C33.5305176,16.6420897 33.5378418,16.6115724 33.545166,16.5847168 C33.5524903,16.5578612 33.5561523,16.5419922 33.5561523,16.5371094 C33.5317382,16.5029295 33.5292968,16.4675295 33.5488281,16.4309082 C33.5683595,16.3942869 33.5964354,16.3637697 33.6330566,16.3393555 C33.6696779,16.3149413 33.7099607,16.2990723 33.7539062,16.291748 C33.7978518,16.2844238 33.8344725,16.2905272 33.8637695,16.3100586 C34.1079114,16.3100586 34.322753,16.3112793 34.5083008,16.3137207 C34.6938486,16.3161621 34.8745108,16.3210449 35.050293,16.3283691 C35.2260751,16.3356934 35.407958,16.349121 35.5959473,16.3686523 C35.7839365,16.3881837 35.9999988,16.4125975 36.2441406,16.4418945 C36.2587891,16.4516602 36.283203,16.4650878 36.3173828,16.4821777 C36.3515627,16.4992677 36.3686523,16.5200194 36.3686523,16.5444336 C36.3686523,16.5883791 36.3710937,16.6420895 36.3759766,16.7055664 C36.3808594,16.7690433 36.3857422,16.8361813 36.390625,16.9069824 C36.3955078,16.9777836 36.4003906,17.0461422 36.4052734,17.1120605 C36.4101563,17.1779788 36.4101563,17.2353513 36.4052734,17.2841797 C36.4052734,17.2939454 36.4028321,17.3232419 36.3979492,17.3720703 C36.3930664,17.4208987 36.3881836,17.4746091 36.3833008,17.5332031 C36.3784179,17.5917972 36.3735352,17.6455076 36.3686523,17.6943359 C36.3637695,17.7431643 36.3613281,17.7724609 36.3613281,17.7822266 C36.3613281,17.7968751 36.354004,17.8322751 36.3393555,17.8884277 C36.324707,17.9445804 36.3173828,17.977539 36.3173828,17.9873047 C36.3173828,18.0019532 36.3186035,18.0324705 36.3210449,18.0788574 C36.3234863,18.1252444 36.324707,18.174072 36.324707,18.2253418 L36.324707,18.3718262 C36.324707,18.4182131 36.3222656,18.446289 36.3173828,18.4560547 C36.3173828,18.4707032 36.3125,18.4926756 36.3027344,18.5219727 C36.2929687,18.5512697 36.2832032,18.5732421 36.2734375,18.5878906 L36.2587891,20.3164062 L36.2587891,20.7558594 C36.2587891,20.9414072 36.2600098,21.1721178 36.2624512,21.447998 C36.2648926,21.7238783 36.2685547,22.0302718 36.2734375,22.3671875 C36.2783203,22.7041032 36.2832031,23.0397932 36.2880859,23.3742676 C36.2929688,23.7087419 36.2978515,24.0249009 36.3027344,24.3227539 C36.3076172,24.620607 36.3149414,24.8696279 36.324707,25.0698242 C36.324707,25.0844727 36.321045,25.1223141 36.3137207,25.1833496 C36.3063964,25.2443851 36.2990723,25.3115231 36.291748,25.3847656 C36.2844238,25.4580082 36.2770996,25.5251462 36.2697754,25.5861816 C36.2624511,25.6472171 36.2612304,25.6850585 36.2661133,25.699707 L36.2661133,25.8168945 C36.2563476,25.831543 36.223389,25.8486327 36.1672363,25.8681641 C36.1110837,25.8876954 36.078125,25.9023437 36.0683594,25.9121094 C35.9365228,25.9121094 35.8229985,25.9169921 35.7277832,25.9267578 C35.6325679,25.9365235 35.5422368,25.9475097 35.4567871,25.9597168 C35.3713375,25.9719239 35.2834477,25.9829101 35.1931152,25.9926758 C35.1027828,26.0024415 34.9916999,26.0048828 34.8598633,26 L34.515625,26 C34.4814451,26 34.4240727,25.9987793 34.3435059,25.9963379 C34.2629391,25.9938965 34.1774907,25.9902344 34.0871582,25.9853516 C33.9968257,25.9804687 33.9113774,25.975586 33.8308105,25.9707031 C33.7502437,25.9658203 33.6928713,25.9609375 33.6586914,25.9560547 Z M29.3300781,21.1367188 C29.3300781,21.3955091 29.3728023,21.6347645 29.458252,21.8544922 C29.5437016,22.0742198 29.6547845,22.2915028 29.7915039,22.5063477 C29.8012696,22.5209962 29.8159179,22.5441893 29.8354492,22.5759277 C29.8549806,22.6076662 29.8696289,22.6235352 29.8793945,22.6235352 C29.9965826,22.7504889 30.117431,22.872558 30.2419434,22.9897461 C30.3664557,23.1069342 30.4982903,23.2106929 30.6374512,23.3010254 C30.776612,23.3913579 30.9243156,23.4633786 31.0805664,23.5170898 C31.2368172,23.570801 31.4077139,23.5976562 31.5932617,23.5976562 C31.7495125,23.5976562 31.9082023,23.570801 32.0693359,23.5170898 C32.2304696,23.4633786 32.3818352,23.4072269 32.5234375,23.3486328 C32.5429688,23.3388671 32.5710447,23.3254395 32.607666,23.3083496 L32.7175293,23.2570801 C32.7541506,23.2399901 32.7858885,23.2241212 32.8127441,23.2094727 C32.8395997,23.1948241 32.8579101,23.1850586 32.8676758,23.1801758 C33.0483407,23.0434563 33.197265,22.8811045 33.3144531,22.6931152 C33.4316412,22.505126 33.5256344,22.3049327 33.5964355,22.0925293 C33.6672367,21.8801259 33.7160643,21.6604015 33.7429199,21.4333496 C33.7697755,21.2062977 33.7880859,20.987794 33.7978516,20.777832 C33.7978516,20.7534178 33.7966309,20.7119144 33.7941895,20.6533203 C33.791748,20.5947263 33.788086,20.5336917 33.7832031,20.4702148 C33.7783203,20.406738 33.7734375,20.3469241 33.7685547,20.2907715 C33.7636719,20.2346189 33.7587891,20.1967774 33.7539062,20.1772461 L33.6879883,20.0454102 C33.6684569,20.0063475 33.6489259,19.9697267 33.6293945,19.9355469 C33.6098632,19.901367 33.5952149,19.8720704 33.5854492,19.8476562 C33.4877925,19.6621084 33.3889165,19.4826669 33.2888184,19.3093262 C33.1887202,19.1359855 33.0556649,18.9980474 32.8896484,18.8955078 L32.7578125,18.7966309 C32.7089841,18.7600096 32.6564944,18.7233889 32.6003418,18.6867676 C32.5441892,18.6501463 32.4892581,18.615967 32.4355469,18.5842285 C32.3818357,18.5524901 32.333008,18.5317383 32.2890625,18.5219727 C32.2695312,18.5170898 32.2341311,18.5073243 32.1828613,18.4926758 C32.1315915,18.4780273 32.0766604,18.463379 32.0180664,18.4487305 C31.9594724,18.434082 31.9045413,18.421875 31.8532715,18.4121094 C31.8020017,18.4023437 31.7666017,18.3950196 31.7470703,18.3901367 C31.7177733,18.3461912 31.6738284,18.3205567 31.6152344,18.3132324 C31.5566403,18.3059082 31.4919437,18.3059082 31.4211426,18.3132324 C31.3503414,18.3205567 31.2807621,18.3315429 31.2124023,18.3461914 C31.1440426,18.3608399 31.0878908,18.3681641 31.0439453,18.3681641 C30.9707028,18.3681641 30.8925785,18.3815917 30.8095703,18.4084473 C30.7265621,18.4353029 30.6472172,18.4707029 30.5715332,18.5146484 C30.4958492,18.558594 30.4226078,18.6074216 30.3518066,18.6611328 C30.2810055,18.714844 30.2187503,18.7709958 30.1650391,18.8295898 C30.1552734,18.8393555 30.1345216,18.8637693 30.1027832,18.902832 C30.0710448,18.9418947 30.0368654,18.9821775 30.0002441,19.0236816 C29.9636229,19.0651858 29.9282228,19.1054686 29.894043,19.1445312 C29.8598631,19.1835939 29.8403321,19.2080078 29.8354492,19.2177734 C29.6499014,19.4228526 29.5205082,19.6645494 29.4472656,19.9428711 C29.4033201,20.1381846 29.3728028,20.3347158 29.3557129,20.5324707 C29.338623,20.7302256 29.3300781,20.9316396 29.3300781,21.1367188 Z M37.6796875,25.9707031 C37.6162106,25.9560546 37.5649416,25.9365236 37.5258789,25.9121094 C37.4819334,25.8828124 37.4489747,25.8474123 37.427002,25.8059082 C37.4050292,25.7644041 37.3903809,25.7216799 37.3830566,25.6777344 C37.3757324,25.6337888 37.373291,25.5922854 37.3757324,25.5532227 C37.3781738,25.51416 37.3793945,25.4799806 37.3793945,25.4506836 C37.3793945,25.079588 37.3745118,24.7097186 37.3647461,24.3410645 C37.3549804,23.9724103 37.3464356,23.6025409 37.3391113,23.2314453 C37.3317871,22.8603497 37.3317871,22.4892597 37.3391113,22.1181641 C37.3464356,21.7470685 37.3647459,21.3759784 37.394043,21.0048828 L37.3647461,20.6606445 C37.3696289,20.6215818 37.3745117,20.5849611 37.3793945,20.5507812 C37.3842774,20.5214842 37.3867188,20.490967 37.3867188,20.4592285 C37.3867188,20.4274901 37.3891601,20.3994142 37.394043,20.375 L37.394043,19.4008789 C37.394043,19.278808 37.3952637,19.1628423 37.3977051,19.0529785 C37.4001465,18.9431147 37.4013672,18.8735353 37.4013672,18.8442383 C37.4013672,18.8198241 37.4050293,18.7539068 37.4123535,18.6464844 C37.4196778,18.539062 37.4270019,18.424317 37.4343262,18.3022461 C37.4416504,18.1801752 37.4465332,18.0654302 37.4489746,17.9580078 C37.451416,17.8505854 37.4526367,17.7822267 37.4526367,17.7529297 C37.4575196,17.6455073 37.4538575,17.5234382 37.4416504,17.3867188 C37.4294433,17.2499993 37.4208985,17.1254888 37.4160156,17.0131836 L37.4306641,16.7568359 C37.4306641,16.6982419 37.446533,16.6579591 37.4782715,16.6359863 C37.5100099,16.6140136 37.5441893,16.600586 37.5808105,16.5957031 C37.6174318,16.5908203 37.6516112,16.5908203 37.6833496,16.5957031 C37.715088,16.600586 37.7333984,16.600586 37.7382812,16.5957031 C37.7529298,16.5957031 37.7810057,16.5944824 37.8225098,16.592041 C37.8640139,16.5895996 37.9079588,16.5859375 37.9543457,16.5810547 C38.0007327,16.5761719 38.0434568,16.5712891 38.0825195,16.5664062 C38.1215822,16.5615234 38.145996,16.5566406 38.1557617,16.5517578 L38.6721191,16.5517578 C38.7526859,16.5517578 38.8344722,16.5529785 38.9174805,16.5554199 C39.0004887,16.5578613 39.0932612,16.5615234 39.1958008,16.5664062 L39.2763672,16.5737305 C39.28125,16.5737305 39.297119,16.5761719 39.3239746,16.5810547 C39.3508302,16.5859375 39.3801268,16.5908203 39.4118652,16.5957031 C39.4436037,16.600586 39.4741209,16.6066894 39.503418,16.6140137 C39.532715,16.6213379 39.5546874,16.6274414 39.5693359,16.6323242 C39.6718755,16.6518556 39.7438963,16.6750487 39.7854004,16.7019043 C39.8269045,16.7287599 39.8537597,16.7653806 39.8659668,16.8117676 C39.8781739,16.8581545 39.885498,16.915527 39.8879395,16.9838867 C39.8903809,17.0522464 39.9013671,17.1352534 39.9208984,17.2329102 C40.1308604,17.0424795 40.3505848,16.8886725 40.5800781,16.7714844 C40.8095715,16.6542963 41.0463855,16.5651859 41.2905273,16.5041504 C41.5346692,16.4431149 41.7849108,16.4052735 42.0412598,16.390625 C42.2976087,16.3759765 42.5624986,16.3759765 42.8359375,16.390625 C42.9091801,16.390625 42.9873043,16.3991698 43.0703125,16.4162598 C43.1533207,16.4333497 43.2375484,16.4541014 43.322998,16.4785156 C43.4084477,16.5029298 43.4914547,16.5322264 43.5720215,16.5664062 C43.6525883,16.6005861 43.7246091,16.6347655 43.7880859,16.6689453 C43.8320315,16.6982423 43.8894039,16.7397458 43.9602051,16.793457 C44.0310062,16.8471682 44.1005856,16.9020993 44.1689453,16.958252 C44.237305,17.0144046 44.2971189,17.0632322 44.3483887,17.1047363 C44.3996585,17.1462404 44.4277344,17.1669922 44.4326172,17.1669922 C44.5693366,17.2695318 44.690185,17.3879388 44.795166,17.5222168 C44.900147,17.6564948 44.9904781,17.7993156 45.0661621,17.9506836 C45.1418461,18.1020515 45.205322,18.2607414 45.2565918,18.4267578 C45.3078616,18.5927743 45.3505858,18.7563469 45.3847656,18.9174805 C45.3994141,18.9370118 45.4165038,18.9870601 45.4360352,19.067627 C45.4555665,19.1481938 45.4738769,19.2385249 45.4909668,19.338623 C45.5080567,19.4387212 45.522705,19.5400385 45.5349121,19.6425781 C45.5471192,19.7451177 45.5532227,19.8256833 45.5532227,19.8842773 L45.5532227,20.1552734 C45.5532227,20.2333988 45.5544433,20.3188472 45.5568848,20.4116211 C45.5593262,20.504395 45.5617676,20.5898434 45.564209,20.6679688 C45.5666504,20.7460941 45.5678711,20.7949218 45.5678711,20.8144531 L45.5751953,22.0302734 L45.5605469,22.2866211 C45.555664,22.3012696 45.5507813,22.3305662 45.5458984,22.3745117 C45.5410156,22.4184573 45.5349121,22.4648435 45.5275879,22.5136719 C45.5202636,22.5625002 45.5141602,22.6088865 45.5092773,22.652832 C45.5043945,22.6967776 45.5019531,22.7285155 45.5019531,22.7480469 L45.4946289,22.9091797 C45.4897461,23.0019536 45.4873047,23.1203606 45.4873047,23.2644043 C45.4873047,23.408448 45.486084,23.562255 45.4836426,23.7258301 C45.4812012,23.8894051 45.4799805,24.0554191 45.4799805,24.223877 L45.4799805,24.6889648 C45.4799805,24.8305671 45.4812012,24.9501948 45.4836426,25.0478516 C45.486084,25.1455083 45.4873047,25.2065428 45.4873047,25.230957 L45.4873047,25.4726562 C45.4873047,25.5263675 45.4885254,25.5764158 45.4909668,25.6228027 C45.4934082,25.6691897 45.4946289,25.6972656 45.4946289,25.7070312 L45.4873047,25.7802734 C45.4873047,25.8339846 45.4567874,25.8669433 45.395752,25.8791504 C45.3347165,25.8913575 45.2846682,25.8999023 45.2456055,25.9047852 C45.230957,25.9047852 45.2102052,25.9060058 45.1833496,25.9084473 C45.156494,25.9108887 45.1284181,25.9145508 45.0991211,25.9194336 C45.0698241,25.9243164 45.0441896,25.9279785 45.0222168,25.9304199 C45.000244,25.9328613 44.9868164,25.9365234 44.9819336,25.9414062 L44.6816406,25.9414062 C44.6132809,25.9414062 44.549805,25.9426269 44.4912109,25.9450684 C44.4326169,25.9475098 44.3959962,25.9511719 44.3813477,25.9560547 C44.1518543,25.9658204 43.9382334,25.979248 43.7404785,25.9963379 C43.5427236,26.0134278 43.3242199,26.0170899 43.0849609,26.0073242 C42.9970699,26.0024414 42.9360353,25.9792483 42.9018555,25.9377441 C42.8676756,25.89624 42.8457032,25.8461917 42.8359375,25.7875977 C42.8261718,25.7290036 42.8237304,25.6667484 42.8286133,25.6008301 C42.8334961,25.5349118 42.8359375,25.4726565 42.8359375,25.4140625 L42.8359375,25.2419434 C42.8359375,25.1516109 42.8371582,25.0478521 42.8395996,24.9306641 C42.842041,24.813476 42.8432617,24.6865241 42.8432617,24.5498047 C42.8432617,24.4130853 42.8444824,24.2861334 42.8469238,24.1689453 C42.8493652,24.0517572 42.8505859,23.9492192 42.8505859,23.8613281 L42.8505859,23.6855469 L42.8579102,21.9863281 C42.8676758,21.8154288 42.8676758,21.6176769 42.8579102,21.3930664 C42.8481445,21.1684559 42.8249514,20.9365246 42.7883301,20.6972656 C42.7517088,20.4580066 42.7016605,20.223634 42.6381836,19.9941406 C42.5747067,19.7646473 42.4965825,19.5607919 42.4038086,19.3825684 C42.3110347,19.2043448 42.2036139,19.0639654 42.081543,18.9614258 C41.959472,18.8588862 41.8227547,18.8149413 41.6713867,18.8295898 L41.4150391,18.8149414 C41.2441398,18.8100586 41.1037603,18.8295896 40.9938965,18.8735352 C40.8840327,18.9174807 40.7534187,18.983398 40.6020508,19.0712891 C40.5922851,19.0712891 40.5825196,19.0773925 40.5727539,19.0895996 C40.5629882,19.1018067 40.5581055,19.1127929 40.5581055,19.1225586 C40.421386,19.2250982 40.3054204,19.3703604 40.2102051,19.5583496 C40.1149898,19.7463388 40.0344242,19.9587391 39.9685059,20.1955566 C39.9025876,20.4323742 39.8476565,20.6838366 39.8037109,20.9499512 C39.7597654,21.2160658 39.7231447,21.4785143 39.6938477,21.7373047 C39.6889648,21.7617189 39.6816407,21.8227534 39.671875,21.9204102 C39.6621093,22.0180669 39.6511231,22.1267084 39.638916,22.2463379 C39.6267089,22.3659674 39.6169434,22.4855951 39.6096191,22.6052246 C39.6022949,22.7248541 39.5961914,22.8164059 39.5913086,22.8798828 C39.5913086,22.8847656 39.5900879,22.9091795 39.5876465,22.953125 C39.5852051,22.9970705 39.581543,23.0495602 39.5766602,23.1105957 C39.5717773,23.1716312 39.5668946,23.231445 39.5620117,23.2900391 C39.5571289,23.3486331 39.5546875,23.3950194 39.5546875,23.4291992 C39.5546875,23.4536134 39.5534668,23.4926755 39.5510254,23.5463867 C39.548584,23.6000979 39.5473633,23.6574704 39.5473633,23.7185059 C39.5473633,23.7795413 39.5461426,23.8369138 39.5437012,23.890625 C39.5412598,23.9443362 39.5400391,23.9809569 39.5400391,24.0004883 L39.5473633,25.0991211 C39.5424804,25.1137696 39.5449218,25.1430662 39.5546875,25.1870117 C39.5644532,25.2309573 39.5693359,25.2602538 39.5693359,25.2749023 C39.5693359,25.2797852 39.5705566,25.2932128 39.572998,25.3151855 C39.5754395,25.3371583 39.5766602,25.3603514 39.5766602,25.3847656 L39.5766602,25.5019531 C39.5766602,25.5410158 39.5791015,25.5874021 39.5839844,25.6411133 C39.5888672,25.6948245 39.5864258,25.7473142 39.5766602,25.798584 C39.5668945,25.8498538 39.5461427,25.892578 39.5144043,25.9267578 C39.4826659,25.9609377 39.4277348,25.975586 39.3496094,25.9707031 C39.2373041,25.9658203 39.1140143,25.9645996 38.9797363,25.967041 C38.8454583,25.9694824 38.7050789,25.9731445 38.5585938,25.9780273 C38.4121086,25.9829102 38.2631844,25.9865723 38.1118164,25.9890137 C37.9604485,25.9914551 37.8164069,25.9853516 37.6796875,25.9707031 Z M47.2304688,23.2241211 C47.2158202,23.1948241 47.1926271,23.1435551 47.1608887,23.0703125 C47.1291502,22.9970699 47.0949709,22.9189457 47.0583496,22.8359375 C47.0217283,22.7529293 46.9887697,22.6748051 46.9594727,22.6015625 C46.9301756,22.5283199 46.9106446,22.4770509 46.9008789,22.4477539 C46.9008789,22.4379882 46.8972168,22.4050296 46.8898926,22.348877 C46.8825683,22.2927243 46.8764649,22.2500001 46.871582,22.2207031 C46.8032223,21.7617165 46.7946775,21.2929711 46.8459473,20.8144531 C46.8972171,20.3359351 46.9790033,19.8793967 47.0913086,19.4448242 C47.1889653,19.09326 47.3195793,18.7514665 47.4831543,18.4194336 C47.6467293,18.0874007 47.8444813,17.7834486 48.076416,17.5075684 C48.3083508,17.2316881 48.5744614,16.9924327 48.8747559,16.7897949 C49.1750503,16.5871572 49.5131817,16.4394536 49.8891602,16.3466797 C50.1430677,16.2832028 50.4128404,16.2294924 50.6984863,16.1855469 C50.9841323,16.1416013 51.2587877,16.1098634 51.5224609,16.090332 C51.5468751,16.090332 51.5798338,16.0878906 51.6213379,16.0830078 C51.662842,16.078125 51.7031248,16.0744629 51.7421875,16.0720215 C51.7812502,16.0695801 51.8154295,16.0671387 51.8447266,16.0646973 C51.8740236,16.0622558 51.8911133,16.0610352 51.8959961,16.0610352 C52.1206066,16.0610352 52.359862,16.0659179 52.6137695,16.0756836 C52.8676771,16.0854493 53.1142566,16.1171872 53.3535156,16.1708984 C53.5634776,16.214844 53.7880847,16.2685544 54.0273437,16.3320312 C54.2666028,16.3955081 54.4863271,16.4809565 54.6865234,16.5883789 C54.7011719,16.5932617 54.7377927,16.6103514 54.7963867,16.6396484 C54.8549808,16.6689455 54.917236,16.7006834 54.9831543,16.7348633 C55.0490726,16.7690431 55.1101071,16.8007811 55.1662598,16.8300781 C55.2224124,16.8593751 55.2578124,16.8764648 55.2724609,16.8813477 C55.4042975,16.9936529 55.4995114,17.0766599 55.5581055,17.1303711 C55.6166995,17.1840823 55.6691892,17.2341306 55.7155762,17.2805176 L55.8803711,17.4453125 C55.943848,17.5087894 56.046386,17.608886 56.1879883,17.7456055 C56.2026368,17.7700197 56.2233885,17.7968749 56.2502441,17.8261719 C56.2770997,17.8554689 56.2966308,17.8908689 56.3088379,17.932373 C56.321045,17.9738772 56.3186036,18.0239255 56.3015137,18.0825195 C56.2844237,18.1411136 56.2416996,18.2070309 56.1733398,18.2802734 C56.168457,18.2851563 56.1257328,18.3168942 56.045166,18.3754883 C55.9645992,18.4340823 55.870606,18.5061031 55.7631836,18.5915527 C55.6557612,18.6770024 55.5483404,18.7648921 55.440918,18.8552246 C55.3334956,18.9455571 55.25293,19.0224606 55.1992188,19.0859375 C55.0820307,19.2617196 54.966065,19.3715818 54.8513184,19.4155273 C54.7365717,19.4594729 54.6376957,19.4692384 54.5546875,19.4448242 L54.5107422,19.4448242 C54.4228511,19.4301757 54.3581545,19.4155274 54.3166504,19.4008789 C54.2751463,19.3862304 54.2397462,19.3691407 54.2104492,19.3496094 C54.1811522,19.330078 54.1494142,19.3056642 54.1152344,19.2763672 C54.0810545,19.2470702 54.0273441,19.2104494 53.9541016,19.1665039 C53.8710933,19.1176755 53.769776,19.0737307 53.6501465,19.034668 C53.530517,18.9956053 53.4243169,18.9687501 53.331543,18.9541016 C53.2631833,18.9394531 53.1765142,18.9223634 53.0715332,18.902832 C52.9665522,18.8833007 52.8627935,18.8649903 52.7602539,18.8479004 C52.6577143,18.8308105 52.5673832,18.8149415 52.4892578,18.800293 C52.4111324,18.7856445 52.3671875,18.7758789 52.3574219,18.7709961 C52.323242,18.7709961 52.2890627,18.7734375 52.2548828,18.7783203 C52.2255858,18.7832031 52.1950685,18.7868652 52.1633301,18.7893066 C52.1315916,18.7917481 52.1059571,18.7929688 52.0864258,18.7929688 C51.9838862,18.8027344 51.8935551,18.8088379 51.8154297,18.8112793 C51.7373043,18.8137207 51.6567387,18.8344725 51.5737305,18.8735352 C51.3930655,18.9565434 51.2368171,19.0688469 51.1049805,19.2104492 C50.9731439,19.3520515 50.8583989,19.5070792 50.7607422,19.6755371 C50.6630854,19.843995 50.5800785,20.0197745 50.5117188,20.2028809 C50.443359,20.3859872 50.3798831,20.5654288 50.3212891,20.7412109 C50.2773435,20.8828132 50.2468263,21.0317375 50.2297363,21.1879883 C50.2126464,21.3442391 50.2163085,21.4980461 50.2407227,21.6494141 C50.2700197,21.859376 50.3176266,22.0510245 50.3835449,22.2243652 C50.4494632,22.3977059 50.537353,22.5502923 50.6472168,22.6821289 C50.7570806,22.8139655 50.8901359,22.9250484 51.0463867,23.0153809 C51.2026375,23.1057133 51.3906239,23.1728513 51.6103516,23.2167969 C51.6542971,23.2265625 51.7153316,23.2375488 51.793457,23.2497559 C51.8715824,23.261963 51.9472653,23.2741699 52.0205078,23.286377 C52.0937504,23.298584 52.158447,23.3095703 52.2145996,23.3193359 C52.2707522,23.3291016 52.3037109,23.3339844 52.3134766,23.3339844 L52.3757324,23.3339844 C52.4123537,23.3339844 52.4550779,23.3327637 52.5039062,23.3303223 C52.5527346,23.3278808 52.6003416,23.3254395 52.6467285,23.322998 C52.6931155,23.3205566 52.7309569,23.3193359 52.7602539,23.3193359 C52.7749024,23.3193359 52.804199,23.3168946 52.8481445,23.3120117 C52.8920901,23.3071289 52.9372556,23.3010254 52.9836426,23.2937012 C53.0300295,23.2863769 53.0739744,23.2802735 53.1154785,23.2753906 C53.1569826,23.2705078 53.1850585,23.2680664 53.199707,23.2680664 C53.2680667,23.2338865 53.3364254,23.208252 53.4047852,23.1911621 C53.4731449,23.1740722 53.5366208,23.1459963 53.5952148,23.1069336 C53.6879887,23.0581052 53.801513,22.9909672 53.935791,22.9055176 C54.070069,22.8200679 54.1787105,22.7431644 54.2617187,22.6748047 C54.3593755,22.6015621 54.4460445,22.5368655 54.5217285,22.4807129 C54.5974125,22.4245603 54.7011712,22.3916016 54.8330078,22.3818359 L54.9794922,22.3671875 C55.0283206,22.3623047 55.0722654,22.3745116 55.1113281,22.4038086 C55.1210938,22.4135743 55.147949,22.434326 55.1918945,22.4660645 C55.2358401,22.4978029 55.2626953,22.5136719 55.2724609,22.5136719 C55.2822266,22.5234375 55.316406,22.5478514 55.375,22.5869141 L55.5617676,22.7114258 C55.6276859,22.7553713 55.6911618,22.7968748 55.7521973,22.8359375 C55.8132327,22.8750002 55.8535155,22.899414 55.8730469,22.9091797 L55.9243164,22.9384766 C55.9389649,22.9482422 55.9694822,22.968994 56.0158691,23.0007324 C56.0622561,23.0324709 56.1123044,23.0654295 56.1660156,23.0996094 C56.2197268,23.1337892 56.2697752,23.1655272 56.3161621,23.1948242 C56.3625491,23.2241212 56.390625,23.2412109 56.4003906,23.2460938 C56.4296876,23.2705079 56.4504394,23.2875976 56.4626465,23.2973633 C56.4748536,23.307129 56.4846191,23.3168945 56.4919434,23.3266602 C56.4992676,23.3364258 56.5041504,23.3486327 56.5065918,23.3632812 C56.5090332,23.3779298 56.5126953,23.4023436 56.5175781,23.4365234 C56.5273438,23.4951175 56.5310059,23.536621 56.5285645,23.5610352 C56.526123,23.5854493 56.5053713,23.6245115 56.4663086,23.6782227 C56.2172839,24.0151384 55.9511733,24.3227525 55.6679688,24.6010742 C55.3847642,24.8793959 55.0820329,25.1503893 54.7597656,25.4140625 C54.5351551,25.5410163 54.3276377,25.6398922 54.137207,25.7106934 C53.9467764,25.7814945 53.7673348,25.8339842 53.598877,25.8681641 C53.4304191,25.9023439 53.2692879,25.925537 53.1154785,25.9377441 C52.9616692,25.9499512 52.8115242,25.9633788 52.6650391,25.9780273 C52.6406249,25.9780273 52.5991214,25.9804687 52.5405273,25.9853516 C52.4819333,25.9902344 52.4208988,25.9951172 52.3574219,26 C52.293945,26.0048828 52.2341311,26.0085449 52.1779785,26.0109863 C52.1218259,26.0134277 52.0791017,26.0146484 52.0498047,26.0146484 C51.7958972,25.9999999 51.5529797,25.9816896 51.3210449,25.9597168 C51.0891102,25.937744 50.8535168,25.8852543 50.6142578,25.8022461 C50.5996093,25.7973633 50.5617679,25.786377 50.5007324,25.7692871 C50.439697,25.7521972 50.372559,25.7338868 50.2993164,25.7143555 C50.2260739,25.6948241 50.1577152,25.6765138 50.0942383,25.6594238 C50.0307614,25.6423339 49.9892579,25.6313477 49.9697266,25.6264648 C49.7597646,25.5532223 49.5498057,25.455567 49.3398438,25.3334961 C49.1298818,25.2114252 48.9260264,25.0747078 48.7282715,24.9233398 C48.5305166,24.7719719 48.3449716,24.60962 48.1716309,24.4362793 C47.9982901,24.2629386 47.8457038,24.0908212 47.7138672,23.9199219 C47.7041015,23.9052734 47.6809084,23.8698733 47.6442871,23.8137207 C47.6076658,23.7575681 47.5686037,23.6965335 47.5270996,23.6306152 C47.4855955,23.5646969 47.4465334,23.5036624 47.4099121,23.4475098 C47.3732908,23.3913571 47.3500977,23.3559571 47.340332,23.3413086 C47.3305664,23.3315429 47.312256,23.3120119 47.2854004,23.2827148 C47.2585448,23.2534178 47.2402344,23.2338868 47.2304688,23.2241211 Z M56.8544922,20.9536133 C56.8837892,20.7729483 56.9204099,20.5959481 56.9643555,20.4226074 C57.008301,20.2492667 57.0571286,20.0747079 57.1108398,19.8989258 C57.1499025,19.771972 57.1828612,19.6596685 57.2097168,19.5620117 C57.2365724,19.464355 57.2695311,19.3544928 57.3085938,19.2324219 C57.3085938,19.2226562 57.3146972,19.195801 57.3269043,19.1518555 C57.3391114,19.1079099 57.3537597,19.060303 57.3708496,19.0090332 C57.3879395,18.9577634 57.4038085,18.9113772 57.418457,18.869873 C57.4331055,18.8283689 57.4428711,18.8027344 57.4477539,18.7929688 C57.5014651,18.6220695 57.5795893,18.4682624 57.6821289,18.331543 C57.7846685,18.1948235 57.8920893,18.0581062 58.0043945,17.9213867 C58.0092774,17.9165039 58.0251464,17.8981935 58.052002,17.8664551 C58.0788576,17.8347166 58.1093748,17.8005373 58.1435547,17.763916 C58.1777345,17.7272947 58.2094725,17.6918947 58.2387695,17.6577148 C58.2680666,17.623535 58.290039,17.5991212 58.3046875,17.5844727 C58.3095703,17.5795898 58.3193359,17.5673829 58.3339844,17.5478516 C58.3486329,17.5283202 58.3645019,17.5051271 58.3815918,17.4782715 C58.3986817,17.4514159 58.4145507,17.4282228 58.4291992,17.4086914 C58.4438477,17.3891601 58.4560546,17.3769531 58.4658203,17.3720703 C58.6708995,17.1962882 58.8967273,17.0375984 59.1433105,16.8959961 C59.3898938,16.7543938 59.6462389,16.6323247 59.9123535,16.5297852 C60.1784681,16.4272456 60.4494615,16.3479007 60.7253418,16.291748 C61.0012221,16.2355954 61.2734362,16.2050781 61.5419922,16.2001953 C61.8447281,16.1757811 62.1596663,16.1806639 62.4868164,16.2148438 C62.8139665,16.2490236 63.1191392,16.3295892 63.4023438,16.456543 C63.6416028,16.5297855 63.8478995,16.6127925 64.0212402,16.7055664 C64.1945809,16.7983403 64.3410639,16.8886714 64.4606934,16.9765625 C64.5803229,17.0644536 64.6791988,17.1437985 64.7573242,17.2145996 C64.8354496,17.2854007 64.9038083,17.3354491 64.9624023,17.3647461 C65.1137703,17.4965827 65.2504877,17.6259759 65.3725586,17.7529297 C65.4946295,17.8798834 65.6057124,18.0117181 65.7058105,18.1484375 C65.8059087,18.2851569 65.8999019,18.4304192 65.987793,18.5842285 C66.075684,18.7380379 66.1611324,18.9101553 66.2441406,19.1005859 C66.2587891,19.1445315 66.2795409,19.2238764 66.3063965,19.338623 C66.3332521,19.4533697 66.361328,19.5742181 66.390625,19.7011719 C66.419922,19.8281256 66.4467772,19.948974 66.4711914,20.0637207 C66.4956056,20.1784674 66.5102539,20.2578123 66.5151367,20.3017578 C66.5200196,20.3115235 66.5236816,20.3334959 66.526123,20.3676758 C66.5285645,20.4018556 66.5297852,20.4433591 66.5297852,20.4921875 L66.5297852,20.7485352 C66.5297852,20.7778322 66.5285645,20.818115 66.526123,20.8693848 C66.5236816,20.9206546 66.5224609,20.9719236 66.5224609,21.0231934 L66.5224609,21.1586914 C66.5224609,21.1977541 66.5200196,21.2197265 66.5151367,21.2246094 C66.5151367,21.2392579 66.5078126,21.2697752 66.4931641,21.3161621 C66.4785156,21.3625491 66.4638673,21.4113767 66.4492188,21.4626465 C66.4345702,21.5139163 66.4211426,21.5627439 66.4089355,21.6091309 C66.3967285,21.6555178 66.390625,21.6835937 66.390625,21.6933594 C66.2929683,21.7910161 66.1940923,21.8581541 66.0939941,21.8947754 C65.993896,21.9313967 65.8767097,21.9545898 65.7424316,21.9643555 C65.6081536,21.9741211 65.4470224,21.9802246 65.2590332,21.982666 C65.071044,21.9851074 64.8427748,22.0009764 64.5742188,22.0302734 L64.1933594,22.0302734 C64.1054683,22.0302734 64.0249027,22.0314941 63.9516602,22.0339355 C63.8784176,22.036377 63.8320313,22.0375977 63.8125,22.0375977 L63.7392578,22.0375977 C63.7294921,22.0473633 63.7087404,22.0546875 63.677002,22.0595703 C63.6452635,22.0644531 63.6123049,22.0656738 63.578125,22.0632324 C63.5439451,22.060791 63.5134279,22.0546875 63.4865723,22.0449219 C63.4597167,22.0351562 63.4438477,22.0205079 63.4389648,22.0009766 C63.434082,22.0009766 63.4121096,22.0021973 63.3730469,22.0046387 C63.3339842,22.0070801 63.29126,22.0083008 63.244873,22.0083008 L63.1057129,22.0083008 C63.0593259,22.0083008 63.0288087,22.0058594 63.0141602,22.0009766 C63.0092773,22.0058594 63.0019532,22.0083008 62.9921875,22.0083008 L62.9555664,22.0083008 C62.8383783,22.0131836 62.7041023,22.0180664 62.5527344,22.0229492 C62.4013664,22.0278321 62.2463387,22.0327148 62.0876465,22.0375977 C61.9289543,22.0424805 61.7739265,22.0461426 61.6225586,22.048584 C61.4711906,22.0510254 61.3369146,22.0522461 61.2197266,22.0522461 C61.0439444,22.0620118 60.8864753,22.0632325 60.7473145,22.0559082 C60.6081536,22.0485839 60.4738776,22.0412598 60.3444824,22.0339355 C60.2150872,22.0266113 60.0808112,22.0205078 59.9416504,22.015625 C59.8024895,22.0107422 59.6450204,22.0107422 59.4692383,22.015625 C59.4448241,22.015625 59.4204103,22.0168457 59.3959961,22.0192871 C59.3715819,22.0217285 59.3544922,22.0351561 59.3447266,22.0595703 C59.3447266,22.0839845 59.35083,22.1206052 59.3630371,22.1694336 C59.3752442,22.218262 59.3813477,22.2499999 59.3813477,22.2646484 C59.4252932,22.4404306 59.4558105,22.5661617 59.4729004,22.6418457 C59.4899903,22.7175297 59.5058593,22.7712401 59.5205078,22.8029785 C59.5351563,22.834717 59.5534667,22.8615722 59.5754395,22.8835449 C59.5974122,22.9055177 59.6328123,22.9506833 59.6816406,23.019043 C59.6816406,23.0239258 59.6901855,23.034912 59.7072754,23.052002 C59.7243653,23.0690919 59.7438964,23.0874022 59.7658691,23.1069336 C59.7878419,23.1264649 59.807373,23.1447753 59.8244629,23.1618652 C59.8415528,23.1789552 59.8500977,23.1899414 59.8500977,23.1948242 C60.0112313,23.4536146 60.2236315,23.6403803 60.4873047,23.755127 C60.7509779,23.8698736 61.0219713,23.9223633 61.300293,23.9125977 C61.3393557,23.9125977 61.3930661,23.911377 61.4614258,23.9089355 C61.5297855,23.9064941 61.5688476,23.9052734 61.5786133,23.9052734 C61.67627,23.8955078 61.7470701,23.8918457 61.7910156,23.8942871 C61.8349612,23.8967285 61.8715819,23.9003906 61.9008789,23.9052734 C61.9301759,23.9101563 61.9606932,23.9138183 61.9924316,23.9162598 C62.0241701,23.9187012 62.0754391,23.9150391 62.1462402,23.9052734 C62.2170414,23.8955078 62.3146966,23.8771974 62.439209,23.8503418 C62.5637213,23.8234862 62.7358387,23.7832034 62.9555664,23.7294922 C62.9604492,23.7294922 62.9873044,23.7172853 63.0361328,23.6928711 C63.0849612,23.6684569 63.1374509,23.6416017 63.1936035,23.6123047 C63.2497561,23.5830077 63.3034665,23.5549318 63.3547363,23.5280762 C63.4060061,23.5012206 63.4365234,23.4853516 63.4462891,23.4804688 C63.5732428,23.4023434 63.6879878,23.3254398 63.7905273,23.2497559 C63.8930669,23.1740719 63.9870601,23.1044925 64.0725098,23.0410156 C64.1579594,22.9775387 64.238525,22.921387 64.314209,22.8725586 C64.389893,22.8237302 64.4643551,22.7846681 64.5375977,22.7553711 L64.581543,22.7553711 C64.5913086,22.7504883 64.6059569,22.7541503 64.6254883,22.7663574 C64.6450196,22.7785645 64.6547852,22.7895507 64.6547852,22.7993164 C64.6987307,22.8383791 64.764648,22.8884274 64.8525391,22.9494629 C64.9404301,23.0104984 65.0295406,23.0727536 65.119873,23.1362305 C65.2102055,23.1997073 65.2968746,23.2619626 65.3798828,23.322998 C65.462891,23.3840335 65.5239256,23.4365232 65.5629883,23.4804688 C65.5776368,23.4902344 65.6118161,23.5146482 65.6655273,23.5537109 C65.7192385,23.5927736 65.7753903,23.6354978 65.8339844,23.6818848 C65.8925784,23.7282717 65.9438474,23.7722166 65.987793,23.8137207 C66.0317385,23.8552248 66.0537109,23.8784179 66.0537109,23.8833008 L66.0537109,23.9125977 C66.0537109,23.9223633 66.0549316,23.9296875 66.057373,23.9345703 C66.0598145,23.9394531 66.0610352,23.9467773 66.0610352,23.956543 C66.065918,24.0786139 66.030518,24.1860347 65.954834,24.2788086 C65.87915,24.3715825 65.7998051,24.4619136 65.7167969,24.5498047 C65.4873035,24.7988294 65.244386,25.0417469 64.9880371,25.2785645 C64.7316882,25.515382 64.45215,25.7119133 64.1494141,25.8681641 C64.0517573,25.9121096 63.9541021,25.9450682 63.8564453,25.967041 C63.7587886,25.9890138 63.6611333,26.0170897 63.5634766,26.0512695 C63.4365228,26.0903322 63.3144537,26.1184081 63.1972656,26.135498 C63.0800775,26.152588 62.9653326,26.1635742 62.8530273,26.168457 C62.7407221,26.1733399 62.6247565,26.1745606 62.505127,26.1721191 C62.3854974,26.1696777 62.2573249,26.1708984 62.1206055,26.1757812 C61.7690412,26.1855469 61.4345719,26.17334 61.1171875,26.1391602 C60.7998031,26.1049803 60.4726579,26.039063 60.1357422,25.9414062 C60.0087884,25.9023436 59.8916021,25.8596194 59.7841797,25.8132324 C59.6767573,25.7668455 59.5754399,25.7155765 59.4802246,25.6594238 C59.3850093,25.6032712 59.2910161,25.5397953 59.1982422,25.4689941 C59.1054683,25.398193 59.0102544,25.3212895 58.9125977,25.2382812 C58.7416984,25.0917961 58.5683603,24.950196 58.3925781,24.8134766 C58.216796,24.6767571 58.050782,24.5156259 57.8945313,24.3300781 C57.8847656,24.3251953 57.8640138,24.2958987 57.8322754,24.2421875 C57.800537,24.1884763 57.7822266,24.1542969 57.7773438,24.1396484 C57.7675781,24.1298828 57.748047,24.1066896 57.71875,24.0700684 C57.689453,24.0334471 57.6589357,23.994385 57.6271973,23.9528809 C57.5954588,23.9113767 57.5637209,23.8723146 57.5319824,23.8356934 C57.500244,23.7990721 57.4819336,23.775879 57.4770508,23.7661133 C57.4672851,23.7514648 57.4465334,23.7136234 57.4147949,23.6525879 C57.3830565,23.5915524 57.3464358,23.5207524 57.3049316,23.4401855 C57.2634275,23.3596187 57.2243654,23.2802738 57.1877441,23.2021484 C57.1511229,23.124023 57.123047,23.0605471 57.1035156,23.0117188 C57.09375,23.0019531 57.0839844,22.982422 57.0742188,22.953125 C57.0644531,22.923828 57.0595703,22.9042969 57.0595703,22.8945312 C57.0009763,22.572264 56.9509279,22.2573258 56.9094238,21.949707 C56.8679197,21.6420883 56.8496094,21.3222673 56.8544922,20.9902344 L56.8544922,20.9536133 Z M62.0693359,18.6098633 C61.8203113,18.6147461 61.58838,18.6452634 61.3735352,18.701416 C61.1586903,18.7575686 60.9487315,18.8564446 60.7436523,18.9980469 C60.6752926,19.0419924 60.5983891,19.0981442 60.5129395,19.1665039 C60.4274898,19.2348636 60.3444828,19.3093258 60.263916,19.3898926 C60.1833492,19.4704594 60.1162112,19.5559078 60.0625,19.6462402 C60.0087888,19.7365727 59.9819336,19.8256832 59.9819336,19.9135742 C60.1088874,19.9038085 60.2260737,19.8891603 60.3334961,19.8696289 C60.4409185,19.8500976 60.5556635,19.8378906 60.6777344,19.8330078 L60.7070312,19.8330078 C60.7167969,19.8378906 60.7473142,19.8415527 60.798584,19.8439941 C60.8498538,19.8464356 60.9060056,19.8488769 60.967041,19.8513184 C61.0280765,19.8537598 61.085449,19.8562012 61.1391602,19.8586426 C61.1928714,19.861084 61.2270507,19.8623047 61.2416992,19.8623047 L61.9448242,19.8623047 C61.9887698,19.8623047 62.0498043,19.8598633 62.1279297,19.8549805 C62.2060551,19.8500976 62.2854,19.8452149 62.3659668,19.840332 C62.4465336,19.8354492 62.5185544,19.8317871 62.5820312,19.8293457 C62.6455081,19.8269043 62.6821289,19.8256836 62.6918945,19.8256836 C62.7407229,19.8256836 62.8298333,19.8244629 62.9592285,19.8220215 C63.0886237,19.8195801 63.2265618,19.8171387 63.3730469,19.8146973 C63.519532,19.8122558 63.6574701,19.8085938 63.7868652,19.8037109 C63.9162604,19.7988281 64.0053708,19.7939453 64.0541992,19.7890625 C64.0639649,19.7890625 64.0737304,19.7841797 64.0834961,19.7744141 L64.0981445,19.7597656 C64.0981445,19.75 64.0932618,19.7353517 64.0834961,19.7158203 C64.0737304,19.696289 64.0639649,19.6816407 64.0541992,19.671875 C64.0444335,19.6523437 64.0310059,19.6267091 64.013916,19.5949707 C63.9968261,19.5632323 63.9785157,19.5314943 63.9589844,19.4997559 C63.939453,19.4680174 63.9223634,19.4411622 63.9077148,19.4191895 C63.8930663,19.3972167 63.8833008,19.3837891 63.878418,19.3789062 C63.6635731,19.1103502 63.3913591,18.9125983 63.0617676,18.7856445 C62.7321761,18.6586908 62.4013688,18.6000976 62.0693359,18.6098633 Z M70.0014648,25.7802734 C69.9868163,25.7802734 69.9477542,25.7851562 69.8842773,25.7949219 C69.8208005,25.8046875 69.7512211,25.8144531 69.6755371,25.8242188 C69.5998531,25.8339844 69.5302738,25.84375 69.4667969,25.8535156 C69.40332,25.8632813 69.3642579,25.8681641 69.3496094,25.8681641 C69.1396474,25.8681641 68.9296885,25.8779296 68.7197266,25.8974609 C68.5097646,25.9169923 68.2998057,25.9267578 68.0898438,25.9267578 C68.0507811,25.9267578 68.03125,25.9243164 68.03125,25.9194336 C68.03125,25.9145508 68.0141603,25.9121094 67.9799805,25.9121094 C67.965332,25.9023437 67.9433595,25.881592 67.9140625,25.8498535 C67.8847655,25.8181151 67.862793,25.7973633 67.8481445,25.7875977 L67.8481445,25.7436523 C67.8481445,25.7387695 67.8469238,25.7192385 67.8444824,25.6850586 C67.842041,25.6508787 67.8383789,25.6154787 67.8334961,25.5788574 C67.8286133,25.5422361 67.8249512,25.5080568 67.8225098,25.4763184 C67.8200683,25.4445799 67.8188477,25.4238282 67.8188477,25.4140625 C67.8139648,25.3896483 67.8090821,25.3444828 67.8041992,25.2785645 C67.7993164,25.2126462 67.7944336,25.1430668 67.7895508,25.0698242 C67.7846679,24.9965817 67.7810059,24.9294437 67.7785645,24.8684082 C67.776123,24.8073727 67.7749023,24.7646486 67.7749023,24.7402344 C67.7749023,24.6474605 67.776123,24.5021983 67.7785645,24.3044434 C67.7810059,24.1066885 67.7834473,23.883302 67.7858887,23.6342773 C67.7883301,23.3852527 67.7919922,23.1228041 67.796875,22.8469238 C67.8017578,22.5710435 67.8054199,22.3098157 67.8078613,22.0632324 C67.8103027,21.8166492 67.8127441,21.5957041 67.8151855,21.4003906 C67.817627,21.2050771 67.8188477,21.0610356 67.8188477,20.9682617 C67.8188477,20.9389647 67.817627,20.8840336 67.8151855,20.8034668 C67.8127441,20.7229 67.8090821,20.6386723 67.8041992,20.5507812 C67.7993164,20.4628902 67.7944336,20.3786625 67.7895508,20.2980957 C67.7846679,20.2175289 67.7797852,20.1625978 67.7749023,20.1333008 L67.5405273,14.0908203 C67.5405273,14.0761718 67.5393067,14.0541994 67.5368652,14.0249023 C67.5344238,13.9956053 67.5319824,13.9626467 67.529541,13.9260254 C67.5270996,13.8894041 67.5258789,13.8540041 67.5258789,13.8198242 C67.5258789,13.7856444 67.5283203,13.7587892 67.5332031,13.7392578 C67.5429688,13.6660153 67.553955,13.6062014 67.5661621,13.5598145 C67.5783692,13.5134275 67.6113279,13.4902344 67.6650391,13.4902344 C67.6845704,13.4902344 67.7163084,13.487793 67.7602539,13.4829102 C67.8041994,13.4780273 67.849365,13.4731446 67.895752,13.4682617 L68.0349121,13.4536133 C68.0812991,13.4487304 68.1191405,13.4462891 68.1484375,13.4462891 L69.3935547,13.4462891 C69.3984375,13.4462891 69.4179686,13.4438477 69.4521484,13.4389648 C69.4863283,13.434082 69.5253904,13.4291992 69.5693359,13.4243164 C69.6132815,13.4194336 69.6560057,13.4169922 69.6975098,13.4169922 C69.7390139,13.4169922 69.7646484,13.4194336 69.7744141,13.4243164 C69.8867193,13.4047851 69.9721677,13.4218747 70.0307617,13.4755859 C70.0893558,13.5292971 70.1320799,13.5976558 70.1589355,13.6806641 C70.1857911,13.7636723 70.1979981,13.851562 70.1955566,13.9443359 C70.1931152,14.0371098 70.1894531,14.1152341 70.1845703,14.1787109 C70.1845703,14.1933594 70.1870117,14.2287595 70.1918945,14.2849121 C70.1967774,14.3410647 70.2016601,14.4045407 70.206543,14.4753418 C70.2114258,14.5461429 70.2163086,14.6157223 70.2211914,14.684082 C70.2260742,14.7524417 70.230957,14.8037108 70.2358398,14.8378906 L70.2358398,14.8964844 C70.2358398,14.9355471 70.2309571,14.9685057 70.2211914,14.9953613 C70.2114257,15.0222169 70.2016602,15.0502928 70.1918945,15.0795898 L70.2358398,16.1928711 L70.2358398,16.2770996 C70.2358398,16.3234866 70.2370605,16.3747556 70.239502,16.4309082 C70.2419434,16.4870608 70.2443848,16.5407712 70.2468262,16.592041 C70.2492676,16.6433108 70.255371,16.6738281 70.2651367,16.6835938 C70.2797852,16.9130871 70.2907714,17.0766597 70.2980957,17.1743164 C70.30542,17.2719731 70.3103027,17.3342284 70.3127441,17.361084 C70.3151856,17.3879396 70.3151856,17.3977051 70.3127441,17.3903809 C70.3103027,17.3830566 70.309082,17.3903807 70.309082,17.4123535 C70.309082,17.4343263 70.3115234,17.486816 70.3164062,17.5698242 C70.3212891,17.6528324 70.3286132,17.7993154 70.3383789,18.0092773 L70.3383789,18.4267578 C70.3481446,18.4658205 70.3603515,18.5207516 70.375,18.5915527 C70.3896485,18.6623539 70.3969727,18.717285 70.3969727,18.7563477 L70.4628906,19.4448242 L70.4628906,19.4594727 C70.4580078,19.4643555 70.4567871,19.4887693 70.4592285,19.5327148 C70.4616699,19.5766604 70.465332,19.6267087 70.4702148,19.6828613 C70.4750977,19.739014 70.4799804,19.7890623 70.4848633,19.8330078 C70.4897461,19.8769533 70.4921875,19.9013672 70.4921875,19.90625 C70.4873047,19.9892582 70.4873047,20.1259756 70.4921875,20.3164062 C70.4970703,20.5068369 70.5031738,20.7082509 70.510498,20.9206543 C70.5178223,21.1330577 70.5251464,21.3344717 70.5324707,21.5249023 C70.539795,21.715333 70.5410156,21.8520504 70.5361328,21.9350586 L70.5361328,22.5649414 L70.5068359,23.3632812 L70.5068359,24.2861328 C70.5068359,24.3789067 70.5043946,24.4374999 70.4995117,24.4619141 L70.4995117,24.8354492 C70.4995117,24.8452149 70.498291,24.8586425 70.4958496,24.8757324 C70.4934082,24.8928224 70.4921875,24.9135741 70.4921875,24.9379883 L70.4921875,25.3884277 C70.4921875,25.4445804 70.4848634,25.4958494 70.4702148,25.5422363 C70.4555663,25.5886233 70.4311525,25.6325682 70.3969727,25.6740723 C70.3627928,25.7155764 70.3115238,25.7534178 70.2431641,25.7875977 C70.1894529,25.7875977 70.145508,25.7961425 70.1113281,25.8132324 C70.0771483,25.8303224 70.0405275,25.8193361 70.0014648,25.7802734 Z" id="path-1"></path>
    </defs>
    <g id="Page-1" stroke="none" stroke-width="1" fill="none" fill-rule="evenodd">
        <g id="Group-2-Copy-5">
            <g id="Next-Btn-Copy-3">
                <rect id="Rectangle" fill="#FFFFFF" x="0" y="0" width="89" height="38" rx="19"></rect>
                <g id="Cancel" fill-rule="nonzero">
                    <use fill="#FFFFFF" xlink:href="#path-1"></use>
                    <use fill="#3F8FE8" xlink:href="#path-1"></use>
                </g>
            </g>
        </g>
    </g>
</svg>