
<svg width="89px" height="38px" viewBox="0 0 89 38" version="1.1" xmlns="http://www.w3.org/2000/svg" xmlns:xlink="http://www.w3.org/1999/xlink">
    <defs>
        <path d="M16.3273926,25.8388672 C15.9807112,25.7070306 15.685304,25.5825201 15.4411621,25.465332 C15.1970203,25.3481439 14.9895028,25.2395025 14.8186035,25.1394043 C14.6477042,25.0393061 14.5097661,24.9465336 14.4047852,24.861084 C14.2998042,24.7756343 14.2119144,24.6987308 14.1411133,24.6303711 C14.0703121,24.5620114 14.011719,24.5009768 13.965332,24.4472656 C13.9189451,24.3935544 13.8713381,24.3471682 13.8225098,24.3081055 C13.8127441,24.3081055 13.7968751,24.2971193 13.7749023,24.2751465 C13.7529296,24.2531737 13.7419434,24.2373047 13.7419434,24.2275391 C13.7321777,24.2177734 13.7224122,24.2031251 13.7126465,24.1835938 C13.7028808,24.1640624 13.697998,24.1494141 13.697998,24.1396484 L13.5112305,23.9528809 C13.479492,23.9211424 13.4514161,23.8942872 13.427002,23.8723145 C13.4025878,23.8503417 13.3879395,23.8393555 13.3830566,23.8393555 L13.2219238,23.5830078 L13.2219238,23.5756836 C13.2219238,23.5708008 13.2231445,23.5671387 13.2255859,23.5646973 C13.2280274,23.5622558 13.229248,23.5585938 13.229248,23.5537109 L13.229248,23.5390625 C13.1169428,23.3876946 13.0241703,23.2229013 12.9509277,23.0446777 C12.8776852,22.8664542 12.8154299,22.6833505 12.7641602,22.4953613 C12.7128904,22.3073721 12.6652834,22.118165 12.6213379,21.9277344 C12.5773924,21.7373037 12.5285647,21.5542001 12.4748535,21.378418 C12.4504393,21.2954097 12.4382324,21.2185062 12.4382324,21.1477051 C12.4382324,21.0769039 12.4284669,21.0000004 12.4089355,20.9169922 C12.3796385,20.8046869 12.3479006,20.6923834 12.3137207,20.5800781 C12.2795408,20.4677729 12.2575684,20.3554693 12.2478027,20.2431641 C12.2478027,20.1992185 12.2441407,20.1186529 12.2368164,20.0014648 C12.2294922,19.8842768 12.2209473,19.7585456 12.2111816,19.6242676 C12.201416,19.4899896 12.1928711,19.3630377 12.1855469,19.2434082 C12.1782226,19.1237787 12.1721192,19.0371096 12.1672363,18.9833984 L12.1672363,18.800293 C12.1721192,18.6049795 12.1892088,18.4279793 12.2185059,18.2692871 C12.2478029,18.1105949 12.2893064,17.9384775 12.3430176,17.7529297 C12.3479004,17.743164 12.3576659,17.7138674 12.3723145,17.6650391 C12.386963,17.6162107 12.4016113,17.5625003 12.4162598,17.5039062 L12.456543,17.3427734 C12.4687501,17.2939451 12.4772949,17.2646485 12.4821777,17.2548828 C12.5310061,17.0839835 12.5847165,16.9375006 12.6433105,16.8154297 C12.7019046,16.6933588 12.7568357,16.5932621 12.8081055,16.5151367 C12.8593753,16.4370113 12.9020994,16.3784182 12.9362793,16.3393555 L12.9875488,16.2807617 C13.0266115,16.1635736 13.0900875,16.0402839 13.1779785,15.9108887 C13.2658696,15.7814935 13.3684076,15.6521003 13.4855957,15.5227051 C13.6027838,15.3933099 13.7297356,15.2651374 13.8664551,15.1381836 C14.0031745,15.0112298 14.1398919,14.8916021 14.2766113,14.7792969 C14.4426278,14.6132804 14.6428211,14.4753423 14.8771973,14.3654785 C15.1115734,14.2556147 15.3337392,14.1591801 15.5437012,14.0761719 C15.5583497,14.071289 15.5961911,14.0529787 15.6572266,14.0212402 C15.718262,13.9895018 15.7854,13.9577638 15.8586426,13.9260254 C15.9318851,13.894287 15.9990231,13.8637697 16.0600586,13.8344727 C16.1210941,13.8051756 16.1589355,13.7856446 16.173584,13.7758789 C16.1784668,13.7758789 16.1979979,13.7709961 16.2321777,13.7612305 C16.2663576,13.7514648 16.3029783,13.7392579 16.342041,13.7246094 C16.3811037,13.7099609 16.4177244,13.6965333 16.4519043,13.6843262 C16.4860842,13.6721191 16.5080566,13.6635742 16.5178223,13.6586914 C16.5275879,13.6489257 16.5568845,13.6342774 16.6057129,13.6147461 C16.6545413,13.5952147 16.6838378,13.5805665 16.6936035,13.5708008 C16.6984864,13.5708008 16.711914,13.5720215 16.7338867,13.5744629 C16.7558595,13.5769043 16.781494,13.578125 16.810791,13.578125 L16.8913574,13.578125 C16.9157716,13.578125 16.9328613,13.5756836 16.942627,13.5708008 C16.9523926,13.5708008 16.9731444,13.5683594 17.0048828,13.5634766 C17.0366213,13.5585937 17.073242,13.5524903 17.1147461,13.545166 C17.1562502,13.5378418 17.196533,13.5305176 17.2355957,13.5231934 C17.2746584,13.5158691 17.303955,13.5097656 17.3234863,13.5048828 C17.5285655,13.4462888 17.7287588,13.4182129 17.9240723,13.4206543 C18.1193857,13.4230957 18.3244618,13.4243164 18.5393066,13.4243164 L18.7150879,13.4243164 C18.7883304,13.4243164 18.8603512,13.4255371 18.9311523,13.4279785 C19.0019535,13.4304199 19.0642087,13.4316406 19.1179199,13.4316406 L19.2131348,13.4316406 C19.2326661,13.4316406 19.2668455,13.4328613 19.3156738,13.4353027 C19.3645022,13.4377442 19.4182126,13.4414062 19.4768066,13.4462891 C19.5354007,13.4511719 19.5915525,13.4572754 19.6452637,13.4645996 C19.6989749,13.4719239 19.738037,13.4780273 19.7624512,13.4829102 C19.7722168,13.4829102 19.8027341,13.4877929 19.8540039,13.4975586 C19.9052737,13.5073243 19.9455565,13.5170898 19.9748535,13.5268555 C19.9846192,13.5268555 20.0126951,13.5317382 20.059082,13.5415039 C20.105469,13.5512696 20.1335449,13.5610351 20.1433105,13.5708008 C20.1530762,13.5708008 20.1823728,13.5732422 20.2312012,13.578125 C20.2800295,13.5830078 20.3325193,13.5866699 20.3886719,13.5891113 C20.4448245,13.5915527 20.4985349,13.5952148 20.5498047,13.6000977 C20.6010745,13.6049805 20.6340331,13.6074219 20.6486816,13.6074219 C20.6633302,13.6171875 20.691406,13.6269531 20.7329102,13.6367188 C20.7744143,13.6464844 20.8000488,13.6513672 20.8098145,13.6513672 C20.8195801,13.6611329 20.8452146,13.6782225 20.8867188,13.7026367 C20.9282229,13.7270509 20.9721677,13.7526854 21.0185547,13.779541 C21.0649416,13.8063966 21.1088865,13.8332518 21.1503906,13.8601074 C21.1918947,13.886963 21.2175292,13.902832 21.2272949,13.9077148 C21.2370606,13.9174805 21.2651365,13.9333495 21.3115234,13.9553223 C21.3579104,13.977295 21.3859863,13.993164 21.395752,14.0029297 C21.4055176,14.0029297 21.4274901,14.0163573 21.4616699,14.0432129 C21.4958498,14.0700685 21.5178222,14.0834961 21.5275879,14.0834961 C21.5275879,14.0883789 21.5397948,14.0908203 21.564209,14.0908203 C21.5739747,14.0908203 21.5861816,14.0883789 21.6008301,14.0834961 C21.6496584,14.0981446 21.6850585,14.1420895 21.7070312,14.215332 C21.729004,14.2885746 21.7399902,14.3496091 21.7399902,14.3984375 L21.7399902,14.4716797 C21.7302246,14.491211 21.7180177,14.5083007 21.7033691,14.5229492 C21.6887206,14.5424806 21.6691896,14.564453 21.6447754,14.5888672 C21.6350097,14.5986329 21.614258,14.6267088 21.5825195,14.6730957 C21.5507811,14.7194827 21.5153811,14.769531 21.4763184,14.8232422 C21.4372557,14.8769534 21.4018556,14.925781 21.3701172,14.9697266 C21.3383787,15.0136721 21.317627,15.0405273 21.3078613,15.050293 C21.2541501,15.0747072 21.1931156,15.1430658 21.1247559,15.2553711 C21.0563961,15.3676763 20.9807133,15.4824213 20.8977051,15.5996094 C20.8146969,15.7167975 20.7255864,15.8168941 20.6303711,15.8999023 C20.5351558,15.9829106 20.4338384,16.0073244 20.326416,15.9731445 C20.05786,15.9047848 19.7990735,15.848633 19.5500488,15.8046875 C19.3010241,15.760742 19.0397963,15.7363281 18.7663574,15.7314453 C18.7419432,15.7314453 18.7126467,15.732666 18.6784668,15.7351074 C18.6442869,15.7375488 18.6076662,15.7387695 18.5686035,15.7387695 C18.524658,15.7436524 18.4807131,15.7460938 18.4367676,15.7460938 C18.4270019,15.7460938 18.4050295,15.7497558 18.3708496,15.7570801 C18.3366698,15.7644043 18.3012697,15.7729492 18.2646484,15.7827148 C18.2280272,15.7924805 18.1926271,15.8010254 18.1584473,15.8083496 C18.1242674,15.8156739 18.102295,15.8193359 18.0925293,15.8193359 C18.0778808,15.8242188 18.037598,15.8303222 17.9716797,15.8376465 C17.9057614,15.8449707 17.8349613,15.8535156 17.7592773,15.8632812 C17.6835934,15.8730469 17.6127933,15.8815918 17.546875,15.888916 C17.4809567,15.8962403 17.4382325,15.9023437 17.4187012,15.9072266 C17.4089355,15.9072266 17.3845217,15.91333 17.345459,15.9255371 C17.3063963,15.9377442 17.2624514,15.9523925 17.213623,15.9694824 L17.0671387,16.020752 C17.0183103,16.0378419 16.9816896,16.0512695 16.9572754,16.0610352 C16.7326649,16.1538091 16.5312509,16.2709954 16.3530273,16.4125977 C16.1748038,16.5541999 16.0075691,16.7153311 15.8513184,16.8959961 C15.8366698,16.9106446 15.8073733,16.9472653 15.7634277,17.0058594 C15.7194822,17.0644534 15.6718753,17.1267087 15.6206055,17.192627 C15.5693357,17.2585453 15.520508,17.3208005 15.4741211,17.3793945 C15.4277341,17.4379886 15.3972169,17.4746093 15.3825684,17.4892578 C15.33374,17.542969 15.286133,17.5979001 15.2397461,17.6540527 C15.1933591,17.7102054 15.1579591,17.7797847 15.1335449,17.862793 C15.1237792,17.8872072 15.1103516,17.9335934 15.0932617,18.0019531 C15.0761718,18.0703128 15.0590821,18.1423336 15.0419922,18.2180176 C15.0249023,18.2937016 15.0065919,18.3657223 14.9870605,18.434082 C14.9675292,18.5024417 14.9553223,18.5512694 14.9504395,18.5805664 C14.9455566,18.5903321 14.9431152,18.6000976 14.9431152,18.6098633 L14.9431152,18.6611328 C14.9431152,18.714844 14.9504394,18.7673337 14.9650879,18.8186035 C14.9797364,18.8698733 14.9870605,18.9272458 14.9870605,18.9907227 L14.9870605,19.0053711 C14.9772949,19.0151368 14.9553224,19.041992 14.9211426,19.0859375 C14.8869627,19.129883 14.869873,19.1567382 14.869873,19.1665039 L14.869873,19.1958008 C14.8649902,19.4252941 14.8710937,19.6743151 14.8881836,19.9428711 C14.9052735,20.2114271 14.9504391,20.4580067 15.0236816,20.6826172 L15.1408691,21.0854492 L15.1335449,21.1000977 C15.1384278,21.119629 15.149414,21.1525877 15.1665039,21.1989746 C15.1835938,21.2453616 15.2019042,21.2929685 15.2214355,21.3417969 C15.2409669,21.3906252 15.2580566,21.4370115 15.2727051,21.480957 C15.2873536,21.5249026 15.2995605,21.5541991 15.3093262,21.5688477 C15.3728031,21.6079104 15.4143065,21.6604001 15.4338379,21.7263184 C15.4533692,21.7922367 15.4826658,21.8569333 15.5217285,21.9204102 C15.6437994,22.1010751 15.7756341,22.2731925 15.9172363,22.4367676 C16.0588386,22.6003426 16.2126457,22.7492669 16.3786621,22.8835449 C16.5446786,23.0178229 16.7241201,23.1337886 16.9169922,23.2314453 C17.1098642,23.3291021 17.316161,23.4023435 17.5358887,23.4511719 C17.5700685,23.4609375 17.627441,23.4719238 17.7080078,23.4841309 C17.7885746,23.496338 17.8715816,23.5097656 17.9570312,23.5244141 C18.0424809,23.5390626 18.1206051,23.5512695 18.1914062,23.5610352 C18.2622074,23.5708008 18.3073729,23.5756836 18.3269043,23.5756836 C18.3317871,23.5756836 18.3513182,23.5769043 18.385498,23.5793457 C18.4196779,23.5817871 18.4599607,23.5830078 18.5063477,23.5830078 C18.5527346,23.5830078 18.6003416,23.5842285 18.6491699,23.5866699 C18.6979983,23.5891113 18.7370604,23.590332 18.7663574,23.590332 C18.9714366,23.5952149 19.1679678,23.58667 19.355957,23.5646973 C19.5439463,23.5427245 19.7355947,23.4975589 19.9309082,23.4291992 C19.9455567,23.4243164 19.9675292,23.4145509 19.9968262,23.3999023 C20.0261232,23.3852538 20.0566405,23.3706055 20.0883789,23.355957 C20.1201173,23.3413085 20.1481932,23.3278809 20.1726074,23.3156738 C20.1970216,23.3034667 20.2116699,23.2949219 20.2165527,23.2900391 C20.2751468,23.2656249 20.3264158,23.2387697 20.3703613,23.2094727 C20.4143069,23.1801756 20.457031,23.1533204 20.4985352,23.1289062 C20.5400393,23.1044921 20.5839841,23.0837403 20.6303711,23.0666504 C20.676758,23.0495605 20.7292478,23.0410156 20.7878418,23.0410156 C20.8024903,23.0410156 20.8293455,23.043457 20.8684082,23.0483398 C20.9074709,23.0532227 20.9318847,23.0556641 20.9416504,23.0556641 C21.0588385,23.1630865 21.16748,23.27539 21.2675781,23.3925781 C21.3676763,23.5097662 21.4494626,23.6367181 21.5129395,23.7734375 C21.527588,23.7929688 21.5507811,23.835693 21.5825195,23.9016113 C21.614258,23.9675296 21.6484373,24.0383297 21.6850586,24.1140137 C21.7216799,24.1896976 21.7570799,24.2604977 21.7912598,24.326416 C21.8254396,24.3923343 21.8474121,24.4326171 21.8571777,24.4472656 C21.8620606,24.4570313 21.8754882,24.4765624 21.8974609,24.5058594 C21.9194337,24.5351564 21.9414061,24.5656737 21.9633789,24.5974121 C21.9853517,24.6291505 22.0061034,24.6608885 22.0256348,24.692627 C22.0451661,24.7243654 22.057373,24.7426758 22.0622559,24.7475586 C22.0915529,24.8696295 22.1025391,24.9550779 22.0952148,25.0039062 C22.0878906,25.0527346 22.0610354,25.090576 22.0146484,25.1174316 C21.9682615,25.1442872 21.9060063,25.1723631 21.8278809,25.2016602 C21.7497555,25.2309572 21.656983,25.2895503 21.5495605,25.3774414 C21.5397949,25.3823242 21.5324707,25.387207 21.5275879,25.3920898 C21.5178222,25.3969727 21.5117188,25.4018554 21.5092773,25.4067383 C21.5068359,25.4116211 21.5031739,25.4165039 21.498291,25.4213867 C21.3762201,25.5141606 21.2492682,25.5886228 21.1174316,25.6447754 C20.985595,25.700928 20.8488777,25.7473143 20.7072754,25.7839355 C20.5656731,25.8205568 20.4204109,25.8486327 20.2714844,25.8681641 C20.1225578,25.8876954 19.9724129,25.9047851 19.8210449,25.9194336 C19.7917479,25.9194336 19.7148444,25.9243164 19.590332,25.934082 C19.4658197,25.9438477 19.3327644,25.9536132 19.1911621,25.9633789 C19.0495598,25.9731446 18.9165045,25.9829101 18.7919922,25.9926758 C18.6674798,26.0024415 18.5905763,26.0097656 18.5612793,26.0146484 L18.0925293,26.0146484 C18.0778808,26.0146484 18.0437014,26.0122071 17.9899902,26.0073242 C17.936279,26.0024414 17.8789066,25.9975586 17.8178711,25.9926758 C17.7568356,25.9877929 17.6994632,25.9829102 17.645752,25.9780273 C17.5920407,25.9731445 17.5578614,25.9707031 17.5432129,25.9707031 L16.9609375,25.9707031 C16.8901364,25.9707031 16.8474122,25.9682617 16.8327637,25.9633789 C16.822998,25.9633789 16.7961428,25.9584961 16.7521973,25.9487305 C16.7082517,25.9389648 16.6582034,25.9279786 16.6020508,25.9157715 C16.5458982,25.9035644 16.4921878,25.8901368 16.440918,25.8754883 C16.3896482,25.8608398 16.3518068,25.8486329 16.3273926,25.8388672 Z M26.7277832,25.7949219 C26.6936033,25.7851562 26.6423343,25.77417 26.5739746,25.7619629 C26.5056149,25.7497558 26.4201665,25.7338868 26.317627,25.7143555 C26.3127441,25.7143555 26.2907717,25.7106934 26.251709,25.7033691 C26.2126463,25.6960449 26.1650393,25.683838 26.1088867,25.666748 C26.0527341,25.6496581 25.9941409,25.626465 25.9331055,25.597168 C25.87207,25.5678709 25.8171389,25.5312502 25.7683105,25.4873047 C25.7585449,25.4824219 25.7377931,25.473877 25.7060547,25.4616699 C25.6743162,25.4494628 25.6389162,25.4348145 25.5998535,25.4177246 C25.5607908,25.4006347 25.5253908,25.3859864 25.4936523,25.3737793 C25.4619139,25.3615722 25.4411622,25.3530274 25.4313965,25.3481445 C25.3435054,25.3139647 25.2592777,25.2675784 25.1787109,25.2089844 C25.0981441,25.1503903 25.0212406,25.0893558 24.947998,25.0258789 C24.8747555,24.962402 24.8039554,24.8977054 24.7355957,24.8317871 C24.667236,24.7658688 24.6037601,24.7036136 24.545166,24.6450195 C24.3107898,24.4252919 24.100831,24.1933606 23.9152832,23.9492188 C23.7297354,23.7050769 23.5710456,23.4365249 23.439209,23.1435547 C23.3317866,22.9091785 23.2463382,22.6955576 23.1828613,22.5026855 C23.1193844,22.3098135 23.0705568,22.1193857 23.036377,21.9313965 C23.0021971,21.7434073 22.979004,21.5493174 22.9667969,21.3491211 C22.9545898,21.1489248 22.9484863,20.9194349 22.9484863,20.6606445 L22.9484863,20.1113281 C23.0119632,19.8330064 23.0852047,19.5705579 23.1682129,19.3239746 C23.2512211,19.0773913 23.3525385,18.841798 23.472168,18.6171875 C23.5917975,18.392577 23.7297355,18.1777354 23.8859863,17.9726562 C24.0422371,17.7675771 24.2253407,17.5698252 24.4353027,17.3793945 C24.5866707,17.2329094 24.7429191,17.1059576 24.9040527,16.9985352 C25.0651864,16.8911127 25.2385245,16.7934575 25.4240723,16.7055664 C25.4387208,16.7006836 25.4594725,16.690918 25.4863281,16.6762695 C25.5131837,16.661621 25.5424803,16.6481934 25.5742188,16.6359863 C25.6059572,16.6237792 25.6340331,16.612793 25.6584473,16.6030273 C25.6828615,16.5932617 25.6999511,16.5859375 25.7097168,16.5810547 C25.7243653,16.5810547 25.760986,16.5773926 25.8195801,16.5700684 C25.8781741,16.5627441 25.9123535,16.559082 25.9221191,16.559082 C25.9367677,16.5493164 25.9660642,16.5285646 26.0100098,16.4968262 C26.0539553,16.4650877 26.0808105,16.444336 26.0905762,16.4345703 C26.095459,16.4345703 26.111328,16.4321289 26.1381836,16.4272461 C26.1650392,16.4223633 26.1931151,16.4162598 26.2224121,16.4089355 C26.2517091,16.4016113 26.2785643,16.3955078 26.3029785,16.390625 C26.3273927,16.3857422 26.342041,16.3808594 26.3469238,16.3759766 L26.6984863,16.2880859 C26.7766117,16.2685546 26.8510739,16.2502442 26.921875,16.2331543 C26.9926761,16.2160644 27.0378417,16.2075195 27.057373,16.2075195 C27.0964357,16.192871 27.1672358,16.1794434 27.2697754,16.1672363 C27.372315,16.1550292 27.4821771,16.144043 27.5993652,16.1342773 C27.7165533,16.1245117 27.8276362,16.1147461 27.9326172,16.1049805 C28.0375982,16.0952148 28.1145017,16.0878906 28.1633301,16.0830078 L28.2512207,16.0830078 C28.2756349,16.0830078 28.3012694,16.0842285 28.328125,16.0866699 C28.3549806,16.0891113 28.3757323,16.090332 28.3903809,16.090332 C28.4978033,16.0952149 28.5954585,16.1000976 28.6833496,16.1049805 C28.7712407,16.1098633 28.8640132,16.1245116 28.9616699,16.1489258 C29.0983894,16.1831056 29.2375481,16.2148436 29.3791504,16.2441406 C29.5207527,16.2734376 29.6599114,16.2978515 29.7966309,16.3173828 C29.8308107,16.3320313 29.8881832,16.3588865 29.96875,16.3979492 C30.0493168,16.4370119 30.1347652,16.4809568 30.2250977,16.5297852 C30.3154301,16.5786135 30.3996578,16.6249998 30.4777832,16.6689453 C30.5559086,16.7128908 30.609619,16.7446288 30.638916,16.7641602 C30.6535645,16.7739258 30.6914059,16.8093259 30.7524414,16.8703613 L30.9538574,17.0717773 C31.0271,17.1450199 31.0979,17.2182614 31.1662598,17.2915039 C31.2346195,17.3647465 31.2858885,17.4208982 31.3200684,17.4599609 C31.3249512,17.4697266 31.3395995,17.491699 31.3640137,17.5258789 C31.3884279,17.5600588 31.4165037,17.6003416 31.4482422,17.6467285 C31.4799806,17.6931155 31.5117186,17.738281 31.543457,17.7822266 C31.5751955,17.8261721 31.60083,17.8627928 31.6203613,17.8920898 C31.7961435,18.1606459 31.9414057,18.4267565 32.0561523,18.6904297 C32.170899,18.9541029 32.2624508,19.2214342 32.3308105,19.4924316 C32.3991703,19.7634291 32.4492186,20.0417466 32.480957,20.3273926 C32.5126955,20.6130385 32.5285645,20.9096664 32.5285645,21.2172852 L32.5285645,21.246582 C32.5187988,21.3295903 32.5078126,21.4431145 32.4956055,21.5871582 C32.4833984,21.7312019 32.4711915,21.8740227 32.4589844,22.015625 C32.4467773,22.1572273 32.4357911,22.2841791 32.4260254,22.3964844 C32.4162597,22.5087896 32.4089356,22.5747069 32.4040527,22.5942383 C32.3698729,22.843263 32.3173832,23.080077 32.246582,23.3046875 C32.1757809,23.529298 32.0891118,23.7514637 31.9865723,23.9711914 C31.8937984,24.0883795 31.8193362,24.1872555 31.7631836,24.2678223 C31.707031,24.3483891 31.6496585,24.4265133 31.5910645,24.5021973 C31.5324704,24.5778812 31.4653324,24.6608882 31.3896484,24.7512207 C31.3139645,24.8415532 31.2102057,24.9550774 31.0783691,25.0917969 C30.9074698,25.2187506 30.7255869,25.335937 30.5327148,25.4433594 C30.3398428,25.5507818 30.1408702,25.6435543 29.935791,25.7216797 C29.7307119,25.7998051 29.5219737,25.8608396 29.3095703,25.9047852 C29.0971669,25.9487307 28.8884288,25.9658204 28.6833496,25.9560547 L28.5844727,25.9560547 C28.5380857,25.9560547 28.4868167,25.954834 28.4306641,25.9523926 C28.3745114,25.9499512 28.3232424,25.9475098 28.2768555,25.9450684 C28.2304685,25.9426269 28.1975099,25.9414062 28.1779785,25.9414062 C28.1682128,25.9316406 28.1511232,25.921875 28.126709,25.9121094 C28.1022948,25.9023437 28.0852051,25.8974609 28.0754395,25.8974609 C28.0656738,25.8974609 28.0437013,25.8999023 28.0095215,25.9047852 C27.9753416,25.909668 27.9375002,25.9157714 27.8959961,25.9230957 C27.854492,25.93042 27.8154299,25.9365234 27.7788086,25.9414062 C27.7421873,25.9462891 27.7189942,25.9462891 27.7092285,25.9414062 C27.6896972,25.9414062 27.6445316,25.9377442 27.5737305,25.9304199 C27.5029293,25.9230957 27.4260258,25.9133301 27.3430176,25.901123 C27.2600094,25.888916 27.1831058,25.8779297 27.1123047,25.8681641 C27.0415036,25.8583984 26.9987794,25.8510742 26.9841309,25.8461914 L26.9108887,25.8461914 L26.7277832,25.7949219 Z M25.7683105,20.7631836 C25.7731934,20.899903 25.7854003,21.034179 25.8049316,21.1660156 C25.824463,21.2978522 25.8610837,21.4272455 25.9147949,21.5541992 C25.9147949,21.5639649 25.9270018,21.5908201 25.951416,21.6347656 C25.9758302,21.6787112 25.9880371,21.7055664 25.9880371,21.715332 C26.0075685,21.7788089 26.0270995,21.8471676 26.0466309,21.9204102 C26.0661622,21.9936527 26.086914,22.0668942 26.1088867,22.1401367 C26.1308595,22.2133793 26.156494,22.2841793 26.185791,22.3525391 C26.215088,22.4208988 26.2517088,22.4819333 26.2956543,22.5356445 C26.3103028,22.550293 26.3347166,22.5759276 26.3688965,22.6125488 L26.4714355,22.7224121 C26.5056154,22.7590334 26.5373534,22.7932127 26.5666504,22.8249512 C26.5959474,22.8566896 26.6154785,22.875 26.6252441,22.8798828 C26.630127,22.8847656 26.645996,22.8969726 26.6728516,22.9165039 C26.6997072,22.9360353 26.7314451,22.956787 26.7680664,22.9787598 C26.8046877,23.0007325 26.8413084,23.0239257 26.8779297,23.0483398 C26.914551,23.072754 26.9450682,23.0898437 26.9694824,23.0996094 L27.0427246,23.1508789 C27.0573731,23.1606446 27.0891111,23.182617 27.1379395,23.2167969 C27.1867678,23.2509767 27.2160644,23.2680664 27.2258301,23.2680664 C27.2355958,23.2778321 27.2600096,23.2888183 27.2990723,23.3010254 C27.338135,23.3132325 27.3698729,23.3193359 27.3942871,23.3193359 C27.4968267,23.3681643 27.5737302,23.3962402 27.625,23.4035645 C27.6762698,23.4108887 27.7202147,23.4108887 27.7568359,23.4035645 C27.7934572,23.3962402 27.8325193,23.3889161 27.8740234,23.3815918 C27.9155276,23.3742675 27.9802242,23.3779296 28.0681152,23.3925781 C28.0729981,23.3925781 28.0900877,23.3913574 28.1193848,23.388916 C28.1486818,23.3864746 28.1804198,23.3828125 28.2145996,23.3779297 L28.3171387,23.3632812 C28.3513185,23.3583984 28.3781737,23.3535156 28.3977051,23.3486328 C28.6271984,23.314453 28.84204,23.2363287 29.0422363,23.1142578 C29.2424326,22.9921869 29.4169914,22.8408212 29.565918,22.6601562 C29.7148445,22.4794913 29.8308101,22.2780773 29.9138184,22.0559082 C29.9968266,21.8337391 30.0383301,21.6079113 30.0383301,21.378418 C30.0383301,21.3637695 30.0395508,21.3039556 30.0419922,21.1989746 C30.0444336,21.0939936 30.0554198,20.9096693 30.0749512,20.6459961 C30.0749512,20.5190423 30.0493167,20.3945319 29.9980469,20.2724609 C29.9467771,20.15039 29.9016115,20.0258795 29.8625488,19.8989258 C29.7941891,19.7036123 29.6831062,19.538819 29.5292969,19.404541 C29.3754875,19.270263 29.215577,19.1469732 29.0495605,19.034668 C28.947021,18.9663083 28.8530278,18.9089358 28.7675781,18.8625488 C28.6821285,18.8161619 28.5954594,18.7783205 28.5075684,18.7490234 C28.4196773,18.7197264 28.3281255,18.697754 28.2329102,18.6831055 C28.1376948,18.668457 28.0290533,18.6586914 27.9069824,18.6538086 C27.7946772,18.6489258 27.6970219,18.6477051 27.6140137,18.6501465 C27.5310054,18.6525879 27.4333502,18.6660155 27.3210449,18.6904297 C27.198974,18.7148439 27.0720221,18.7490232 26.9401855,18.7929688 C26.808349,18.8369143 26.6826178,18.8918454 26.5629883,18.9577637 C26.4433588,19.023682 26.335938,19.1030269 26.2407227,19.1958008 C26.1455073,19.2885747 26.075928,19.3959955 26.0319824,19.5180664 L25.9074707,19.8696289 C25.8781737,19.9086916 25.8513185,19.9648434 25.8269043,20.0380859 C25.8024901,20.1113285 25.7829591,20.1906734 25.7683105,20.276123 C25.753662,20.3615727 25.7463379,20.4470211 25.7463379,20.5324707 C25.7463379,20.6179203 25.753662,20.6948239 25.7683105,20.7631836 Z M33.7077637,25.9707031 C33.6442868,25.9560546 33.5930178,25.9365236 33.5539551,25.9121094 C33.5100095,25.8828124 33.4770509,25.8474123 33.4550781,25.8059082 C33.4331054,25.7644041 33.4184571,25.7216799 33.4111328,25.6777344 C33.4038086,25.6337888 33.4013672,25.5922854 33.4038086,25.5532227 C33.40625,25.51416 33.4074707,25.4799806 33.4074707,25.4506836 C33.4074707,25.079588 33.4025879,24.7097186 33.3928223,24.3410645 C33.3830566,23.9724103 33.3745118,23.6025409 33.3671875,23.2314453 C33.3598632,22.8603497 33.3598632,22.4892597 33.3671875,22.1181641 C33.3745118,21.7470685 33.3928221,21.3759784 33.4221191,21.0048828 L33.3928223,20.6606445 C33.3977051,20.6215818 33.4025879,20.5849611 33.4074707,20.5507812 C33.4123535,20.5214842 33.4147949,20.490967 33.4147949,20.4592285 C33.4147949,20.4274901 33.4172363,20.3994142 33.4221191,20.375 L33.4221191,19.4008789 C33.4221191,19.278808 33.4233398,19.1628423 33.4257812,19.0529785 C33.4282227,18.9431147 33.4294434,18.8735353 33.4294434,18.8442383 C33.4294434,18.8198241 33.4331054,18.7539068 33.4404297,18.6464844 C33.4477539,18.539062 33.4550781,18.424317 33.4624023,18.3022461 C33.4697266,18.1801752 33.4746094,18.0654302 33.4770508,17.9580078 C33.4794922,17.8505854 33.4807129,17.7822267 33.4807129,17.7529297 C33.4855957,17.6455073 33.4819337,17.5234382 33.4697266,17.3867188 C33.4575195,17.2499993 33.4489746,17.1254888 33.4440918,17.0131836 L33.4587402,16.7568359 C33.4587402,16.6982419 33.4746092,16.6579591 33.5063477,16.6359863 C33.5380861,16.6140136 33.5722654,16.600586 33.6088867,16.5957031 C33.645508,16.5908203 33.6796873,16.5908203 33.7114258,16.5957031 C33.7431642,16.600586 33.7614746,16.600586 33.7663574,16.5957031 C33.7810059,16.5957031 33.8090818,16.5944824 33.8505859,16.592041 C33.8920901,16.5895996 33.9360349,16.5859375 33.9824219,16.5810547 C34.0288088,16.5761719 34.071533,16.5712891 34.1105957,16.5664062 C34.1496584,16.5615234 34.1740722,16.5566406 34.1838379,16.5517578 L34.7001953,16.5517578 C34.7807621,16.5517578 34.8625484,16.5529785 34.9455566,16.5554199 C35.0285649,16.5578613 35.1213374,16.5615234 35.223877,16.5664062 L35.3044434,16.5737305 C35.3093262,16.5737305 35.3251952,16.5761719 35.3520508,16.5810547 C35.3789064,16.5859375 35.408203,16.5908203 35.4399414,16.5957031 C35.4716798,16.600586 35.5021971,16.6066894 35.5314941,16.6140137 C35.5607912,16.6213379 35.5827636,16.6274414 35.5974121,16.6323242 C35.6999517,16.6518556 35.7719724,16.6750487 35.8134766,16.7019043 C35.8549807,16.7287599 35.8818359,16.7653806 35.894043,16.8117676 C35.9062501,16.8581545 35.9135742,16.915527 35.9160156,16.9838867 C35.918457,17.0522464 35.9294433,17.1352534 35.9489746,17.2329102 C36.1589366,17.0424795 36.378661,16.8886725 36.6081543,16.7714844 C36.8376476,16.6542963 37.0744617,16.5651859 37.3186035,16.5041504 C37.5627454,16.4431149 37.812987,16.4052735 38.0693359,16.390625 C38.3256849,16.3759765 38.5905748,16.3759765 38.8640137,16.390625 C38.9372562,16.390625 39.0153804,16.3991698 39.0983887,16.4162598 C39.1813969,16.4333497 39.2656246,16.4541014 39.3510742,16.4785156 C39.4365239,16.5029298 39.5195308,16.5322264 39.6000977,16.5664062 C39.6806645,16.6005861 39.7526852,16.6347655 39.8161621,16.6689453 C39.8601076,16.6982423 39.9174801,16.7397458 39.9882812,16.793457 C40.0590824,16.8471682 40.1286618,16.9020993 40.1970215,16.958252 C40.2653812,17.0144046 40.3251951,17.0632322 40.3764648,17.1047363 C40.4277346,17.1462404 40.4558105,17.1669922 40.4606934,17.1669922 C40.5974128,17.2695318 40.7182612,17.3879388 40.8232422,17.5222168 C40.9282232,17.6564948 41.0185543,17.7993156 41.0942383,17.9506836 C41.1699223,18.1020515 41.2333982,18.2607414 41.284668,18.4267578 C41.3359378,18.5927743 41.3786619,18.7563469 41.4128418,18.9174805 C41.4274903,18.9370118 41.44458,18.9870601 41.4641113,19.067627 C41.4836427,19.1481938 41.501953,19.2385249 41.519043,19.338623 C41.5361329,19.4387212 41.5507812,19.5400385 41.5629883,19.6425781 C41.5751954,19.7451177 41.5812988,19.8256833 41.5812988,19.8842773 L41.5812988,20.1552734 C41.5812988,20.2333988 41.5825195,20.3188472 41.5849609,20.4116211 C41.5874024,20.504395 41.5898437,20.5898434 41.5922852,20.6679688 C41.5947266,20.7460941 41.5959473,20.7949218 41.5959473,20.8144531 L41.6032715,22.0302734 L41.588623,22.2866211 C41.5837402,22.3012696 41.5788574,22.3305662 41.5739746,22.3745117 C41.5690918,22.4184573 41.5629883,22.4648435 41.5556641,22.5136719 C41.5483398,22.5625002 41.5422364,22.6088865 41.5373535,22.652832 C41.5324707,22.6967776 41.5300293,22.7285155 41.5300293,22.7480469 L41.5227051,22.9091797 C41.5178222,23.0019536 41.5153809,23.1203606 41.5153809,23.2644043 C41.5153809,23.408448 41.5141602,23.562255 41.5117188,23.7258301 C41.5092773,23.8894051 41.5080566,24.0554191 41.5080566,24.223877 L41.5080566,24.6889648 C41.5080566,24.8305671 41.5092773,24.9501948 41.5117188,25.0478516 C41.5141602,25.1455083 41.5153809,25.2065428 41.5153809,25.230957 L41.5153809,25.4726562 C41.5153809,25.5263675 41.5166016,25.5764158 41.519043,25.6228027 C41.5214844,25.6691897 41.5227051,25.6972656 41.5227051,25.7070312 L41.5153809,25.7802734 C41.5153809,25.8339846 41.4848636,25.8669433 41.4238281,25.8791504 C41.3627927,25.8913575 41.3127443,25.8999023 41.2736816,25.9047852 C41.2590331,25.9047852 41.2382814,25.9060058 41.2114258,25.9084473 C41.1845702,25.9108887 41.1564943,25.9145508 41.1271973,25.9194336 C41.0979002,25.9243164 41.0722657,25.9279785 41.050293,25.9304199 C41.0283202,25.9328613 41.0148926,25.9365234 41.0100098,25.9414062 L40.7097168,25.9414062 C40.6413571,25.9414062 40.5778812,25.9426269 40.5192871,25.9450684 C40.4606931,25.9475098 40.4240723,25.9511719 40.4094238,25.9560547 C40.1799305,25.9658204 39.9663096,25.979248 39.7685547,25.9963379 C39.5707998,26.0134278 39.3522961,26.0170899 39.1130371,26.0073242 C39.025146,26.0024414 38.9641115,25.9792483 38.9299316,25.9377441 C38.8957518,25.89624 38.8737793,25.8461917 38.8640137,25.7875977 C38.854248,25.7290036 38.8518066,25.6667484 38.8566895,25.6008301 C38.8615723,25.5349118 38.8640137,25.4726565 38.8640137,25.4140625 L38.8640137,25.2419434 C38.8640137,25.1516109 38.8652344,25.0478521 38.8676758,24.9306641 C38.8701172,24.813476 38.8713379,24.6865241 38.8713379,24.5498047 C38.8713379,24.4130853 38.8725586,24.2861334 38.875,24.1689453 C38.8774414,24.0517572 38.8786621,23.9492192 38.8786621,23.8613281 L38.8786621,23.6855469 L38.8859863,21.9863281 C38.895752,21.8154288 38.895752,21.6176769 38.8859863,21.3930664 C38.8762207,21.1684559 38.8530275,20.9365246 38.8164062,20.6972656 C38.779785,20.4580066 38.7297366,20.223634 38.6662598,19.9941406 C38.6027829,19.7646473 38.5246587,19.5607919 38.4318848,19.3825684 C38.3391109,19.2043448 38.2316901,19.0639654 38.1096191,18.9614258 C37.9875482,18.8588862 37.8508308,18.8149413 37.6994629,18.8295898 L37.4431152,18.8149414 C37.2722159,18.8100586 37.1318365,18.8295896 37.0219727,18.8735352 C36.9121088,18.9174807 36.7814949,18.983398 36.630127,19.0712891 C36.6203613,19.0712891 36.6105958,19.0773925 36.6008301,19.0895996 C36.5910644,19.1018067 36.5861816,19.1127929 36.5861816,19.1225586 C36.4494622,19.2250982 36.3334966,19.3703604 36.2382812,19.5583496 C36.1430659,19.7463388 36.0625003,19.9587391 35.996582,20.1955566 C35.9306637,20.4323742 35.8757326,20.6838366 35.8317871,20.9499512 C35.7878416,21.2160658 35.7512208,21.4785143 35.7219238,21.7373047 C35.717041,21.7617189 35.7097168,21.8227534 35.6999512,21.9204102 C35.6901855,22.0180669 35.6791993,22.1267084 35.6669922,22.2463379 C35.6547851,22.3659674 35.6450196,22.4855951 35.6376953,22.6052246 C35.6303711,22.7248541 35.6242676,22.8164059 35.6193848,22.8798828 C35.6193848,22.8847656 35.6181641,22.9091795 35.6157227,22.953125 C35.6132812,22.9970705 35.6096192,23.0495602 35.6047363,23.1105957 C35.5998535,23.1716312 35.5949707,23.231445 35.5900879,23.2900391 C35.5852051,23.3486331 35.5827637,23.3950194 35.5827637,23.4291992 C35.5827637,23.4536134 35.581543,23.4926755 35.5791016,23.5463867 C35.5766601,23.6000979 35.5754395,23.6574704 35.5754395,23.7185059 C35.5754395,23.7795413 35.5742188,23.8369138 35.5717773,23.890625 C35.5693359,23.9443362 35.5681152,23.9809569 35.5681152,24.0004883 L35.5754395,25.0991211 C35.5705566,25.1137696 35.572998,25.1430662 35.5827637,25.1870117 C35.5925293,25.2309573 35.5974121,25.2602538 35.5974121,25.2749023 C35.5974121,25.2797852 35.5986328,25.2932128 35.6010742,25.3151855 C35.6035156,25.3371583 35.6047363,25.3603514 35.6047363,25.3847656 L35.6047363,25.5019531 C35.6047363,25.5410158 35.6071777,25.5874021 35.6120605,25.6411133 C35.6169434,25.6948245 35.614502,25.7473142 35.6047363,25.798584 C35.5949707,25.8498538 35.5742189,25.892578 35.5424805,25.9267578 C35.510742,25.9609377 35.4558109,25.975586 35.3776855,25.9707031 C35.2653803,25.9658203 35.1420905,25.9645996 35.0078125,25.967041 C34.8735345,25.9694824 34.733155,25.9731445 34.5866699,25.9780273 C34.4401848,25.9829102 34.2912605,25.9865723 34.1398926,25.9890137 C33.9885246,25.9914551 33.8444831,25.9853516 33.7077637,25.9707031 Z M44.8625488,26.0146484 C44.8381346,26.0146484 44.7978518,26.0158691 44.7416992,26.0183105 C44.6855466,26.020752 44.6281741,26.024414 44.5695801,26.0292969 C44.510986,26.0341797 44.4536136,26.0390625 44.3974609,26.0439453 C44.3413083,26.0488281 44.3010255,26.0537109 44.2766113,26.0585938 C44.1545404,26.0439452 44.081299,26.0073245 44.0568848,25.9487305 C44.0324706,25.8901364 44.0202637,25.8046881 44.0202637,25.6923828 C44.0202637,25.5898432 44.0275878,25.4860845 44.0422363,25.3811035 C44.0568848,25.2761225 44.064209,25.1699224 44.064209,25.0625 L44.064209,24.9892578 C43.9958493,24.0908158 43.9458009,23.2033735 43.9140625,22.3269043 C43.8823241,21.4504351 43.8713378,20.5629928 43.8811035,19.6645508 L43.8518066,19.2470703 C43.8469238,19.2226561 43.8261721,19.2043458 43.7895508,19.1921387 C43.7529295,19.1799316 43.7102053,19.1701661 43.661377,19.1628418 C43.6125486,19.1555175 43.5637209,19.1518555 43.5148926,19.1518555 L43.3977051,19.1518555 C43.309814,19.1518555 43.2243656,19.1591796 43.1413574,19.1738281 C43.0583492,19.1884766 42.9753422,19.1958008 42.892334,19.1958008 L42.7531738,19.1958008 L42.7092285,19.1518555 C42.7043457,19.1518555 42.6982422,19.1250003 42.690918,19.0712891 C42.6835937,19.0175779 42.6750489,18.9541019 42.6652832,18.8808594 C42.6555175,18.8076168 42.6469727,18.731934 42.6396484,18.6538086 C42.6323242,18.5756832 42.6286621,18.5146487 42.6286621,18.4707031 L42.6286621,17.0058594 C42.6286621,16.9912109 42.6335449,16.966797 42.6433105,16.9326172 C42.6530762,16.8984373 42.6628417,16.8764649 42.6726074,16.8666992 L42.7019043,16.8666992 C42.7556155,16.8666992 42.8056638,16.8740234 42.8520508,16.8886719 C42.8984377,16.9033204 42.9484861,16.9106445 43.0021973,16.9106445 C43.1535652,16.9106445 43.312255,16.8898928 43.4782715,16.8483887 C43.6442879,16.8068846 43.8029778,16.7885742 43.9543457,16.793457 L43.998291,16.7495117 L43.9763184,15.5483398 C43.9812012,15.5190428 43.986084,15.4921876 43.9909668,15.4677734 L44.0056152,15.3945312 C44.0104981,15.3701171 44.0153808,15.350586 44.0202637,15.3359375 C44.0251465,15.3066405 44.0361327,15.2614749 44.0532227,15.2004395 C44.0703126,15.139404 44.0874023,15.0747074 44.1044922,15.0063477 C44.1215821,14.9379879 44.1374511,14.8732913 44.1520996,14.8122559 C44.1667481,14.7512204 44.178955,14.7060548 44.1887207,14.6767578 C44.1887207,14.6621093 44.1936035,14.6413576 44.2033691,14.614502 C44.2131348,14.5876464 44.2229003,14.569336 44.232666,14.5595703 L44.2802734,14.4643555 C44.3022462,14.4204099 44.3242186,14.3752444 44.3461914,14.3288574 C44.3681642,14.2824705 44.3876952,14.240967 44.4047852,14.2043457 C44.4218751,14.1677244 44.4353027,14.1445313 44.4450684,14.1347656 C44.5329594,13.9882805 44.6318354,13.8662114 44.7416992,13.7685547 C44.851563,13.6708979 44.9699701,13.5903323 45.0969238,13.5268555 C45.2238776,13.4633786 45.360595,13.4133303 45.5070801,13.376709 C45.6535652,13.3400877 45.8049309,13.3071291 45.9611816,13.277832 L46.173584,13.277832 C46.1833497,13.277832 46.2114255,13.2766113 46.2578125,13.2741699 C46.3041995,13.2717285 46.3542478,13.2692871 46.407959,13.2668457 C46.4616702,13.2644043 46.5104978,13.2619629 46.5544434,13.2595215 C46.5983889,13.2570801 46.6252441,13.2558594 46.6350098,13.2558594 L46.9353027,13.2998047 C47.0817878,13.3242189 47.2197259,13.3486327 47.3491211,13.3730469 C47.4785163,13.3974611 47.6091302,13.429199 47.7409668,13.4682617 C47.8728034,13.5073244 48.0083001,13.5561521 48.1474609,13.6147461 C48.2866218,13.6733401 48.4367668,13.7441402 48.5979004,13.8271484 C48.6418459,13.8515626 48.6882322,13.8674316 48.7370605,13.8747559 C48.7858889,13.8820801 48.824951,13.9052732 48.854248,13.9443359 C48.8688966,13.9589844 48.890869,13.988281 48.920166,14.0322266 C48.949463,14.0761721 48.9714355,14.1030273 48.986084,14.112793 C48.9323728,14.2250982 48.8664555,14.3544915 48.7883301,14.5009766 C48.7102047,14.6474617 48.6516115,14.7768549 48.6125488,14.8891602 C48.5734861,14.9868169 48.5368654,15.0795894 48.5026855,15.1674805 C48.4685057,15.2553715 48.4367677,15.348144 48.4074707,15.4458008 C48.3928222,15.470215 48.381836,15.4995115 48.3745117,15.5336914 C48.3671875,15.5678713 48.3586426,15.5996092 48.348877,15.6289062 C48.3391113,15.6582033 48.3232423,15.6826171 48.3012695,15.7021484 C48.2792968,15.7216798 48.2487795,15.7314453 48.2097168,15.7314453 L48.1950684,15.7314453 C48.0583489,15.7070311 47.9301764,15.6850587 47.8105469,15.6655273 C47.6909174,15.645996 47.5627448,15.6362305 47.4260254,15.6362305 C47.4162597,15.6362305 47.3967287,15.6374512 47.3674316,15.6398926 C47.3381346,15.642334 47.308838,15.6435547 47.279541,15.6435547 C47.250244,15.6435547 47.2221681,15.6447754 47.1953125,15.6472168 C47.1684569,15.6496582 47.1525879,15.6508789 47.1477051,15.6508789 C47.0402827,15.6899416 46.9462895,15.7399899 46.8657227,15.8010254 C46.7851558,15.8620609 46.7326661,15.9536127 46.708252,16.0756836 C46.708252,16.0952149 46.7070313,16.1257322 46.7045898,16.1672363 C46.7021484,16.2087404 46.6984864,16.2514646 46.6936035,16.2954102 C46.6887207,16.3393557 46.6850586,16.3808592 46.6826172,16.4199219 C46.6801758,16.4589846 46.6789551,16.4833984 46.6789551,16.4931641 C46.6789551,16.5126954 46.6838378,16.5371092 46.6936035,16.5664062 C46.6984864,16.5859376 46.7033691,16.6005859 46.708252,16.6103516 L47.7263184,16.625 L47.8361816,16.625 C47.8752443,16.625 47.9118651,16.6323241 47.9460449,16.6469727 C47.9802248,16.6616212 48.00708,16.6884764 48.0266113,16.7275391 C48.0461427,16.7666018 48.0559082,16.8251949 48.0559082,16.9033203 L48.0412598,19.0200195 C48.0314941,19.0541994 48.0229493,19.0798339 48.015625,19.0969238 C48.0083007,19.1140138 47.9924318,19.128662 47.9680176,19.1408691 C47.9436034,19.1530762 47.9082034,19.1652831 47.8618164,19.1774902 C47.8154295,19.1896973 47.7531742,19.2080077 47.6750488,19.2324219 C47.5529779,19.2324219 47.4309088,19.2385253 47.3088379,19.2507324 C47.186767,19.2629395 47.0744634,19.288574 46.9719238,19.3276367 C46.967041,19.3569337 46.9621582,19.4167476 46.9572754,19.5070801 C46.9523926,19.5974126 46.9487305,19.6926265 46.9462891,19.7927246 C46.9438476,19.8928228 46.9414063,19.9880367 46.9389648,20.0783691 C46.9365234,20.1687016 46.9353027,20.2285155 46.9353027,20.2578125 C46.9304199,20.3115237 46.9279785,20.4030755 46.9279785,20.5324707 L46.9279785,20.9389648 C46.9279785,21.0805671 46.9291992,21.2148431 46.9316406,21.3417969 C46.934082,21.4687506 46.9353027,21.5566404 46.9353027,21.6054688 L46.9353027,21.8178711 C46.9353027,21.8911136 46.9365234,22.0168448 46.9389648,22.1950684 C46.9414063,22.3732919 46.9438476,22.5612783 46.9462891,22.7590332 C46.9487305,22.9567881 46.9511719,23.1447745 46.9536133,23.322998 C46.9560547,23.5012216 46.954834,23.6293941 46.9499512,23.7075195 L46.9499512,23.7368164 C46.9645997,23.8930672 46.9719238,24.0371087 46.9719238,24.1689453 C46.9719238,24.3007819 46.9682618,24.4313958 46.9609375,24.560791 C46.9536132,24.6901862 46.9462891,24.8220208 46.9389648,24.9562988 C46.9316406,25.0905768 46.9279785,25.2333977 46.9279785,25.3847656 L46.9279785,25.7436523 L46.876709,25.9194336 C46.8425291,25.9438478 46.8083498,25.9658202 46.7741699,25.9853516 C46.7058102,26.0292971 46.6520998,26.0512695 46.6130371,26.0512695 C46.5886229,26.0512695 46.5556643,26.0500488 46.5141602,26.0476074 C46.472656,26.045166 46.4299319,26.0439453 46.3859863,26.0439453 C46.3420408,26.0439453 46.301758,26.0427246 46.2651367,26.0402832 C46.2285154,26.0378418 46.2077637,26.0366211 46.2028809,26.0366211 C46.1589353,26.0317383 46.1003422,26.0354003 46.0270996,26.0476074 C45.9538571,26.0598145 45.8757328,26.06958 45.7927246,26.0769043 C45.7097164,26.0842286 45.6267094,26.0854492 45.5437012,26.0805664 C45.4606929,26.0756836 45.3898929,26.0537111 45.3312988,26.0146484 L44.8625488,26.0146484 Z M50.0114746,20.074707 C50.0114746,20.0405272 50.0090332,19.9514167 50.0041504,19.807373 C49.9992676,19.6633294 49.9956055,19.5009775 49.9931641,19.3203125 C49.9907226,19.1396475 49.9870606,18.9577646 49.9821777,18.7746582 C49.9772949,18.5915518 49.9748535,18.4438482 49.9748535,18.331543 C49.9797364,18.3168945 49.9846191,18.2900393 49.989502,18.2509766 C49.9943848,18.2119139 49.9992676,18.1691897 50.0041504,18.1228027 C50.0090332,18.0764158 50.0126953,18.0336916 50.0151367,17.9946289 C50.0175781,17.9555662 50.0187988,17.928711 50.0187988,17.9140625 L50.0187988,17.027832 C50.0480958,16.9838865 50.1018062,16.9509278 50.1799316,16.9289551 C50.258057,16.9069823 50.3190916,16.8959961 50.3630371,16.8959961 L52.4577637,16.8959961 C52.4968264,16.9106446 52.5322264,16.9204101 52.5639648,16.925293 C52.5957033,16.9301758 52.6237792,16.9460448 52.6481934,16.9729004 C52.6726075,16.999756 52.6921386,17.0473629 52.7067871,17.1157227 C52.7214356,17.1840824 52.7287598,17.2915032 52.7287598,17.4379883 C52.7336426,17.447754 52.7385254,17.4685057 52.7434082,17.5002441 C52.748291,17.5319826 52.7531738,17.5661619 52.7580566,17.6027832 C52.7629395,17.6394045 52.7666016,17.6735838 52.769043,17.7053223 C52.7714844,17.7370607 52.7727051,17.7578125 52.7727051,17.7675781 C52.7727051,17.8359378 52.7763672,17.9604483 52.7836914,18.1411133 C52.7910157,18.3217782 52.7983398,18.5134267 52.8056641,18.7160645 C52.8129883,18.9187022 52.8203125,19.1103507 52.8276367,19.2910156 C52.834961,19.4716806 52.838623,19.5961911 52.838623,19.6645508 C52.838623,19.7036135 52.8435058,19.7915032 52.8532715,19.9282227 C52.8630372,20.0649421 52.8752441,20.211425 52.8898926,20.3676758 C52.9045411,20.5239266 52.916748,20.6716302 52.9265137,20.810791 C52.9362793,20.9499519 52.9411621,21.0366209 52.9411621,21.0708008 C52.9411621,21.1147463 52.9436035,21.198974 52.9484863,21.3234863 C52.9533692,21.4479987 52.9606933,21.5920402 52.970459,21.7556152 C52.9802247,21.9191903 52.9899902,22.0937491 52.9997559,22.2792969 C53.0095215,22.4648447 53.0192871,22.6406242 53.0290527,22.8066406 C53.0388184,22.9726571 53.0461426,23.1179193 53.0510254,23.2424316 C53.0559082,23.366944 53.060791,23.4487303 53.0656738,23.487793 C53.0705567,23.5610355 53.072998,23.6757805 53.072998,23.8320312 C53.072998,23.988282 53.0742187,24.1530753 53.0766602,24.326416 C53.0791016,24.4997567 53.0827636,24.66455 53.0876465,24.8208008 C53.0925293,24.9770516 53.0998535,25.0917965 53.1096191,25.1650391 L53.1096191,25.2675781 C53.1340333,25.4580088 53.1206057,25.6044917 53.0693359,25.7070312 C53.0180661,25.8095708 52.9191902,25.8461916 52.7727051,25.8168945 L50.4509277,25.8022461 C50.3386225,25.8022461 50.261719,25.7692874 50.2202148,25.7033691 C50.1787107,25.6374508 50.1518555,25.5520025 50.1396484,25.4470215 C50.1274413,25.3420405 50.1213379,25.2199714 50.1213379,25.0808105 C50.1213379,24.9416497 50.1115724,24.7988289 50.092041,24.6523438 C50.0822753,24.5449213 50.0773926,24.4265143 50.0773926,24.2971191 C50.0773926,24.167724 50.0786133,24.0383307 50.0810547,23.9089355 C50.0834961,23.7795404 50.0859375,23.6513678 50.0883789,23.5244141 C50.0908203,23.3974603 50.0895996,23.280274 50.0847168,23.1728516 C50.0700683,22.889647 50.0578614,22.6223157 50.0480957,22.3708496 C50.03833,22.1193835 50.0310059,21.8703626 50.026123,21.6237793 C50.0212402,21.377196 50.0175781,21.1269544 50.0151367,20.8730469 C50.0126953,20.6191394 50.0114746,20.3530287 50.0114746,20.074707 Z M49.8137207,14.4570312 L49.8137207,14.248291 C49.8137207,14.172607 49.8308104,14.1005863 49.8649902,14.0322266 C49.9187014,13.929687 49.9663084,13.830811 50.0078125,13.7355957 C50.0493166,13.6403804 50.1115719,13.5512699 50.1945801,13.4682617 C50.2141114,13.4487304 50.2446287,13.4230959 50.2861328,13.3913574 L50.4106445,13.2961426 C50.4521486,13.2644041 50.4912108,13.2351076 50.527832,13.208252 C50.5644533,13.1813964 50.5876464,13.163086 50.5974121,13.1533203 C50.6511233,13.1093748 50.7084958,13.0788575 50.7695312,13.0617676 C50.8305667,13.0446776 50.8940426,13.0349121 50.9599609,13.0324707 C51.0258792,13.0300293 51.0930172,13.03125 51.161377,13.0361328 C51.2297367,13.0410156 51.295654,13.043457 51.3591309,13.043457 C51.4421391,13.043457 51.5117185,13.0544432 51.5678711,13.076416 C51.6240237,13.0983888 51.6936031,13.1264647 51.7766113,13.1606445 C51.815674,13.1704102 51.8681637,13.1936033 51.934082,13.2302246 C52.0000003,13.2668459 52.05249,13.2998045 52.0915527,13.3291016 C52.2868662,13.465821 52.4541009,13.6293936 52.5932617,13.8198242 C52.7324226,14.0102549 52.8142089,14.2373034 52.838623,14.5009766 C52.838623,14.6572273 52.8337403,14.789062 52.8239746,14.8964844 C52.8142089,15.0039068 52.7922365,15.1027828 52.7580566,15.1931152 C52.7238768,15.2834477 52.6726078,15.3688961 52.604248,15.4494629 C52.5358883,15.5300297 52.4431158,15.6191401 52.3259277,15.7167969 C52.2185053,15.8095708 52.0866707,15.8901364 51.9304199,15.9584961 C51.7741691,16.0268558 51.6252448,16.0610352 51.4836426,16.0610352 C51.4689941,16.0610352 51.4433596,16.0598145 51.4067383,16.057373 C51.370117,16.0549316 51.3310549,16.0512696 51.2895508,16.0463867 C51.2480467,16.0415039 51.2102052,16.0366211 51.1760254,16.0317383 C51.1418455,16.0268554 51.1198731,16.0219727 51.1101074,16.0170898 C51.0856932,16.012207 51.0539553,16.0048829 51.0148926,15.9951172 C50.9758299,15.9853515 50.9367678,15.9731446 50.8977051,15.9584961 C50.8586424,15.9438476 50.8220217,15.9316407 50.7878418,15.921875 C50.7536619,15.9121093 50.7316895,15.9047852 50.7219238,15.8999023 L50.6560059,15.8669434 C50.621826,15.8498534 50.5827639,15.8327638 50.5388184,15.8156738 C50.4948728,15.7985839 50.4533693,15.7827149 50.4143066,15.7680664 C50.3752439,15.7534179 50.3508301,15.741211 50.3410645,15.7314453 C50.2287592,15.6435542 50.1384281,15.5544438 50.0700684,15.4641113 C50.0017086,15.3737788 49.9492189,15.278565 49.9125977,15.1784668 C49.8759764,15.0783686 49.8503419,14.9697271 49.8356934,14.8525391 C49.8210448,14.735351 49.8137207,14.6035164 49.8137207,14.4570312 Z M54.9553223,26.0439453 L54.5305176,26.0073242 C54.4914549,26.0122071 54.4694824,26.0109864 54.4645996,26.0036621 C54.4597168,25.9963379 54.454834,25.9804689 54.4499512,25.9560547 C54.4450683,25.8974606 54.4438476,25.8474123 54.4462891,25.8059082 C54.4487305,25.7644041 54.4450684,25.7143558 54.4353027,25.6557617 C54.4304199,25.6020505 54.418213,25.5593263 54.3986816,25.5275879 C54.3791503,25.4958495 54.3669434,25.458008 54.3620605,25.4140625 C54.3571777,25.3847655 54.3547363,25.3579103 54.3547363,25.3334961 C54.3547363,25.3090819 54.3669432,25.2846681 54.3913574,25.2602539 C54.4011231,25.1918942 54.4060059,25.0380871 54.4060059,24.7988281 C54.4060059,24.5595691 54.4011231,24.2702654 54.3913574,23.9309082 C54.3815917,23.591551 54.3706055,23.220461 54.3583984,22.817627 C54.3461913,22.4147929 54.3327637,22.0131856 54.3181152,21.612793 C54.3034667,21.2124003 54.2912598,20.8339862 54.2814941,20.4775391 C54.2717285,20.121092 54.2668457,19.8183606 54.2668457,19.5693359 C54.2717285,19.5205076 54.2692872,19.4558109 54.2595215,19.3752441 C54.2497558,19.2946773 54.2387696,19.209229 54.2265625,19.1188965 C54.2143554,19.028564 54.2033692,18.9418949 54.1936035,18.8588867 C54.1838378,18.7758785 54.1838378,18.7075198 54.1936035,18.6538086 C54.1936035,18.6440429 54.1923828,18.6208498 54.1899414,18.5842285 C54.1875,18.5476072 54.1838379,18.5219727 54.1789551,18.5073242 C54.1545409,18.5073242 54.1411133,18.4951173 54.1386719,18.4707031 C54.1362305,18.4462889 54.1325684,18.4218751 54.1276855,18.3974609 L54.1203613,18.3388672 L54.1643066,18.265625 C54.1740723,18.1386712 54.1765137,18.0300297 54.1716309,17.9396973 C54.166748,17.8493648 54.1594239,17.7431647 54.1496582,17.6210938 C54.1496582,17.6015624 54.1484375,17.5771486 54.1459961,17.5478516 C54.1435547,17.5185545 54.1398926,17.4868166 54.1350098,17.4526367 C54.1301269,17.4184569 54.1276855,17.3793948 54.1276855,17.3354492 C54.1276855,17.3256835 54.1191407,17.3037111 54.1020508,17.2695312 C54.0849609,17.2353514 54.076416,17.213379 54.076416,17.2036133 C54.076416,17.1938476 54.0800781,17.1730959 54.0874023,17.1413574 C54.0947266,17.109619 54.1008301,17.0888672 54.1057129,17.0791016 L54.1057129,17.0241699 C54.1057129,16.9924315 54.1069336,16.9594728 54.109375,16.925293 C54.1118164,16.8911131 54.1142578,16.8593751 54.1166992,16.8300781 C54.1191406,16.8007811 54.1228027,16.78125 54.1276855,16.7714844 L54.142334,16.7568359 C54.1472168,16.7519531 54.1496582,16.7421876 54.1496582,16.7275391 C54.3156747,16.7080077 54.4768059,16.6799318 54.6330566,16.6433105 C54.7893074,16.6066893 54.9504386,16.5859375 55.1164551,16.5810547 C55.3166514,16.571289 55.5095206,16.5761718 55.6950684,16.5957031 C55.8806162,16.6152345 56.0710439,16.6372069 56.2663574,16.6616211 C56.2907716,16.6665039 56.3261716,16.670166 56.3725586,16.6726074 C56.4189455,16.6750488 56.4653318,16.6799316 56.5117188,16.6872559 C56.5581057,16.6945801 56.6008299,16.7104491 56.6398926,16.7348633 C56.6789553,16.7592775 56.7009277,16.7958982 56.7058105,16.8447266 C56.7155762,16.9277348 56.7119141,16.9960935 56.6948242,17.0498047 C56.6777343,17.1035159 56.6740722,17.174316 56.6838379,17.262207 L56.6838379,17.2841797 C56.6838379,17.2939454 56.6850586,17.3012695 56.6875,17.3061523 C56.6899414,17.3110352 56.6911621,17.3159179 56.6911621,17.3208008 C56.725342,17.3061523 56.7692868,17.2854005 56.822998,17.2585449 L56.9914551,17.1743164 C57.0500491,17.1450194 57.1074216,17.1169435 57.1635742,17.0900879 C57.2197268,17.0632323 57.262451,17.0424805 57.291748,17.027832 C57.3015137,17.0229492 57.3295896,17.0083009 57.3759766,16.9838867 C57.4223635,16.9594725 57.4528808,16.9423829 57.4675293,16.9326172 C57.477295,16.9326172 57.5053709,16.9265137 57.5517578,16.9143066 C57.5981448,16.9020995 57.6237793,16.8911133 57.6286621,16.8813477 C57.6726076,16.8520506 57.7275387,16.8227541 57.793457,16.793457 C57.8593753,16.76416 57.9265133,16.7360841 57.994873,16.7092285 C58.0632328,16.6823729 58.125488,16.6591798 58.1816406,16.6396484 C58.2377932,16.6201171 58.2731933,16.6054688 58.2878418,16.5957031 C58.4099127,16.5468748 58.5344232,16.5175782 58.661377,16.5078125 C58.7883307,16.4980468 58.9201653,16.4907227 59.0568848,16.4858398 C59.2766124,16.4711913 59.5012196,16.488281 59.7307129,16.5371094 C59.9602062,16.5859377 60.1811513,16.6530757 60.3935547,16.7385254 C60.6059581,16.823975 60.7988273,16.9216303 60.972168,17.0314941 C61.1455087,17.141358 61.2858881,17.2499995 61.3933105,17.3574219 C61.4274904,17.3964846 61.4653318,17.4440915 61.5068359,17.5002441 C61.5483401,17.5563968 61.5874022,17.6149899 61.6240234,17.6760254 C61.6606447,17.7370609 61.6923827,17.7968747 61.7192383,17.8554688 C61.7460939,17.9140628 61.7619629,17.9677732 61.7668457,18.0166016 C61.7668457,18.0458986 61.7521974,18.08374 61.7229004,18.130127 C61.6936034,18.1765139 61.6582033,18.2241208 61.6166992,18.2729492 C61.5751951,18.3217776 61.5336916,18.3657225 61.4921875,18.4047852 C61.4506834,18.4438479 61.4201661,18.4682617 61.4006348,18.4780273 C61.3957519,18.4829102 61.383545,18.4926757 61.3640137,18.5073242 C61.3444823,18.5219727 61.3237306,18.536621 61.3017578,18.5512695 L61.2358398,18.5952148 C61.2138671,18.6098634 61.2004395,18.6196289 61.1955566,18.6245117 C61.1760253,18.6391602 61.1479494,18.659912 61.1113281,18.6867676 C61.0747068,18.7136232 61.0380861,18.7416991 61.0014648,18.7709961 C60.9648436,18.8002931 60.9306642,18.8271483 60.8989258,18.8515625 C60.8671873,18.8759767 60.848877,18.890625 60.8439941,18.8955078 C60.7609859,18.9589847 60.681641,19.0273434 60.605957,19.1005859 C60.5302731,19.1738285 60.4497075,19.2421872 60.3642578,19.3056641 C60.2788082,19.3691409 60.188477,19.4228513 60.0932617,19.4667969 C59.9980464,19.5107424 59.8918463,19.5351562 59.7746582,19.5400391 L59.6281738,19.5400391 C59.6135253,19.5351562 59.6013184,19.5302735 59.5915527,19.5253906 C59.5769042,19.5205078 59.5598146,19.5131836 59.5402832,19.503418 C59.3400869,19.4008784 59.1276867,19.3056645 58.9030762,19.2177734 C58.6784657,19.1298824 58.4538585,19.0883789 58.229248,19.0932617 C58.0632316,19.1030274 57.9265142,19.1640619 57.8190918,19.2763672 C57.7116694,19.3886724 57.6115727,19.5058588 57.5187988,19.6279297 C57.5090332,19.647461 57.482178,19.6816404 57.4382324,19.7304688 C57.3942869,19.7792971 57.3674317,19.8159178 57.357666,19.840332 C57.3479003,19.8598634 57.3283693,19.892822 57.2990723,19.939209 C57.2697752,19.9855959 57.239258,20.0356443 57.2075195,20.0893555 C57.1757811,20.1430667 57.1440431,20.1979978 57.1123047,20.2541504 C57.0805662,20.310303 57.0598145,20.3554686 57.0500488,20.3896484 C57.0012205,20.5019537 56.9719239,20.6264642 56.9621582,20.7631836 C56.9523925,20.899903 56.942627,21.0292963 56.9328613,21.1513672 C56.8645016,21.6445337 56.8339843,22.0925273 56.8413086,22.4953613 C56.8486328,22.8981954 56.8742674,23.2778302 56.9182129,23.6342773 C56.9426271,23.8979505 56.9719237,24.156737 57.0061035,24.4106445 C57.0402834,24.6645521 57.06958,24.9233385 57.0939941,25.1870117 C57.098877,25.2163087 57.1037597,25.2687984 57.1086426,25.3444824 C57.1135254,25.4201664 57.1196289,25.4982906 57.1269531,25.5788574 C57.1342774,25.6594242 57.1416015,25.7375484 57.1489258,25.8132324 C57.15625,25.8889164 57.1599121,25.9414061 57.1599121,25.9707031 C57.1501464,25.975586 57.1416016,25.9804687 57.1342773,25.9853516 C57.1269531,25.9902344 57.1184083,25.9951172 57.1086426,26 L57.0793457,26.0146484 L57.0354004,26.0146484 C57.0256347,26.0146484 57.0109864,26.0109864 56.9914551,26.0036621 C56.9719237,25.9963379 56.9572754,25.987793 56.9475098,25.9780273 L54.9553223,26.0439453 Z M62.513916,24.6669922 C62.513916,24.5693354 62.5175781,24.4155284 62.5249023,24.2055664 C62.5322266,23.9956044 62.5395507,23.756349 62.546875,23.487793 C62.5541993,23.2192369 62.5639648,22.9372573 62.5761719,22.6418457 C62.588379,22.3464341 62.5981445,22.0644545 62.6054688,21.7958984 C62.612793,21.5273424 62.6201172,21.2893077 62.6274414,21.0817871 C62.6347657,20.8742665 62.6384277,20.7216802 62.6384277,20.6240234 C62.6335449,20.5996093 62.6298828,20.5520023 62.6274414,20.4812012 C62.625,20.4104 62.6201172,20.3261724 62.612793,20.2285156 C62.6054687,20.1308589 62.5993653,20.0295415 62.5944824,19.9245605 C62.5895996,19.8195796 62.5847168,19.7182622 62.579834,19.6206055 C62.5749511,19.5229487 62.5712891,19.4387211 62.5688477,19.3679199 C62.5664062,19.2971188 62.5651855,19.2495118 62.5651855,19.2250977 C62.5651855,19.2104491 62.5615235,19.1652836 62.5541992,19.0895996 C62.546875,19.0139156 62.5395508,18.9260259 62.5322266,18.8259277 C62.5249023,18.7258296 62.5175782,18.6245122 62.5102539,18.5219727 C62.5029297,18.4194331 62.4992676,18.3339847 62.4992676,18.265625 C62.4992676,18.2265623 62.4943848,18.1569829 62.4846191,18.0568848 C62.4748535,17.9567866 62.4650879,17.8505865 62.4553223,17.7382812 C62.4455566,17.625976 62.4357911,17.5209966 62.4260254,17.4233398 C62.4162597,17.3256831 62.411377,17.2573244 62.411377,17.2182617 C62.411377,17.208496 62.4162597,17.1865236 62.4260254,17.1523438 C62.4357911,17.1181639 62.4455566,17.0937501 62.4553223,17.0791016 C62.4846193,17.0498045 62.5322262,17.0339356 62.5981445,17.0314941 C62.6640628,17.0290527 62.7141112,17.027832 62.748291,17.027832 C62.7580567,17.0229492 62.7849119,17.0180664 62.8288574,17.0131836 C62.872803,17.0083008 62.9179685,17.003418 62.9643555,16.9985352 C63.0107424,16.9936523 63.055908,16.9899902 63.0998535,16.9875488 C63.143799,16.9851074 63.1706542,16.9838867 63.1804199,16.9838867 C63.1950684,16.9838867 63.2353512,16.979004 63.3012695,16.9692383 C63.3671878,16.9594726 63.4392086,16.9484864 63.517334,16.9362793 C63.5954594,16.9240722 63.6687008,16.913086 63.7370605,16.9033203 C63.8054203,16.8935546 63.8493651,16.8862305 63.8688965,16.8813477 C63.8981935,16.8813477 63.9689936,16.8764649 64.0812988,16.8666992 C64.1936041,16.8569335 64.3156732,16.8459473 64.4475098,16.8337402 C64.5793464,16.8215331 64.7014155,16.8105469 64.8137207,16.8007812 C64.926026,16.7910156 64.996826,16.7861328 65.026123,16.7861328 C65.0358887,16.7861328 65.0480956,16.7836914 65.0627441,16.7788086 C65.0725098,16.7788086 65.0822753,16.7775879 65.092041,16.7751465 C65.1018067,16.7727051 65.1091308,16.7714844 65.1140137,16.7714844 C65.1774906,16.7714844 65.2202147,16.7910154 65.2421875,16.8300781 C65.2641603,16.8691408 65.2763672,16.9252926 65.2788086,16.9985352 C65.28125,17.0717777 65.2775879,17.1621088 65.2678223,17.2695312 C65.2580566,17.3769537 65.2531738,17.4990228 65.2531738,17.6357422 C65.2727052,17.6259765 65.3190914,17.5856937 65.392334,17.5148926 C65.4655765,17.4440914 65.5534663,17.3647465 65.6560059,17.2768555 C65.7585454,17.1889644 65.8696283,17.1022953 65.9892578,17.0168457 C66.1088873,16.9313961 66.224853,16.8666994 66.3371582,16.8227539 C66.464112,16.7788084 66.5764155,16.740967 66.6740723,16.7092285 C66.771729,16.6774901 66.8681636,16.6506349 66.9633789,16.6286621 C67.0585942,16.6066893 67.1574702,16.5908204 67.2600098,16.5810547 C67.3625493,16.571289 67.4821771,16.5664062 67.6188965,16.5664062 C67.8044443,16.5664062 68.0009755,16.5895994 68.2084961,16.6359863 C68.4160167,16.6823733 68.6052238,16.7470699 68.776123,16.8300781 C68.8005372,16.8398438 68.84082,16.8593749 68.8969727,16.8886719 C68.9531253,16.9179689 69.0129391,16.9484862 69.076416,16.9802246 C69.1398929,17.011963 69.2021481,17.0424803 69.2631836,17.0717773 C69.3242191,17.1010744 69.3693846,17.1230468 69.3986816,17.1376953 C69.4035645,17.1425781 69.4206542,17.1560057 69.4499512,17.1779785 C69.4792482,17.1999513 69.5122068,17.2231444 69.5488281,17.2475586 C69.5854494,17.2719728 69.6196287,17.2963866 69.6513672,17.3208008 C69.6831056,17.345215 69.7062988,17.3598633 69.7209473,17.3647461 C69.7404786,17.3745118 69.7661131,17.3891601 69.7978516,17.4086914 C69.82959,17.4282228 69.8503417,17.442871 69.8601074,17.4526367 C69.8747559,17.4624024 69.9089353,17.4978024 69.9626465,17.5588379 C70.0163577,17.6198734 70.0749509,17.6857907 70.1384277,17.7565918 C70.2019046,17.8273929 70.2604978,17.8933102 70.314209,17.9543457 C70.3679202,18.0153812 70.4020995,18.0532226 70.416748,18.0678711 L70.4606934,18.0678711 C70.470459,18.0581054 70.4912108,18.036133 70.5229492,18.0019531 C70.5546877,17.9677733 70.5754394,17.9506836 70.5852051,17.9506836 C70.7805186,17.78955 70.9611808,17.6406257 71.1271973,17.5039062 C71.2932137,17.3671868 71.4628898,17.2463384 71.6362305,17.1413574 C71.8095712,17.0363764 71.9914541,16.947266 72.1818848,16.8740234 C72.3723154,16.8007809 72.5895984,16.7470705 72.8337402,16.7128906 C72.9460455,16.6982421 73.058349,16.69458 73.1706543,16.7019043 C73.2829595,16.7092286 73.4001459,16.7128906 73.5222168,16.7128906 C73.6931161,16.7128906 73.8493645,16.7409665 73.9909668,16.7971191 C74.1325691,16.8532718 74.279052,16.915527 74.4304199,16.9838867 C74.4353028,16.9887696 74.4487304,16.9973144 74.4707031,17.0095215 C74.4926759,17.0217286 74.515869,17.0351562 74.5402832,17.0498047 C74.5646974,17.0644532 74.5866698,17.0778808 74.6062012,17.0900879 C74.6257325,17.102295 74.6379394,17.1108398 74.6428223,17.1157227 C74.6477051,17.1157227 74.659912,17.1193847 74.6794434,17.126709 C74.6989747,17.1340332 74.7185058,17.1425781 74.7380371,17.1523438 C74.7575685,17.1621094 74.7758788,17.1694336 74.7929688,17.1743164 C74.8100587,17.1791992 74.8161621,17.1767579 74.8112793,17.1669922 C74.9040532,17.2304691 74.9809567,17.2927243 75.0419922,17.3537598 C75.1030276,17.4147952 75.156738,17.4733884 75.203125,17.529541 C75.249512,17.5856936 75.2922361,17.6381833 75.3312988,17.6870117 C75.3703615,17.7358401 75.4143064,17.779785 75.4631348,17.8188477 C75.5559087,17.9360357 75.6340329,18.0520014 75.6975098,18.166748 C75.7609866,18.2814947 75.814697,18.395019 75.8586426,18.5073242 C75.9025881,18.6196295 75.9404295,18.7294917 75.972168,18.8369141 C76.0039064,18.9443365 76.0344237,19.0517573 76.0637207,19.1591797 C76.1467289,19.5253925 76.2138669,19.8769514 76.2651367,20.2138672 C76.3164065,20.5507829 76.3591307,20.8791488 76.3933105,21.1989746 C76.4274904,21.5188004 76.4580077,21.8312973 76.4848633,22.1364746 C76.5117189,22.4416519 76.5422362,22.745604 76.576416,23.0483398 C76.576416,23.1166996 76.5776367,23.24121 76.5800781,23.421875 C76.5825195,23.60254 76.5861816,23.7941884 76.5910645,23.9968262 C76.5959473,24.1994639 76.6008301,24.3911124 76.6057129,24.5717773 C76.6105957,24.7524423 76.6154785,24.8793942 76.6203613,24.9526367 C76.6203613,24.9672852 76.621582,25.0026853 76.6240234,25.0588379 C76.6264649,25.1149905 76.6301269,25.1760251 76.6350098,25.2419434 C76.6398926,25.3078617 76.6435547,25.3701169 76.6459961,25.4287109 C76.6484375,25.487305 76.6496582,25.5239257 76.6496582,25.5385742 L76.6496582,25.5825195 C76.6496582,25.6362307 76.6350099,25.6765135 76.6057129,25.7033691 C76.5764159,25.7302247 76.5397951,25.7509765 76.4958496,25.765625 C76.4519041,25.7802735 76.4055178,25.7912597 76.3566895,25.798584 C76.3078611,25.8059082 76.2663576,25.8168945 76.2321777,25.831543 C76.1491695,25.8559572 76.0942384,25.864502 76.0673828,25.8571777 C76.0405272,25.8498535 76.0002444,25.8583983 75.9465332,25.8828125 L74.5695801,25.9121094 C74.510986,25.9267579 74.4609377,25.9255372 74.4194336,25.9084473 C74.3779295,25.8913573 74.3449708,25.8657228 74.3205566,25.831543 C74.2961425,25.7973631 74.2790528,25.7619631 74.2692871,25.7253418 C74.2595214,25.6887205 74.2546387,25.6606446 74.2546387,25.6411133 C74.2546387,25.3041975 74.2497559,24.9624041 74.2399902,24.6157227 C74.2302246,24.2690412 74.220459,23.9296892 74.2106934,23.5976562 C74.2106934,23.5781249 74.208252,23.53418 74.2033691,23.4658203 C74.1984863,23.3974606 74.1948242,23.3242191 74.1923828,23.2460938 C74.1899414,23.1679684 74.1862793,23.0947269 74.1813965,23.0263672 C74.1765136,22.9580075 74.1740723,22.9140626 74.1740723,22.8945312 C74.1740723,22.8261715 74.1728516,22.7321783 74.1704102,22.6125488 C74.1679687,22.4929193 74.1643067,22.3732916 74.1594238,22.2536621 C74.154541,22.1340326 74.1496582,22.0253911 74.1447754,21.9277344 C74.1398926,21.8300776 74.1350098,21.7714845 74.130127,21.7519531 C74.130127,21.7373046 74.1228028,21.6835942 74.1081543,21.5908203 C74.0935058,21.4980464 74.0776368,21.3906256 74.0605469,21.2685547 C74.0434569,21.1464838 74.0251466,21.0256354 74.0056152,20.9060059 C73.9860839,20.7863764 73.9714356,20.6899418 73.9616699,20.6166992 C73.9470214,20.5190425 73.928711,20.4348148 73.9067383,20.3640137 C73.8847655,20.2932125 73.8518069,20.216309 73.8078613,20.1333008 C73.6662591,19.8745104 73.4868175,19.6621102 73.2695312,19.4960938 C73.052245,19.3300773 72.7897965,19.2470703 72.4821777,19.2470703 L72.2770996,19.2470703 C72.2087399,19.2470703 72.1354984,19.26416 72.057373,19.2983398 C72.028076,19.3178712 71.9877932,19.3337402 71.9365234,19.3459473 C71.8852536,19.3581544 71.8339846,19.371582 71.7827148,19.3862305 C71.7314451,19.400879 71.6850588,19.4179687 71.6435547,19.4375 C71.6020506,19.4570313 71.5739747,19.4838865 71.5593262,19.5180664 C71.534912,19.5424806 71.5056154,19.5729979 71.4714355,19.6096191 C71.4372557,19.6462404 71.420166,19.6694335 71.420166,19.6791992 C71.4104003,19.6938477 71.3908693,19.7255857 71.3615723,19.7744141 C71.3322752,19.8232424 71.3005373,19.8769528 71.2663574,19.9355469 C71.2321776,19.9941409 71.2004396,20.0478513 71.1711426,20.0966797 C71.1418456,20.1455081 71.1247559,20.177246 71.119873,20.1918945 C71.0759275,20.2993169 71.0380861,20.3957515 71.0063477,20.4812012 C70.9746092,20.5666508 70.9453126,20.6496578 70.918457,20.7302246 C70.8916014,20.8107914 70.8671876,20.8950191 70.8452148,20.9829102 L70.7683105,21.2905273 C70.7487792,21.3491214 70.7341309,21.4272456 70.7243652,21.5249023 C70.7145996,21.6225591 70.7084961,21.7226557 70.7060547,21.8251953 C70.7036133,21.9277349 70.7036133,22.0278315 70.7060547,22.1254883 C70.7084961,22.223145 70.7097168,22.3037106 70.7097168,22.3671875 L70.7097168,22.6674805 C70.7097168,22.682129 70.7109375,22.7199704 70.7133789,22.7810059 C70.7158203,22.8420413 70.717041,22.9079586 70.717041,22.9787598 C70.717041,23.0495609 70.7182617,23.1142575 70.7207031,23.1728516 C70.7231445,23.2314456 70.7243652,23.2680663 70.7243652,23.2827148 C70.7243652,23.3120119 70.7255859,23.3876947 70.7280273,23.5097656 C70.7304688,23.6318365 70.7341308,23.7624505 70.7390137,23.9016113 C70.7438965,24.0407722 70.7475586,24.1713861 70.75,24.293457 C70.7524414,24.415528 70.7536621,24.4936522 70.7536621,24.527832 C70.7634278,24.6792 70.7731933,24.8232415 70.782959,24.9599609 C70.7927247,25.0966804 70.7976074,25.2431633 70.7976074,25.3994141 C70.7976074,25.4531253 70.7878419,25.5092771 70.7683105,25.5678711 C70.7487792,25.6264651 70.7121585,25.67041 70.6584473,25.699707 C70.5852047,25.6948242 70.5205081,25.6948242 70.4643555,25.699707 C70.4082028,25.7045899 70.3544924,25.711914 70.3032227,25.7216797 C70.2519529,25.7314454 70.2006839,25.7424316 70.1494141,25.7546387 C70.0981443,25.7668458 70.035889,25.777832 69.9626465,25.7875977 C69.8503412,25.8022462 69.7307135,25.8095703 69.6037598,25.8095703 C69.476806,25.8095703 69.3608404,25.8071289 69.2558594,25.8022461 C69.1508784,25.7973633 69.0666507,25.7912598 69.0031738,25.7839355 C68.9396969,25.7766113 68.9201659,25.7729492 68.9445801,25.7729492 C68.9152831,25.7680664 68.8786623,25.7595215 68.8347168,25.7473145 C68.7907713,25.7351074 68.7492678,25.7180177 68.7102051,25.6960449 C68.6711424,25.6740722 68.6381837,25.647217 68.6113281,25.6154785 C68.5844725,25.5837401 68.5710449,25.54834 68.5710449,25.5092773 C68.5710449,25.460449 68.5783691,25.4226076 68.5930176,25.395752 C68.6076661,25.3688964 68.6149902,25.3359377 68.6149902,25.296875 L68.6149902,25.1796875 C68.6149902,25.165039 68.6162109,25.1210941 68.6186523,25.0478516 C68.6210938,24.974609 68.6223145,24.8952641 68.6223145,24.8098145 C68.6223145,24.7243648 68.6210938,24.6450199 68.6186523,24.5717773 C68.6162109,24.4985348 68.6125489,24.4570313 68.607666,24.4472656 C68.5979003,24.3593746 68.595459,24.2641607 68.6003418,24.1616211 C68.6052246,24.0590815 68.6101074,23.9541021 68.6149902,23.8466797 C68.6198731,23.7392573 68.6235351,23.6342779 68.6259766,23.5317383 C68.628418,23.4291987 68.6271973,23.3339848 68.6223145,23.2460938 C68.6223145,23.2167967 68.6186524,23.1521001 68.6113281,23.052002 C68.6040039,22.9519038 68.595459,22.8457037 68.5856934,22.7333984 C68.5759277,22.6210932 68.5673828,22.5148931 68.5600586,22.4147949 C68.5527343,22.3146968 68.5490723,22.2500001 68.5490723,22.2207031 C68.5490723,22.2109375 68.5478516,22.1657719 68.5454102,22.0852051 C68.5429687,22.0046383 68.5393067,21.9130865 68.5344238,21.8105469 C68.529541,21.7080073 68.5246582,21.6042486 68.5197754,21.4992676 C68.5148926,21.3942866 68.5100098,21.3100589 68.505127,21.246582 C68.5002441,21.1391596 68.4892579,21.0402837 68.472168,20.9499512 C68.455078,20.8596187 68.4318849,20.7705083 68.4025879,20.6826172 C68.3732909,20.5947261 68.3378908,20.5056157 68.2963867,20.4152832 C68.2548826,20.3249507 68.2121584,20.2260748 68.1682129,20.1186523 C68.046142,19.8159165 67.8557142,19.5900886 67.5969238,19.4411621 C67.3381335,19.2922356 67.0329607,19.2177734 66.6813965,19.2177734 C66.5739741,19.2177734 66.4702153,19.2348631 66.3701172,19.269043 C66.270019,19.3032228 66.1735844,19.3496091 66.0808105,19.4082031 C65.9880366,19.4667972 65.8989262,19.5351559 65.8134766,19.6132812 C65.7280269,19.6914066 65.6462406,19.7695309 65.5681152,19.8476562 C65.485107,19.9355473 65.4155276,20.0441888 65.359375,20.173584 C65.3032224,20.3029792 65.2556154,20.4396965 65.2165527,20.5837402 C65.17749,20.7277839 65.1469728,20.8718255 65.125,21.0158691 C65.1030272,21.1599128 65.0847169,21.2905268 65.0700684,21.4077148 C65.0651855,21.4467775 65.0590821,21.5102535 65.0517578,21.5981445 C65.0444336,21.6860356 65.0358887,21.7800288 65.026123,21.880127 C65.0163574,21.9802251 65.0078125,22.0729976 65.0004883,22.1584473 C64.993164,22.2438969 64.9870606,22.3037108 64.9821777,22.3378906 L64.9821777,23.1801758 C64.9821777,23.1899415 64.9846191,23.2216794 64.989502,23.2753906 C64.9943848,23.3291018 64.9992676,23.387695 65.0041504,23.4511719 C65.0090332,23.5146488 65.013916,23.5732419 65.0187988,23.6269531 C65.0236817,23.6806643 65.026123,23.7124023 65.026123,23.722168 L65.026123,24.0664062 C65.026123,24.1005861 65.0273437,24.1542965 65.0297852,24.2275391 C65.0322266,24.3007816 65.0358886,24.3776851 65.0407715,24.458252 C65.0456543,24.5388188 65.0505371,24.6132809 65.0554199,24.6816406 C65.0603028,24.7500003 65.0651855,24.7939452 65.0700684,24.8134766 C65.0749512,24.8378907 65.0810547,24.8891598 65.0883789,24.9672852 C65.0957032,25.0454105 65.104248,25.1296382 65.1140137,25.2199707 C65.1237793,25.3103032 65.1323242,25.3957516 65.1396484,25.4763184 C65.1469727,25.5568852 65.1530761,25.6069335 65.157959,25.6264648 L65.157959,25.7290039 C65.157959,25.7436524 65.1457521,25.7668455 65.1213379,25.798584 C65.0969237,25.8303224 65.0700685,25.8510742 65.0407715,25.8608398 C64.9431147,25.8803712 64.8759767,25.888916 64.8393555,25.8864746 C64.8027342,25.8840332 64.7795411,25.8828125 64.7697754,25.8828125 C64.7600097,25.8828125 64.7331545,25.8876953 64.689209,25.8974609 C64.6452635,25.9072266 64.6184083,25.9121094 64.6086426,25.9121094 L64.4401855,25.9121094 C64.2985833,25.921875 64.1704107,25.9291992 64.0556641,25.934082 C63.9409174,25.9389649 63.8286138,25.9450683 63.71875,25.9523926 C63.6088862,25.9597168 63.4965826,25.9645996 63.3818359,25.967041 C63.2670893,25.9694824 63.1389167,25.9707031 62.9973145,25.9707031 L62.9460449,25.9707031 C62.8679195,26.004883 62.8044436,26.0109864 62.7556152,25.9890137 C62.7067869,25.9670409 62.6665041,25.9060064 62.6347656,25.8059082 C62.6030272,25.70581 62.5786134,25.5629892 62.5615234,25.3774414 C62.5444335,25.1918936 62.5285645,24.9550796 62.513916,24.6669922 Z" id="path-1"></path>
    </defs>
    <g id="Page-1" stroke="none" stroke-width="1" fill="none" fill-rule="evenodd">
        <g id="Next-Btn">
            <rect id="Rectangle" fill="#FFFFFF" x="0" y="0" width="89" height="38" rx="19"></rect>
            <g id="Confirm" fill-rule="nonzero">
                <use fill="#FFFFFF" xlink:href="#path-1"></use>
                <use fill="#3F8FE8" xlink:href="#path-1"></use>
            </g>
        </g>
    </g>
</svg>