
<svg width="89px" height="38px" viewBox="0 0 89 38" version="1.1" xmlns="http://www.w3.org/2000/svg" xmlns:xlink="http://www.w3.org/1999/xlink">
    <defs>
        <path d="M15.9702148,25.8828125 C15.9604492,25.8779297 15.933594,25.8718262 15.8896484,25.864502 C15.8457029,25.8571777 15.798096,25.8474122 15.7468262,25.8352051 C15.6955564,25.822998 15.6455081,25.8132325 15.5966797,25.8059082 C15.5478513,25.7985839 15.5161134,25.7924805 15.5014648,25.7875977 L15.3842773,25.7875977 C15.3745117,25.7875977 15.3598634,25.7949218 15.340332,25.8095703 C15.3208007,25.8242188 15.3061524,25.831543 15.2963867,25.831543 C15.257324,25.831543 15.2170412,25.8071292 15.1755371,25.7583008 C15.134033,25.7094724 15.1035157,25.6801758 15.0839844,25.6704102 C15.035156,25.6411131 14.9765628,25.6203614 14.9082031,25.6081543 C14.8398434,25.5959472 14.7910158,25.5556644 14.7617188,25.4873047 C14.7763673,25.1064434 14.7763673,24.7341327 14.7617188,24.3703613 C14.7470702,24.00659 14.7446289,23.6342792 14.7543945,23.253418 C14.7641602,22.9897448 14.7775878,22.7272962 14.7946777,22.4660645 C14.8117677,22.2048327 14.8227539,21.9423841 14.8276367,21.6787109 L14.8276367,21.5761719 C14.8276367,21.571289 14.8251953,21.5554201 14.8203125,21.5285645 C14.8154297,21.5017089 14.8117676,21.4748536 14.8093262,21.447998 C14.8068848,21.4211424 14.8032227,21.3955079 14.7983398,21.3710938 C14.793457,21.3466796 14.7910156,21.3295899 14.7910156,21.3198242 L14.7910156,21.2429199 C14.7910156,21.2014158 14.7922363,21.1574709 14.7946777,21.111084 C14.7971192,21.064697 14.7983398,21.0207522 14.7983398,20.979248 L14.7983398,20.9023438 C14.7983398,20.8828124 14.7958985,20.8510744 14.7910156,20.8071289 C14.7861328,20.7631834 14.7788086,20.7167971 14.769043,20.6679688 C14.7592773,20.6191404 14.7495118,20.5727541 14.7397461,20.5288086 C14.7299804,20.4848631 14.7226563,20.4531251 14.7177734,20.4335938 C14.6640622,19.3447211 14.6225587,18.2644097 14.5932617,17.192627 C14.5639647,16.1208443 14.5322267,15.0405328 14.4980469,13.9516602 L14.4980469,13.878418 C14.4980469,13.8442381 14.5065917,13.7978519 14.5236816,13.7392578 C14.5407716,13.6806638 14.5639647,13.6232913 14.5932617,13.5671387 C14.6225587,13.510986 14.653076,13.4621584 14.6848145,13.4206543 C14.7165529,13.3791502 14.7470702,13.3583984 14.7763672,13.3583984 C14.8740239,13.3583984 14.9716792,13.3730467 15.0693359,13.4023438 C15.1669927,13.4316408 15.2646479,13.4462891 15.3623047,13.4462891 L15.5161133,13.4462891 C15.5307618,13.4462891 15.5612791,13.4389649 15.607666,13.4243164 C15.654053,13.4096679 15.6821289,13.4023438 15.6918945,13.4023438 C16.1655297,13.333984 16.6452612,13.2961426 17.1311035,13.2888184 C17.6169458,13.2814941 18.0966773,13.277832 18.5703125,13.277832 C19.0488305,13.277832 19.5175758,13.2998045 19.9765625,13.34375 C20.4355492,13.3876955 20.9018531,13.4218749 21.3754883,13.4462891 C21.4096681,13.4658204 21.4353026,13.4877928 21.4523926,13.512207 C21.4694825,13.5366212 21.4853515,13.5622557 21.5,13.5891113 C21.5146485,13.6159669 21.5305175,13.6428221 21.5476074,13.6696777 C21.5646974,13.6965333 21.5903319,13.7221678 21.6245117,13.746582 C21.6293946,13.7856447 21.635498,13.8527827 21.6428223,13.947998 C21.6501465,14.0432134 21.6574707,14.14331 21.6647949,14.248291 C21.6721192,14.353272 21.6782226,14.4545894 21.6831055,14.5522461 C21.6879883,14.6499028 21.6904297,14.7158201 21.6904297,14.75 L21.6904297,14.8049316 C21.6904297,14.8366701 21.6916504,14.8720701 21.6940918,14.9111328 C21.6965332,14.9501955 21.6977539,14.9904783 21.6977539,15.0319824 L21.6977539,15.1235352 C21.6977539,15.1381837 21.6965332,15.1638182 21.6940918,15.2004395 C21.6916504,15.2370607 21.689209,15.2761228 21.6867676,15.317627 C21.6843262,15.3591311 21.6818848,15.3981932 21.6794434,15.4348145 C21.6770019,15.4714357 21.6757812,15.4970702 21.6757812,15.5117188 C21.6318357,15.5849613 21.5939943,15.6472165 21.5622559,15.6984863 C21.5305174,15.7497561 21.4816898,15.7924803 21.4157715,15.8266602 C21.3498532,15.86084 21.2534186,15.8864745 21.1264648,15.9035645 C20.9995111,15.9206544 20.8139661,15.9316406 20.5698242,15.9365234 C20.5551757,15.9365234 20.5258791,15.9353027 20.4819336,15.9328613 C20.4379881,15.9304199 20.3903811,15.9291992 20.3391113,15.9291992 C20.2878415,15.9291992 20.2377932,15.9279785 20.1889648,15.9255371 C20.1401365,15.9230957 20.1059571,15.921875 20.0864258,15.921875 C20.0571288,15.921875 20.016846,15.9230957 19.9655762,15.9255371 C19.9143064,15.9279785 19.8630374,15.9291992 19.8117676,15.9291992 C19.7604978,15.9291992 19.7153322,15.9304199 19.6762695,15.9328613 C19.6372068,15.9353027 19.6152344,15.9365234 19.6103516,15.9365234 C19.4589836,15.9414063 19.2709972,15.9475097 19.0463867,15.954834 C18.8217762,15.9621582 18.6044932,15.9707031 18.3945312,15.9804688 C18.1503894,15.9902344 17.8964857,16 17.6328125,16.0097656 L17.5742188,16.0976562 C17.5693359,16.1074219 17.5607911,16.1538082 17.548584,16.2368164 C17.5363769,16.3198246 17.5229493,16.4174799 17.5083008,16.5297852 C17.4936523,16.6420904 17.479004,16.7556147 17.4643555,16.8703613 C17.449707,16.985108 17.4375,17.0791012 17.4277344,17.1523438 L17.4277344,17.2365723 C17.4277344,17.2829592 17.425293,17.3183593 17.4204102,17.3427734 L17.4204102,17.4855957 C17.4204102,17.5417483 17.4350584,17.5844725 17.4643555,17.6137695 C17.4741211,17.6235352 17.4887694,17.6333007 17.5083008,17.6430664 C17.5278321,17.6528321 17.5424804,17.6577148 17.5522461,17.6577148 C17.7817394,17.6918947 18.0185535,17.7138671 18.2626953,17.7236328 C18.5068372,17.7333985 18.7412098,17.7382812 18.9658203,17.7382812 L19.0683594,17.7382812 C19.0830079,17.7382812 19.12207,17.7358399 19.1855469,17.730957 C19.2490238,17.7260742 19.3161618,17.7224121 19.3869629,17.7199707 C19.457764,17.7175293 19.5236813,17.7138672 19.5847168,17.7089844 C19.6457523,17.7041015 19.6835937,17.7016602 19.6982422,17.7016602 L19.7275391,17.7016602 C19.9326182,17.7016602 20.123046,17.7224119 20.2988281,17.763916 C20.4746103,17.8054201 20.6674794,17.8408202 20.8774414,17.8701172 C20.9213869,17.8798829 20.9714353,17.8859863 21.0275879,17.8884277 C21.0837405,17.8908692 21.1374509,17.8969726 21.1887207,17.9067383 C21.2399905,17.916504 21.2863767,17.9348143 21.3278809,17.9616699 C21.369385,17.9885255 21.3999022,18.0288083 21.4194336,18.0825195 C21.4291993,18.1166994 21.4426269,18.1606443 21.4597168,18.2143555 L21.5109863,18.3754883 C21.5280763,18.4291995 21.5439452,18.4768064 21.5585938,18.5183105 C21.5732423,18.5598147 21.5805664,18.5830078 21.5805664,18.5878906 C21.5659179,18.6855474 21.5659179,18.7832026 21.5805664,18.8808594 L21.6245117,19.1738281 C21.6391602,19.2714849 21.6477051,19.3691401 21.6501465,19.4667969 C21.6525879,19.5644536 21.6367189,19.6621089 21.6025391,19.7597656 C21.5781249,19.8818365 21.5061041,19.9831539 21.3864746,20.0637207 C21.2668451,20.1442875 21.0654311,20.1992186 20.7822266,20.2285156 L20.328125,20.2285156 C20.298828,20.2285156 20.2243658,20.230957 20.1047363,20.2358398 C19.9851068,20.2407227 19.8569343,20.2456054 19.7202148,20.2504883 C19.5834954,20.2553711 19.4553229,20.2602539 19.3356934,20.2651367 C19.2160639,20.2700196 19.1416017,20.2724609 19.1123047,20.2724609 C19.0537106,20.2724609 18.9548347,20.2712402 18.8156738,20.2687988 C18.676513,20.2663574 18.5300301,20.2651367 18.3762207,20.2651367 C18.2224113,20.2651367 18.0771491,20.263916 17.9404297,20.2614746 C17.8037103,20.2590332 17.7084964,20.2578125 17.6547852,20.2578125 C17.6499023,20.5068372 17.6340333,20.7570788 17.6071777,21.0085449 C17.5803221,21.260011 17.5644531,21.512694 17.5595703,21.7666016 C17.5595703,21.8007814 17.5583496,21.8520504 17.5559082,21.9204102 C17.5534668,21.9887699 17.5522461,22.027832 17.5522461,22.0375977 C17.5571289,22.0620118 17.5632324,22.1071774 17.5705566,22.1730957 C17.5778809,22.239014 17.585205,22.3110348 17.5925293,22.3891602 C17.5998536,22.4672855 17.6071777,22.5417477 17.614502,22.6125488 C17.6218262,22.68335 17.6254883,22.7333983 17.6254883,22.7626953 L17.6437988,22.854248 C17.6511231,22.8908693 17.6596679,22.9262694 17.6694336,22.9604492 C17.6791993,22.9946291 17.6877441,23.0251464 17.6950684,23.052002 C17.7023926,23.0788576 17.7084961,23.0922852 17.7133789,23.0922852 L17.9697266,23.1362305 L21.5073242,23.1142578 C21.6147466,23.109375 21.7014157,23.1081543 21.767334,23.1105957 C21.8332523,23.1130371 21.885742,23.1203613 21.9248047,23.1325684 C21.9638674,23.1447755 21.9907226,23.1582031 22.0053711,23.1728516 C22.0200196,23.1875001 22.0322265,23.2045897 22.0419922,23.2241211 C22.046875,23.2827151 22.0493164,23.3388669 22.0493164,23.3925781 L22.0493164,23.6416016 C22.0493164,23.6855471 22.0480957,23.7429196 22.0456543,23.8137207 L22.0383301,24.026123 C22.0358887,24.0969242 22.0334473,24.1604001 22.0310059,24.2165527 C22.0285644,24.2727054 22.0273438,24.3081054 22.0273438,24.3227539 C22.0273438,24.3325196 22.0249024,24.3508299 22.0200195,24.3776855 C22.0151367,24.4045411 22.0090332,24.4338377 22.001709,24.4655762 C21.9943847,24.4973146 21.9882813,24.5266112 21.9833984,24.5534668 C21.9785156,24.5803224 21.9760742,24.5986328 21.9760742,24.6083984 L21.9760742,24.8134766 C21.9663085,24.8867191 21.9663085,24.9636226 21.9760742,25.0441895 C21.9858399,25.1247563 21.989502,25.2053219 21.9870605,25.2858887 C21.9846191,25.3664555 21.9699708,25.4421383 21.9431152,25.5129395 C21.9162596,25.5837406 21.8637699,25.6459958 21.7856445,25.699707 C21.3657206,25.7387697 20.949465,25.7863767 20.5368652,25.8425293 C20.1242655,25.8986819 19.7055685,25.9267578 19.2807617,25.9267578 C19.0707997,25.9267578 18.8669443,25.9169923 18.6691895,25.8974609 C18.4714346,25.8779296 18.2675792,25.8681641 18.0576172,25.8681641 C17.974609,25.8339842 17.8903813,25.8266601 17.8049316,25.8461914 C17.719482,25.8657228 17.636475,25.8876952 17.5559082,25.9121094 C17.4753414,25.9365236 17.3972172,25.9523925 17.3215332,25.9597168 C17.2458492,25.9670411 17.1762698,25.9414065 17.112793,25.8828125 L15.9702148,25.8828125 Z M23.0161133,22.5063477 C23.0161133,22.467285 23.0234374,22.4306642 23.0380859,22.3964844 C23.0527344,22.3623045 23.0600586,22.3256838 23.0600586,22.2866211 C23.0600586,22.1352531 23.0527344,21.9875495 23.0380859,21.8435059 C23.0234374,21.6994622 23.0161133,21.5517586 23.0161133,21.4003906 L23.0161133,21.1000977 C23.0307618,20.7875961 23.0539549,20.4873061 23.0856934,20.1992188 C23.1174318,19.9111314 23.1638181,19.6291518 23.2248535,19.3532715 C23.285889,19.0773912 23.3640132,18.8051771 23.4592285,18.5366211 C23.5544438,18.2680651 23.6728509,17.9970717 23.8144531,17.7236328 C23.819336,17.7138671 23.8327636,17.6882326 23.8547363,17.6467285 C23.8767091,17.6052244 23.8986815,17.5612795 23.9206543,17.5148926 C23.9426271,17.4685056 23.9633788,17.4245608 23.9829102,17.3830566 C24.0024415,17.3415525 24.0146484,17.315918 24.0195312,17.3061523 C24.0292969,17.2915038 24.0512694,17.2622073 24.0854492,17.2182617 C24.1196291,17.1743162 24.1440429,17.147461 24.1586914,17.1376953 C24.1782228,17.1132811 24.2124021,17.0766604 24.2612305,17.027832 L24.4077148,16.8813477 C24.4565432,16.8325193 24.5017088,16.7885744 24.5432129,16.7495117 C24.584717,16.710449 24.6103515,16.6860352 24.6201172,16.6762695 C24.625,16.6713867 24.640869,16.6591798 24.6677246,16.6396484 C24.6945802,16.6201171 24.7263182,16.5993653 24.7629395,16.5773926 C24.7995607,16.5554198 24.8349608,16.5334474 24.8691406,16.5114746 C24.9033205,16.4895018 24.9301757,16.4736329 24.949707,16.4638672 C24.9692384,16.4541015 24.9960936,16.4394532 25.0302734,16.4199219 C25.0644533,16.4003905 25.0986326,16.3820802 25.1328125,16.3649902 C25.1669924,16.3479003 25.199951,16.333252 25.2316895,16.3210449 C25.2634279,16.3088378 25.2841796,16.3027344 25.2939453,16.3027344 C25.3232423,16.2880859 25.3793941,16.2648927 25.4624023,16.2331543 C25.5454106,16.2014159 25.634521,16.1696779 25.7297363,16.1379395 C25.8249516,16.106201 25.9140621,16.0781251 25.9970703,16.0537109 C26.0800785,16.0292968 26.1411131,16.0122071 26.1801758,16.0024414 L26.2680664,15.9804688 C26.3071291,15.9707031 26.3486326,15.9609375 26.3925781,15.9511719 C26.4365237,15.9414062 26.4792478,15.9328614 26.520752,15.9255371 C26.5622561,15.9182129 26.590332,15.9121094 26.6049805,15.9072266 L26.9931641,15.9072266 C27.173829,15.9072266 27.3349602,15.9218749 27.4765625,15.9511719 C27.6181648,15.9804689 27.7744132,16.019531 27.9453125,16.0683594 C28.1357431,16.1025392 28.3212882,16.1525876 28.5019531,16.2185059 C28.6826181,16.2844242 28.8571769,16.360107 29.0256348,16.4455566 C29.1940926,16.5310063 29.3564445,16.618896 29.5126953,16.7092285 C29.6689461,16.799561 29.8178704,16.8837887 29.9594727,16.9619141 C29.9643555,16.9570312 29.9692383,16.9411622 29.9741211,16.9143066 C29.9790039,16.887451 29.9838867,16.8581545 29.9887695,16.826416 C29.9936524,16.7946776 29.9973144,16.7641603 29.9997559,16.7348633 C30.0021973,16.7055663 30.003418,16.6860352 30.003418,16.6762695 L30.003418,16.6176758 C30.003418,16.3881824 29.9960938,16.1599132 29.9814453,15.9328613 C29.9667968,15.7058094 29.9594727,15.4775402 29.9594727,15.2480469 L29.9594727,14.9477539 C29.9643555,14.8940427 29.9667969,14.8208012 29.9667969,14.7280273 C29.9667969,14.6352534 29.9655762,14.5400396 29.9631348,14.4423828 C29.9606933,14.3447261 29.958252,14.2531743 29.9558105,14.1677246 C29.9533691,14.082275 29.9521484,14.0200197 29.9521484,13.980957 C29.9619141,13.922363 29.9765624,13.8625491 29.9960938,13.8015137 C30.0156251,13.7404782 30.0253906,13.7050782 30.0253906,13.6953125 L30.0693359,13.6513672 L30.2011719,13.6367188 C30.2402346,13.6318359 30.2768553,13.6269531 30.3110352,13.6220703 C30.345215,13.6171875 30.3745116,13.6123047 30.3989258,13.6074219 C30.5649422,13.5976562 30.7102045,13.5903321 30.8347168,13.5854492 C30.9592291,13.5805664 31.0922844,13.578125 31.2338867,13.578125 C31.3559576,13.578125 31.4670405,13.5744629 31.5671387,13.5671387 C31.6672368,13.5598144 31.7648921,13.553711 31.8601074,13.5488281 C31.9553227,13.5439453 32.052978,13.5427246 32.1530762,13.545166 C32.2531743,13.5476074 32.3618158,13.5585937 32.4790039,13.578125 C32.5913092,13.6416019 32.6547851,13.712402 32.6694336,13.7905273 C32.6694336,13.800293 32.6706543,13.8234861 32.6730957,13.8601074 C32.6755371,13.8967287 32.6767578,13.9345701 32.6767578,13.9736328 C32.6767578,14.0126955 32.6779785,14.0505369 32.6804199,14.0871582 C32.6828613,14.1237795 32.684082,14.149414 32.684082,14.1640625 C32.684082,14.1884767 32.6828613,14.2214353 32.6804199,14.2629395 C32.6779785,14.3044436 32.6767578,14.3447264 32.6767578,14.3837891 C32.6767578,14.4228518 32.6755371,14.4582518 32.6730957,14.4899902 C32.6706543,14.5217287 32.6694336,14.540039 32.6694336,14.5449219 C32.6596679,14.8037122 32.6535645,15.0539539 32.651123,15.2956543 C32.6486816,15.5373547 32.6474609,15.7766101 32.6474609,16.0134277 C32.6474609,16.2502453 32.6450196,16.4895007 32.6401367,16.7312012 C32.6352539,16.9729016 32.6279297,17.2231432 32.6181641,17.4819336 C32.6083984,17.7602553 32.5974122,18.0568832 32.5852051,18.3718262 C32.572998,18.6867692 32.5668945,18.983397 32.5668945,19.2617188 C32.5668945,19.3007814 32.5681152,19.3886712 32.5705566,19.5253906 C32.5729981,19.6621101 32.5754394,19.8098137 32.5778809,19.9685059 C32.5803223,20.1271981 32.5827637,20.2761224 32.5852051,20.4152832 C32.5876465,20.5544441 32.5888672,20.6435545 32.5888672,20.6826172 C32.5888672,20.6875 32.5876465,20.7119138 32.5852051,20.7558594 C32.5827637,20.7998049 32.581543,20.8522946 32.581543,20.9133301 C32.581543,20.9743655 32.5803223,21.0366208 32.5778809,21.1000977 C32.5754394,21.1635745 32.5742188,21.2124022 32.5742188,21.246582 C32.5742188,21.2856447 32.5754394,21.3369137 32.5778809,21.4003906 C32.5803223,21.4638675 32.581543,21.5273434 32.581543,21.5908203 C32.581543,21.6542972 32.5827637,21.7116697 32.5852051,21.7629395 C32.5876465,21.8142092 32.5888672,21.8422851 32.5888672,21.847168 C32.5888672,21.8618165 32.5852051,21.8959958 32.5778809,21.949707 C32.5705566,22.0034182 32.5632325,22.05957 32.5559082,22.1181641 C32.5485839,22.1767581 32.5412598,22.2316892 32.5339355,22.282959 C32.5266113,22.3342288 32.5229492,22.3671874 32.5229492,22.3818359 C32.5278321,22.4062501 32.5290527,22.4575191 32.5266113,22.5356445 C32.5241699,22.6137699 32.5205078,22.6967769 32.515625,22.784668 C32.5107422,22.872559 32.5070801,22.9567867 32.5046387,23.0373535 C32.5021973,23.1179203 32.5009766,23.1728514 32.5009766,23.2021484 C32.5009766,23.2265626 32.4997559,23.2924799 32.4973145,23.3999023 C32.494873,23.5073248 32.4924317,23.6220697 32.4899902,23.7441406 C32.4875488,23.8662115 32.4851074,23.9809565 32.482666,24.0883789 C32.4802246,24.1958013 32.4790039,24.2617186 32.4790039,24.2861328 C32.4790039,24.2958985 32.4802246,24.3239744 32.482666,24.3703613 C32.4851074,24.4167483 32.4863281,24.4716794 32.4863281,24.5351562 C32.4863281,24.5986331 32.4875488,24.6621091 32.4899902,24.7255859 C32.4924317,24.7890628 32.4936523,24.8378905 32.4936523,24.8720703 C32.4936523,24.8964845 32.4924317,24.9465328 32.4899902,25.0222168 C32.4875488,25.0979008 32.4863281,25.1796871 32.4863281,25.2675781 C32.4863281,25.3554692 32.4851074,25.4384762 32.482666,25.5166016 C32.4802246,25.594727 32.4790039,25.6435546 32.4790039,25.6630859 C32.4692382,25.7656255 32.4106451,25.838867 32.3032227,25.8828125 C32.1958002,25.926758 32.0761725,25.9536132 31.9443359,25.9633789 C31.8124993,25.9731446 31.6892096,25.975586 31.5744629,25.9707031 C31.4597162,25.9658203 31.3925782,25.9682617 31.3730469,25.9780273 L31.1533203,25.9780273 C31.0751949,25.9780273 31.0019535,25.9926756 30.9335938,26.0219727 L30.003418,26.0219727 L29.9301758,25.9414062 L29.8422852,25.2236328 C29.6420888,25.4091806 29.4296886,25.5532221 29.2050781,25.6557617 C28.9804676,25.7583013 28.7644053,25.8376462 28.5568848,25.8937988 C28.3493642,25.9499515 28.1577157,25.9865722 27.9819336,26.0036621 C27.8061515,26.020752 27.6669927,26.0341796 27.5644531,26.0439453 L27.3300781,26.0439453 C27.2568356,26.0390625 27.160401,26.0341797 27.0407715,26.0292969 C26.921142,26.024414 26.7990729,26.020752 26.6745605,26.0183105 C26.5500482,26.0158691 26.4377446,26.0122071 26.3376465,26.0073242 C26.2375483,26.0024414 26.1704103,25.9975586 26.1362305,25.9926758 C26.1020506,25.9877929 26.0483402,25.9768067 25.9750977,25.9597168 C25.9018551,25.9426269 25.8249516,25.9255372 25.7443848,25.9084473 C25.663818,25.8913573 25.5881351,25.873047 25.517334,25.8535156 C25.4465328,25.8339843 25.3989259,25.819336 25.3745117,25.8095703 C25.3598632,25.8046875 25.3281252,25.7912599 25.2792969,25.7692871 C25.2304685,25.7473143 25.1791995,25.7229005 25.1254883,25.6960449 C25.0717771,25.6691893 25.0217287,25.6423341 24.9753418,25.6154785 C24.9289548,25.5886229 24.8959962,25.5678712 24.8764648,25.5532227 C24.8520507,25.5385741 24.8105472,25.5117189 24.7519531,25.4726562 L24.5651855,25.3481445 C24.4992672,25.304199 24.4394534,25.2626955 24.3857422,25.2236328 C24.332031,25.1845701 24.2954103,25.1552735 24.2758789,25.1357422 C24.2465819,25.1015623 24.2197267,25.0698244 24.1953125,25.0405273 C24.1708983,25.0161132 24.1464845,24.989258 24.1220703,24.9599609 C24.0976561,24.9306639 24.0781251,24.9086915 24.0634766,24.894043 C23.9462885,24.7377922 23.8498539,24.5827644 23.7741699,24.4289551 C23.6984859,24.2751457 23.6166997,24.1054697 23.5288086,23.9199219 C23.4750974,23.8076166 23.4189456,23.6892096 23.3603516,23.5646973 C23.3017575,23.4401849 23.2578126,23.3193365 23.2285156,23.2021484 C23.2236328,23.1923828 23.215088,23.1606448 23.2028809,23.1069336 C23.1906738,23.0532224 23.1784669,22.9946292 23.1662598,22.9311523 C23.1540527,22.8676755 23.1418458,22.8090823 23.1296387,22.7553711 C23.1174316,22.7016599 23.1088867,22.6699219 23.1040039,22.6601562 C23.0942382,22.6503906 23.0795899,22.6284181 23.0600586,22.5942383 C23.0405272,22.5600584 23.025879,22.538086 23.0161133,22.5283203 L23.0161133,22.5063477 Z M26.3925781,22.8212891 C26.3925781,22.8261719 26.404785,22.8432616 26.4291992,22.8725586 C26.4536134,22.9018556 26.48291,22.9335936 26.5170898,22.9677734 C26.5512697,23.0019533 26.5878904,23.0373533 26.6269531,23.0739746 C26.6660158,23.1105959 26.6977538,23.1386718 26.722168,23.1582031 C26.7319336,23.1679688 26.7587888,23.1826171 26.8027344,23.2021484 C26.8466799,23.2216798 26.8735351,23.2363281 26.8833008,23.2460938 C26.8930665,23.2558594 26.9162596,23.2705077 26.9528809,23.2900391 C26.9895021,23.3095704 27.0126953,23.3242187 27.0224609,23.3339844 C27.0371094,23.34375 27.0651853,23.3583983 27.1066895,23.3779297 C27.1481936,23.397461 27.1738281,23.4072266 27.1835938,23.4072266 C27.266602,23.4414064 27.3386227,23.4584961 27.3996582,23.4584961 L27.6376953,23.4584961 C27.8769543,23.4584961 28.1149891,23.419434 28.3518066,23.3413086 C28.5886242,23.2631832 28.8339831,23.1386727 29.0878906,22.9677734 C29.1318362,22.9287107 29.1794431,22.89209 29.2307129,22.8579102 C29.2819827,22.8237303 29.3271482,22.7871096 29.3662109,22.7480469 C29.3662109,22.743164 29.3784178,22.7260744 29.402832,22.6967773 C29.4272462,22.6674803 29.4553221,22.6345217 29.4870605,22.5979004 C29.518799,22.5612791 29.5480956,22.5283205 29.5749512,22.4990234 C29.6018068,22.4697264 29.6176758,22.4501954 29.6225586,22.4404297 C29.6323243,22.4208983 29.6506346,22.386719 29.6774902,22.3378906 C29.7043458,22.2890623 29.731201,22.2377932 29.7580566,22.184082 C29.7849122,22.1303708 29.8117674,22.0803225 29.838623,22.0339355 C29.8654786,21.9875486 29.883789,21.9521486 29.8935547,21.9277344 C29.9082032,21.8886717 29.9191894,21.8581544 29.9265137,21.8361816 C29.9338379,21.8142089 29.9375,21.7836916 29.9375,21.7446289 L29.9667969,21.6494141 C29.9814454,21.6054685 30.0009764,21.5358891 30.0253906,21.4406738 C30.0498048,21.3454585 30.0839842,21.2124032 30.1279297,21.0415039 C30.1279297,21.0317382 30.1328125,20.9963382 30.1425781,20.9353027 C30.1523438,20.8742673 30.1621093,20.8242189 30.171875,20.7851562 C30.1767578,20.7607421 30.1804199,20.72168 30.1828613,20.6679688 C30.1853027,20.6142575 30.1865234,20.5556644 30.1865234,20.4921875 L30.1865234,20.2578125 C30.1865234,20.243164 30.1853027,20.2138674 30.1828613,20.1699219 C30.1804199,20.1259763 30.1767578,20.0795901 30.171875,20.0307617 C30.1669922,19.9819333 30.1621094,19.9355471 30.1572266,19.8916016 C30.1523437,19.847656 30.147461,19.8159181 30.1425781,19.7963867 C30.1425781,19.786621 30.1376954,19.7719728 30.1279297,19.7524414 C30.118164,19.7329101 30.1083985,19.7182618 30.0986328,19.7084961 C30.0888671,19.6987304 30.0729982,19.6804201 30.0510254,19.6535645 C30.0290526,19.6267089 30.0046388,19.5974123 29.9777832,19.5656738 C29.9509276,19.5339354 29.9240724,19.5034181 29.8972168,19.4741211 C29.8703612,19.4448241 29.8520508,19.4228516 29.8422852,19.4082031 C29.7055657,19.2666009 29.5554207,19.1372076 29.3918457,19.0200195 C29.2282707,18.9028314 29.0537119,18.8051762 28.8681641,18.7270508 C28.8583984,18.7270508 28.8339846,18.722168 28.7949219,18.7124023 C28.7753905,18.7075195 28.7583009,18.7026367 28.7436523,18.6977539 L27.7402344,18.6977539 C27.7158202,18.6538084 27.6950684,18.6281739 27.6779785,18.6208496 C27.6608886,18.6135254 27.6328127,18.6098633 27.59375,18.6098633 C27.5058589,18.6098633 27.410645,18.6196288 27.3081055,18.6391602 C27.2055659,18.6586915 27.1054692,18.6892088 27.0078125,18.7307129 C26.9101558,18.772217 26.8173833,18.8210446 26.7294922,18.8771973 C26.6416011,18.9333499 26.5683597,18.9980465 26.5097656,19.0712891 C26.5,19.0859376 26.4792482,19.1164548 26.4475098,19.1628418 C26.4157713,19.2092287 26.3791506,19.2617185 26.3376465,19.3203125 C26.2961424,19.3789065 26.2570803,19.436279 26.220459,19.4924316 C26.1838377,19.5485843 26.1557618,19.5888671 26.1362305,19.6132812 C26.1362305,19.6230469 26.1289063,19.6389159 26.1142578,19.6608887 C26.0996093,19.6828614 26.0922852,19.6987304 26.0922852,19.7084961 C26.0092769,19.8549812 25.9323734,20.0002434 25.8615723,20.1442871 C25.7907711,20.2883308 25.7431642,20.4506827 25.71875,20.6313477 C25.7138672,20.6557618 25.7089844,20.6936033 25.7041016,20.744873 C25.6992187,20.7961428 25.694336,20.8510739 25.6894531,20.909668 C25.6845703,20.968262 25.6809082,21.0219724 25.6784668,21.0708008 C25.6760254,21.1196292 25.6748047,21.1538085 25.6748047,21.1733398 C25.6748047,21.1879884 25.6796875,21.2233884 25.6894531,21.279541 C25.6992188,21.3356936 25.7089843,21.3710937 25.71875,21.3857422 L25.784668,21.5834961 C25.813965,21.6713872 25.8432616,21.7604976 25.8725586,21.8508301 C25.9018556,21.9411626 25.9287108,22.0241695 25.953125,22.0998535 C25.9775392,22.1755375 25.9946289,22.2231444 26.0043945,22.2426758 L26.3925781,22.8212891 Z M33.753418,20.074707 C33.753418,20.0405272 33.7509766,19.9514167 33.7460938,19.807373 C33.7412109,19.6633294 33.7375488,19.5009775 33.7351074,19.3203125 C33.732666,19.1396475 33.7290039,18.9577646 33.7241211,18.7746582 C33.7192383,18.5915518 33.7167969,18.4438482 33.7167969,18.331543 C33.7216797,18.3168945 33.7265625,18.2900393 33.7314453,18.2509766 C33.7363281,18.2119139 33.7412109,18.1691897 33.7460938,18.1228027 C33.7509766,18.0764158 33.7546387,18.0336916 33.7570801,17.9946289 C33.7595215,17.9555662 33.7607422,17.928711 33.7607422,17.9140625 L33.7607422,17.027832 C33.7900392,16.9838865 33.8437496,16.9509278 33.921875,16.9289551 C34.0000004,16.9069823 34.0610349,16.8959961 34.1049805,16.8959961 L36.199707,16.8959961 C36.2387697,16.9106446 36.2741698,16.9204101 36.3059082,16.925293 C36.3376466,16.9301758 36.3657225,16.9460448 36.3901367,16.9729004 C36.4145509,16.999756 36.434082,17.0473629 36.4487305,17.1157227 C36.463379,17.1840824 36.4707031,17.2915032 36.4707031,17.4379883 C36.475586,17.447754 36.4804687,17.4685057 36.4853516,17.5002441 C36.4902344,17.5319826 36.4951172,17.5661619 36.5,17.6027832 C36.5048828,17.6394045 36.5085449,17.6735838 36.5109863,17.7053223 C36.5134277,17.7370607 36.5146484,17.7578125 36.5146484,17.7675781 C36.5146484,17.8359378 36.5183105,17.9604483 36.5256348,18.1411133 C36.532959,18.3217782 36.5402832,18.5134267 36.5476074,18.7160645 C36.5549317,18.9187022 36.5622558,19.1103507 36.5695801,19.2910156 C36.5769043,19.4716806 36.5805664,19.5961911 36.5805664,19.6645508 C36.5805664,19.7036135 36.5854492,19.7915032 36.5952148,19.9282227 C36.6049805,20.0649421 36.6171874,20.211425 36.6318359,20.3676758 C36.6464844,20.5239266 36.6586914,20.6716302 36.668457,20.810791 C36.6782227,20.9499519 36.6831055,21.0366209 36.6831055,21.0708008 C36.6831055,21.1147463 36.6855469,21.198974 36.6904297,21.3234863 C36.6953125,21.4479987 36.7026367,21.5920402 36.7124023,21.7556152 C36.722168,21.9191903 36.7319335,22.0937491 36.7416992,22.2792969 C36.7514649,22.4648447 36.7612304,22.6406242 36.7709961,22.8066406 C36.7807618,22.9726571 36.7880859,23.1179193 36.7929688,23.2424316 C36.7978516,23.366944 36.8027344,23.4487303 36.8076172,23.487793 C36.8125,23.5610355 36.8149414,23.6757805 36.8149414,23.8320312 C36.8149414,23.988282 36.8161621,24.1530753 36.8186035,24.326416 C36.8210449,24.4997567 36.824707,24.66455 36.8295898,24.8208008 C36.8344727,24.9770516 36.8417968,25.0917965 36.8515625,25.1650391 L36.8515625,25.2675781 C36.8759767,25.4580088 36.8625491,25.6044917 36.8112793,25.7070312 C36.7600095,25.8095708 36.6611335,25.8461916 36.5146484,25.8168945 L34.1928711,25.8022461 C34.0805658,25.8022461 34.0036623,25.7692874 33.9621582,25.7033691 C33.9206541,25.6374508 33.8937989,25.5520025 33.8815918,25.4470215 C33.8693847,25.3420405 33.8632812,25.2199714 33.8632812,25.0808105 C33.8632812,24.9416497 33.8535157,24.7988289 33.8339844,24.6523438 C33.8242187,24.5449213 33.8193359,24.4265143 33.8193359,24.2971191 C33.8193359,24.167724 33.8205566,24.0383307 33.822998,23.9089355 C33.8254395,23.7795404 33.8278808,23.6513678 33.8303223,23.5244141 C33.8327637,23.3974603 33.831543,23.280274 33.8266602,23.1728516 C33.8120116,22.889647 33.7998047,22.6223157 33.7900391,22.3708496 C33.7802734,22.1193835 33.7729492,21.8703626 33.7680664,21.6237793 C33.7631836,21.377196 33.7595215,21.1269544 33.7570801,20.8730469 C33.7546387,20.6191394 33.753418,20.3530287 33.753418,20.074707 Z M33.5556641,14.4570312 L33.5556641,14.248291 C33.5556641,14.172607 33.5727537,14.1005863 33.6069336,14.0322266 C33.6606448,13.929687 33.7082517,13.830811 33.7497559,13.7355957 C33.79126,13.6403804 33.8535152,13.5512699 33.9365234,13.4682617 C33.9560548,13.4487304 33.9865721,13.4230959 34.0280762,13.3913574 L34.1525879,13.2961426 C34.194092,13.2644041 34.2331541,13.2351076 34.2697754,13.208252 C34.3063967,13.1813964 34.3295898,13.163086 34.3393555,13.1533203 C34.3930667,13.1093748 34.4504391,13.0788575 34.5114746,13.0617676 C34.5725101,13.0446776 34.635986,13.0349121 34.7019043,13.0324707 C34.7678226,13.0300293 34.8349606,13.03125 34.9033203,13.0361328 C34.97168,13.0410156 35.0375973,13.043457 35.1010742,13.043457 C35.1840824,13.043457 35.2536618,13.0544432 35.3098145,13.076416 C35.3659671,13.0983888 35.4355465,13.1264647 35.5185547,13.1606445 C35.5576174,13.1704102 35.6101071,13.1936033 35.6760254,13.2302246 C35.7419437,13.2668459 35.7944334,13.2998045 35.8334961,13.3291016 C36.0288096,13.465821 36.1960442,13.6293936 36.3352051,13.8198242 C36.4743659,14.0102549 36.5561522,14.2373034 36.5805664,14.5009766 C36.5805664,14.6572273 36.5756836,14.789062 36.565918,14.8964844 C36.5561523,15.0039068 36.5341799,15.1027828 36.5,15.1931152 C36.4658201,15.2834477 36.4145511,15.3688961 36.3461914,15.4494629 C36.2778317,15.5300297 36.1850592,15.6191401 36.0678711,15.7167969 C35.9604487,15.8095708 35.8286141,15.8901364 35.6723633,15.9584961 C35.5161125,16.0268558 35.3671882,16.0610352 35.2255859,16.0610352 C35.2109374,16.0610352 35.1853029,16.0598145 35.1486816,16.057373 C35.1120604,16.0549316 35.0729983,16.0512696 35.0314941,16.0463867 C34.98999,16.0415039 34.9521486,16.0366211 34.9179688,16.0317383 C34.8837889,16.0268554 34.8618165,16.0219727 34.8520508,16.0170898 C34.8276366,16.012207 34.7958986,16.0048829 34.7568359,15.9951172 C34.7177732,15.9853515 34.6787111,15.9731446 34.6396484,15.9584961 C34.6005857,15.9438476 34.563965,15.9316407 34.5297852,15.921875 C34.4956053,15.9121093 34.4736329,15.9047852 34.4638672,15.8999023 L34.3979492,15.8669434 C34.3637694,15.8498534 34.3247073,15.8327638 34.2807617,15.8156738 C34.2368162,15.7985839 34.1953127,15.7827149 34.15625,15.7680664 C34.1171873,15.7534179 34.0927735,15.741211 34.0830078,15.7314453 C33.9707026,15.6435542 33.8803714,15.5544438 33.8120117,15.4641113 C33.743652,15.3737788 33.6911623,15.278565 33.654541,15.1784668 C33.6179197,15.0783686 33.5922852,14.9697271 33.5776367,14.8525391 C33.5629882,14.735351 33.5556641,14.6035164 33.5556641,14.4570312 Z M39.4150391,25.699707 C39.4248047,25.6899414 39.4345703,25.6704103 39.4443359,25.6411133 C39.4541016,25.6118163 39.4589844,25.5922852 39.4589844,25.5825195 C39.4589844,25.5581053 39.4602051,25.5166019 39.4626465,25.4580078 C39.4650879,25.3994138 39.4675293,25.3371585 39.4699707,25.2712402 C39.4724121,25.2053219 39.4736328,25.1442874 39.4736328,25.0881348 L39.4736328,24.9672852 C39.4736328,24.9282225 39.4748535,24.8757328 39.4772949,24.8098145 L39.4846191,24.6120605 C39.4870606,24.5461422 39.4882812,24.4887698 39.4882812,24.4399414 L39.4882812,24.1359863 C39.4882812,24.0212397 39.4870606,23.8979499 39.4846191,23.7661133 C39.4821777,23.6342767 39.4797363,23.5109869 39.4772949,23.3962402 C39.4748535,23.2814936 39.4736328,23.2094728 39.4736328,23.1801758 C39.4736328,23.1655273 39.4748535,23.1289065 39.4772949,23.0703125 C39.4797363,23.0117185 39.4821777,22.9482425 39.4846191,22.8798828 C39.4870606,22.8115231 39.4882812,22.7480472 39.4882812,22.6894531 C39.4882812,22.6308591 39.4858399,22.5942384 39.480957,22.5795898 C39.480957,22.5649413 39.4785156,22.5246585 39.4736328,22.4587402 C39.46875,22.3928219 39.4626465,22.3232426 39.4553223,22.25 C39.447998,22.1767574 39.4406739,22.1071781 39.4333496,22.0412598 C39.4260254,21.9753415 39.4223633,21.9350587 39.4223633,21.9204102 C39.4174804,21.8520504 39.4138184,21.7495124 39.411377,21.612793 C39.4089355,21.4760735 39.4052735,21.3210458 39.4003906,21.1477051 C39.3955078,20.9743644 39.390625,20.7924814 39.3857422,20.6020508 C39.3808594,20.4116201 39.3759766,20.2309579 39.3710938,20.0600586 C39.3662109,19.8891593 39.3613281,19.7353522 39.3564453,19.5986328 C39.3515625,19.4619134 39.3491211,19.3593753 39.3491211,19.2910156 L39.3271484,19.203125 C39.1367178,19.2128907 38.9353038,19.2141114 38.7229004,19.2067871 C38.510497,19.1994629 38.3066416,19.1811525 38.1113281,19.1518555 C38.1113281,19.1420898 38.1088867,19.1311036 38.1040039,19.1188965 L38.0820312,19.0639648 C38.0820312,19.0541992 38.0722657,19.0517578 38.0527344,19.0566406 C38.033203,19.0615235 38.0283203,19.0590821 38.0380859,19.0493164 C38.0380859,19.0053709 38.0344239,18.9345708 38.0270996,18.8369141 C38.0197754,18.7392573 38.0124512,18.6269538 38.005127,18.5 C37.9978027,18.3730462 37.9904786,18.2399909 37.9831543,18.1008301 C37.97583,17.9616692 37.9685059,17.8286139 37.9611816,17.7016602 C37.9538574,17.5747064 37.9477539,17.4611821 37.9428711,17.361084 C37.9379883,17.2609858 37.9331055,17.1889651 37.9282227,17.1450195 L37.9282227,17.0644531 C37.9282227,16.9814449 37.9514158,16.9094241 37.9978027,16.8483887 C38.0441897,16.7873532 38.1088863,16.7470704 38.1918945,16.7275391 C38.3627938,16.7519532 38.5385733,16.7495119 38.7192383,16.7202148 C38.8999032,16.6909178 39.0732414,16.6762695 39.2392578,16.6762695 L39.3564453,16.6762695 C39.395508,16.6762695 39.4321287,16.6616212 39.4663086,16.6323242 L39.4663086,16.4931641 C39.4760743,16.1171856 39.4638674,15.748537 39.4296875,15.387207 C39.3955076,15.0258771 39.3833007,14.6572284 39.3930664,14.28125 L39.3930664,14.1787109 C39.3930664,14.1298826 39.3942871,14.0773929 39.3967285,14.0212402 C39.3991699,13.9650876 39.4016113,13.9113772 39.4040527,13.8601074 C39.4064942,13.8088376 39.4077148,13.7734376 39.4077148,13.7539062 C39.4125977,13.7148436 39.4406736,13.689209 39.4919434,13.677002 C39.5432131,13.6647949 39.6372063,13.6733397 39.7739258,13.7026367 C39.8081056,13.6977539 39.8654781,13.6916504 39.9460449,13.6843262 C40.0266117,13.6770019 40.1108394,13.6684571 40.1987305,13.6586914 C40.2866215,13.6489257 40.3696285,13.6403809 40.4477539,13.6330566 C40.5258793,13.6257324 40.5795897,13.6196289 40.6088867,13.6147461 C40.6235352,13.6147461 40.663818,13.6159668 40.7297363,13.6184082 C40.7956546,13.6208496 40.865234,13.6220703 40.9384766,13.6220703 C41.0117191,13.6220703 41.0800778,13.623291 41.1435547,13.6257324 C41.2070316,13.6281738 41.2436523,13.6293945 41.253418,13.6293945 L41.3413086,13.6293945 C41.3706056,13.6293945 41.4145505,13.6306152 41.4731445,13.6330566 C41.5317386,13.6354981 41.5903317,13.6391601 41.6489258,13.644043 C41.7172855,13.6489258 41.7880856,13.6538086 41.8613281,13.6586914 L41.9418945,13.746582 C41.9418945,13.7612305 41.9394531,13.7844237 41.9345703,13.8161621 C41.9296875,13.8479005 41.9248047,13.8808592 41.9199219,13.9150391 C41.915039,13.9492189 41.911377,13.9821776 41.9089355,14.013916 C41.9064941,14.0456545 41.9077148,14.0688476 41.9125977,14.0834961 C41.9223633,14.0932618 41.9321289,14.1079101 41.9418945,14.1274414 C41.9516602,14.1469728 41.956543,14.161621 41.956543,14.1713867 C41.9809572,14.3667002 41.9980468,14.557128 42.0078125,14.7426758 C42.0175782,14.9282236 42.0224609,15.1284169 42.0224609,15.3432617 C42.0224609,15.3969729 42.0236816,15.4738765 42.026123,15.5739746 C42.0285645,15.6740728 42.0310058,15.7851556 42.0334473,15.9072266 C42.0358887,16.0292975 42.0383301,16.153808 42.0407715,16.2807617 C42.0432129,16.4077155 42.0419922,16.5249018 42.0371094,16.6323242 C42.0371094,16.6616212 42.0444335,16.682373 42.059082,16.6945801 C42.0737305,16.7067872 42.0944823,16.7141113 42.1213379,16.7165527 C42.1481935,16.7189942 42.1750487,16.7177735 42.2019043,16.7128906 C42.2287599,16.7080078 42.251953,16.7055664 42.2714844,16.7055664 L42.3007812,16.7055664 C42.457032,16.656738 42.6083977,16.6323242 42.7548828,16.6323242 L43.230957,16.6323242 C43.2456055,16.6323242 43.267578,16.6335449 43.296875,16.6359863 C43.326172,16.6384277 43.3554686,16.6396484 43.3847656,16.6396484 C43.4189455,16.6445313 43.4580076,16.6469727 43.5019531,16.6469727 L43.5458984,16.8959961 C43.5507813,17.1499036 43.5495606,17.3952625 43.5422363,17.6320801 C43.5349121,17.8688977 43.5507811,18.1191393 43.5898438,18.3828125 L43.5898438,18.9467773 C43.5898438,19.0004885 43.5776368,19.041992 43.5532227,19.0712891 C43.5288085,19.1005861 43.5007326,19.1225585 43.4689941,19.137207 C43.4372557,19.1518555 43.4030764,19.1640625 43.3664551,19.1738281 C43.3298338,19.1835938 43.2968751,19.1933593 43.2675781,19.203125 L43.0551758,19.2470703 L42.2495117,19.2470703 L42.2348633,19.8769531 C42.2348633,19.8867188 42.2324219,19.9099119 42.2275391,19.9465332 C42.2226562,19.9831545 42.2189942,20.0222166 42.2165527,20.0637207 C42.2141113,20.1052248 42.2116699,20.1430662 42.2092285,20.1772461 C42.2067871,20.211426 42.2104492,20.230957 42.2202148,20.2358398 C42.2104492,20.4018563 42.2080078,20.5556634 42.2128906,20.6972656 C42.2177735,20.8388679 42.2263183,20.976806 42.2385254,21.111084 C42.2507325,21.245362 42.2653808,21.3820794 42.2824707,21.5212402 C42.2995606,21.6604011 42.3154296,21.8081047 42.3300781,21.9643555 L42.2495117,25.8022461 C42.2495117,25.8510745 42.2238772,25.8913573 42.1726074,25.9230957 C42.1213376,25.9548341 42.0761721,25.9707031 42.0371094,25.9707031 L40.4331055,25.9633789 C40.418457,25.9731446 40.3891604,25.9816894 40.3452148,25.9890137 C40.3012693,25.9963379 40.2744141,26 40.2646484,26 C40.2548828,26 40.2329103,25.9938965 40.1987305,25.9816895 C40.1645506,25.9694824 40.1425782,25.9633789 40.1328125,25.9633789 C40.118164,25.9633789 40.0900881,25.9609375 40.048584,25.9560547 C40.0070799,25.9511719 39.963135,25.9462891 39.916748,25.9414062 C39.8703611,25.9365234 39.8264162,25.9316406 39.7849121,25.9267578 C39.743408,25.921875 39.7177735,25.9169922 39.7080078,25.9121094 C39.6542966,25.9072265 39.5920414,25.8962403 39.5212402,25.8791504 C39.4504391,25.8620605 39.4150391,25.8120121 39.4150391,25.7290039 L39.4150391,25.699707 Z" id="path-1"></path>
    </defs>
    <g id="Page-1" stroke="none" stroke-width="1" fill="none" fill-rule="evenodd">
        <g id="Next-Btn-Copy-3">
            <rect id="Rectangle" fill="#FFFFFF" x="0" y="0" width="89" height="38" rx="19"></rect>
            <g id="Edit" fill-rule="nonzero">
                <use fill="#FFFFFF" xlink:href="#path-1"></use>
                <use fill="#3F8FE8" xlink:href="#path-1"></use>
            </g>
        </g>
        <path d="M74.3331584,13.6666667 C73.4437406,12.7777778 71.9971063,12.7777778 71.1076885,13.6666667 L61.9697441,22.8043836 C61.9654364,22.8086912 61.9629025,22.8140124 61.9591015,22.8185734 C61.9537802,22.8246548 61.9492191,22.8312429 61.9444046,22.837831 C61.9309746,22.8565818 61.9205854,22.8765995 61.9127302,22.898391 C61.9104496,22.9049791 61.9071555,22.910807 61.9053817,22.9173952 C61.9046215,22.9199291 61.9031012,22.9224629 61.902341,22.9249968 L61.0065883,26.6878247 C61.002534,26.7048017 61.0015204,26.7220322 61.0010136,26.7390092 C61.0010136,26.7423033 61,26.745344 61,26.748638 C61.0002534,26.7775244 61.0065883,26.8056506 61.0164707,26.8327632 C61.0187513,26.8390979 61.0212852,26.8446725 61.0240726,26.8507538 C61.0364889,26.8778665 61.0519461,26.9039655 61.0737381,26.925757 C61.0978106,26.949829 61.1261909,26.9683264 61.1568517,26.9809958 C61.1875126,26.9936653 61.2202006,27 61.2528886,27 C61.2724,27 61.2921649,26.9977195 61.3114229,26.9931585 L65.0743444,26.0974281 C65.0811861,26.0959078 65.0872676,26.0921069 65.0938558,26.0898264 C65.1024713,26.0870391 65.1105799,26.0837451 65.118942,26.0799443 C65.1371865,26.0715824 65.1541639,26.0611935 65.1698745,26.0487774 C65.1759559,26.043963 65.1822908,26.0404156 65.1881189,26.0350944 C65.1901461,26.0330673 65.19268,26.0320537 65.1947072,26.0300266 L74.332905,16.8920563 C75.2223228,16.0026606 75.2223228,14.5558089 74.3331584,13.6666667 Z M73.9748573,14.0249588 C74.605305,14.6556442 74.6590248,15.6458888 74.1395643,16.3401748 L71.6595837,13.8602559 C72.3541404,13.3408083 73.3444096,13.3945268 73.9748573,14.0249588 Z M72.7205501,17.7877866 L70.2119358,15.2792348 L70.5702369,14.9209426 L73.0788512,17.4294945 L72.7205501,17.7877866 Z M62.2570945,25.74243 C62.1580169,25.6433549 61.997871,25.6433549 61.8987934,25.74243 L61.7069731,25.9342455 L62.3541449,23.2158875 L63.4746593,23.0914735 L63.3304774,24.3893323 C63.3294638,24.3989611 63.3330113,24.4078297 63.3330113,24.4172051 C63.3330113,24.4268339 63.3294638,24.4354491 63.3304774,24.4450779 C63.3314909,24.4534398 63.3357987,24.4602813 63.3375724,24.4683897 C63.3406132,24.4830863 63.3449209,24.4965159 63.3502422,24.5101989 C63.3568305,24.5266692 63.3646857,24.5416192 63.3743148,24.5560623 C63.38217,24.5677182 63.3900253,24.5781072 63.3996543,24.5882427 C63.4118173,24.6011656 63.4249938,24.6120613 63.4394374,24.6221969 C63.4508402,24.6300519 63.4617362,24.6374002 63.4744059,24.6434816 C63.49113,24.6513366 63.5086143,24.6558976 63.5268588,24.6602052 C63.5364878,24.6624857 63.5443431,24.6678069 63.5542255,24.6690739 C63.5633477,24.6700874 63.5724699,24.6705942 63.5818456,24.6705942 C63.5818456,24.6705942 63.582099,24.6705942 63.582099,24.6705942 C63.582099,24.6705942 63.5823524,24.6705942 63.5823524,24.6705942 L63.5826058,24.6705942 C63.5826058,24.6705942 63.5828592,24.6705942 63.5828592,24.6705942 C63.5919814,24.6705942 63.601357,24.6700874 63.6104793,24.6690739 L64.9083704,24.5248955 L64.7839533,25.645382 L62.0652742,26.2925377 L62.2570945,26.1007222 C62.3559187,26.0019004 62.3559187,25.8415051 62.2570945,25.74243 Z M65.4372066,24.3541112 L71.1076885,18.683517 C71.2067661,18.5844419 71.2067661,18.4243 71.1076885,18.3252249 C71.0086109,18.2261498 70.848465,18.2261498 70.7493874,18.3252249 L65.0789055,23.9958191 L63.8694493,24.1301153 L64.0037489,22.9206892 L69.6747376,17.2503484 C69.7738152,17.1512733 69.7738152,16.9911314 69.6747376,16.8920563 C69.57566,16.7929811 69.4155141,16.7929811 69.3164365,16.8920563 L63.6454478,22.5623971 L62.8388903,22.6520968 L69.8536348,15.6375269 L72.3622491,18.1460788 L65.3475046,25.1606487 L65.4372066,24.3541112 Z M73.4371523,17.0712023 L70.928538,14.5626504 L71.2870924,14.2041049 L73.7957068,16.7126568 L73.4371523,17.0712023 Z" id="Shape" fill="#3F8FE8" fill-rule="nonzero"></path>
    </g>
</svg>