
<svg width="89px" height="38px" viewBox="0 0 89 38" version="1.1" xmlns="http://www.w3.org/2000/svg" xmlns:xlink="http://www.w3.org/1999/xlink">
    <defs>
        <path d="M12.7075195,24.8984375 C12.6990559,24.8942057 12.6757814,24.888916 12.6376953,24.8825684 C12.5996092,24.8762207 12.5583498,24.8677572 12.513916,24.8571777 C12.4694822,24.8465983 12.426107,24.8381348 12.3837891,24.8317871 C12.3414711,24.8254394 12.3139649,24.8201498 12.3012695,24.815918 L12.199707,24.815918 C12.1912434,24.815918 12.1785483,24.8222656 12.1616211,24.8349609 C12.1446939,24.8476563 12.1319987,24.8540039 12.1235352,24.8540039 C12.0896808,24.8540039 12.0547691,24.8328453 12.0187988,24.7905273 C11.9828286,24.7482094 11.9563803,24.7228191 11.9394531,24.7143555 C11.8971352,24.6889647 11.8463545,24.6709799 11.7871094,24.6604004 C11.7278643,24.6498209 11.685547,24.6149092 11.6601562,24.5556641 C11.6728516,24.2255843 11.6728516,23.902915 11.6601562,23.5876465 C11.6474609,23.272378 11.645345,22.9497087 11.6538086,22.6196289 C11.6622722,22.3911121 11.6739094,22.1636567 11.6887207,21.9372559 C11.703532,21.710855 11.7130534,21.4833996 11.7172852,21.2548828 L11.7172852,21.1660156 C11.7172852,21.1617838 11.7151693,21.1480307 11.7109375,21.1247559 C11.7067057,21.101481 11.7035319,21.0782065 11.701416,21.0549316 C11.6993001,21.0316568 11.6961263,21.0094402 11.6918945,20.9882812 C11.6876627,20.9671223 11.6855469,20.9523112 11.6855469,20.9438477 L11.6855469,20.8771973 C11.6855469,20.841227 11.6866048,20.8031415 11.6887207,20.7629395 C11.6908366,20.7227374 11.6918945,20.6846519 11.6918945,20.6486816 L11.6918945,20.5820312 C11.6918945,20.5651041 11.6897787,20.5375978 11.6855469,20.4995117 C11.6813151,20.4614256 11.6749675,20.4212242 11.6665039,20.3789062 C11.6580403,20.3365883 11.6495769,20.2963869 11.6411133,20.2583008 C11.6326497,20.2202147 11.6263021,20.1927084 11.6220703,20.1757812 C11.5755206,19.2320916 11.5395509,18.2958217 11.5141602,17.3669434 C11.4887694,16.438065 11.4612632,15.5017951 11.4316406,14.5581055 L11.4316406,14.4946289 C11.4316406,14.4650064 11.4390461,14.4248049 11.4538574,14.3740234 C11.4686687,14.3232419 11.4887694,14.2735191 11.5141602,14.2248535 C11.5395509,14.1761879 11.5659992,14.1338706 11.5935059,14.0979004 C11.6210125,14.0619302 11.6474608,14.0439453 11.6728516,14.0439453 C11.7574874,14.0439453 11.842122,14.0566405 11.9267578,14.0820312 C12.0113937,14.107422 12.0960282,14.1201172 12.1806641,14.1201172 L12.3139648,14.1201172 C12.3266602,14.1201172 12.3531085,14.1137696 12.3933105,14.1010742 C12.4335126,14.0883788 12.457845,14.0820312 12.4663086,14.0820312 C12.8767924,14.0227862 13.2925597,13.9899903 13.713623,13.9836426 C14.1346864,13.9772949 14.5504537,13.9741211 14.9609375,13.9741211 C15.3756531,13.9741211 15.7818991,13.9931639 16.1796875,14.03125 C16.5774759,14.0693361 16.981606,14.0989582 17.3920898,14.1201172 C17.4217124,14.1370444 17.443929,14.1560871 17.4587402,14.1772461 C17.4735515,14.1984051 17.4873046,14.2206216 17.5,14.2438965 C17.5126954,14.2671713 17.5264485,14.2904458 17.5412598,14.3137207 C17.556071,14.3369956 17.5782876,14.3592121 17.6079102,14.3803711 C17.6121419,14.4142254 17.6174316,14.4724117 17.6237793,14.5549316 C17.630127,14.6374516 17.6364746,14.724202 17.6428223,14.8151855 C17.64917,14.9061691 17.6544596,14.9939774 17.6586914,15.0786133 C17.6629232,15.1632491 17.6650391,15.2203775 17.6650391,15.25 L17.6650391,15.2976074 C17.6650391,15.3251141 17.666097,15.3557941 17.6682129,15.3896484 C17.6703288,15.4235028 17.6713867,15.4584145 17.6713867,15.4943848 L17.6713867,15.5737305 C17.6713867,15.5864258 17.6703288,15.6086424 17.6682129,15.6403809 C17.666097,15.6721193 17.6639811,15.7059731 17.6618652,15.7419434 C17.6597493,15.7779136 17.6576335,15.8117674 17.6555176,15.8435059 C17.6534017,15.8752443 17.6523438,15.8974609 17.6523438,15.9101562 C17.6142576,15.9736331 17.5814617,16.0275877 17.5539551,16.0720215 C17.5264484,16.1164553 17.4841311,16.1534829 17.427002,16.1831055 C17.3698728,16.212728 17.2862961,16.2349446 17.1762695,16.2497559 C17.0662429,16.2645671 16.9054373,16.2740885 16.6938477,16.2783203 C16.6811523,16.2783203 16.6557619,16.2772624 16.6176758,16.2751465 C16.5795897,16.2730306 16.5383303,16.2719727 16.4938965,16.2719727 C16.4494627,16.2719727 16.4060875,16.2709147 16.3637695,16.2687988 C16.3214516,16.2666829 16.2918295,16.265625 16.2749023,16.265625 C16.2495116,16.265625 16.2145998,16.2666829 16.170166,16.2687988 C16.1257322,16.2709147 16.0812991,16.2719727 16.0368652,16.2719727 C15.9924314,16.2719727 15.9532879,16.2730306 15.9194336,16.2751465 C15.8855793,16.2772624 15.8665365,16.2783203 15.8623047,16.2783203 C15.7311191,16.2825521 15.5681976,16.2878418 15.3735352,16.2941895 C15.1788727,16.3005371 14.9905608,16.3079427 14.8085938,16.3164062 C14.5970042,16.3248698 14.3769543,16.3333333 14.1484375,16.3417969 L14.0976562,16.4179688 C14.0934245,16.4264323 14.0860189,16.4666338 14.0754395,16.5385742 C14.06486,16.6105147 14.0532227,16.6951493 14.0405273,16.7924805 C14.027832,16.8898117 14.0151368,16.9881994 14.0024414,17.0876465 C13.989746,17.1870936 13.9791667,17.2685544 13.9707031,17.3320312 L13.9707031,17.4050293 C13.9707031,17.4452313 13.9685873,17.4759114 13.9643555,17.4970703 L13.9643555,17.6208496 C13.9643555,17.6695152 13.9770507,17.7065428 14.0024414,17.7319336 C14.010905,17.7403972 14.0236002,17.7488606 14.0405273,17.7573242 C14.0574545,17.7657878 14.0701497,17.7700195 14.0786133,17.7700195 C14.2775075,17.7996421 14.4827463,17.8186849 14.6943359,17.8271484 C14.9059255,17.835612 15.1090485,17.8398438 15.3037109,17.8398438 L15.3925781,17.8398438 C15.4052735,17.8398438 15.4391273,17.8377279 15.4941406,17.8334961 C15.5491539,17.8292643 15.6073402,17.8260905 15.6687012,17.8239746 C15.7300622,17.8218587 15.7871905,17.8186849 15.8400879,17.8144531 C15.8929853,17.8102213 15.9257812,17.8081055 15.9384766,17.8081055 L15.9638672,17.8081055 C16.1416025,17.8081055 16.3066399,17.8260903 16.4589844,17.8620605 C16.6113289,17.8980308 16.7784822,17.9287108 16.9604492,17.9541016 C16.9985353,17.9625651 17.0419106,17.9678548 17.0905762,17.9699707 C17.1392418,17.9720866 17.1857908,17.9773763 17.2302246,17.9858398 C17.2746584,17.9943034 17.3148598,18.0101724 17.3508301,18.0334473 C17.3868003,18.0567221 17.4132486,18.0916339 17.4301758,18.1381836 C17.4386394,18.1678061 17.4502766,18.2058917 17.4650879,18.2524414 L17.5095215,18.3920898 C17.5243328,18.4386396 17.5380859,18.4798989 17.5507812,18.5158691 C17.5634766,18.5518394 17.5698242,18.5719401 17.5698242,18.5761719 C17.5571288,18.6608077 17.5571288,18.7454423 17.5698242,18.8300781 L17.6079102,19.0839844 C17.6206055,19.1686202 17.6280111,19.2532548 17.630127,19.3378906 C17.6322428,19.4225265 17.6184897,19.507161 17.5888672,19.5917969 C17.5677082,19.6975917 17.5052902,19.7854 17.4016113,19.8552246 C17.2979324,19.9250492 17.1233736,19.9726561 16.8779297,19.9980469 L16.484375,19.9980469 C16.4589842,19.9980469 16.3944504,20.0001627 16.2907715,20.0043945 C16.1870926,20.0086263 16.0760097,20.0128581 15.9575195,20.0170898 C15.8390294,20.0213216 15.7279465,20.0255534 15.6242676,20.0297852 C15.5205887,20.0340169 15.4560548,20.0361328 15.4306641,20.0361328 C15.3798826,20.0361328 15.2941901,20.0350749 15.173584,20.032959 C15.0529779,20.0308431 14.9260261,20.0297852 14.7927246,20.0297852 C14.6594232,20.0297852 14.5335292,20.0287272 14.4150391,20.0266113 C14.2965489,20.0244954 14.2140302,20.0234375 14.1674805,20.0234375 C14.1632487,20.2392589 14.1494956,20.456135 14.1262207,20.6740723 C14.1029458,20.8920096 14.0891927,21.1110015 14.0849609,21.3310547 C14.0849609,21.3606772 14.083903,21.4051104 14.0817871,21.4643555 C14.0796712,21.5236006 14.0786133,21.5574544 14.0786133,21.565918 C14.0828451,21.5870769 14.0881347,21.6262204 14.0944824,21.6833496 C14.1008301,21.7404788 14.1071777,21.8028968 14.1135254,21.8706055 C14.1198731,21.9383141 14.1262207,22.002848 14.1325684,22.064209 C14.138916,22.12557 14.1420898,22.1689452 14.1420898,22.1943359 L14.157959,22.2736816 C14.1643067,22.3054201 14.1717122,22.3361001 14.1801758,22.3657227 C14.1886394,22.3953452 14.1960449,22.4217935 14.2023926,22.4450684 C14.2087403,22.4683432 14.2140299,22.4799805 14.2182617,22.4799805 L14.4404297,22.5180664 L17.5063477,22.4990234 C17.5994471,22.4947916 17.6745603,22.4937337 17.7316895,22.4958496 C17.7888186,22.4979655 17.8343097,22.5043131 17.8681641,22.5148926 C17.9020184,22.5254721 17.9252929,22.5371093 17.9379883,22.5498047 C17.9506837,22.5625001 17.961263,22.5773111 17.9697266,22.5942383 C17.9739584,22.6450198 17.9760742,22.6936847 17.9760742,22.7402344 L17.9760742,22.9560547 C17.9760742,22.9941408 17.9750163,23.0438636 17.9729004,23.1052246 L17.9665527,23.2893066 C17.9644368,23.3506676 17.962321,23.4056801 17.9602051,23.4543457 C17.9580892,23.5030113 17.9570312,23.5336913 17.9570312,23.5463867 C17.9570312,23.5548503 17.9549154,23.5707193 17.9506836,23.5939941 C17.9464518,23.617269 17.9411621,23.6426594 17.9348145,23.670166 C17.9284668,23.6976727 17.9231771,23.723063 17.9189453,23.7463379 C17.9147135,23.7696127 17.9125977,23.7854817 17.9125977,23.7939453 L17.9125977,23.9716797 C17.9041341,24.0351566 17.9041341,24.1018063 17.9125977,24.1716309 C17.9210612,24.2414554 17.924235,24.3112789 17.9221191,24.3811035 C17.9200032,24.4509281 17.9073081,24.5165199 17.8840332,24.5778809 C17.8607583,24.6392418 17.8152673,24.6931964 17.7475586,24.7397461 C17.3836245,24.7736004 17.0228696,24.8148598 16.6652832,24.8635254 C16.3076968,24.912191 15.9448261,24.9365234 15.5766602,24.9365234 C15.3946931,24.9365234 15.2180184,24.92806 15.0466309,24.9111328 C14.8752433,24.8942056 14.6985686,24.8857422 14.5166016,24.8857422 C14.4446611,24.8561196 14.3716638,24.8497721 14.2976074,24.8666992 C14.2235511,24.8836264 14.1516117,24.9026692 14.0817871,24.9238281 C14.0119625,24.9449871 13.9442549,24.9587402 13.8786621,24.9650879 C13.8130693,24.9714356 13.7527672,24.949219 13.6977539,24.8984375 L12.7075195,24.8984375 Z M23.0224609,22.6323242 C23.0139974,22.6323242 23.0002442,22.6365559 22.9812012,22.6450195 C22.9621581,22.6534831 22.948405,22.6619466 22.9399414,22.6704102 C22.8553056,22.755046 22.7812503,22.8343909 22.7177734,22.9084473 C22.6542966,22.9825036 22.5929365,23.0576168 22.5336914,23.1337891 C22.4744463,23.2099613 22.4162601,23.2893062 22.3591309,23.3718262 C22.3020017,23.4543461 22.2416995,23.5463862 22.1782227,23.6479492 C22.1697591,23.6564128 22.1517742,23.6870928 22.1242676,23.7399902 C22.0967609,23.7928876 22.065023,23.850016 22.0290527,23.911377 C21.9930825,23.9727379 21.9602866,24.0288083 21.9306641,24.0795898 C21.9010415,24.1303713 21.8841146,24.1578776 21.8798828,24.1621094 C21.8671874,24.1875001 21.8439129,24.2298174 21.8100586,24.2890625 C21.7762043,24.3483076 21.7402346,24.4096677 21.7021484,24.4731445 C21.6640623,24.5366214 21.6280926,24.5958656 21.5942383,24.6508789 C21.5603839,24.7058922 21.5371094,24.7418619 21.5244141,24.7587891 C21.5159505,24.7672526 21.4990236,24.7820637 21.4736328,24.8032227 C21.4482421,24.8243816 21.4291993,24.8391927 21.4165039,24.8476562 C21.3995767,24.8603516 21.3625491,24.8772785 21.3054199,24.8984375 C21.2482907,24.9195965 21.213379,24.9301758 21.2006836,24.9301758 C21.1964518,24.9301758 21.1837566,24.9291178 21.1625977,24.927002 C21.1414387,24.9248861 21.1171063,24.9217123 21.0895996,24.9174805 C21.062093,24.9132487 21.0356447,24.9100749 21.0102539,24.907959 C20.9848632,24.9058431 20.9700521,24.9047852 20.9658203,24.9047852 C20.9488931,24.8963216 20.9171552,24.888916 20.8706055,24.8825684 C20.8240558,24.8762207 20.7944337,24.8730469 20.7817383,24.8730469 L19.715332,24.8349609 C19.6899413,24.8561199 19.6666668,24.8677572 19.6455078,24.869873 C19.6243489,24.8719889 19.6010743,24.8730469 19.5756836,24.8730469 C19.5714518,24.8730469 19.5672201,24.8741048 19.5629883,24.8762207 C19.5587565,24.8783366 19.5545248,24.8793945 19.550293,24.8793945 L19.5375977,24.8793945 C19.5291341,24.8793945 19.5079754,24.8677573 19.4741211,24.8444824 C19.4402668,24.8212076 19.4191081,24.8053386 19.4106445,24.796875 C19.3133133,24.7418617 19.2255049,24.7027182 19.1472168,24.6794434 C19.0689286,24.6561685 19.0033369,24.6339519 18.9504395,24.612793 C18.8975421,24.591634 18.8562827,24.5630698 18.8266602,24.5270996 C18.7970376,24.4911294 18.7864583,24.435059 18.7949219,24.3588867 C18.7991537,24.312337 18.825602,24.2615563 18.8742676,24.206543 C18.9229332,24.1515297 18.9578449,24.1070965 18.9790039,24.0732422 C18.9832357,24.0690104 18.9906412,24.0552573 19.0012207,24.0319824 C19.0118002,24.0087076 19.0234374,23.9843751 19.0361328,23.9589844 C19.0488282,23.9335936 19.0615234,23.9103191 19.0742188,23.8891602 C19.0869141,23.8680012 19.0974934,23.8531901 19.105957,23.8447266 C19.1609703,23.7812497 19.2117511,23.7241213 19.2583008,23.6733398 C19.3048505,23.6225583 19.3503416,23.5738935 19.3947754,23.5273438 C19.4392092,23.480794 19.4836424,23.4300133 19.5280762,23.375 C19.57251,23.3199867 19.6180011,23.2565108 19.6645508,23.1845703 C19.7999681,22.9687489 19.9332676,22.7719735 20.0644531,22.5942383 C20.1956387,22.416503 20.3374016,22.2324228 20.4897461,22.0419922 C20.5024415,22.0292968 20.5299477,21.995443 20.5722656,21.9404297 C20.6145835,21.8854164 20.6600746,21.8251143 20.7087402,21.7595215 C20.7574058,21.6939287 20.8028969,21.6325686 20.8452148,21.5754395 C20.8875328,21.5183103 20.915039,21.4833985 20.9277344,21.4707031 C20.9319662,21.4664713 20.9457193,21.4463706 20.9689941,21.4104004 C20.992269,21.3744302 21.0176594,21.3352867 21.045166,21.2929688 C21.0726727,21.2506508 21.099121,21.2125653 21.1245117,21.1787109 C21.1499025,21.1448566 21.1668294,21.123698 21.175293,21.1152344 C21.175293,21.1067708 21.1795247,21.0940756 21.1879883,21.0771484 C21.1964519,21.0602213 21.2006836,21.0475261 21.2006836,21.0390625 L21.2006836,21.0263672 C21.1964518,21.0221354 21.1943359,21.0157878 21.1943359,21.0073242 L21.1943359,21.0009766 C21.1943359,20.992513 21.1816408,20.976644 21.15625,20.9533691 C21.1308592,20.9300943 21.1181641,20.9142253 21.1181641,20.9057617 C21.1181641,20.8972981 21.1171061,20.883545 21.1149902,20.864502 C21.1128743,20.8454589 21.1118164,20.8317058 21.1118164,20.8232422 C21.1118164,20.8147786 21.1065267,20.808431 21.0959473,20.8041992 C21.0853678,20.7999674 21.0758464,20.7936198 21.0673828,20.7851562 C20.9996741,20.687825 20.9383141,20.6021325 20.8833008,20.5280762 C20.8282875,20.4540198 20.773275,20.3662114 20.7182617,20.2646484 L20.5913086,20.0742188 C20.481282,19.8753245 20.3627936,19.6880705 20.2358398,19.5124512 C20.1088861,19.3368318 19.9882818,19.1538095 19.8740234,18.9633789 C19.8655599,18.9506835 19.8465171,18.9200035 19.8168945,18.8713379 C19.787272,18.8226723 19.7544761,18.7697757 19.7185059,18.7126465 C19.6825356,18.6555173 19.6497397,18.6026207 19.6201172,18.5539551 C19.5904946,18.5052895 19.5735677,18.4767253 19.5693359,18.4682617 C19.5651041,18.4597981 19.5502931,18.4407554 19.5249023,18.4111328 C19.4995116,18.3815103 19.4730633,18.3508302 19.4455566,18.3190918 C19.41805,18.2873534 19.3926596,18.2577313 19.3693848,18.2302246 C19.3461099,18.202718 19.3323568,18.1847331 19.328125,18.1762695 C19.3196614,18.1720377 19.3080242,18.1582846 19.2932129,18.1350098 C19.2784016,18.1117349 19.2625326,18.0863445 19.2456055,18.0588379 C19.2286783,18.0313312 19.2117514,18.0048829 19.1948242,17.9794922 L19.1567383,17.9223633 C19.1440429,17.9054361 19.1207684,17.8694664 19.0869141,17.8144531 C19.0530597,17.7594398 19.018148,17.7012536 18.9821777,17.6398926 C18.9462075,17.5785316 18.9112957,17.5192874 18.8774414,17.4621582 C18.8435871,17.405029 18.8203126,17.3658855 18.8076172,17.3447266 C18.8033854,17.3320312 18.8044433,17.3076987 18.810791,17.2717285 C18.8171387,17.2357583 18.8245442,17.2114258 18.8330078,17.1987305 C18.8457032,17.1860351 18.8668618,17.1775716 18.8964844,17.1733398 C18.9261069,17.1691081 18.9589028,17.1659343 18.994873,17.1638184 C19.0308433,17.1617025 19.0636392,17.1595866 19.0932617,17.1574707 C19.1228843,17.1553548 19.141927,17.152181 19.1503906,17.1479492 C19.1757814,17.1479492 19.2064614,17.1416016 19.2424316,17.1289062 C19.2784019,17.1162109 19.3133136,17.1035157 19.347168,17.0908203 C19.3810223,17.0781249 19.4117023,17.0654298 19.439209,17.0527344 C19.4667156,17.040039 19.4847005,17.0336914 19.4931641,17.0336914 C19.5016276,17.0294596 19.5259601,17.02417 19.5661621,17.0178223 C19.6063641,17.0114746 19.6497394,17.0040691 19.6962891,16.9956055 C19.7428388,16.9871419 19.786214,16.9797364 19.826416,16.9733887 C19.866618,16.967041 19.8909505,16.9617513 19.8994141,16.9575195 C19.920573,16.9490559 19.9618324,16.9427084 20.0231934,16.9384766 C20.0845543,16.9342448 20.1194661,16.9321289 20.1279297,16.9321289 C20.1448569,16.9321289 20.1808265,16.9289551 20.2358398,16.9226074 C20.2908531,16.9162597 20.3500973,16.9077963 20.4135742,16.8972168 C20.4770511,16.8866373 20.5352374,16.8781739 20.5881348,16.8718262 C20.6410322,16.8654785 20.6738281,16.8623047 20.6865234,16.8623047 C20.6907552,16.8580729 20.7066242,16.8548991 20.7341309,16.8527832 C20.7616375,16.8506673 20.7912596,16.8485514 20.822998,16.8464355 C20.8547365,16.8443197 20.8843586,16.8432617 20.9118652,16.8432617 L21.0039062,16.8432617 C21.0166016,16.8432617 21.0367023,16.8443197 21.064209,16.8464355 C21.0917156,16.8485514 21.1213377,16.8517252 21.1530762,16.855957 C21.1848146,16.8601888 21.2133788,16.8665364 21.2387695,16.875 L21.2958984,16.894043 C21.304362,16.9025066 21.3138834,16.9162597 21.3244629,16.9353027 C21.3350424,16.9543458 21.340332,16.9680989 21.340332,16.9765625 C21.3487956,16.9850261 21.3636067,16.9966633 21.3847656,17.0114746 C21.4059246,17.0262859 21.4207356,17.0379231 21.4291992,17.0463867 C21.4291992,17.0506185 21.4313151,17.0633137 21.4355469,17.0844727 C21.4397787,17.1056316 21.4450683,17.1278482 21.451416,17.151123 C21.4577637,17.1743979 21.4630534,17.1966145 21.4672852,17.2177734 C21.4715169,17.2389324 21.4736328,17.2516276 21.4736328,17.2558594 C21.4778646,17.264323 21.4926757,17.2928871 21.5180664,17.3415527 C21.5434572,17.3902183 21.5720213,17.4473467 21.6037598,17.5129395 C21.6354982,17.5785322 21.6682941,17.645182 21.7021484,17.7128906 C21.7360028,17.7805993 21.763509,17.8334959 21.784668,17.871582 C21.7931316,17.8800456 21.8026529,17.8927408 21.8132324,17.909668 C21.8238119,17.9265951 21.8312174,17.9392903 21.8354492,17.9477539 L21.8481445,17.9604492 C21.8523763,17.964681 21.8566081,17.9678548 21.8608398,17.9699707 C21.8650716,17.9720866 21.8693034,17.9752604 21.8735352,17.9794922 C21.8777669,17.9964194 21.8841145,18.0133463 21.8925781,18.0302734 C21.9010417,18.0429688 21.9063314,18.0546061 21.9084473,18.0651855 C21.9105632,18.075765 21.9158528,18.0831706 21.9243164,18.0874023 C21.9370118,18.1127931 21.9624022,18.1593421 22.0004883,18.2270508 C22.0385744,18.2947595 22.0798338,18.3677568 22.1242676,18.4460449 C22.1687014,18.5243331 22.2120766,18.5973304 22.2543945,18.6650391 C22.2967125,18.7327477 22.3284504,18.7792967 22.3496094,18.8046875 C22.358073,18.8258465 22.3781737,18.8586424 22.4099121,18.9030762 C22.4416505,18.94751 22.4617513,18.9739583 22.4702148,18.9824219 C22.4786784,18.9908855 22.4924315,19.0025227 22.5114746,19.017334 C22.5305177,19.0321453 22.5442708,19.0437825 22.5527344,19.0522461 L22.578125,19.0522461 C22.5865886,19.0522461 22.6003417,19.0480144 22.6193848,19.0395508 C22.6384278,19.0310872 22.6521809,19.0226237 22.6606445,19.0141602 L23.3334961,18.0048828 C23.3419597,17.9921874 23.3588866,17.9646812 23.3842773,17.9223633 C23.4096681,17.8800454 23.4371743,17.8334963 23.4667969,17.7827148 C23.4964194,17.7319333 23.5228677,17.6843264 23.5461426,17.6398926 C23.5694174,17.5954588 23.5852864,17.5690105 23.59375,17.5605469 C23.5979818,17.5520833 23.609619,17.5351564 23.6286621,17.5097656 C23.6477052,17.4843749 23.6688638,17.4579266 23.6921387,17.4304199 C23.7154135,17.4029133 23.738688,17.376465 23.7619629,17.3510742 C23.7852377,17.3256835 23.8032226,17.3066407 23.815918,17.2939453 C23.8286133,17.2854817 23.8444823,17.266439 23.8635254,17.2368164 C23.8825685,17.2071939 23.9026692,17.1754559 23.9238281,17.1416016 C23.9449871,17.1077472 23.9650878,17.0770672 23.9841309,17.0495605 C24.0031739,17.0220539 24.016927,17.0040691 24.0253906,16.9956055 C24.0550132,16.9659829 24.0804035,16.9448243 24.1015625,16.9321289 C24.1227215,16.9194335 24.1565753,16.9130859 24.203125,16.9130859 C24.3300788,16.9088541 24.466552,16.9077962 24.6125488,16.9099121 C24.7585457,16.912028 24.9066561,16.9162597 25.0568848,16.9226074 C25.2071134,16.9289551 25.3552239,16.9342448 25.5012207,16.9384766 C25.6472175,16.9427084 25.7836908,16.9427084 25.9106445,16.9384766 C25.9318035,16.9342448 25.9688311,16.930013 26.0217285,16.9257812 C26.0746259,16.9215495 26.1116535,16.9173177 26.1328125,16.9130859 C26.1370443,16.9088541 26.142334,16.9046224 26.1486816,16.9003906 C26.1550293,16.8961588 26.1687824,16.894043 26.1899414,16.894043 C26.2111004,16.894043 26.2396645,16.9003906 26.2756348,16.9130859 C26.311605,16.9257813 26.3613278,16.9490558 26.4248047,16.9829102 C26.4332683,16.9871419 26.4491373,16.9913737 26.4724121,16.9956055 C26.495687,16.9998373 26.5200194,17.0030111 26.5454102,17.005127 C26.5708009,17.0072428 26.5930175,17.0093587 26.6120605,17.0114746 C26.6311036,17.0135905 26.6448567,17.0146484 26.6533203,17.0146484 C26.6660157,17.0146484 26.6977537,17.0135905 26.7485352,17.0114746 C26.7993167,17.0093587 26.8289388,17.0083008 26.8374023,17.0083008 C26.8500977,17.0083008 26.8691405,17.0093587 26.8945312,17.0114746 C26.919922,17.0135905 26.9463703,17.0157064 26.973877,17.0178223 C27.0013836,17.0199382 27.026774,17.023112 27.0500488,17.0273438 C27.0733237,17.0315755 27.0891927,17.0358073 27.0976562,17.0400391 L27.1230469,17.0527344 C27.1272787,17.0569662 27.1336263,17.0611979 27.1420898,17.0654297 L27.1420898,17.1035156 C27.1420898,17.1119792 27.138916,17.1246744 27.1325684,17.1416016 C27.1262207,17.1585287 27.1188151,17.1712239 27.1103516,17.1796875 C27.0214839,17.3193366 26.9315597,17.4462885 26.8405762,17.5605469 C26.7495926,17.6748053 26.6554367,17.7858881 26.5581055,17.8937988 C26.4607743,18.0017095 26.3613286,18.1096186 26.2597656,18.2175293 C26.1582026,18.32544 26.0545253,18.4407546 25.9487305,18.5634766 C25.9360351,18.5804037 25.8968916,18.6269527 25.8312988,18.703125 C25.7657061,18.7792973 25.6948246,18.861816 25.6186523,18.9506836 L25.4091797,19.1950684 C25.3457028,19.2691247 25.3076173,19.3146158 25.2949219,19.331543 C25.252604,19.3780927 25.1785487,19.4606114 25.0727539,19.5791016 C24.9669591,19.6975917 24.8558762,19.8234857 24.739502,19.9567871 C24.6231277,20.0900886 24.5131027,20.2149245 24.4094238,20.3312988 C24.3057449,20.4476731 24.2348635,20.5291339 24.1967773,20.5756836 L24.1967773,20.6010742 C24.2052409,20.6137696 24.218994,20.6306965 24.2380371,20.6518555 C24.2570802,20.6730144 24.2771809,20.695231 24.2983398,20.7185059 C24.3194988,20.7417807 24.3385416,20.7629394 24.3554688,20.7819824 C24.3723959,20.8010255 24.3850911,20.8126627 24.3935547,20.8168945 C24.4062501,20.8380535 24.4358722,20.8846025 24.4824219,20.956543 C24.5289716,21.0284834 24.5786944,21.1078283 24.6315918,21.1945801 C24.6844892,21.2813318 24.734212,21.3617347 24.7807617,21.435791 C24.8273114,21.5098474 24.8569335,21.5553385 24.8696289,21.5722656 C24.8780925,21.584961 24.8918456,21.6050617 24.9108887,21.6325684 C24.9299317,21.660075 24.941569,21.6780599 24.9458008,21.6865234 C24.9542644,21.694987 24.9743651,21.7119139 25.0061035,21.7373047 C25.037842,21.7626954 25.0579427,21.7796224 25.0664062,21.7880859 C25.0664062,21.7965495 25.0738118,21.8155923 25.088623,21.8452148 C25.1034343,21.8748374 25.1150716,21.8938802 25.1235352,21.9023438 C25.1785485,22.0208339 25.2536616,22.1393223 25.348877,22.2578125 C25.4440923,22.3763027 25.5297848,22.4842118 25.605957,22.581543 C25.6144206,22.5900066 25.6366372,22.6079914 25.6726074,22.635498 C25.7085777,22.6630047 25.7307942,22.6767578 25.7392578,22.6767578 C25.7392578,22.6852214 25.7456054,22.7053221 25.7583008,22.7370605 C25.7709962,22.768799 25.7815755,22.7888997 25.7900391,22.7973633 C25.7900391,22.8058269 25.7942708,22.8185221 25.8027344,22.8354492 L25.8154297,22.8608398 L27.0341797,24.5112305 C27.0468751,24.5196941 27.0690916,24.5408527 27.1008301,24.574707 C27.1325685,24.6085614 27.1484375,24.6360676 27.1484375,24.6572266 C27.1569011,24.6783855 27.1547852,24.7164711 27.1420898,24.7714844 C27.1293945,24.8264977 27.1166993,24.8603515 27.1040039,24.8730469 C27.0786132,24.8730469 27.0352379,24.8762207 26.973877,24.8825684 C26.912516,24.888916 26.8469242,24.8952636 26.7770996,24.9016113 C26.707275,24.907959 26.6416832,24.9143066 26.5803223,24.9206543 C26.5189613,24.927002 26.4755861,24.9322916 26.4501953,24.9365234 C26.4459635,24.9365234 26.4343263,24.9386393 26.4152832,24.9428711 C26.3962401,24.9471029 26.3761394,24.9513346 26.3549805,24.9555664 C26.3338215,24.9597982 26.3147787,24.962972 26.2978516,24.9650879 C26.2809244,24.9672038 26.2703451,24.9682617 26.2661133,24.9682617 C26.1306959,24.9936525 25.9931648,25.0084635 25.8535156,25.0126953 C25.7138665,25.0169271 25.5721036,25.0253906 25.4282227,25.0380859 C25.4197591,25.0380859 25.3943687,25.0412597 25.3520508,25.0476074 C25.3097329,25.0539551 25.2631838,25.0603027 25.2124023,25.0666504 C25.1616208,25.0729981 25.1150718,25.0782877 25.0727539,25.0825195 C25.030436,25.0867513 25.0050456,25.0888672 24.996582,25.0888672 C24.9881184,25.0888672 24.9722495,25.0899251 24.9489746,25.092041 C24.9256998,25.0941569 24.9077149,25.0952148 24.8950195,25.0952148 C24.763834,25.0952148 24.6601566,25.0486658 24.5839844,24.9555664 C24.5374347,24.9005531 24.4982912,24.8423668 24.4665527,24.7810059 C24.4348143,24.7196449 24.4020184,24.6593427 24.3681641,24.6000977 C24.3597005,24.5916341 24.3417156,24.5651858 24.314209,24.520752 C24.2867023,24.4763181 24.2623699,24.4435222 24.2412109,24.4223633 C24.2412109,24.4138997 24.2274578,24.3948569 24.1999512,24.3652344 C24.1724445,24.3356118 24.1586914,24.3165691 24.1586914,24.3081055 C24.1544596,24.3038737 24.1438803,24.2880047 24.1269531,24.260498 C24.110026,24.2329914 24.0920411,24.2033693 24.072998,24.1716309 C24.053955,24.1398924 24.0349122,24.1102703 24.0158691,24.0827637 C23.9968261,24.055257 23.9851888,24.0372722 23.980957,24.0288086 C23.8878576,23.8891595 23.788412,23.7537441 23.6826172,23.6225586 C23.5768224,23.491373 23.4816085,23.351726 23.3969727,23.2036133 C23.3927409,23.1951497 23.3811036,23.1708173 23.3620605,23.1306152 C23.3430175,23.0904132 23.3208009,23.0480959 23.2954102,23.0036621 C23.2700194,22.9592283 23.245687,22.9179689 23.2224121,22.8798828 C23.1991373,22.8417967 23.1832683,22.8164063 23.1748047,22.8037109 C23.1663411,22.7910156 23.152588,22.7666831 23.1335449,22.7307129 C23.1145019,22.6947427 23.1028646,22.6725261 23.0986328,22.6640625 L23.0605469,22.6259766 L23.0351562,22.6259766 L23.0224609,22.6323242 Z M35.965332,19.515625 C35.965332,19.5494793 35.9589844,19.5812173 35.9462891,19.6108398 C35.9335937,19.6404624 35.9272461,19.6722004 35.9272461,19.7060547 C35.9272461,19.8372402 35.9335937,19.96525 35.9462891,20.0900879 C35.9589844,20.2149258 35.965332,20.3429355 35.965332,20.4741211 L35.965332,20.734375 C35.9526367,21.0052097 35.9335939,21.2548817 35.9082031,21.4833984 C35.8828124,21.7119152 35.8447268,21.933023 35.7939453,22.1467285 C35.7431638,22.360434 35.6765141,22.5730784 35.5939941,22.784668 C35.5114742,22.9962576 35.4088548,23.2184233 35.2861328,23.4511719 C35.2776692,23.4596355 35.264974,23.481852 35.2480469,23.5178223 C35.2311197,23.5537925 35.2131349,23.5918781 35.1940918,23.6320801 C35.1750487,23.6722821 35.1570639,23.7103677 35.1401367,23.7463379 C35.1232096,23.7823081 35.1126302,23.8045247 35.1083984,23.8129883 C35.0999349,23.8256837 35.0808921,23.851074 35.0512695,23.8891602 C35.021647,23.9272463 35.0004883,23.9505208 34.987793,23.9589844 C34.966634,23.9801433 34.9338381,24.0108234 34.8894043,24.0510254 C34.8449705,24.0912274 34.7984215,24.1314288 34.7497559,24.1716309 C34.7010903,24.2118329 34.6566571,24.2488605 34.6164551,24.2827148 C34.5762531,24.3165692 34.5519206,24.335612 34.543457,24.3398438 C34.5349934,24.3525391 34.5021976,24.3789874 34.4450684,24.4191895 C34.3879392,24.4593915 34.3424481,24.4900715 34.3085938,24.5112305 C34.2916666,24.5196941 34.2683921,24.5323892 34.2387695,24.5493164 C34.209147,24.5662436 34.1795249,24.5821126 34.1499023,24.5969238 C34.1202798,24.6117351 34.0917156,24.6244303 34.064209,24.6350098 C34.0367023,24.6455892 34.0187175,24.6508789 34.0102539,24.6508789 C33.9848632,24.6635743 33.9372562,24.6815591 33.8674316,24.704834 C33.7976071,24.7281088 33.7235518,24.7503254 33.6452637,24.7714844 C33.5669755,24.7926433 33.4918623,24.812744 33.4199219,24.8317871 C33.3479814,24.8508302 33.2972007,24.8624674 33.2675781,24.8666992 C33.250651,24.8751628 33.2252606,24.8825683 33.1914062,24.888916 C33.1575519,24.8952637 33.1215822,24.9026692 33.0834961,24.9111328 C33.04541,24.9195964 33.0083823,24.9270019 32.9724121,24.9333496 C32.9364419,24.9396973 32.9121094,24.944987 32.8994141,24.9492188 L32.1281738,24.9492188 C31.9948724,24.9492188 31.8541674,24.9280601 31.7060547,24.8857422 C31.3759749,24.8264971 31.0607111,24.7513839 30.7602539,24.6604004 C30.4597967,24.5694169 30.188966,24.4562181 29.9477539,24.3208008 C29.9435221,24.3292644 29.9392904,24.3440754 29.9350586,24.3652344 C29.9308268,24.3863933 29.9265951,24.4107258 29.9223633,24.4382324 C29.9181315,24.4657391 29.9149577,24.4921874 29.9128418,24.5175781 C29.9107259,24.5429689 29.909668,24.5598958 29.909668,24.5683594 L29.909668,24.6191406 C29.909668,24.8180348 29.9160156,25.0158682 29.9287109,25.2126465 C29.9414063,25.4094248 29.9477539,25.6072581 29.9477539,25.8061523 L29.9477539,26.0664062 C29.9435221,26.112956 29.9392904,26.2007643 29.9350586,26.329834 C29.9308268,26.4589036 29.9265951,26.593261 29.9223633,26.7329102 C29.9181315,26.8725593 29.9149577,27.0026849 29.9128418,27.123291 C29.9107259,27.2438971 29.909668,27.3211261 29.909668,27.3549805 C29.9012044,27.405762 29.8885092,27.4576006 29.871582,27.510498 C29.8546549,27.5633954 29.8461914,27.5940755 29.8461914,27.6025391 L29.8081055,27.640625 L29.6938477,27.6533203 C29.6599933,27.6575521 29.6282554,27.6617838 29.5986328,27.6660156 C29.5690103,27.6702474 29.5436199,27.6744791 29.5224609,27.6787109 C29.37858,27.6871745 29.2526861,27.6935221 29.1447754,27.6977539 C29.0368647,27.7019857 28.9215501,27.7041016 28.7988281,27.7041016 C28.6930333,27.7041016 28.5967615,27.7072754 28.5100098,27.713623 C28.423258,27.7199707 28.3386235,27.7252604 28.2561035,27.7294922 C28.1735836,27.733724 28.088949,27.7347819 28.0021973,27.732666 C27.9154455,27.7305501 27.8212896,27.7210287 27.7197266,27.7041016 C27.6223953,27.6490883 27.5673829,27.5877282 27.5546875,27.5200195 C27.5546875,27.5115559 27.5536296,27.4925132 27.5515137,27.4628906 C27.5493978,27.4332681 27.5483398,27.4004722 27.5483398,27.364502 C27.5483398,27.3285317 27.5472819,27.2946779 27.545166,27.2629395 C27.5430501,27.231201 27.5419922,27.2089844 27.5419922,27.1962891 C27.5419922,27.1751301 27.5430501,27.1476239 27.545166,27.1137695 C27.5472819,27.0799152 27.5483398,27.0450034 27.5483398,27.0090332 C27.5483398,26.973063 27.5493978,26.941325 27.5515137,26.9138184 C27.5536296,26.8863117 27.5546875,26.8704427 27.5546875,26.8662109 C27.5631511,26.641926 27.5705566,26.4017754 27.5769043,26.145752 C27.583252,25.8897285 27.5895996,25.6305352 27.5959473,25.3681641 C27.602295,25.105793 27.6097005,24.8465996 27.6181641,24.5905762 C27.6266276,24.3345528 27.6350911,24.0944022 27.6435547,23.8701172 C27.6520183,23.628905 27.6615397,23.3718275 27.6721191,23.098877 C27.6826986,22.8259264 27.6879883,22.5688489 27.6879883,22.3276367 L27.6879883,22.2006836 C27.6879883,22.1372067 27.6869303,22.0642094 27.6848145,21.9816895 C27.6826986,21.8991695 27.6805827,21.8103032 27.6784668,21.7150879 C27.6763509,21.6198726 27.674235,21.5299483 27.6721191,21.4453125 C27.6700032,21.3606767 27.6689453,21.2866214 27.6689453,21.2231445 L27.6689453,21.0961914 C27.6689453,21.0919596 27.6700032,21.070801 27.6721191,21.0327148 C27.674235,20.9946287 27.675293,20.9491376 27.675293,20.8962402 C27.675293,20.8433428 27.6763509,20.7904462 27.6784668,20.7375488 C27.6805827,20.6846514 27.6816406,20.6412762 27.6816406,20.6074219 C27.6816406,20.5735675 27.6805827,20.5291344 27.6784668,20.4741211 C27.6763509,20.4191078 27.675293,20.3640953 27.675293,20.309082 C27.675293,20.2540687 27.674235,20.2054039 27.6721191,20.1630859 C27.6700032,20.120768 27.6689453,20.0953776 27.6689453,20.0869141 C27.6689453,20.0742187 27.6721191,20.0445966 27.6784668,19.9980469 C27.6848145,19.9514972 27.6911621,19.9028323 27.6975098,19.8520508 C27.7038575,19.8012693 27.710205,19.7536623 27.7165527,19.7092285 C27.7229004,19.6647947 27.7260742,19.6362305 27.7260742,19.6235352 C27.7218424,19.6023762 27.7207845,19.557943 27.7229004,19.4902344 C27.7250163,19.4225257 27.7271322,19.3505863 27.729248,19.2744141 C27.7313639,19.1982418 27.7345377,19.1252445 27.7387695,19.0554199 C27.7430013,18.9855954 27.7451172,18.9379884 27.7451172,18.9125977 C27.7451172,18.8914387 27.7461751,18.8343104 27.748291,18.7412109 C27.7504069,18.6481115 27.7525228,18.5486659 27.7546387,18.4428711 C27.7567546,18.3370763 27.7588704,18.2376307 27.7609863,18.1445312 C27.7631022,18.0514318 27.7641602,17.9943035 27.7641602,17.9731445 C27.7641602,17.9689127 27.7631022,17.9456382 27.7609863,17.9033203 C27.7588704,17.8610024 27.7578125,17.8123375 27.7578125,17.7573242 C27.7578125,17.7023109 27.7567546,17.6483564 27.7546387,17.595459 C27.7525228,17.5425616 27.7514648,17.4991864 27.7514648,17.465332 C27.7514648,17.4484049 27.7525228,17.4060876 27.7546387,17.3383789 C27.7567546,17.2706702 27.7578125,17.1987308 27.7578125,17.1225586 C27.7578125,17.0463863 27.7588704,16.9755049 27.7609863,16.9099121 C27.7631022,16.8443193 27.7641602,16.8009441 27.7641602,16.7797852 C27.7726237,16.6909175 27.8234045,16.6274416 27.9165039,16.5893555 C28.0096033,16.5512693 28.1132807,16.5279948 28.2275391,16.5195312 C28.3417974,16.5110677 28.4486486,16.5089518 28.5480957,16.5131836 C28.6475428,16.5174154 28.7057291,16.5152995 28.7226562,16.5068359 L28.9130859,16.5068359 C28.9807946,16.5068359 29.0442705,16.4941408 29.1035156,16.46875 L29.909668,16.46875 L29.9731445,16.5385742 L30.0493164,17.1606445 C30.2228199,17.0040682 30.4069001,16.8802902 30.6015625,16.7893066 C30.7962249,16.6983231 30.9834789,16.6284996 31.1633301,16.579834 C31.3431812,16.5311684 31.5092766,16.4994304 31.6616211,16.4846191 C31.8139656,16.4698079 31.9345699,16.4581706 32.0234375,16.449707 L32.2265625,16.449707 C32.2900394,16.4539388 32.3693843,16.4613443 32.4645996,16.4719238 C32.5598149,16.4825033 32.6560868,16.4951985 32.753418,16.5100098 C32.8507492,16.524821 32.9396155,16.5375162 33.0200195,16.5480957 C33.1004236,16.5586752 33.155436,16.5660807 33.1850586,16.5703125 C33.2146811,16.5787761 33.2612302,16.5893554 33.324707,16.6020508 C33.3881839,16.6147462 33.4548336,16.6295572 33.5246582,16.6464844 C33.5944828,16.6634115 33.6600746,16.6792805 33.7214355,16.6940918 C33.7827965,16.7089031 33.8240559,16.7205403 33.8452148,16.7290039 C33.8579102,16.7332357 33.8854165,16.744873 33.9277344,16.763916 C33.9700523,16.7829591 34.0144854,16.8041177 34.0610352,16.8273926 C34.1075849,16.8506674 34.1509601,16.8739419 34.1911621,16.8972168 C34.2313641,16.9204917 34.2599283,16.9384765 34.2768555,16.9511719 C34.2980144,16.9638673 34.3318683,16.9871418 34.378418,17.0209961 C34.4249677,17.0548504 34.4736326,17.0908201 34.5244141,17.1289062 C34.5751956,17.1669924 34.6228025,17.20402 34.6672363,17.2399902 C34.7116701,17.2759605 34.7423502,17.3024088 34.7592773,17.3193359 C34.7888999,17.3489585 34.818522,17.3764647 34.8481445,17.4018555 C34.8735353,17.4230144 34.8978677,17.445231 34.9211426,17.4685059 C34.9444174,17.4917807 34.9645181,17.5097656 34.9814453,17.5224609 C35.0830083,17.6578783 35.1792801,17.7795405 35.2702637,17.8874512 C35.3612472,17.9953619 35.4448238,18.1297192 35.5209961,18.2905273 C35.5675458,18.3878586 35.6162107,18.490478 35.6669922,18.5983887 C35.7177737,18.7062994 35.7558592,18.8110346 35.78125,18.9125977 C35.7854818,18.9210612 35.7928873,18.9485675 35.8034668,18.9951172 C35.8140463,19.0416669 35.8246256,19.0924476 35.8352051,19.1474609 C35.8457846,19.2024742 35.8563639,19.253255 35.8669434,19.2998047 C35.8775228,19.3463544 35.8849284,19.3738606 35.8891602,19.3823242 C35.8976237,19.3907878 35.9103189,19.4098306 35.9272461,19.4394531 C35.9441733,19.4690757 35.9568684,19.4881184 35.965332,19.496582 L35.965332,19.515625 Z M33.0390625,19.2426758 C33.0390625,19.238444 33.0284832,19.2236329 33.0073242,19.1982422 C32.9861653,19.1728514 32.9607749,19.1453452 32.9311523,19.1157227 C32.9015298,19.0861001 32.8697918,19.0554201 32.8359375,19.0236816 C32.8020832,18.9919432 32.7745769,18.9676108 32.753418,18.9506836 C32.7449544,18.94222 32.7216799,18.9295248 32.6835938,18.9125977 C32.6455076,18.8956705 32.6222331,18.8829753 32.6137695,18.8745117 C32.6053059,18.8660481 32.5852052,18.8533529 32.5534668,18.8364258 C32.5217284,18.8194986 32.5016276,18.8068034 32.4931641,18.7983398 C32.4804687,18.7898763 32.4561362,18.7771811 32.420166,18.7602539 C32.3841958,18.7433267 32.3619792,18.7348633 32.3535156,18.7348633 C32.2815752,18.7052407 32.2191572,18.6904297 32.1662598,18.6904297 L31.9599609,18.6904297 C31.7526031,18.6904297 31.5463064,18.7242835 31.3410645,18.7919922 C31.1358225,18.8597009 30.9231782,18.9676099 30.703125,19.1157227 C30.6650389,19.149577 30.6237795,19.181315 30.5793457,19.2109375 C30.5349119,19.24056 30.4957684,19.272298 30.4619141,19.3061523 C30.4619141,19.3103841 30.4513347,19.3251952 30.4301758,19.3505859 C30.4090168,19.3759767 30.3846844,19.4045409 30.3571777,19.4362793 C30.3296711,19.4680177 30.3042807,19.4976398 30.2810059,19.5251465 C30.257731,19.5526531 30.2439779,19.5685221 30.2397461,19.5727539 C30.2312825,19.5939129 30.2154135,19.6245929 30.1921387,19.6647949 C30.1688638,19.7049969 30.1455893,19.7483722 30.1223145,19.7949219 C30.0990396,19.8414716 30.0757651,19.8859047 30.0524902,19.9282227 C30.0292154,19.9705406 30.0133464,20.0001627 30.0048828,20.0170898 C29.9921874,20.0509442 29.982666,20.0773925 29.9763184,20.0964355 C29.9699707,20.1154786 29.9667969,20.1419269 29.9667969,20.1757812 C29.9667969,20.1884766 29.9583334,20.2180987 29.9414062,20.2646484 C29.9287109,20.3069664 29.910726,20.3672685 29.8874512,20.4455566 C29.8641763,20.5238448 29.8356121,20.6370435 29.8017578,20.7851562 C29.8017578,20.7936198 29.7975261,20.8242999 29.7890625,20.8771973 C29.7805989,20.9300947 29.7721355,20.9734699 29.7636719,21.0073242 C29.7594401,21.0284832 29.7562663,21.0644529 29.7541504,21.1152344 C29.7520345,21.1660159 29.7509766,21.2167966 29.7509766,21.2675781 L29.7509766,21.4643555 C29.7509766,21.4770508 29.7520345,21.5024412 29.7541504,21.5405273 C29.7562663,21.5786135 29.7594401,21.6188149 29.7636719,21.6611328 C29.7679037,21.7034507 29.7721354,21.7436522 29.7763672,21.7817383 C29.780599,21.8198244 29.7848307,21.8473306 29.7890625,21.8642578 C29.7890625,21.8727214 29.7932942,21.8854166 29.8017578,21.9023438 C29.8102214,21.9192709 29.8186849,21.9319661 29.8271484,21.9404297 C29.8313802,21.9488933 29.8440754,21.9647623 29.8652344,21.9880371 C29.8863933,22.011312 29.9086099,22.0367023 29.9318848,22.064209 C29.9551596,22.0917156 29.9784341,22.1181639 30.001709,22.1435547 C30.0249838,22.1689454 30.0408528,22.1879882 30.0493164,22.2006836 C30.1085615,22.2641605 30.1709795,22.3128254 30.2365723,22.3466797 C30.302165,22.380534 30.3709306,22.4090982 30.4428711,22.432373 C30.5148116,22.4556479 30.5899247,22.4778645 30.6682129,22.4990234 C30.746501,22.5201824 30.825846,22.5476886 30.90625,22.581543 C30.9147136,22.581543 30.9358722,22.5857747 30.9697266,22.5942383 C30.9866537,22.5984701 31.0014648,22.6027018 31.0141602,22.6069336 L31.8837891,22.6069336 C31.904948,22.6450197 31.9229329,22.6672363 31.9377441,22.673584 C31.9525554,22.6799317 31.9768879,22.6831055 32.0107422,22.6831055 C32.0869144,22.6831055 32.1694331,22.674642 32.2583008,22.6577148 C32.3471684,22.6407877 32.4339188,22.6143394 32.5185547,22.5783691 C32.6031905,22.5423989 32.6835934,22.5000816 32.7597656,22.451416 C32.8359379,22.4027504 32.8994138,22.34668 32.9501953,22.2832031 C32.9544271,22.2705077 32.971354,22.2440594 33.0009766,22.2038574 C33.0305991,22.1636554 33.0623371,22.1181643 33.0961914,22.0673828 C33.1300457,22.0166013 33.1638996,21.9668785 33.1977539,21.9182129 C33.2316082,21.8695473 33.2569986,21.8346355 33.2739258,21.8134766 C33.2739258,21.805013 33.2802734,21.7912599 33.2929688,21.7722168 C33.3056641,21.7531737 33.3120117,21.7394206 33.3120117,21.730957 C33.3839522,21.6040033 33.4506019,21.4781093 33.5119629,21.3532715 C33.5733239,21.2284336 33.6145832,21.0877286 33.6357422,20.9311523 C33.6442058,20.8888344 33.6505534,20.8433433 33.6547852,20.7946777 C33.6590169,20.7460121 33.6611328,20.7047528 33.6611328,20.6708984 C33.6611328,20.6582031 33.6569011,20.627523 33.6484375,20.5788574 C33.6399739,20.5301918 33.6315105,20.4995118 33.6230469,20.4868164 L33.565918,20.3154297 C33.5405272,20.2392574 33.5151368,20.1620284 33.4897461,20.0837402 C33.4643553,20.0054521 33.4400229,19.9335127 33.416748,19.8679199 C33.3934732,19.8023271 33.3797201,19.7610678 33.3754883,19.7441406 L33.0390625,19.2426758 Z M39.862793,24.8222656 C39.8331704,24.813802 39.7887373,24.8042807 39.7294922,24.7937012 C39.6702471,24.7831217 39.5961919,24.7693686 39.5073242,24.7524414 C39.5030924,24.7524414 39.4840496,24.7492676 39.4501953,24.7429199 C39.416341,24.7365722 39.3750816,24.7259929 39.326416,24.7111816 C39.2777504,24.6963704 39.2269697,24.6762697 39.1740723,24.6508789 C39.1211749,24.6254882 39.0735679,24.5937502 39.03125,24.5556641 C39.0227864,24.5514323 39.0048016,24.5440267 38.9772949,24.5334473 C38.9497883,24.5228678 38.9191082,24.5101726 38.8852539,24.4953613 C38.8513996,24.4805501 38.8207195,24.4678549 38.7932129,24.4572754 C38.7657062,24.4466959 38.7477214,24.4392904 38.7392578,24.4350586 C38.6630856,24.405436 38.5900882,24.3652346 38.5202637,24.3144531 C38.4504391,24.2636716 38.3837894,24.210775 38.3203125,24.1557617 C38.2568356,24.1007484 38.1954756,24.044678 38.1362305,23.9875488 C38.0769854,23.9304196 38.0219729,23.8764651 37.9711914,23.8256836 C37.7680654,23.635253 37.5861011,23.4342458 37.425293,23.2226562 C37.2644849,23.0110667 37.1269537,22.7783216 37.0126953,22.5244141 C36.9195959,22.321288 36.8455406,22.1361499 36.7905273,21.9689941 C36.735514,21.8018384 36.6931968,21.6368009 36.6635742,21.473877 C36.6339517,21.310953 36.613851,21.1427418 36.6032715,20.9692383 C36.592692,20.7957348 36.5874023,20.5968436 36.5874023,20.3725586 L36.5874023,19.8964844 C36.6424156,19.6552722 36.7058916,19.4278168 36.777832,19.2141113 C36.8497725,19.0004058 36.9375809,18.7962249 37.0412598,18.6015625 C37.1449387,18.4069001 37.264485,18.220704 37.3999023,18.0429688 C37.5353197,17.8652335 37.6940095,17.6938485 37.8759766,17.5288086 C38.0071621,17.4018548 38.1425774,17.2918299 38.2822266,17.1987305 C38.4218757,17.105631 38.5721021,17.0209965 38.7329102,16.9448242 C38.7456055,16.9405924 38.7635904,16.932129 38.7868652,16.9194336 C38.8101401,16.9067382 38.8355305,16.895101 38.8630371,16.8845215 C38.8905438,16.873942 38.9148762,16.8644206 38.9360352,16.855957 C38.9571941,16.8474934 38.9720052,16.8411459 38.9804688,16.8369141 C38.9931641,16.8369141 39.0249021,16.8337403 39.0756836,16.8273926 C39.1264651,16.8210449 39.1560872,16.8178711 39.1645508,16.8178711 C39.1772462,16.8094075 39.2026365,16.7914227 39.2407227,16.763916 C39.2788088,16.7364094 39.3020833,16.7184245 39.3105469,16.7099609 C39.3147787,16.7099609 39.3285318,16.7078451 39.3518066,16.7036133 C39.3750815,16.6993815 39.3994139,16.6940918 39.4248047,16.6877441 C39.4501954,16.6813965 39.4734699,16.6761068 39.4946289,16.671875 C39.5157879,16.6676432 39.5284831,16.6634115 39.5327148,16.6591797 L39.8374023,16.5830078 C39.905111,16.5660806 39.9696449,16.5502117 40.0310059,16.5354004 C40.0923668,16.5205891 40.1315103,16.5131836 40.1484375,16.5131836 C40.1822918,16.5004882 40.2436519,16.488851 40.3325195,16.4782715 C40.4213872,16.467692 40.5166011,16.4581706 40.6181641,16.449707 C40.7197271,16.4412434 40.8159989,16.43278 40.9069824,16.4243164 C40.9979659,16.4158528 41.0646157,16.4095052 41.1069336,16.4052734 L41.1831055,16.4052734 C41.2042644,16.4052734 41.226481,16.4063314 41.2497559,16.4084473 C41.2730307,16.4105632 41.2910156,16.4116211 41.3037109,16.4116211 C41.3968104,16.4158529 41.4814449,16.4200846 41.5576172,16.4243164 C41.6337894,16.4285482 41.7141923,16.4412434 41.7988281,16.4624023 C41.9173183,16.4920249 42.0379226,16.5195311 42.1606445,16.5449219 C42.2833665,16.5703126 42.4039708,16.5914713 42.5224609,16.6083984 C42.5520835,16.6210938 42.6018063,16.6443683 42.6716309,16.6782227 C42.7414554,16.712077 42.8155107,16.7501625 42.8937988,16.7924805 C42.972087,16.8347984 43.0450843,16.8749998 43.112793,16.9130859 C43.1805016,16.9511721 43.2270507,16.9786783 43.2524414,16.9956055 C43.2651368,17.0040691 43.2979327,17.0347491 43.3508301,17.0876465 L43.5253906,17.262207 C43.5888675,17.3256839 43.6502276,17.3891598 43.7094727,17.4526367 C43.7687177,17.5161136 43.8131509,17.5647785 43.8427734,17.5986328 C43.8470052,17.6070964 43.8597004,17.6261392 43.8808594,17.6557617 C43.9020183,17.6853843 43.9263508,17.720296 43.9538574,17.760498 C43.9813641,17.8007001 44.0088703,17.8398436 44.036377,17.8779297 C44.0638836,17.9160158 44.0861002,17.9477538 44.1030273,17.9731445 C44.2553719,18.2058931 44.3812658,18.4365223 44.4807129,18.6650391 C44.58016,18.8935558 44.6595049,19.125243 44.71875,19.3601074 C44.7779951,19.5949719 44.8213703,19.8361804 44.848877,20.0837402 C44.8763836,20.3313001 44.8901367,20.5883776 44.8901367,20.8549805 L44.8901367,20.8803711 C44.8816731,20.9523116 44.8721517,21.0506992 44.8615723,21.1755371 C44.8509928,21.300375 44.8404135,21.424153 44.829834,21.546875 C44.8192545,21.669597 44.8097331,21.7796219 44.8012695,21.8769531 C44.7928059,21.9742843 44.7864584,22.0314127 44.7822266,22.0483398 C44.752604,22.2641612 44.7071129,22.4694001 44.645752,22.6640625 C44.584391,22.8587249 44.5092778,23.0512686 44.4204102,23.2416992 C44.3400061,23.3432622 44.2754722,23.4289547 44.2268066,23.4987793 C44.178141,23.5686039 44.1284182,23.6363115 44.0776367,23.7019043 C44.0268552,23.7674971 43.9686689,23.8394365 43.9030762,23.9177246 C43.8374834,23.9960128 43.7475592,24.0944004 43.6333008,24.2128906 C43.4851881,24.3229172 43.3275562,24.4244787 43.1604004,24.5175781 C42.9932446,24.6106775 42.8208017,24.6910804 42.6430664,24.7587891 C42.4653311,24.8264977 42.2844247,24.8793943 42.1003418,24.9174805 C41.9162588,24.9555666 41.7353525,24.9703776 41.5576172,24.9619141 L41.4719238,24.9619141 C41.4317218,24.9619141 41.3872887,24.9608561 41.338623,24.9587402 C41.2899574,24.9566243 41.2455243,24.9545085 41.2053223,24.9523926 C41.1651202,24.9502767 41.1365561,24.9492188 41.1196289,24.9492188 C41.1111653,24.9407552 41.0963543,24.9322917 41.0751953,24.9238281 C41.0540364,24.9153645 41.0392253,24.9111328 41.0307617,24.9111328 C41.0222981,24.9111328 41.0032554,24.9132487 40.9736328,24.9174805 C40.9440103,24.9217123 40.9112144,24.9270019 40.8752441,24.9333496 C40.8392739,24.9396973 40.8054201,24.944987 40.7736816,24.9492188 C40.7419432,24.9534505 40.7218425,24.9534505 40.7133789,24.9492188 C40.6964517,24.9492188 40.6573082,24.946045 40.5959473,24.9396973 C40.5345863,24.9333496 40.4679366,24.9248861 40.3959961,24.9143066 C40.3240556,24.9037272 40.2574059,24.8942058 40.1960449,24.8857422 C40.1346839,24.8772786 40.0976563,24.870931 40.0849609,24.8666992 L40.0214844,24.8666992 L39.862793,24.8222656 Z M39.03125,20.4614258 C39.0354818,20.579916 39.0460611,20.6962885 39.0629883,20.8105469 C39.0799154,20.9248053 39.1116534,21.0369461 39.1582031,21.1469727 C39.1582031,21.1554362 39.1687824,21.1787107 39.1899414,21.2167969 C39.2111004,21.254883 39.2216797,21.2781575 39.2216797,21.2866211 C39.2386069,21.3416344 39.2555338,21.4008786 39.2724609,21.4643555 C39.2893881,21.5278323 39.307373,21.5913083 39.326416,21.6547852 C39.3454591,21.718262 39.3676757,21.7796221 39.3930664,21.8388672 C39.4184572,21.8981123 39.4501951,21.9510089 39.4882812,21.9975586 C39.5009766,22.010254 39.5221353,22.0324705 39.5517578,22.064209 L39.640625,22.1594238 C39.6702475,22.1911623 39.6977538,22.2207844 39.7231445,22.248291 C39.7485353,22.2757977 39.7654622,22.2916666 39.7739258,22.2958984 C39.7781576,22.3001302 39.7919107,22.3107096 39.8151855,22.3276367 C39.8384604,22.3445639 39.8659666,22.3625487 39.8977051,22.3815918 C39.9294435,22.4006349 39.9611815,22.4207356 39.9929199,22.4418945 C40.0246584,22.4630535 40.0511067,22.4778645 40.0722656,22.4863281 L40.1357422,22.5307617 C40.1484376,22.5392253 40.1759438,22.5582681 40.2182617,22.5878906 C40.2605796,22.6175132 40.28597,22.6323242 40.2944336,22.6323242 C40.3028972,22.6407878 40.3240558,22.6503092 40.3579102,22.6608887 C40.3917645,22.6714682 40.4192707,22.6767578 40.4404297,22.6767578 C40.5292973,22.7190757 40.595947,22.7434082 40.6403809,22.7497559 C40.6848147,22.7561035 40.7229002,22.7561035 40.7546387,22.7497559 C40.7863771,22.7434082 40.8202309,22.7370606 40.8562012,22.7307129 C40.8921714,22.7243652 40.9482418,22.727539 41.0244141,22.7402344 C41.0286459,22.7402344 41.0434569,22.7391764 41.0688477,22.7370605 C41.0942384,22.7349447 41.1217446,22.7317709 41.1513672,22.7275391 L41.2402344,22.7148438 C41.2698569,22.710612 41.2931314,22.7063802 41.3100586,22.7021484 C41.5089528,22.6725259 41.6951489,22.6048182 41.8686523,22.4990234 C42.0421558,22.3932286 42.1934401,22.2620451 42.3225098,22.1054688 C42.4515794,21.9488924 42.552083,21.7743336 42.6240234,21.5817871 C42.6959639,21.3892406 42.7319336,21.1935231 42.7319336,20.9946289 C42.7319336,20.9819335 42.7329915,20.9300949 42.7351074,20.8391113 C42.7372233,20.7481278 42.7467447,20.58838 42.7636719,20.3598633 C42.7636719,20.2498367 42.7414553,20.1419276 42.6970215,20.0361328 C42.6525877,19.930338 42.6134442,19.8224289 42.5795898,19.7124023 C42.5203448,19.5431307 42.4240729,19.4003098 42.2907715,19.2839355 C42.15747,19.1675613 42.0188809,19.0607101 41.875,18.9633789 C41.7861324,18.9041338 41.7046716,18.854411 41.6306152,18.814209 C41.5565589,18.774007 41.4814457,18.7412111 41.4052734,18.7158203 C41.3291012,18.6904296 41.2497563,18.6713868 41.1672363,18.6586914 C41.0847164,18.645996 40.9905604,18.6375326 40.8847656,18.6333008 C40.7874344,18.629069 40.7027998,18.6280111 40.6308594,18.630127 C40.5589189,18.6322428 40.4742843,18.6438801 40.3769531,18.6650391 C40.2711583,18.686198 40.1611334,18.7158201 40.046875,18.7539062 C39.9326166,18.7919924 39.8236496,18.8395993 39.7199707,18.8967285 C39.6162918,18.9538577 39.5231938,19.0226233 39.4406738,19.1030273 C39.3581539,19.1834314 39.2978518,19.2765294 39.2597656,19.3823242 L39.1518555,19.6870117 C39.1264647,19.7208661 39.1031902,19.7695309 39.0820312,19.8330078 C39.0608723,19.8964847 39.0439454,19.9652503 39.03125,20.0393066 C39.0185546,20.113363 39.012207,20.1874182 39.012207,20.2614746 C39.012207,20.335531 39.0185546,20.4021807 39.03125,20.4614258 Z M46.1533203,25.0380859 L45.7851562,25.0063477 C45.7513019,25.0105794 45.7322591,25.0095215 45.7280273,25.0031738 C45.7237956,24.9968261 45.7195638,24.983073 45.715332,24.9619141 C45.7111002,24.9111326 45.7100423,24.8677573 45.7121582,24.8317871 C45.7142741,24.7958169 45.7111003,24.7524417 45.7026367,24.7016602 C45.6984049,24.6551104 45.6878256,24.6180828 45.6708984,24.5905762 C45.6539713,24.5630695 45.6433919,24.5302736 45.6391602,24.4921875 C45.6349284,24.4667967 45.6328125,24.4435222 45.6328125,24.4223633 C45.6328125,24.4012043 45.6433918,24.3800457 45.6645508,24.3588867 C45.6730144,24.2996416 45.6772461,24.1663422 45.6772461,23.9589844 C45.6772461,23.7516266 45.6730144,23.5008967 45.6645508,23.2067871 C45.6560872,22.9126776 45.6465658,22.5910662 45.6359863,22.2419434 C45.6254068,21.8928205 45.6137696,21.5447608 45.6010742,21.1977539 C45.5883788,20.850747 45.5777995,20.522788 45.5693359,20.2138672 C45.5608724,19.9049464 45.5566406,19.6425792 45.5566406,19.4267578 C45.5608724,19.3844399 45.5587566,19.3283695 45.550293,19.2585449 C45.5418294,19.1887204 45.532308,19.1146651 45.5217285,19.036377 C45.511149,18.9580888 45.5016276,18.8829756 45.4931641,18.8110352 C45.4847005,18.7390947 45.4847005,18.6798505 45.4931641,18.6333008 C45.4931641,18.6248372 45.4921061,18.6047365 45.4899902,18.572998 C45.4878743,18.5412596 45.4847005,18.519043 45.4804688,18.5063477 C45.4593098,18.5063477 45.4476725,18.4957683 45.4455566,18.4746094 C45.4434407,18.4534504 45.4402669,18.4322918 45.4360352,18.4111328 L45.4296875,18.3603516 L45.4677734,18.296875 C45.476237,18.1868484 45.4783529,18.0926924 45.4741211,18.0144043 C45.4698893,17.9361161 45.4635417,17.844076 45.4550781,17.7382812 C45.4550781,17.7213541 45.4540202,17.7001954 45.4519043,17.6748047 C45.4497884,17.6494139 45.4466146,17.6219077 45.4423828,17.5922852 C45.438151,17.5626626 45.4360352,17.5288088 45.4360352,17.4907227 C45.4360352,17.4822591 45.4286296,17.4632163 45.4138184,17.4335938 C45.3990071,17.4039712 45.3916016,17.3849284 45.3916016,17.3764648 C45.3916016,17.3680013 45.3947754,17.3500164 45.401123,17.3225098 C45.4074707,17.2950031 45.4127604,17.2770183 45.4169922,17.2685547 L45.4169922,17.2209473 C45.4169922,17.1934406 45.4180501,17.1648765 45.420166,17.1352539 C45.4222819,17.1056314 45.4243978,17.0781251 45.4265137,17.0527344 C45.4286296,17.0273436 45.4318034,17.0104167 45.4360352,17.0019531 L45.4487305,16.9892578 C45.4529623,16.985026 45.4550781,16.9765626 45.4550781,16.9638672 C45.5989591,16.94694 45.7386061,16.9226076 45.8740234,16.8908691 C46.0094408,16.8591307 46.1490878,16.8411459 46.2929688,16.8369141 C46.4664722,16.8284505 46.6336255,16.8326822 46.7944336,16.8496094 C46.9552417,16.8665365 47.1202791,16.8855793 47.2895508,16.9067383 C47.3107097,16.9109701 47.3413898,16.9141439 47.3815918,16.9162598 C47.4217938,16.9183757 47.4619952,16.9226074 47.5021973,16.9289551 C47.5423993,16.9353028 47.5794269,16.9490559 47.6132812,16.9702148 C47.6471356,16.9913738 47.6661784,17.0231118 47.6704102,17.0654297 C47.6788737,17.1373702 47.6756999,17.1966144 47.6608887,17.2431641 C47.6460774,17.2897138 47.6429036,17.3510738 47.6513672,17.4272461 L47.6513672,17.4462891 C47.6513672,17.4547526 47.6524251,17.4611002 47.654541,17.465332 C47.6566569,17.4695638 47.6577148,17.4737956 47.6577148,17.4780273 C47.6873374,17.465332 47.7254229,17.4473471 47.7719727,17.4240723 L47.9179688,17.3510742 C47.9687503,17.3256835 48.0184731,17.301351 48.0671387,17.2780762 C48.1158043,17.2548013 48.1528319,17.2368165 48.1782227,17.2241211 C48.1866862,17.2198893 48.2110187,17.2071941 48.2512207,17.1860352 C48.2914227,17.1648762 48.317871,17.1500651 48.3305664,17.1416016 C48.33903,17.1416016 48.3633624,17.1363119 48.4035645,17.1257324 C48.4437665,17.1151529 48.4659831,17.1056316 48.4702148,17.097168 C48.508301,17.0717772 48.5559079,17.0463868 48.6130371,17.0209961 C48.6701663,16.9956053 48.7283526,16.9712729 48.7875977,16.947998 C48.8468427,16.9247232 48.9007973,16.9046225 48.9494629,16.8876953 C48.9981285,16.8707681 49.0288085,16.858073 49.0415039,16.8496094 C49.1472987,16.8072915 49.2552078,16.7819011 49.3652344,16.7734375 C49.475261,16.7649739 49.5895176,16.7586263 49.7080078,16.7543945 C49.8984385,16.7416992 50.093098,16.7565102 50.2919922,16.7988281 C50.4908864,16.841146 50.6823721,16.8993323 50.8664551,16.9733887 C51.050538,17.047445 51.2176913,17.1320796 51.3679199,17.2272949 C51.5181485,17.3225102 51.6398107,17.4166662 51.7329102,17.5097656 C51.7625327,17.54362 51.7953286,17.5848793 51.8312988,17.6335449 C51.8672691,17.6822105 51.9011229,17.7329913 51.9328613,17.7858887 C51.9645998,17.8387861 51.992106,17.8906247 52.0153809,17.9414062 C52.0386557,17.9921878 52.0524088,18.0387368 52.0566406,18.0810547 C52.0566406,18.1064454 52.0439454,18.1392413 52.0185547,18.1794434 C51.9931639,18.2196454 51.9624839,18.2609047 51.9265137,18.3032227 C51.8905434,18.3455406 51.8545737,18.3836261 51.8186035,18.4174805 C51.7826333,18.4513348 51.756185,18.4724934 51.7392578,18.480957 C51.735026,18.4851888 51.7244467,18.4936523 51.7075195,18.5063477 C51.6905924,18.519043 51.6726075,18.5317382 51.6535645,18.5444336 L51.5964355,18.5825195 C51.5773925,18.5952149 51.5657552,18.6036784 51.5615234,18.6079102 C51.5445963,18.6206055 51.5202638,18.6385904 51.4885254,18.6618652 C51.456787,18.6851401 51.425049,18.7094725 51.3933105,18.7348633 C51.3615721,18.760254 51.33195,18.7835285 51.3044434,18.8046875 C51.2769367,18.8258465 51.2610677,18.8385416 51.2568359,18.8427734 C51.1848955,18.8977867 51.1161299,18.9570309 51.0505371,19.0205078 C50.9849443,19.0839847 50.9151208,19.1432289 50.8410645,19.1982422 C50.7670081,19.2532555 50.6887211,19.2998045 50.6062012,19.3378906 C50.5236812,19.3759768 50.4316411,19.3971354 50.3300781,19.4013672 L50.203125,19.4013672 C50.1904296,19.3971354 50.1798503,19.3929037 50.1713867,19.3886719 C50.1586913,19.3844401 50.1438803,19.3780925 50.1269531,19.3696289 C49.9534497,19.2807613 49.7693695,19.1982426 49.574707,19.1220703 C49.3800446,19.0458981 49.1853851,19.0099284 48.9907227,19.0141602 C48.8468417,19.0226237 48.7283533,19.0755203 48.6352539,19.1728516 C48.5421545,19.2701828 48.455404,19.3717443 48.375,19.4775391 C48.3665364,19.4944662 48.3432619,19.5240883 48.3051758,19.5664062 C48.2670897,19.6087242 48.2438151,19.6404621 48.2353516,19.6616211 C48.226888,19.6785483 48.2099611,19.7071124 48.1845703,19.7473145 C48.1591796,19.7875165 48.1327313,19.8308917 48.1052246,19.8774414 C48.077718,19.9239911 48.0502117,19.9715981 48.0227051,20.0202637 C47.9951984,20.0689293 47.9772136,20.1080728 47.96875,20.1376953 C47.9264321,20.2350265 47.9010417,20.3429356 47.8925781,20.4614258 C47.8841145,20.579916 47.8756511,20.6920568 47.8671875,20.7978516 C47.8079424,21.2252626 47.7814941,21.6135236 47.7878418,21.9626465 C47.7941895,22.3117693 47.8164061,22.6407862 47.8544922,22.949707 C47.8756511,23.1782238 47.9010415,23.4025054 47.9306641,23.6225586 C47.9602866,23.8426118 47.985677,24.0668934 48.0068359,24.2954102 C48.0110677,24.3208009 48.0152995,24.366292 48.0195312,24.4318848 C48.023763,24.4974775 48.0290527,24.5651852 48.0354004,24.6350098 C48.0417481,24.7048343 48.0480957,24.772542 48.0544434,24.8381348 C48.060791,24.9037275 48.0639648,24.9492186 48.0639648,24.9746094 C48.0555013,24.9788412 48.0480957,24.9830729 48.041748,24.9873047 C48.0354004,24.9915365 48.0279948,24.9957682 48.0195312,25 L47.9941406,25.0126953 L47.9560547,25.0126953 C47.9475911,25.0126953 47.9348959,25.0095215 47.9179688,25.0031738 C47.9010416,24.9968261 47.8883464,24.9894206 47.8798828,24.980957 L46.1533203,25.0380859 Z M53.7387695,24.7397461 C53.7472331,24.7312825 53.7556966,24.7143556 53.7641602,24.6889648 C53.7726237,24.6635741 53.7768555,24.6466472 53.7768555,24.6381836 C53.7768555,24.6170246 53.7779134,24.5810549 53.7800293,24.5302734 C53.7821452,24.4794919 53.7842611,24.4255374 53.786377,24.3684082 C53.7884928,24.311279 53.7895508,24.2583824 53.7895508,24.2097168 L53.7895508,24.1049805 C53.7895508,24.0711261 53.7906087,24.0256351 53.7927246,23.9685059 L53.7990723,23.7971191 C53.8011882,23.7399899 53.8022461,23.6902671 53.8022461,23.6479492 L53.8022461,23.3845215 C53.8022461,23.2850744 53.8011882,23.1782232 53.7990723,23.0639648 C53.7969564,22.9497065 53.7948405,22.8428553 53.7927246,22.7434082 C53.7906087,22.6439611 53.7895508,22.5815431 53.7895508,22.5561523 C53.7895508,22.543457 53.7906087,22.511719 53.7927246,22.4609375 C53.7948405,22.410156 53.7969564,22.3551435 53.7990723,22.2958984 C53.8011882,22.2366533 53.8022461,22.1816409 53.8022461,22.1308594 C53.8022461,22.0800779 53.8001302,22.0483399 53.7958984,22.0356445 C53.7958984,22.0229492 53.7937826,21.9880374 53.7895508,21.9309082 C53.785319,21.873779 53.7800293,21.8134769 53.7736816,21.75 C53.767334,21.6865231 53.7609864,21.626221 53.7546387,21.5690918 C53.748291,21.5119626 53.7451172,21.4770508 53.7451172,21.4643555 C53.7408854,21.4051104 53.7377116,21.3162441 53.7355957,21.1977539 C53.7334798,21.0792637 53.730306,20.9449064 53.7260742,20.7946777 C53.7218424,20.6444491 53.7176107,20.4868172 53.7133789,20.3217773 C53.7091471,20.1567375 53.7049154,20.0001635 53.7006836,19.8520508 C53.6964518,19.7039381 53.6922201,19.5706386 53.6879883,19.4521484 C53.6837565,19.3336583 53.6816406,19.244792 53.6816406,19.1855469 L53.6625977,19.109375 C53.4975578,19.1178386 53.322999,19.1188965 53.138916,19.1125488 C52.9548331,19.1062011 52.7781584,19.0903322 52.6088867,19.0649414 C52.6088867,19.0564778 52.6067709,19.0469564 52.6025391,19.036377 L52.5834961,18.9887695 C52.5834961,18.9803059 52.5750326,18.9781901 52.5581055,18.9824219 C52.5411783,18.9866537 52.5369466,18.9845378 52.5454102,18.9760742 C52.5454102,18.9379881 52.5422364,18.876628 52.5358887,18.7919922 C52.529541,18.7073563 52.5231934,18.6100266 52.5168457,18.5 C52.510498,18.3899734 52.5041504,18.2746588 52.4978027,18.1540527 C52.491455,18.0334467 52.4851075,17.9181321 52.4787598,17.8081055 C52.4724121,17.6980789 52.4671224,17.5996912 52.4628906,17.5129395 C52.4586588,17.4261877 52.4544271,17.3637697 52.4501953,17.3256836 L52.4501953,17.2558594 C52.4501953,17.1839189 52.470296,17.1215009 52.510498,17.0686035 C52.5507001,17.0157061 52.6067705,16.9807944 52.6787109,16.9638672 C52.8268237,16.9850261 52.9791659,16.9829103 53.1357422,16.9575195 C53.2923185,16.9321288 53.4425449,16.9194336 53.5864258,16.9194336 L53.6879883,16.9194336 C53.7218426,16.9194336 53.7535806,16.9067384 53.7832031,16.8813477 L53.7832031,16.7607422 C53.7916667,16.4348942 53.7810874,16.1153987 53.7514648,15.8022461 C53.7218423,15.4890935 53.711263,15.169598 53.7197266,14.84375 L53.7197266,14.7548828 C53.7197266,14.7125649 53.7207845,14.6670738 53.7229004,14.6184082 C53.7250163,14.5697426 53.7271322,14.5231936 53.729248,14.4787598 C53.7313639,14.4343259 53.7324219,14.4036459 53.7324219,14.3867188 C53.7366537,14.3528644 53.7609861,14.3306478 53.8054199,14.3200684 C53.8498537,14.3094889 53.9313145,14.3168944 54.0498047,14.3422852 C54.0794272,14.3380534 54.12915,14.3327637 54.1989746,14.326416 C54.2687992,14.3200683 54.3417965,14.3126628 54.4179688,14.3041992 C54.494141,14.2957356 54.5660804,14.2883301 54.6337891,14.2819824 C54.7014977,14.2756347 54.7480467,14.2703451 54.7734375,14.2661133 C54.7861329,14.2661133 54.8210446,14.2671712 54.8781738,14.2692871 C54.935303,14.271403 54.9956052,14.2724609 55.059082,14.2724609 C55.1225589,14.2724609 55.1818031,14.2735189 55.2368164,14.2756348 C55.2918297,14.2777507 55.3235677,14.2788086 55.3320312,14.2788086 L55.4082031,14.2788086 C55.4335939,14.2788086 55.4716794,14.2798665 55.5224609,14.2819824 C55.5732424,14.2840983 55.6240232,14.2872721 55.6748047,14.2915039 C55.7340498,14.2957357 55.7954098,14.2999674 55.8588867,14.3041992 L55.9287109,14.3803711 C55.9287109,14.3930665 55.9265951,14.4131672 55.9223633,14.4406738 C55.9181315,14.4681805 55.9138998,14.4967446 55.909668,14.5263672 C55.9054362,14.5559897 55.9022624,14.5845539 55.9001465,14.6120605 C55.8980306,14.6395672 55.8990885,14.6596679 55.9033203,14.6723633 C55.9117839,14.6808269 55.9202474,14.6935221 55.9287109,14.7104492 C55.9371745,14.7273764 55.9414062,14.7400716 55.9414062,14.7485352 C55.9625652,14.9178068 55.9773763,15.0828442 55.9858398,15.2436523 C55.9943034,15.4044604 55.9985352,15.5779613 55.9985352,15.7641602 C55.9985352,15.8107099 55.9995931,15.8773596 56.001709,15.9641113 C56.0038249,16.0508631 56.0059407,16.1471349 56.0080566,16.2529297 C56.0101725,16.3587245 56.0122884,16.4666336 56.0144043,16.5766602 C56.0165202,16.6866867 56.0154623,16.7882482 56.0112305,16.8813477 C56.0112305,16.9067384 56.0175781,16.9247233 56.0302734,16.9353027 C56.0429688,16.9458822 56.0609537,16.9522298 56.0842285,16.9543457 C56.1075034,16.9564616 56.1307779,16.9554037 56.1540527,16.9511719 C56.1773276,16.9469401 56.1974283,16.9448242 56.2143555,16.9448242 L56.2397461,16.9448242 C56.3751634,16.9025063 56.506347,16.8813477 56.6333008,16.8813477 L57.0458984,16.8813477 C57.0585938,16.8813477 57.0776366,16.8824056 57.1030273,16.8845215 C57.1284181,16.8866374 57.1538085,16.8876953 57.1791992,16.8876953 C57.2088218,16.8919271 57.2426756,16.894043 57.2807617,16.894043 L57.3188477,17.1098633 C57.3230794,17.3299165 57.3220215,17.5425608 57.3156738,17.7478027 C57.3093261,17.9530446 57.3230793,18.1699207 57.3569336,18.3984375 L57.3569336,18.887207 C57.3569336,18.9337567 57.3463543,18.9697264 57.3251953,18.9951172 C57.3040364,19.0205079 57.2797039,19.0395507 57.2521973,19.0522461 C57.2246906,19.0649415 57.1950685,19.0755208 57.1633301,19.0839844 C57.1315916,19.092448 57.1030275,19.1009114 57.0776367,19.109375 L56.8935547,19.1474609 L56.1953125,19.1474609 L56.1826172,19.6933594 C56.1826172,19.701823 56.1805013,19.7219237 56.1762695,19.7536621 C56.1720377,19.7854005 56.1688639,19.8192544 56.166748,19.8552246 C56.1646322,19.8911948 56.1625163,19.9239907 56.1604004,19.9536133 C56.1582845,19.9832358 56.1614583,20.0001627 56.1699219,20.0043945 C56.1614583,20.1482755 56.1593424,20.2815749 56.1635742,20.4042969 C56.167806,20.5270188 56.1752115,20.6465652 56.185791,20.7629395 C56.1963705,20.8793137 56.2090657,20.9978021 56.223877,21.1184082 C56.2386882,21.2390143 56.2524413,21.3670241 56.2651367,21.5024414 L56.1953125,24.8286133 C56.1953125,24.8709312 56.1730959,24.905843 56.1286621,24.9333496 C56.0842283,24.9608563 56.0450848,24.9746094 56.0112305,24.9746094 L54.6210938,24.9682617 C54.6083984,24.9767253 54.583008,24.9841308 54.5449219,24.9904785 C54.5068357,24.9968262 54.4835612,25 54.4750977,25 C54.4666341,25 54.4475913,24.9947103 54.4179688,24.9841309 C54.3883462,24.9735514 54.3693034,24.9682617 54.3608398,24.9682617 C54.3481445,24.9682617 54.323812,24.9661459 54.2878418,24.9619141 C54.2518716,24.9576823 54.213786,24.9534505 54.173584,24.9492188 C54.133382,24.944987 54.0952964,24.9407552 54.0593262,24.9365234 C54.0233559,24.9322916 54.0011394,24.9280599 53.9926758,24.9238281 C53.9461261,24.9195963 53.8921715,24.9100749 53.8308105,24.8952637 C53.7694496,24.8804524 53.7387695,24.8370772 53.7387695,24.7651367 L53.7387695,24.7397461 Z" id="path-1"></path>
    </defs>
    <g id="Page-1" stroke="none" stroke-width="1" fill="none" fill-rule="evenodd">
        <g id="Group-2-Copy-3">
            <g id="Next-Btn-Copy-3">
                <rect id="Rectangle" fill="#FFFFFF" x="0" y="0" width="89" height="38" rx="19"></rect>
                <g id="Export" fill-rule="nonzero">
                    <use fill="#FFFFFF" xlink:href="#path-1"></use>
                    <use fill="#3F8FE8" xlink:href="#path-1"></use>
                </g>
            </g>
        </g>
        <g id="137530" transform="translate(67.000000, 14.000000)" fill="#3F8FE8" fill-rule="nonzero">
            <path d="M6.61582116,3.45454545 L6.61582116,1 L11,5.09090909 L6.61582116,9.18181818 L6.61582116,6.72727273 C6.61582116,6.72727273 2.72250526,5.85286128 0.0631520742,10 C0.0631520742,10 -0.599820241,6.83484245 2.37038354,4.54124411 C2.37038354,4.54104038 3.7158661,3.3734607 6.61582116,3.45454545 Z" id="Path" stroke="#3F8FE8"></path>
            <path d="M0.178935543,11 L0.0646384312,10.4266353 C0.0575520103,10.3907583 -0.615200788,6.8055021 2.54534294,4.24218544 C2.59151897,4.1996232 3.94342521,2.9976298 6.81411146,2.9976298 C6.83742807,2.9976298 6.86051609,2.9976298 6.8838327,2.99785264 L6.8838327,0 L12,5.01476815 L6.8836041,10.0295363 L6.8836041,6.99068128 C6.73227473,6.96884306 6.48927907,6.94321658 6.18159124,6.94321658 C4.86465992,6.94321658 2.37389727,7.40516176 0.485480396,10.4981666 L0.178935543,11 Z M6.81388286,3.44330774 C4.12195729,3.44330774 2.85988859,4.56485627 2.84731591,4.57622106 C0.665384049,6.34645382 0.429246217,8.62565079 0.458049089,9.71199076 C3.28370228,5.68796467 7.11539864,6.5762008 7.16591797,6.58801126 L7.34079255,6.62923647 L7.34079255,8.94921297 L11.3551357,5.01476815 L7.34079255,1.08010048 L7.34079255,3.45422685 L7.1053405,3.44754168 C7.0063592,3.44464477 6.90943525,3.44330774 6.81388286,3.44330774 Z" id="Shape"></path>
        </g>
    </g>
</svg>