
<svg width="245px" height="46px" viewBox="0 0 245 46" version="1.1" xmlns="http://www.w3.org/2000/svg" xmlns:xlink="http://www.w3.org/1999/xlink">
    <g id="Page-1" stroke="none" stroke-width="1" fill="none" fill-rule="evenodd">
        <g id="MedPrompt" transform="translate(-65.000000, -447.000000)">
            <rect fill="#3F8FE8" x="0" y="0" width="375" height="667"></rect>
            <g id="LeaveCmntBtn" transform="translate(65.000000, 447.000000)">
                <g id="LeaveCommentBtn">
                    <g id="Next-Btn-Copy-2">
                        <rect id="Rectangle" fill="#FFFFFF" x="0" y="0" width="245" height="46" rx="21.5"></rect>
                        <text id="Leave-Comment" fill="#3F8FE8" font-family="KGSecondChancesSolid, KG Second Chances Solid" font-size="18" font-style="condensed" font-weight="normal">
                            <tspan x="24.5400391" y="31">Leave Comment</tspan>
                        </text>
                    </g>
                    <g id="blogging" transform="translate(199.000000, 10.000000)" fill="#3F8FE8" fill-rule="nonzero">
                        <path d="M13.4472656,10.6529127 C14.0298157,10.6529127 14.5019531,11.1250753 14.5019531,11.7076565 C14.5019531,12.2902377 14.0298157,12.7624003 13.4472656,12.7624003 C12.8647156,12.7624003 12.3925781,12.2902377 12.3925781,11.7076565 C12.3925781,11.1250753 12.8647156,10.6529127 13.4472656,10.6529127 Z M17.1386719,11.7076565 C17.1386719,12.2902377 17.6108093,12.7624003 18.1933594,12.7624003 C18.7759094,12.7624003 19.2480469,12.2902377 19.2480469,11.7076565 C19.2480469,11.1250753 18.7759094,10.6529127 18.1933594,10.6529127 C17.6108093,10.6529127 17.1386719,11.1250753 17.1386719,11.7076565 Z M7.64648438,11.7076565 C7.64648438,12.2902377 8.11862183,12.7624003 8.70117188,12.7624003 C9.28372192,12.7624003 9.75585938,12.2902377 9.75585938,11.7076565 C9.75585938,11.1250753 9.28372192,10.6529127 8.70117188,10.6529127 C8.11862183,10.6529127 7.64648438,11.1250753 7.64648438,11.7076565 Z M26.0726166,21.599176 C27.3069305,22.8335559 27.3069305,24.8408652 26.0732345,26.0746271 C25.4564896,26.6914051 24.6461105,27 23.8359375,27 C23.0257645,27 22.2153854,26.6914051 21.5986405,26.0746271 L15.8089828,20.2976386 C15.6860046,20.1748598 15.5953674,20.0238584 15.544899,19.8574066 L14.2838058,15.7057948 C14.1719513,15.3376645 14.2693863,14.9380155 14.538002,14.6625873 C14.8066177,14.3873651 15.2037735,14.2802426 15.5745621,14.3828329 L19.8314209,15.5620036 C20.0067215,15.6106207 20.1663666,15.7035288 20.2951126,15.8320757 L26.0726166,21.599176 Z M17.4861832,18.9911571 L21.3932648,22.8897951 L22.8850708,21.3979095 L19.0010605,17.5211079 L16.8595505,16.9278145 L17.4861832,18.9911571 Z M24.5816345,23.0914737 L24.3781128,22.8881471 L22.8865128,24.3798268 L23.0894165,24.5821234 C23.5014038,24.9943387 24.1704712,24.9943387 24.5816345,24.5829474 C24.9930038,24.1717621 24.9930038,23.502659 24.5816345,23.0914737 L24.5816345,23.0914737 Z M14.0866699,21.8570938 C13.8918,21.86554 13.694458,21.8698661 13.5,21.8698661 C11.8040543,21.8698661 10.1713486,21.554061 8.64740754,20.9313089 C8.38785554,20.8254225 8.09658049,20.8270705 7.83826448,20.936047 L3.03593442,22.9633388 L4.65401457,19.1302102 C4.8122177,18.7554877 4.74073794,18.322878 4.47006226,18.0188151 C2.92572786,16.2838439 2.109375,14.207935 2.109375,12.0160455 C2.109375,6.55362605 7.21925357,2.10948766 13.5,2.10948766 C19.7807464,2.10948766 24.890625,6.55362605 24.890625,12.0160455 C24.890625,13.3114027 24.5725708,14.6119101 23.9451141,15.8811048 C23.6870041,16.4033266 23.9010315,17.0359669 24.4232254,17.2940908 C24.9454193,17.5522146 25.5780258,17.3381757 25.8361359,16.8159539 C26.6084061,15.2534086 27,13.6385381 27,12.0160455 C27,5.39031781 20.9439926,0 13.5,0 C6.05621338,0 0,5.39031781 0,12.0160455 C0,14.516942 0.847869873,16.8853775 2.45935823,18.9052531 L0.0830154551,24.5345363 C-0.0838394297,24.9298592 0.0055618418,25.3869836 0.308990479,25.6904284 C0.510864258,25.892313 0.780509936,25.9994354 1.05489348,25.9994354 C1.19311523,25.9994354 1.33257292,25.9722428 1.46482088,25.9164155 L8.26384734,23.0461527 C9.92209627,23.6656087 11.681488,23.9793537 13.5,23.9793537 C13.7249451,23.9793537 13.953392,23.9742036 14.1789551,23.9645214 C14.7608871,23.9389769 15.2120133,23.4466257 15.18647,22.8646626 C15.1611328,22.2826995 14.667778,21.8301072 14.0866699,21.8570938 L14.0866699,21.8570938 Z" id="Shape"></path>
                    </g>
                </g>
            </g>
        </g>
    </g>
</svg>