
<svg width="89px" height="38px" viewBox="0 0 89 38" version="1.1" xmlns="http://www.w3.org/2000/svg" xmlns:xlink="http://www.w3.org/1999/xlink">
    <defs>
        <path d="M14.7470703,26.0512695 C14.7519531,25.7875963 14.7458497,25.5288099 14.7287598,25.2749023 C14.7116698,25.0209948 14.6982422,24.7622083 14.6884766,24.4985352 C14.6689452,24.3276359 14.6628418,24.1555184 14.670166,23.9821777 C14.6774903,23.808837 14.678711,23.6293955 14.6738281,23.4438477 C14.6738281,23.404785 14.6726074,23.3315435 14.670166,23.2241211 C14.6677246,23.1166987 14.6640625,22.9897468 14.6591797,22.8432617 C14.6542969,22.6967766 14.6494141,22.5393075 14.6445312,22.3708496 C14.6396484,22.2023917 14.633545,22.0388192 14.6262207,21.880127 C14.6188964,21.7214348 14.612793,21.5761725 14.6079102,21.4443359 C14.6030273,21.3124993 14.5981446,21.2075199 14.5932617,21.1293945 C14.5932617,21.1196289 14.592041,21.095215 14.5895996,21.0561523 C14.5871582,21.0170896 14.5847168,20.9768068 14.5822754,20.9353027 C14.579834,20.8937986 14.5773926,20.8535158 14.5749512,20.8144531 C14.5725098,20.7753904 14.5712891,20.7509766 14.5712891,20.7412109 C14.5664062,20.7167968 14.5664062,20.6569829 14.5712891,20.5617676 C14.5761719,20.4665523 14.5810547,20.3652349 14.5859375,20.2578125 C14.5908203,20.1503901 14.5957031,20.0502934 14.6005859,19.9575195 C14.6054688,19.8647456 14.6079102,19.8061525 14.6079102,19.7817383 C14.6079102,19.6889644 14.6091308,19.5461435 14.6115723,19.3532715 C14.6140137,19.1603994 14.6152344,18.9418958 14.6152344,18.6977539 C14.6152344,18.4536121 14.6164551,18.197267 14.6188965,17.9287109 C14.6213379,17.6601549 14.6225586,17.4038098 14.6225586,17.159668 C14.6225586,16.9155261 14.6213379,16.6970224 14.6188965,16.5041504 C14.6164551,16.3112783 14.6152344,16.1684575 14.6152344,16.0756836 C14.5859374,16.0512694 14.5688477,16.0244142 14.5639648,15.9951172 C14.559082,15.9658202 14.559082,15.9267581 14.5639648,15.8779297 L14.5639648,15.8486328 C14.5737305,15.8339843 14.579834,15.8132326 14.5822754,15.786377 C14.5847168,15.7595214 14.5859375,15.741211 14.5859375,15.7314453 C14.6250002,15.6826169 14.6445312,15.6264652 14.6445312,15.5629883 L14.6445312,15.4018555 C14.6494141,15.2553704 14.6481934,15.118653 14.6408691,14.9916992 C14.6335449,14.8647455 14.6262207,14.740235 14.6188965,14.6181641 C14.6115722,14.4960931 14.6042481,14.3715827 14.5969238,14.2446289 C14.5895996,14.1176751 14.5883789,13.9809578 14.5932617,13.8344727 C14.583496,13.7807615 14.6176754,13.7441407 14.6958008,13.7246094 C14.7739262,13.705078 14.8752435,13.6940918 14.9997559,13.6916504 C15.1242682,13.689209 15.2622063,13.6940917 15.4135742,13.7062988 C15.5649422,13.7185059 15.7114251,13.7319335 15.8530273,13.746582 C16.0483408,13.7514649 16.2399893,13.7465821 16.4279785,13.7319336 C16.6159677,13.7172851 16.8076162,13.7099609 17.0029297,13.7099609 C17.0126954,13.7099609 17.0273437,13.7087402 17.046875,13.7062988 C17.0664063,13.7038574 17.083496,13.7026367 17.0981445,13.7026367 L17.1567383,13.7026367 L17.3032227,13.8930664 C17.3081055,13.8979492 17.3325193,13.93457 17.3764648,14.0029297 C17.4204104,14.0712894 17.4704587,14.151855 17.5266113,14.2446289 C17.582764,14.3374028 17.6389157,14.4326167 17.6950684,14.5302734 C17.751221,14.6279302 17.7963865,14.7084958 17.8305664,14.7719727 C17.8354492,14.7768555 17.8427734,14.7902831 17.8525391,14.8122559 C17.8623047,14.8342286 17.873291,14.8598631 17.885498,14.8891602 C17.8977051,14.9184572 17.909912,14.9440917 17.9221191,14.9660645 C17.9343262,14.9880372 17.9428711,15.0014648 17.9477539,15.0063477 C17.9819338,15.0893559 18.0270993,15.163818 18.083252,15.2297363 C18.1394046,15.2956546 18.1845701,15.3676754 18.21875,15.4458008 C18.2236328,15.4604493 18.230957,15.477539 18.2407227,15.4970703 C18.260254,15.536133 18.2700195,15.5581054 18.2700195,15.5629883 C18.2700195,15.572754 18.2736816,15.5886229 18.2810059,15.6105957 C18.2883301,15.6325685 18.296875,15.6484375 18.3066406,15.6582031 C18.3066406,15.6679688 18.3237303,15.6960447 18.3579102,15.7424316 C18.39209,15.7888186 18.4140625,15.8168945 18.4238281,15.8266602 C18.428711,15.8364258 18.4458006,15.8681638 18.4750977,15.921875 C18.5043947,15.9755862 18.5373533,16.0329587 18.5739746,16.0939941 C18.6105959,16.1550296 18.6447752,16.2136228 18.6765137,16.2697754 C18.7082521,16.325928 18.7290039,16.3588867 18.7387695,16.3686523 C18.7436524,16.378418 18.7534179,16.3955077 18.7680664,16.4199219 C18.7827149,16.4443361 18.7985839,16.4699706 18.8156738,16.4968262 C18.8327638,16.5236818 18.8498534,16.5480956 18.8669434,16.5700684 C18.8840333,16.5920411 18.8974609,16.6079101 18.9072266,16.6176758 C18.985352,16.7446295 19.0512693,16.8813469 19.1049805,17.027832 C19.1586917,17.1743171 19.2343745,17.3085931 19.3320312,17.4306641 C19.3417969,17.4453126 19.361328,17.4660643 19.390625,17.4929199 C19.419922,17.5197755 19.4394531,17.5380859 19.4492188,17.5478516 C19.4589844,17.5429687 19.4736327,17.5405273 19.4931641,17.5405273 L19.5371094,17.5405273 C19.5419922,17.550293 19.546875,17.5576172 19.5517578,17.5625 C19.5566406,17.5722657 19.5615234,17.5783691 19.5664062,17.5808105 C19.5712891,17.583252 19.5761719,17.586914 19.5810547,17.5917969 C19.5908204,17.6064454 19.604248,17.6455075 19.6213379,17.7089844 C19.6384278,17.7724613 19.6469727,17.8164061 19.6469727,17.8408203 C19.666504,17.8603517 19.6958006,17.8920896 19.7348633,17.9360352 C19.773926,17.9799807 19.8142088,18.0263669 19.8557129,18.0751953 C19.897217,18.1240237 19.9362791,18.1716306 19.9729004,18.2180176 C20.0095217,18.2644045 20.0351562,18.2973632 20.0498047,18.3168945 C20.1376958,18.4194341 20.2145993,18.5256342 20.2805176,18.635498 C20.3464359,18.7453619 20.4111325,18.8576654 20.4746094,18.9724121 L20.6650391,19.3166504 C20.7285159,19.4313971 20.8017574,19.5400385 20.8847656,19.6425781 C20.8994141,19.6669923 20.92749,19.7023923 20.9689941,19.7487793 C21.0104983,19.7951662 21.0361328,19.8232421 21.0458984,19.8330078 C21.0556641,19.8330078 21.0703124,19.8305664 21.0898438,19.8256836 C21.1093751,19.8208008 21.1240234,19.8232421 21.1337891,19.8330078 C21.1630861,19.8378906 21.1850585,19.8513182 21.199707,19.873291 C21.2143555,19.8952638 21.2253418,19.9208983 21.232666,19.9501953 L21.2546387,20.0380859 C21.2619629,20.067383 21.2729491,20.0917968 21.2875977,20.1113281 C21.3022462,20.1259766 21.3303221,20.1564939 21.3718262,20.2028809 C21.4133303,20.2492678 21.4414062,20.2797851 21.4560547,20.2944336 L21.5146484,20.3237305 C21.5292969,20.3334961 21.5415039,20.342041 21.5512695,20.3493652 C21.5610352,20.3566895 21.5683594,20.3627929 21.5732422,20.3676758 L21.96875,20.9169922 C21.9736328,20.9267579 21.9846191,20.9438475 22.001709,20.9682617 C22.0187989,20.9926759 22.03833,21.0183104 22.0603027,21.045166 C22.0822755,21.0720216 22.1030272,21.0976561 22.1225586,21.1220703 C22.1420899,21.1464845 22.1591796,21.1660156 22.1738281,21.1806641 L22.1884766,20.8803711 C22.2031251,20.8706054 22.2141113,20.8120123 22.2214355,20.7045898 C22.2287598,20.5971674 22.2312012,20.4592294 22.2287598,20.2907715 C22.2263183,20.1223136 22.2189942,19.9331065 22.2067871,19.7231445 C22.19458,19.5131825 22.178711,19.3032237 22.1591797,19.0932617 C22.1396483,18.8832997 22.1164552,18.6831064 22.0895996,18.4926758 C22.062744,18.3022451 22.0322267,18.1411139 21.9980469,18.0092773 C21.9980469,18.0043945 21.9968262,17.9860841 21.9943848,17.9543457 L21.9870605,17.8591309 C21.9846191,17.8273924 21.9821777,17.7968751 21.9797363,17.7675781 C21.9772949,17.7382811 21.9760742,17.71875 21.9760742,17.7089844 L21.9760742,17.5771484 C21.9760742,17.5087887 21.9785156,17.4343266 21.9833984,17.3537598 C21.9882813,17.273193 21.993164,17.1975101 21.9980469,17.126709 C22.0029297,17.0559078 22.0053711,17.0107423 22.0053711,16.9912109 C22.0102539,16.5468728 22.0053712,16.1049827 21.9907227,15.6655273 C21.9760741,15.226072 21.9785155,14.7792991 21.9980469,14.3251953 C21.9980469,14.2861326 22.0017089,14.2348636 22.0090332,14.1713867 C22.0163575,14.1079098 22.0249023,14.0468753 22.034668,13.9882812 C22.0493165,13.9199215 22.0639648,13.8466801 22.0786133,13.7685547 L22.3349609,13.7319336 L24.3637695,13.7905273 C24.4272464,13.7905273 24.4809568,13.8210446 24.5249023,13.8820801 C24.5688479,13.9431155 24.6030272,14.0139156 24.6274414,14.0944824 C24.6518556,14.1750492 24.670166,14.2568355 24.682373,14.3398438 C24.6945801,14.422852 24.7006836,14.4838865 24.7006836,14.5229492 C24.7006836,14.5375977 24.7055664,14.5778805 24.715332,14.6437988 C24.7250977,14.7097171 24.7348632,14.7548827 24.7446289,14.7792969 L24.847168,17.5405273 L24.8764648,17.6357422 C24.8764648,17.6601564 24.8752442,17.7004392 24.8728027,17.7565918 C24.8703613,17.8127444 24.8666992,17.873779 24.8618164,17.9396973 C24.8569336,18.0056156 24.8532715,18.0690915 24.8508301,18.130127 C24.8483887,18.1911624 24.847168,18.236328 24.847168,18.265625 C24.847168,18.2998049 24.8496094,18.3840325 24.8544922,18.5183105 C24.859375,18.6525886 24.8642578,18.7978508 24.8691406,18.9541016 C24.8740235,19.1103523 24.8776855,19.2556146 24.880127,19.3898926 C24.8825684,19.5241706 24.8837891,19.6083983 24.8837891,19.6425781 C24.8837891,19.7109378 24.8813477,19.8293449 24.8764648,19.9978027 C24.871582,20.1662606 24.8654786,20.3444815 24.8581543,20.5324707 C24.85083,20.7204599 24.8435059,20.8986808 24.8361816,21.0671387 C24.8288574,21.2355965 24.8227539,21.3515622 24.8178711,21.4150391 C24.8422853,21.4443361 24.8557129,21.4687499 24.8581543,21.4882812 C24.8605957,21.5078126 24.8569336,21.5322264 24.847168,21.5615234 C24.847168,21.6103518 24.8398438,21.6542967 24.8251953,21.6933594 C24.8105468,21.7324221 24.8032227,21.7788083 24.8032227,21.8325195 C24.793457,21.969239 24.8056639,22.0937494 24.8398438,22.2060547 C24.8740236,22.3183599 24.895996,22.4428704 24.9057617,22.5795898 C24.9057617,22.5893555 24.904541,22.6223142 24.9020996,22.6784668 C24.8996582,22.7346194 24.8984375,22.7700195 24.8984375,22.784668 C24.8984375,22.7993165 24.8996582,22.8200682 24.9020996,22.8469238 C24.904541,22.8737794 24.9069824,22.903076 24.9094238,22.9348145 C24.9118652,22.9665529 24.9143066,22.9970702 24.916748,23.0263672 C24.9191895,23.0556642 24.9204102,23.0751953 24.9204102,23.0849609 L24.8911133,23.5097656 L24.8911133,23.6123047 C24.8862304,23.6220704 24.8837891,23.63916 24.8837891,23.6635742 C24.8837891,23.6879884 24.8813477,23.7050781 24.8764648,23.7148438 L24.9204102,24.2128906 L24.8764648,25.4287109 C24.871582,25.4531251 24.871582,25.4885252 24.8764648,25.5349121 L24.8911133,25.6740723 C24.8959961,25.7204592 24.8935547,25.760742 24.8837891,25.7949219 C24.8740234,25.8291017 24.852051,25.8461914 24.8178711,25.8461914 L24.8032227,25.8461914 C24.793457,25.8461914 24.7666018,25.840088 24.7226562,25.8278809 C24.6787107,25.8156738 24.6518555,25.8046875 24.6420898,25.7949219 C24.6323242,25.7949219 24.6042483,25.7985839 24.5578613,25.8059082 C24.5114744,25.8132325 24.457764,25.8205566 24.3967285,25.8278809 C24.3356931,25.8352051 24.2746585,25.8413086 24.213623,25.8461914 C24.1525876,25.8510742 24.1049806,25.8510742 24.0708008,25.8461914 L24.0561523,25.8461914 C24.0512695,25.8510742 24.0439454,25.8535156 24.0341797,25.8535156 L24.0268555,25.8535156 C23.9682614,25.8583985 23.8974614,25.8632812 23.8144531,25.8681641 C23.7314449,25.8730469 23.6496586,25.8791504 23.5690918,25.8864746 C23.488525,25.8937989 23.4189456,25.8999023 23.3603516,25.9047852 C23.3017575,25.909668 23.2700196,25.9121094 23.2651367,25.9121094 C23.1625971,25.9169922 23.0869143,25.925537 23.0380859,25.9377441 C22.9892576,25.9499512 22.9306644,25.9633788 22.8623047,25.9780273 C22.852539,25.9780273 22.8378907,25.9731446 22.8183594,25.9633789 C22.798828,25.9536132 22.7841797,25.9438477 22.7744141,25.934082 C22.6230461,25.9633791 22.497315,25.9670411 22.3972168,25.9450684 C22.2971186,25.9230956 22.2080082,25.874268 22.1298828,25.798584 C22.0517574,25.7229 21.9760746,25.6191413 21.902832,25.4873047 C21.8295895,25.3554681 21.7465825,25.1967783 21.6538086,25.0112305 C21.6489258,25.0014648 21.6293947,24.9721682 21.5952148,24.9233398 C21.561035,24.8745115 21.5231936,24.8195804 21.4816895,24.7585449 C21.4401853,24.6975095 21.3999025,24.6389163 21.3608398,24.5827637 C21.3217771,24.526611 21.2924806,24.4838869 21.2729492,24.4545898 C21.2680664,24.449707 21.2595215,24.433838 21.2473145,24.4069824 C21.2351074,24.3801268 21.2216798,24.3508302 21.2070312,24.3190918 C21.1923827,24.2873534 21.1777344,24.2580568 21.1630859,24.2312012 C21.1484374,24.2043456 21.1362305,24.1835938 21.1264648,24.1689453 C21.1264648,24.1591796 21.1215821,24.1494141 21.1118164,24.1396484 C21.1020507,24.1298828 21.0922852,24.125 21.0825195,24.125 L20.1303711,22.6894531 C20.0668942,22.6357419 20.0131838,22.5686039 19.9692383,22.4880371 C19.9252927,22.4074703 19.8764651,22.3354495 19.8227539,22.2719727 L19.6176758,22.0668945 C19.6127929,22.0620117 19.600586,22.044922 19.5810547,22.015625 C19.5615233,21.986328 19.5407716,21.9570314 19.5187988,21.9277344 C19.4968261,21.8984374 19.4760743,21.8715822 19.456543,21.847168 C19.4370116,21.8227538 19.4248047,21.8081055 19.4199219,21.8032227 C19.4052734,21.7885741 19.3735354,21.7580569 19.324707,21.7116699 C19.2758787,21.665283 19.223389,21.614014 19.1672363,21.5578613 C19.1110837,21.5017087 19.0598147,21.4479983 19.0134277,21.3967285 C18.9670408,21.3454587 18.9365235,21.3125001 18.921875,21.2978516 C18.9121093,21.2783202 18.8828127,21.2270512 18.8339844,21.144043 C18.785156,21.0610347 18.7314456,20.9719243 18.6728516,20.876709 C18.6142575,20.7814937 18.5593264,20.6923832 18.5080566,20.609375 C18.4567869,20.5263668 18.4238282,20.4750978 18.4091797,20.4555664 C18.4042969,20.4506836 18.3933106,20.4335939 18.3762207,20.4042969 C18.3591308,20.3749999 18.3395997,20.3432619 18.317627,20.309082 C18.2956542,20.2749022 18.2736818,20.2443849 18.251709,20.2175293 C18.2297362,20.1906737 18.2163086,20.1723633 18.2114258,20.1625977 C18.2016601,20.152832 18.1882325,20.1320802 18.1711426,20.1003418 C18.1540526,20.0686034 18.1345216,20.034424 18.1125488,19.9978027 C18.0905761,19.9611815 18.0698243,19.9257814 18.050293,19.8916016 C18.0307616,19.8574217 18.0185547,19.8354493 18.0136719,19.8256836 C18.008789,19.8159179 17.9978028,19.7927248 17.9807129,19.7561035 C17.963623,19.7194822 17.9440919,19.6791994 17.9221191,19.6352539 C17.9001464,19.5913084 17.8793946,19.5510256 17.8598633,19.5144043 C17.8403319,19.477783 17.828125,19.4521485 17.8232422,19.4375 C17.7548825,19.3251948 17.6889652,19.2128912 17.6254883,19.1005859 C17.5620114,18.9882807 17.4960941,18.8735357 17.4277344,18.7563477 C17.4033202,18.7270506 17.3898926,18.7148437 17.3874512,18.7197266 C17.3850098,18.7246094 17.3691408,18.7270508 17.3398438,18.7270508 L17.3251953,19.0566406 L17.3544922,19.5107422 C17.3447265,19.5986333 17.3422851,19.6816402 17.347168,19.7597656 C17.3520508,19.837891 17.359375,19.9282221 17.3691406,20.0307617 L17.4057617,20.4116211 L17.3764648,21.1293945 C17.4155275,21.1928714 17.4289551,21.2612301 17.416748,21.3344727 C17.404541,21.4077152 17.4033203,21.4785153 17.4130859,21.546875 C17.4130859,21.5615235 17.4143066,21.5895994 17.416748,21.6311035 C17.4191895,21.6726076 17.4204102,21.7165525 17.4204102,21.7629395 C17.4204102,21.8093264 17.4216308,21.8532713 17.4240723,21.8947754 C17.4265137,21.9362795 17.4277344,21.9643554 17.4277344,21.9790039 L17.4057617,22.3964844 L17.4936523,23.7441406 C17.4936523,23.7587891 17.4985351,23.786865 17.5083008,23.8283691 C17.5180665,23.8698733 17.5229492,23.8979491 17.5229492,23.9125977 C17.5229492,23.932129 17.5217285,23.9772946 17.5192871,24.0480957 C17.5168457,24.1188968 17.5144043,24.1945797 17.5119629,24.2751465 C17.5095215,24.3557133 17.5058594,24.4301754 17.5009766,24.4985352 C17.4960937,24.5668949 17.4936523,24.6108397 17.4936523,24.6303711 L17.4936523,25.1210938 C17.4936523,25.2236333 17.494873,25.3188472 17.4973145,25.4067383 C17.4997559,25.4946293 17.5009766,25.5556639 17.5009766,25.5898438 C17.5253907,25.6337893 17.5522459,25.6850583 17.581543,25.7436523 C17.61084,25.8022464 17.6206055,25.8583982 17.6108398,25.9121094 C17.6108398,25.9560549 17.5949709,25.9902343 17.5632324,26.0146484 C17.531494,26.0390626 17.4960939,26.057373 17.4570312,26.0695801 C17.4179686,26.0817872 17.3764651,26.0891113 17.3325195,26.0915527 C17.288574,26.0939942 17.256836,26.0952148 17.2373047,26.0952148 C17.2080077,26.1000977 17.1542973,26.1049804 17.0761719,26.1098633 C16.9980465,26.1147461 16.9150395,26.1196289 16.8271484,26.1245117 C16.7392574,26.1293946 16.6574711,26.1330566 16.5817871,26.135498 C16.5061031,26.1379395 16.4536134,26.1391602 16.4243164,26.1391602 L16.0214844,26.1391602 C15.8066396,26.1391602 15.5930186,26.1342774 15.3806152,26.1245117 C15.1682118,26.114746 14.9570323,26.0903322 14.7470703,26.0512695 Z M26.0043945,20.9536133 C26.0336916,20.7729483 26.0703123,20.5959481 26.1142578,20.4226074 C26.1582033,20.2492667 26.207031,20.0747079 26.2607422,19.8989258 C26.2998049,19.771972 26.3327635,19.6596685 26.3596191,19.5620117 C26.3864747,19.464355 26.4194334,19.3544928 26.4584961,19.2324219 C26.4584961,19.2226562 26.4645995,19.195801 26.4768066,19.1518555 C26.4890137,19.1079099 26.503662,19.060303 26.520752,19.0090332 C26.5378419,18.9577634 26.5537109,18.9113772 26.5683594,18.869873 C26.5830079,18.8283689 26.5927734,18.8027344 26.5976562,18.7929688 C26.6513675,18.6220695 26.7294917,18.4682624 26.8320312,18.331543 C26.9345708,18.1948235 27.0419916,18.0581062 27.1542969,17.9213867 C27.1591797,17.9165039 27.1750487,17.8981935 27.2019043,17.8664551 C27.2287599,17.8347166 27.2592772,17.8005373 27.293457,17.763916 C27.3276369,17.7272947 27.3593749,17.6918947 27.3886719,17.6577148 C27.4179689,17.623535 27.4399413,17.5991212 27.4545898,17.5844727 C27.4594727,17.5795898 27.4692382,17.5673829 27.4838867,17.5478516 C27.4985352,17.5283202 27.5144042,17.5051271 27.5314941,17.4782715 C27.5485841,17.4514159 27.5644531,17.4282228 27.5791016,17.4086914 C27.5937501,17.3891601 27.605957,17.3769531 27.6157227,17.3720703 C27.8208018,17.1962882 28.0466296,17.0375984 28.2932129,16.8959961 C28.5397962,16.7543938 28.7961412,16.6323247 29.0622559,16.5297852 C29.3283705,16.4272456 29.5993639,16.3479007 29.8752441,16.291748 C30.1511244,16.2355954 30.4233385,16.2050781 30.6918945,16.2001953 C30.9946304,16.1757811 31.3095687,16.1806639 31.6367187,16.2148438 C31.9638688,16.2490236 32.2690416,16.3295892 32.5522461,16.456543 C32.7915051,16.5297855 32.9978019,16.6127925 33.1711426,16.7055664 C33.3444833,16.7983403 33.4909662,16.8886714 33.6105957,16.9765625 C33.7302252,17.0644536 33.8291012,17.1437985 33.9072266,17.2145996 C33.985352,17.2854007 34.0537106,17.3354491 34.1123047,17.3647461 C34.2636726,17.4965827 34.40039,17.6259759 34.5224609,17.7529297 C34.6445319,17.8798834 34.7556147,18.0117181 34.8557129,18.1484375 C34.955811,18.2851569 35.0498042,18.4304192 35.1376953,18.5842285 C35.2255864,18.7380379 35.3110347,18.9101553 35.394043,19.1005859 C35.4086915,19.1445315 35.4294432,19.2238764 35.4562988,19.338623 C35.4831544,19.4533697 35.5112303,19.5742181 35.5405273,19.7011719 C35.5698244,19.8281256 35.5966796,19.948974 35.6210938,20.0637207 C35.6455079,20.1784674 35.6601562,20.2578123 35.6650391,20.3017578 C35.6699219,20.3115235 35.673584,20.3334959 35.6760254,20.3676758 C35.6784668,20.4018556 35.6796875,20.4433591 35.6796875,20.4921875 L35.6796875,20.7485352 C35.6796875,20.7778322 35.6784668,20.818115 35.6760254,20.8693848 C35.673584,20.9206546 35.6723633,20.9719236 35.6723633,21.0231934 L35.6723633,21.1586914 C35.6723633,21.1977541 35.6699219,21.2197265 35.6650391,21.2246094 C35.6650391,21.2392579 35.6577149,21.2697752 35.6430664,21.3161621 C35.6284179,21.3625491 35.6137696,21.4113767 35.5991211,21.4626465 C35.5844726,21.5139163 35.571045,21.5627439 35.5588379,21.6091309 C35.5466308,21.6555178 35.5405273,21.6835937 35.5405273,21.6933594 C35.4428706,21.7910161 35.3439946,21.8581541 35.2438965,21.8947754 C35.1437983,21.9313967 35.026612,21.9545898 34.892334,21.9643555 C34.758056,21.9741211 34.5969248,21.9802246 34.4089355,21.982666 C34.2209463,21.9851074 33.9926771,22.0009764 33.7241211,22.0302734 L33.3432617,22.0302734 C33.2553707,22.0302734 33.1748051,22.0314941 33.1015625,22.0339355 C33.0283199,22.036377 32.9819337,22.0375977 32.9624023,22.0375977 L32.8891602,22.0375977 C32.8793945,22.0473633 32.8586427,22.0546875 32.8269043,22.0595703 C32.7951659,22.0644531 32.7622072,22.0656738 32.7280273,22.0632324 C32.6938475,22.060791 32.6633302,22.0546875 32.6364746,22.0449219 C32.609619,22.0351562 32.59375,22.0205079 32.5888672,22.0009766 C32.5839844,22.0009766 32.5620119,22.0021973 32.5229492,22.0046387 C32.4838865,22.0070801 32.4411623,22.0083008 32.3947754,22.0083008 L32.2556152,22.0083008 C32.2092283,22.0083008 32.178711,22.0058594 32.1640625,22.0009766 C32.1591797,22.0058594 32.1518555,22.0083008 32.1420898,22.0083008 L32.1054688,22.0083008 C31.9882807,22.0131836 31.8540047,22.0180664 31.7026367,22.0229492 C31.5512688,22.0278321 31.396241,22.0327148 31.2375488,22.0375977 C31.0788566,22.0424805 30.9238289,22.0461426 30.7724609,22.048584 C30.621093,22.0510254 30.486817,22.0522461 30.3696289,22.0522461 C30.1938468,22.0620118 30.0363776,22.0632325 29.8972168,22.0559082 C29.7580559,22.0485839 29.6237799,22.0412598 29.4943848,22.0339355 C29.3649896,22.0266113 29.2307136,22.0205078 29.0915527,22.015625 C28.9523919,22.0107422 28.7949228,22.0107422 28.6191406,22.015625 C28.5947264,22.015625 28.5703126,22.0168457 28.5458984,22.0192871 C28.5214843,22.0217285 28.5043946,22.0351561 28.4946289,22.0595703 C28.4946289,22.0839845 28.5007324,22.1206052 28.5129395,22.1694336 C28.5251465,22.218262 28.53125,22.2499999 28.53125,22.2646484 C28.5751955,22.4404306 28.6057128,22.5661617 28.6228027,22.6418457 C28.6398927,22.7175297 28.6557616,22.7712401 28.6704102,22.8029785 C28.6850587,22.834717 28.703369,22.8615722 28.7253418,22.8835449 C28.7473146,22.9055177 28.7827146,22.9506833 28.831543,23.019043 C28.831543,23.0239258 28.8400878,23.034912 28.8571777,23.052002 C28.8742677,23.0690919 28.8937987,23.0874022 28.9157715,23.1069336 C28.9377443,23.1264649 28.9572753,23.1447753 28.9743652,23.1618652 C28.9914552,23.1789552 29,23.1899414 29,23.1948242 C29.1611336,23.4536146 29.3735338,23.6403803 29.637207,23.755127 C29.9008802,23.8698736 30.1718736,23.9223633 30.4501953,23.9125977 C30.489258,23.9125977 30.5429684,23.911377 30.6113281,23.9089355 C30.6796878,23.9064941 30.71875,23.9052734 30.7285156,23.9052734 C30.8261724,23.8955078 30.8969724,23.8918457 30.940918,23.8942871 C30.9848635,23.8967285 31.0214842,23.9003906 31.0507812,23.9052734 C31.0800783,23.9101563 31.1105955,23.9138183 31.142334,23.9162598 C31.1740724,23.9187012 31.2253414,23.9150391 31.2961426,23.9052734 C31.3669437,23.8955078 31.464599,23.8771974 31.5891113,23.8503418 C31.7136237,23.8234862 31.8857411,23.7832034 32.1054688,23.7294922 C32.1103516,23.7294922 32.1372068,23.7172853 32.1860352,23.6928711 C32.2348635,23.6684569 32.2873532,23.6416017 32.3435059,23.6123047 C32.3996585,23.5830077 32.4533689,23.5549318 32.5046387,23.5280762 C32.5559085,23.5012206 32.5864257,23.4853516 32.5961914,23.4804688 C32.7231452,23.4023434 32.8378901,23.3254398 32.9404297,23.2497559 C33.0429693,23.1740719 33.1369625,23.1044925 33.2224121,23.0410156 C33.3078618,22.9775387 33.3884274,22.921387 33.4641113,22.8725586 C33.5397953,22.8237302 33.6142574,22.7846681 33.6875,22.7553711 L33.7314453,22.7553711 C33.741211,22.7504883 33.7558593,22.7541503 33.7753906,22.7663574 C33.794922,22.7785645 33.8046875,22.7895507 33.8046875,22.7993164 C33.848633,22.8383791 33.9145503,22.8884274 34.0024414,22.9494629 C34.0903325,23.0104984 34.1794429,23.0727536 34.2697754,23.1362305 C34.3601079,23.1997073 34.4467769,23.2619626 34.5297852,23.322998 C34.6127934,23.3840335 34.6738279,23.4365232 34.7128906,23.4804688 C34.7275391,23.4902344 34.7617185,23.5146482 34.8154297,23.5537109 C34.8691409,23.5927736 34.9252927,23.6354978 34.9838867,23.6818848 C35.0424808,23.7282717 35.0937498,23.7722166 35.1376953,23.8137207 C35.1816408,23.8552248 35.2036133,23.8784179 35.2036133,23.8833008 L35.2036133,23.9125977 C35.2036133,23.9223633 35.204834,23.9296875 35.2072754,23.9345703 C35.2097168,23.9394531 35.2109375,23.9467773 35.2109375,23.956543 C35.2158203,24.0786139 35.1804203,24.1860347 35.1047363,24.2788086 C35.0290524,24.3715825 34.9497074,24.4619136 34.8666992,24.5498047 C34.6372059,24.7988294 34.3942884,25.0417469 34.1379395,25.2785645 C33.8815905,25.515382 33.6020523,25.7119133 33.2993164,25.8681641 C33.2016597,25.9121096 33.1040044,25.9450682 33.0063477,25.967041 C32.9086909,25.9890138 32.8110356,26.0170897 32.7133789,26.0512695 C32.5864251,26.0903322 32.4643561,26.1184081 32.347168,26.135498 C32.2299799,26.152588 32.1152349,26.1635742 32.0029297,26.168457 C31.8906244,26.1733399 31.7746588,26.1745606 31.6550293,26.1721191 C31.5353998,26.1696777 31.4072272,26.1708984 31.2705078,26.1757812 C30.9189436,26.1855469 30.5844742,26.17334 30.2670898,26.1391602 C29.9497054,26.1049803 29.6225603,26.039063 29.2856445,25.9414062 C29.1586908,25.9023436 29.0415044,25.8596194 28.934082,25.8132324 C28.8266596,25.7668455 28.7253423,25.7155765 28.630127,25.6594238 C28.5349116,25.6032712 28.4409184,25.5397953 28.3481445,25.4689941 C28.2553706,25.398193 28.1601567,25.3212895 28.0625,25.2382812 C27.8916007,25.0917961 27.7182626,24.950196 27.5424805,24.8134766 C27.3666983,24.6767571 27.2006844,24.5156259 27.0444336,24.3300781 C27.0346679,24.3251953 27.0139162,24.2958987 26.9821777,24.2421875 C26.9504393,24.1884763 26.9321289,24.1542969 26.9272461,24.1396484 C26.9174804,24.1298828 26.8979494,24.1066896 26.8686523,24.0700684 C26.8393553,24.0334471 26.808838,23.994385 26.7770996,23.9528809 C26.7453612,23.9113767 26.7136232,23.8723146 26.6818848,23.8356934 C26.6501463,23.7990721 26.631836,23.775879 26.6269531,23.7661133 C26.6171875,23.7514648 26.5964357,23.7136234 26.5646973,23.6525879 C26.5329588,23.5915524 26.4963381,23.5207524 26.454834,23.4401855 C26.4133299,23.3596187 26.3742678,23.2802738 26.3376465,23.2021484 C26.3010252,23.124023 26.2729493,23.0605471 26.253418,23.0117188 C26.2436523,23.0019531 26.2338868,22.982422 26.2241211,22.953125 C26.2143554,22.923828 26.2094727,22.9042969 26.2094727,22.8945312 C26.1508786,22.572264 26.1008303,22.2573258 26.0593262,21.949707 C26.0178221,21.6420883 25.9995117,21.3222673 26.0043945,20.9902344 L26.0043945,20.9536133 Z M31.2192383,18.6098633 C30.9702136,18.6147461 30.7382823,18.6452634 30.5234375,18.701416 C30.3085927,18.7575686 30.0986338,18.8564446 29.8935547,18.9980469 C29.825195,19.0419924 29.7482914,19.0981442 29.6628418,19.1665039 C29.5773922,19.2348636 29.4943852,19.3093258 29.4138184,19.3898926 C29.3332516,19.4704594 29.2661135,19.5559078 29.2124023,19.6462402 C29.1586911,19.7365727 29.1318359,19.8256832 29.1318359,19.9135742 C29.2587897,19.9038085 29.375976,19.8891603 29.4833984,19.8696289 C29.5908208,19.8500976 29.7055658,19.8378906 29.8276367,19.8330078 L29.8569336,19.8330078 C29.8666993,19.8378906 29.8972165,19.8415527 29.9484863,19.8439941 C29.9997561,19.8464356 30.0559079,19.8488769 30.1169434,19.8513184 C30.1779788,19.8537598 30.2353513,19.8562012 30.2890625,19.8586426 C30.3427737,19.861084 30.3769531,19.8623047 30.3916016,19.8623047 L31.0947266,19.8623047 C31.1386721,19.8623047 31.1997066,19.8598633 31.277832,19.8549805 C31.3559574,19.8500976 31.4353023,19.8452149 31.5158691,19.840332 C31.5964359,19.8354492 31.6684567,19.8317871 31.7319336,19.8293457 C31.7954105,19.8269043 31.8320312,19.8256836 31.8417969,19.8256836 C31.8906252,19.8256836 31.9797357,19.8244629 32.1091309,19.8220215 C32.238526,19.8195801 32.3764641,19.8171387 32.5229492,19.8146973 C32.6694343,19.8122558 32.8073724,19.8085938 32.9367676,19.8037109 C33.0661628,19.7988281 33.1552732,19.7939453 33.2041016,19.7890625 C33.2138672,19.7890625 33.2236328,19.7841797 33.2333984,19.7744141 L33.2480469,19.7597656 C33.2480469,19.75 33.2431641,19.7353517 33.2333984,19.7158203 C33.2236328,19.696289 33.2138672,19.6816407 33.2041016,19.671875 C33.1943359,19.6523437 33.1809083,19.6267091 33.1638184,19.5949707 C33.1467284,19.5632323 33.1284181,19.5314943 33.1088867,19.4997559 C33.0893554,19.4680174 33.0722657,19.4411622 33.0576172,19.4191895 C33.0429687,19.3972167 33.0332031,19.3837891 33.0283203,19.3789062 C32.8134755,19.1103502 32.5412614,18.9125983 32.2116699,18.7856445 C31.8820784,18.6586908 31.5512712,18.6000976 31.2192383,18.6098633 Z M41.1948242,23.2680664 C41.1850585,23.2680664 41.1691896,23.2729492 41.1472168,23.2827148 C41.125244,23.2924805 41.109375,23.302246 41.0996094,23.3120117 C41.0019526,23.4096685 40.9165043,23.5012203 40.8432617,23.5866699 C40.7700192,23.6721196 40.6992191,23.7587886 40.6308594,23.8466797 C40.5624997,23.9345708 40.4953617,24.0261226 40.4294434,24.1213379 C40.3635251,24.2165532 40.2939457,24.3227533 40.2207031,24.4399414 C40.2109375,24.4497071 40.1901857,24.4851071 40.1584473,24.5461426 C40.1267088,24.607178 40.0900881,24.6730953 40.048584,24.7438965 C40.0070799,24.8146976 39.9692385,24.8793942 39.9350586,24.9379883 C39.9008787,24.9965823 39.8813477,25.0283203 39.8764648,25.0332031 C39.8618163,25.0625001 39.8349611,25.1113278 39.7958984,25.1796875 C39.7568357,25.2480472 39.7153323,25.3188473 39.6713867,25.3920898 C39.6274412,25.4653324 39.5859377,25.5336911 39.546875,25.597168 C39.5078123,25.6606448 39.4809571,25.7021483 39.4663086,25.7216797 C39.4565429,25.7314454 39.4370119,25.748535 39.4077148,25.7729492 C39.3784178,25.7973634 39.3564454,25.8144531 39.3417969,25.8242188 C39.3222655,25.8388673 39.2795413,25.8583983 39.213623,25.8828125 C39.1477047,25.9072267 39.1074219,25.9194336 39.0927734,25.9194336 C39.0878906,25.9194336 39.0732423,25.9182129 39.0488281,25.9157715 C39.0244139,25.9133301 38.996338,25.909668 38.9645996,25.9047852 C38.9328612,25.8999023 38.9023439,25.8962402 38.8730469,25.8937988 C38.8437499,25.8913574 38.8266602,25.8901367 38.8217773,25.8901367 C38.802246,25.880371 38.7656253,25.8718262 38.7119141,25.864502 C38.6582029,25.8571777 38.6240235,25.8535156 38.609375,25.8535156 L37.3789062,25.8095703 C37.3496092,25.8339845 37.322754,25.8474121 37.2983398,25.8498535 C37.2739257,25.8522949 37.2470705,25.8535156 37.2177734,25.8535156 C37.2128906,25.8535156 37.2080078,25.8547363 37.203125,25.8571777 C37.1982422,25.8596192 37.1933594,25.8608398 37.1884766,25.8608398 L37.1738281,25.8608398 C37.1640625,25.8608398 37.1396486,25.8474122 37.1005859,25.8205566 C37.0615232,25.793701 37.0371094,25.7753907 37.0273438,25.765625 C36.9150385,25.7021481 36.8137212,25.6569826 36.7233887,25.630127 C36.6330562,25.6032714 36.5573734,25.5776368 36.4963379,25.5532227 C36.4353024,25.5288085 36.3876955,25.4958498 36.3535156,25.4543457 C36.3193358,25.4128416 36.3071289,25.348145 36.3168945,25.2602539 C36.3217774,25.2065427 36.3522946,25.1479495 36.4084473,25.0844727 C36.4645999,25.0209958 36.5048827,24.9697268 36.5292969,24.9306641 C36.5341797,24.9257812 36.5427245,24.9099122 36.5549316,24.8830566 C36.5671387,24.856201 36.5805663,24.8281251 36.5952148,24.7988281 C36.6098634,24.7695311 36.6245116,24.7426759 36.6391602,24.7182617 C36.6538087,24.6938475 36.6660156,24.6767579 36.6757812,24.6669922 C36.7392581,24.5937496 36.7978513,24.5278323 36.8515625,24.4692383 C36.9052737,24.4106442 36.9577634,24.3544925 37.0090332,24.3007812 C37.060303,24.24707 37.111572,24.1884769 37.1628418,24.125 C37.2141116,24.0615231 37.2666013,23.9882817 37.3203125,23.9052734 C37.4765633,23.6562488 37.6303703,23.4292002 37.7817383,23.2241211 C37.9331062,23.0190419 38.0966788,22.8066417 38.2724609,22.5869141 C38.2871094,22.5722656 38.3188474,22.5332034 38.3676758,22.4697266 C38.4165042,22.4062497 38.4689939,22.3366703 38.5251465,22.2609863 C38.5812991,22.1853024 38.6337888,22.1145023 38.6826172,22.048584 C38.7314456,21.9826657 38.7631835,21.9423829 38.777832,21.9277344 C38.7827149,21.9228515 38.7985839,21.8996584 38.8254395,21.8581543 C38.8522951,21.8166502 38.8815916,21.7714846 38.9133301,21.7226562 C38.9450685,21.6738279 38.9755858,21.629883 39.0048828,21.5908203 C39.0341798,21.5517576 39.0537109,21.5273438 39.0634766,21.5175781 C39.0634766,21.5078125 39.0683593,21.4931642 39.078125,21.4736328 C39.0878907,21.4541015 39.0927734,21.4394532 39.0927734,21.4296875 L39.0927734,21.4150391 C39.0878906,21.4101562 39.0854492,21.4028321 39.0854492,21.3930664 L39.0854492,21.3857422 C39.0854492,21.3759765 39.0708009,21.3576661 39.0415039,21.3308105 C39.0122069,21.3039549 38.9975586,21.2856446 38.9975586,21.2758789 C38.9975586,21.2661132 38.9963379,21.2502443 38.9938965,21.2282715 C38.9914551,21.2062987 38.9902344,21.1904297 38.9902344,21.1806641 C38.9902344,21.1708984 38.9841309,21.1635742 38.9719238,21.1586914 C38.9597167,21.1538086 38.9487305,21.1464844 38.9389648,21.1367188 C38.8608395,21.0244135 38.7900394,20.9255375 38.7265625,20.8400879 C38.6630856,20.7546382 38.5996097,20.6533209 38.5361328,20.5361328 L38.3896484,20.3164062 C38.2626947,20.0869129 38.1259773,19.8708506 37.9794922,19.6682129 C37.8330071,19.4655752 37.6938483,19.2543956 37.5620117,19.034668 C37.552246,19.0200195 37.5302736,18.9846194 37.4960938,18.9284668 C37.4619139,18.8723142 37.4240725,18.8112796 37.3825684,18.7453613 C37.3410642,18.679443 37.3032228,18.6184085 37.269043,18.5622559 C37.2348631,18.5061032 37.2153321,18.4731446 37.2104492,18.4633789 C37.2055664,18.4536132 37.1884767,18.4316408 37.1591797,18.3974609 C37.1298827,18.3632811 37.0993654,18.327881 37.067627,18.2912598 C37.0358885,18.2546385 37.0065919,18.2204591 36.9797363,18.1887207 C36.9528807,18.1569823 36.9370117,18.1362305 36.9321289,18.1264648 C36.9223632,18.121582 36.9089356,18.105713 36.8918457,18.0788574 C36.8747558,18.0520018 36.8564454,18.0227052 36.8369141,17.9909668 C36.8173827,17.9592284 36.7978517,17.9287111 36.7783203,17.8994141 L36.734375,17.8334961 C36.7197265,17.8139647 36.6928713,17.7724613 36.6538086,17.7089844 C36.6147459,17.6455075 36.5744631,17.5783695 36.532959,17.5075684 C36.4914549,17.4367672 36.4511721,17.3684085 36.4121094,17.3024902 C36.3730467,17.2365719 36.3461915,17.1914064 36.331543,17.1669922 C36.3266601,17.1523437 36.3278808,17.1242678 36.3352051,17.0827637 C36.3425293,17.0412596 36.3510742,17.0131837 36.3608398,16.9985352 C36.3754884,16.9838866 36.3999022,16.9741211 36.434082,16.9692383 C36.4682619,16.9643554 36.5061033,16.9606934 36.5476074,16.958252 C36.5891115,16.9558105 36.626953,16.9533692 36.6611328,16.9509277 C36.6953127,16.9484863 36.7172851,16.9448242 36.7270508,16.9399414 C36.7563478,16.9399414 36.7917478,16.9326173 36.833252,16.9179688 C36.8747561,16.9033202 36.9150389,16.8886719 36.9541016,16.8740234 C36.9931643,16.8593749 37.0285643,16.8447266 37.0603027,16.8300781 C37.0920412,16.8154296 37.1127929,16.8081055 37.1225586,16.8081055 C37.1323243,16.8032226 37.1604002,16.7971192 37.2067871,16.7897949 C37.2531741,16.7824707 37.3032224,16.7739258 37.3569336,16.7641602 C37.4106448,16.7543945 37.4606931,16.7458496 37.5070801,16.7385254 C37.553467,16.7312011 37.5815429,16.7250977 37.5913086,16.7202148 C37.6157228,16.7104492 37.6633297,16.703125 37.7341309,16.6982422 C37.804932,16.6933594 37.8452148,16.690918 37.8549805,16.690918 C37.8745118,16.690918 37.9160153,16.6872559 37.9794922,16.6799316 C38.0429691,16.6726074 38.1113278,16.6628419 38.1845703,16.6506348 C38.2578129,16.6384277 38.3249509,16.6286621 38.3859863,16.6213379 C38.4470218,16.6140136 38.4848632,16.6103516 38.4995117,16.6103516 C38.5043946,16.6054687 38.5227049,16.6018067 38.5544434,16.5993652 C38.5861818,16.5969238 38.6203611,16.5944824 38.6569824,16.592041 C38.6936037,16.5895996 38.727783,16.5883789 38.7595215,16.5883789 L38.8657227,16.5883789 C38.8803712,16.5883789 38.9035643,16.5895996 38.9353027,16.592041 C38.9670412,16.5944824 39.0012205,16.5981445 39.0378418,16.6030273 C39.0744631,16.6079102 39.1074217,16.6152343 39.1367188,16.625 L39.2026367,16.6469727 C39.2124024,16.6567383 39.2233886,16.6726073 39.2355957,16.6945801 C39.2478028,16.7165528 39.2539062,16.7324218 39.2539062,16.7421875 C39.2636719,16.7519532 39.2807616,16.7653808 39.3051758,16.7824707 C39.32959,16.7995606 39.3466796,16.8129882 39.3564453,16.8227539 C39.3564453,16.8276367 39.3588867,16.842285 39.3637695,16.8666992 C39.3686524,16.8911134 39.3747558,16.9167479 39.3820801,16.9436035 C39.3894043,16.9704591 39.3955078,16.9960936 39.4003906,17.0205078 C39.4052735,17.044922 39.4077148,17.0595703 39.4077148,17.0644531 C39.4125977,17.0742188 39.4296874,17.1071775 39.4589844,17.1633301 C39.4882814,17.2194827 39.5212401,17.2854 39.5578613,17.361084 C39.5944826,17.436768 39.632324,17.5136715 39.6713867,17.5917969 C39.7104494,17.6699223 39.7421874,17.7309568 39.7666016,17.7749023 C39.7763672,17.784668 39.7873535,17.7993163 39.7995605,17.8188477 C39.8117676,17.838379 39.8203125,17.8530273 39.8251953,17.862793 L39.8398438,17.8774414 C39.8447266,17.8823242 39.8496094,17.8859863 39.8544922,17.8884277 C39.859375,17.8908692 39.8642578,17.8945312 39.8691406,17.8994141 C39.8740235,17.9189454 39.8813476,17.9384765 39.8911133,17.9580078 C39.900879,17.9726563 39.9069824,17.9860839 39.9094238,17.998291 C39.9118652,18.0104981 39.9179687,18.0190429 39.9277344,18.0239258 C39.9423829,18.0532228 39.9716795,18.1069332 40.015625,18.1850586 C40.0595705,18.263184 40.1071775,18.3474117 40.1584473,18.4377441 C40.2097171,18.5280766 40.2597654,18.6123043 40.3085938,18.6904297 C40.3574221,18.7685551 40.3940428,18.8222655 40.418457,18.8515625 C40.4282227,18.8759767 40.4514158,18.9138181 40.4880371,18.9650879 C40.5246584,19.0163577 40.5478515,19.046875 40.5576172,19.0566406 C40.5673829,19.0664063 40.5832518,19.0798339 40.6052246,19.0969238 C40.6271974,19.1140138 40.6430664,19.1274414 40.652832,19.137207 L40.6821289,19.137207 C40.6918946,19.137207 40.7077636,19.1323243 40.7297363,19.1225586 C40.7517091,19.1127929 40.7675781,19.1030274 40.7773438,19.0932617 L41.5537109,17.9287109 C41.5634766,17.9140624 41.5830077,17.8823245 41.6123047,17.8334961 C41.6416017,17.7846677 41.6733397,17.7309573 41.7075195,17.6723633 C41.7416994,17.6137692 41.7722167,17.5588381 41.7990723,17.5075684 C41.8259279,17.4562986 41.8442382,17.4257813 41.8540039,17.4160156 C41.8588867,17.40625 41.8723143,17.3867189 41.8942871,17.3574219 C41.9162599,17.3281249 41.9406737,17.2976076 41.9675293,17.2658691 C41.9943849,17.2341307 42.0212401,17.2036134 42.0480957,17.1743164 C42.0749513,17.1450194 42.0957031,17.1230469 42.1103516,17.1083984 C42.1250001,17.0986328 42.1433104,17.0766603 42.1652832,17.0424805 C42.187256,17.0083006 42.2104491,16.9716799 42.2348633,16.9326172 C42.2592775,16.8935545 42.2824706,16.8581545 42.3044434,16.826416 C42.3264161,16.7946776 42.3422851,16.7739258 42.3520508,16.7641602 C42.3862306,16.7299803 42.4155272,16.7055665 42.4399414,16.690918 C42.4643556,16.6762695 42.5034177,16.6689453 42.5571289,16.6689453 C42.703614,16.6640625 42.8610831,16.6628418 43.029541,16.6652832 C43.1979989,16.6677246 43.3688956,16.6726074 43.5422363,16.6799316 C43.715577,16.6872559 43.8864738,16.6933594 44.0549316,16.6982422 C44.2233895,16.703125 44.3808586,16.703125 44.5273438,16.6982422 C44.5517579,16.6933594 44.5944821,16.6884766 44.6555176,16.6835938 C44.716553,16.6787109 44.7592772,16.6738281 44.7836914,16.6689453 C44.7885742,16.6640625 44.7946777,16.6591797 44.802002,16.6542969 C44.8093262,16.649414 44.8251952,16.6469727 44.8496094,16.6469727 C44.8740236,16.6469727 44.9069822,16.6542968 44.9484863,16.6689453 C44.9899904,16.6835938 45.0473629,16.710449 45.1206055,16.7495117 C45.1303711,16.7543946 45.1486815,16.7592773 45.1755371,16.7641602 C45.2023927,16.769043 45.2304686,16.7727051 45.2597656,16.7751465 C45.2890626,16.7775879 45.3146972,16.7800293 45.3366699,16.7824707 C45.3586427,16.7849121 45.3745117,16.7861328 45.3842773,16.7861328 C45.3989259,16.7861328 45.4355466,16.7849121 45.4941406,16.7824707 C45.5527347,16.7800293 45.586914,16.7788086 45.5966797,16.7788086 C45.6113282,16.7788086 45.6333006,16.7800293 45.6625977,16.7824707 C45.6918947,16.7849121 45.722412,16.7873535 45.7541504,16.7897949 C45.7858888,16.7922363 45.8151854,16.7958984 45.842041,16.8007812 C45.8688966,16.8056641 45.887207,16.8105469 45.8969727,16.8154297 L45.9262695,16.8300781 C45.9311524,16.834961 45.9384765,16.8398437 45.9482422,16.8447266 L45.9482422,16.8886719 C45.9482422,16.8984375 45.9445801,16.9130858 45.9372559,16.9326172 C45.9299316,16.9521485 45.9213868,16.9667968 45.9116211,16.9765625 C45.8090815,17.1376961 45.7053228,17.284179 45.6003418,17.4160156 C45.4953608,17.5478522 45.3867193,17.6760248 45.2744141,17.8005371 C45.1621088,17.9250495 45.0473639,18.0495599 44.9301758,18.1740723 C44.8129877,18.2985846 44.69336,18.4316399 44.5712891,18.5732422 C44.5566406,18.5927735 44.511475,18.6464839 44.435791,18.734375 C44.360107,18.8222661 44.2783208,18.91748 44.1904297,19.0200195 L43.9487305,19.302002 C43.8754879,19.3874516 43.831543,19.4399413 43.8168945,19.4594727 C43.7680662,19.5131839 43.6826178,19.6083978 43.5605469,19.7451172 C43.438476,19.8818366 43.3103034,20.0270988 43.1760254,20.1809082 C43.0417474,20.3347176 42.9147955,20.4787591 42.795166,20.6130371 C42.6755365,20.7473151 42.5937502,20.8413083 42.5498047,20.8950195 L42.5498047,20.9243164 C42.5595704,20.9389649 42.5754393,20.958496 42.5974121,20.9829102 C42.6193849,21.0073243 42.642578,21.0329589 42.6669922,21.0598145 C42.6914064,21.0866701 42.7133788,21.1110839 42.7329102,21.1330566 C42.7524415,21.1550294 42.7670898,21.168457 42.7768555,21.1733398 C42.791504,21.197754 42.8256833,21.2514644 42.8793945,21.3344727 C42.9331057,21.4174809 42.9904782,21.5090327 43.0515137,21.6091309 C43.1125491,21.709229 43.1699216,21.8020015 43.2236328,21.8874512 C43.277344,21.9729008 43.3115234,22.0253905 43.3261719,22.0449219 C43.3359375,22.0595704 43.3518065,22.0827635 43.3737793,22.114502 C43.3957521,22.1462404 43.4091797,22.1669921 43.4140625,22.1767578 C43.4238282,22.1865235 43.4470213,22.2060545 43.4836426,22.2353516 C43.5202639,22.2646486 43.543457,22.2841796 43.5532227,22.2939453 C43.5532227,22.303711 43.5617675,22.3256834 43.5788574,22.3598633 C43.5959474,22.3940431 43.609375,22.4160156 43.6191406,22.4257812 C43.6826175,22.5625007 43.7692866,22.6992181 43.8791504,22.8359375 C43.9890142,22.9726569 44.0878902,23.0971674 44.1757812,23.2094727 C44.1855469,23.2192383 44.2111814,23.2399901 44.2526855,23.2717285 C44.2941897,23.303467 44.3198242,23.3193359 44.3295898,23.3193359 C44.3295898,23.3291016 44.336914,23.3522947 44.3515625,23.388916 C44.366211,23.4255373 44.3784179,23.4487304 44.3881836,23.4584961 C44.3881836,23.4682618 44.3930664,23.4829101 44.402832,23.5024414 L44.4174805,23.5317383 L45.8237305,25.4360352 C45.838379,25.4458008 45.8640135,25.4702146 45.9006348,25.5092773 C45.937256,25.54834 45.9555664,25.580078 45.9555664,25.6044922 C45.9653321,25.6289064 45.9628907,25.6728512 45.9482422,25.7363281 C45.9335937,25.799805 45.9189454,25.8388671 45.9042969,25.8535156 C45.8749999,25.8535156 45.8249515,25.8571777 45.7541504,25.864502 C45.6833493,25.8718262 45.6076664,25.8791504 45.5270996,25.8864746 C45.4465328,25.8937989 45.37085,25.901123 45.3000488,25.9084473 C45.2292477,25.9157715 45.1791994,25.921875 45.1499023,25.9267578 C45.1450195,25.9267578 45.1315919,25.9291992 45.1096191,25.934082 C45.0876464,25.9389649 45.0644532,25.9438476 45.0400391,25.9487305 C45.0156249,25.9536133 44.9936524,25.9572754 44.9741211,25.9597168 C44.9545897,25.9621582 44.9423828,25.9633789 44.9375,25.9633789 C44.7812492,25.9926759 44.6225594,26.0097656 44.4614258,26.0146484 C44.3002922,26.0195313 44.1367196,26.0292968 43.9707031,26.0439453 C43.9609375,26.0439453 43.9316409,26.0476074 43.8828125,26.0549316 C43.8339841,26.0622559 43.7802737,26.06958 43.7216797,26.0769043 C43.6630856,26.0842286 43.6093752,26.090332 43.5605469,26.0952148 C43.5117185,26.1000977 43.4824219,26.1025391 43.4726562,26.1025391 C43.4628906,26.1025391 43.4445802,26.1037598 43.4177246,26.1062012 C43.390869,26.1086426 43.3701173,26.1098633 43.3554688,26.1098633 C43.2041008,26.1098633 43.0844731,26.0561529 42.996582,25.9487305 C42.9428708,25.8852536 42.8977053,25.8181156 42.861084,25.7473145 C42.8244627,25.6765133 42.7866213,25.6069339 42.7475586,25.5385742 C42.7377929,25.5288085 42.7170412,25.4982913 42.6853027,25.4470215 C42.6535643,25.3957517 42.6254884,25.3579103 42.6010742,25.3334961 C42.6010742,25.3237304 42.5852052,25.301758 42.5534668,25.2675781 C42.5217284,25.2333983 42.5058594,25.2114258 42.5058594,25.2016602 C42.5009765,25.1967773 42.4887696,25.178467 42.4692383,25.1467285 C42.4497069,25.1149901 42.4289552,25.0808107 42.4069824,25.0441895 C42.3850097,25.0075682 42.3630372,24.9733888 42.3410645,24.9416504 C42.3190917,24.909912 42.3056641,24.8891602 42.3007812,24.8793945 C42.1933588,24.7182609 42.0786139,24.5620125 41.956543,24.4106445 C41.834472,24.2592766 41.7246099,24.0981454 41.6269531,23.9272461 C41.6220703,23.9174804 41.6086427,23.8894045 41.5866699,23.8430176 C41.5646972,23.7966306 41.5390626,23.747803 41.5097656,23.6965332 C41.4804686,23.6452634 41.4523927,23.5976565 41.4255371,23.5537109 C41.3986815,23.5097654 41.3803711,23.4804688 41.3706055,23.4658203 C41.3608398,23.4511718 41.3449708,23.4230959 41.322998,23.3815918 C41.3010253,23.3400877 41.2875977,23.3144532 41.2827148,23.3046875 L41.2387695,23.2607422 L41.2094727,23.2607422 L41.1948242,23.2680664 Z M47.9477539,25.699707 C47.9575196,25.6899414 47.9672851,25.6704103 47.9770508,25.6411133 C47.9868165,25.6118163 47.9916992,25.5922852 47.9916992,25.5825195 C47.9916992,25.5581053 47.9929199,25.5166019 47.9953613,25.4580078 C47.9978027,25.3994138 48.0002441,25.3371585 48.0026855,25.2712402 C48.005127,25.2053219 48.0063477,25.1442874 48.0063477,25.0881348 L48.0063477,24.9672852 C48.0063477,24.9282225 48.0075683,24.8757328 48.0100098,24.8098145 L48.017334,24.6120605 C48.0197754,24.5461422 48.0209961,24.4887698 48.0209961,24.4399414 L48.0209961,24.1359863 C48.0209961,24.0212397 48.0197754,23.8979499 48.017334,23.7661133 C48.0148926,23.6342767 48.0124512,23.5109869 48.0100098,23.3962402 C48.0075683,23.2814936 48.0063477,23.2094728 48.0063477,23.1801758 C48.0063477,23.1655273 48.0075683,23.1289065 48.0100098,23.0703125 C48.0124512,23.0117185 48.0148926,22.9482425 48.017334,22.8798828 C48.0197754,22.8115231 48.0209961,22.7480472 48.0209961,22.6894531 C48.0209961,22.6308591 48.0185547,22.5942384 48.0136719,22.5795898 C48.0136719,22.5649413 48.0112305,22.5246585 48.0063477,22.4587402 C48.0014648,22.3928219 47.9953614,22.3232426 47.9880371,22.25 C47.9807129,22.1767574 47.9733887,22.1071781 47.9660645,22.0412598 C47.9587402,21.9753415 47.9550781,21.9350587 47.9550781,21.9204102 C47.9501953,21.8520504 47.9465332,21.7495124 47.9440918,21.612793 C47.9416504,21.4760735 47.9379883,21.3210458 47.9331055,21.1477051 C47.9282226,20.9743644 47.9233399,20.7924814 47.918457,20.6020508 C47.9135742,20.4116201 47.9086914,20.2309579 47.9038086,20.0600586 C47.8989258,19.8891593 47.894043,19.7353522 47.8891602,19.5986328 C47.8842773,19.4619134 47.8818359,19.3593753 47.8818359,19.2910156 L47.8598633,19.203125 C47.6694326,19.2128907 47.4680186,19.2141114 47.2556152,19.2067871 C47.0432118,19.1994629 46.8393564,19.1811525 46.644043,19.1518555 C46.644043,19.1420898 46.6416016,19.1311036 46.6367188,19.1188965 L46.6147461,19.0639648 C46.6147461,19.0541992 46.6049806,19.0517578 46.5854492,19.0566406 C46.5659179,19.0615235 46.5610351,19.0590821 46.5708008,19.0493164 C46.5708008,19.0053709 46.5671387,18.9345708 46.5598145,18.8369141 C46.5524902,18.7392573 46.5451661,18.6269538 46.5378418,18.5 C46.5305175,18.3730462 46.5231934,18.2399909 46.5158691,18.1008301 C46.5085449,17.9616692 46.5012207,17.8286139 46.4938965,17.7016602 C46.4865722,17.5747064 46.4804688,17.4611821 46.4755859,17.361084 C46.4707031,17.2609858 46.4658203,17.1889651 46.4609375,17.1450195 L46.4609375,17.0644531 C46.4609375,16.9814449 46.4841306,16.9094241 46.5305176,16.8483887 C46.5769045,16.7873532 46.6416011,16.7470704 46.7246094,16.7275391 C46.8955087,16.7519532 47.0712882,16.7495119 47.2519531,16.7202148 C47.4326181,16.6909178 47.6059562,16.6762695 47.7719727,16.6762695 L47.8891602,16.6762695 C47.9282229,16.6762695 47.9648436,16.6616212 47.9990234,16.6323242 L47.9990234,16.4931641 C48.0087891,16.1171856 47.9965822,15.748537 47.9624023,15.387207 C47.9282225,15.0258771 47.9160156,14.6572284 47.9257812,14.28125 L47.9257812,14.1787109 C47.9257812,14.1298826 47.9270019,14.0773929 47.9294434,14.0212402 C47.9318848,13.9650876 47.9343262,13.9113772 47.9367676,13.8601074 C47.939209,13.8088376 47.9404297,13.7734376 47.9404297,13.7539062 C47.9453125,13.7148436 47.9733884,13.689209 48.0246582,13.677002 C48.075928,13.6647949 48.1699212,13.6733397 48.3066406,13.7026367 C48.3408205,13.6977539 48.398193,13.6916504 48.4787598,13.6843262 C48.5593266,13.6770019 48.6435542,13.6684571 48.7314453,13.6586914 C48.8193364,13.6489257 48.9023434,13.6403809 48.9804688,13.6330566 C49.0585941,13.6257324 49.1123045,13.6196289 49.1416016,13.6147461 C49.1562501,13.6147461 49.1965329,13.6159668 49.2624512,13.6184082 C49.3283695,13.6208496 49.3979489,13.6220703 49.4711914,13.6220703 C49.544434,13.6220703 49.6127927,13.623291 49.6762695,13.6257324 C49.7397464,13.6281738 49.7763671,13.6293945 49.7861328,13.6293945 L49.8740234,13.6293945 C49.9033205,13.6293945 49.9472653,13.6306152 50.0058594,13.6330566 C50.0644534,13.6354981 50.1230466,13.6391601 50.1816406,13.644043 C50.2500003,13.6489258 50.3208004,13.6538086 50.394043,13.6586914 L50.4746094,13.746582 C50.4746094,13.7612305 50.472168,13.7844237 50.4672852,13.8161621 C50.4624023,13.8479005 50.4575196,13.8808592 50.4526367,13.9150391 C50.4477539,13.9492189 50.4440918,13.9821776 50.4416504,14.013916 C50.439209,14.0456545 50.4404297,14.0688476 50.4453125,14.0834961 C50.4550782,14.0932618 50.4648437,14.1079101 50.4746094,14.1274414 C50.484375,14.1469728 50.4892578,14.161621 50.4892578,14.1713867 C50.513672,14.3667002 50.5307617,14.557128 50.5405273,14.7426758 C50.550293,14.9282236 50.5551758,15.1284169 50.5551758,15.3432617 C50.5551758,15.3969729 50.5563965,15.4738765 50.5588379,15.5739746 C50.5612793,15.6740728 50.5637207,15.7851556 50.5661621,15.9072266 C50.5686035,16.0292975 50.5710449,16.153808 50.5734863,16.2807617 C50.5759277,16.4077155 50.5747071,16.5249018 50.5698242,16.6323242 C50.5698242,16.6616212 50.5771484,16.682373 50.5917969,16.6945801 C50.6064454,16.7067872 50.6271971,16.7141113 50.6540527,16.7165527 C50.6809083,16.7189942 50.7077635,16.7177735 50.7346191,16.7128906 C50.7614747,16.7080078 50.7846679,16.7055664 50.8041992,16.7055664 L50.8334961,16.7055664 C50.9897469,16.656738 51.1411125,16.6323242 51.2875977,16.6323242 L51.7636719,16.6323242 C51.7783204,16.6323242 51.8002928,16.6335449 51.8295898,16.6359863 C51.8588869,16.6384277 51.8881834,16.6396484 51.9174805,16.6396484 C51.9516603,16.6445313 51.9907224,16.6469727 52.034668,16.6469727 L52.0786133,16.8959961 C52.0834961,17.1499036 52.0822754,17.3952625 52.0749512,17.6320801 C52.0676269,17.8688977 52.0834959,18.1191393 52.1225586,18.3828125 L52.1225586,18.9467773 C52.1225586,19.0004885 52.1103517,19.041992 52.0859375,19.0712891 C52.0615233,19.1005861 52.0334474,19.1225585 52.001709,19.137207 C51.9699705,19.1518555 51.9357912,19.1640625 51.8991699,19.1738281 C51.8625486,19.1835938 51.82959,19.1933593 51.800293,19.203125 L51.5878906,19.2470703 L50.7822266,19.2470703 L50.7675781,19.8769531 C50.7675781,19.8867188 50.7651367,19.9099119 50.7602539,19.9465332 C50.7553711,19.9831545 50.751709,20.0222166 50.7492676,20.0637207 C50.7468262,20.1052248 50.7443848,20.1430662 50.7419434,20.1772461 C50.7395019,20.211426 50.743164,20.230957 50.7529297,20.2358398 C50.743164,20.4018563 50.7407226,20.5556634 50.7456055,20.6972656 C50.7504883,20.8388679 50.7590331,20.976806 50.7712402,21.111084 C50.7834473,21.245362 50.7980956,21.3820794 50.8151855,21.5212402 C50.8322755,21.6604011 50.8481445,21.8081047 50.862793,21.9643555 L50.7822266,25.8022461 C50.7822266,25.8510745 50.7565921,25.8913573 50.7053223,25.9230957 C50.6540525,25.9548341 50.6088869,25.9707031 50.5698242,25.9707031 L48.9658203,25.9633789 C48.9511718,25.9731446 48.9218752,25.9816894 48.8779297,25.9890137 C48.8339842,25.9963379 48.807129,26 48.7973633,26 C48.7875976,26 48.7656252,25.9938965 48.7314453,25.9816895 C48.6972655,25.9694824 48.675293,25.9633789 48.6655273,25.9633789 C48.6508788,25.9633789 48.6228029,25.9609375 48.5812988,25.9560547 C48.5397947,25.9511719 48.4958498,25.9462891 48.4494629,25.9414062 C48.4030759,25.9365234 48.3591311,25.9316406 48.317627,25.9267578 C48.2761228,25.921875 48.2504883,25.9169922 48.2407227,25.9121094 C48.1870115,25.9072265 48.1247562,25.8962403 48.0539551,25.8791504 C47.9831539,25.8620605 47.9477539,25.8120121 47.9477539,25.7290039 L47.9477539,25.699707 Z" id="path-1"></path>
    </defs>
    <g id="Page-1" stroke="none" stroke-width="1" fill="none" fill-rule="evenodd">
        <g id="Next-Btn">
            <rect id="Rectangle" fill="#FFFFFF" x="0" y="0" width="89" height="38" rx="19"></rect>
            <g id="Next" fill-rule="nonzero">
                <use fill="#FFFFFF" xlink:href="#path-1"></use>
                <use fill="#3F8FE8" xlink:href="#path-1"></use>
            </g>
        </g>
        <path d="M69.6829908,17.5051534 C68.8517175,16.7777893 68.7674825,15.514264 69.4948466,14.6829908 C70.2222107,13.8517175 71.485736,13.7674825 72.3170092,14.4948466 L76.3170092,17.9948466 C77.2276636,18.7916692 77.2276636,20.2083308 76.3170092,21.0051534 L72.3170092,24.5051534 C71.485736,25.2325175 70.2222107,25.1482825 69.4948466,24.3170092 C68.7674825,23.485736 68.8517175,22.2222107 69.6829908,21.4948466 L71.9628155,19.5 L69.6829908,17.5051534 Z" id="Path-4-Copy" fill="#3F8FE8" fill-rule="nonzero"></path>
    </g>
</svg>