
<svg width="89px" height="38px" viewBox="0 0 89 38" version="1.1" xmlns="http://www.w3.org/2000/svg" xmlns:xlink="http://www.w3.org/1999/xlink">
    <defs>
        <path d="M15.4394531,22.8979492 C15.444336,22.8002925 15.4260256,22.7087407 15.3845215,22.623291 C15.3430174,22.5378414 15.2954104,22.4560551 15.2416992,22.3779297 C15.2416992,22.368164 15.2258302,22.3449709 15.1940918,22.3083496 C15.1623534,22.2717283 15.1416016,22.2460938 15.1318359,22.2314453 C15.1269531,22.2216796 15.1245117,22.2119141 15.1245117,22.2021484 L15.1245117,22.1582031 C15.1245117,22.1484375 15.1269531,22.1337892 15.1318359,22.1142578 C15.1367188,22.0947265 15.1391602,22.0800782 15.1391602,22.0703125 C15.1538087,22.0605468 15.1757811,22.0422365 15.2050781,22.0153809 C15.2343751,21.9885253 15.2661131,21.9604494 15.300293,21.9311523 C15.3344728,21.9018553 15.3662108,21.8750001 15.3955078,21.8505859 C15.4248048,21.8261718 15.4467773,21.8090821 15.4614258,21.7993164 C15.4809571,21.7797851 15.5224606,21.744385 15.5859375,21.6931152 C15.6494144,21.6418454 15.7165524,21.5893557 15.7873535,21.5356445 C15.8581547,21.4819333 15.9252927,21.4306643 15.9887695,21.3818359 C16.0522464,21.3330076 16.0961913,21.3012696 16.1206055,21.2866211 C16.1254883,21.2817383 16.1450194,21.26709 16.1791992,21.2426758 C16.2133791,21.2182616 16.2512205,21.1926271 16.2927246,21.1657715 C16.3342287,21.1389159 16.3708495,21.1145021 16.4025879,21.0925293 C16.4343263,21.0705565 16.4550781,21.0571289 16.4648438,21.0522461 C16.4697266,21.0473633 16.4855956,21.036377 16.5124512,21.0192871 C16.5393068,21.0021972 16.5686034,20.9826661 16.6003418,20.9606934 C16.6320802,20.9387206 16.6601561,20.9191895 16.6845703,20.9020996 C16.7089845,20.8850097 16.7260742,20.8715821 16.7358398,20.8618164 C16.7504884,20.8520507 16.7858884,20.8325197 16.842041,20.8032227 C16.8981936,20.7739256 16.9360351,20.756836 16.9555664,20.7519531 L16.9628906,20.7446289 C16.9677735,20.7446289 16.9714355,20.7434082 16.973877,20.7409668 C16.9763184,20.7385254 16.9799804,20.7373047 16.9848633,20.7373047 L16.9995117,20.7519531 C17.0336916,20.7910158 17.0959468,20.8618159 17.1862793,20.9643555 C17.2766118,21.066895 17.3718257,21.1743158 17.4719238,21.2866211 C17.572022,21.3989263 17.6660152,21.5063471 17.7539062,21.6088867 C17.8417973,21.7114263 17.9052732,21.7822264 17.9443359,21.8212891 C17.9589844,21.8310547 17.9907224,21.8591306 18.0395508,21.9055176 C18.0883792,21.9519045 18.1420896,22.0019529 18.2006836,22.0556641 C18.2592776,22.1093753 18.3178708,22.161865 18.3764648,22.2131348 C18.4350589,22.2644046 18.4814451,22.302246 18.515625,22.3266602 C18.5351563,22.3413087 18.5632322,22.3645018 18.5998535,22.3962402 C18.6364748,22.4279787 18.6743162,22.4584959 18.7133789,22.487793 L18.815918,22.5646973 C18.845215,22.58667 18.864746,22.6000976 18.8745117,22.6049805 C18.8842774,22.6049805 18.913574,22.6123046 18.9624023,22.6269531 C19.0112307,22.6416016 19.0527342,22.6538085 19.0869141,22.6635742 L19.1308594,22.6635742 C19.1845706,22.6782227 19.257812,22.6879883 19.3505859,22.6928711 C19.4433598,22.6977539 19.5349117,22.6904298 19.6252441,22.6708984 C19.7155766,22.6513671 19.7998043,22.6159671 19.8779297,22.5646973 C19.9560551,22.5134275 20.0073241,22.4389653 20.0317383,22.3413086 L19.9365234,21.6455078 C19.9365234,21.6357421 19.9279786,21.6040042 19.9108887,21.550293 C19.8937987,21.4965818 19.8828125,21.4575197 19.8779297,21.4331055 L19.6435547,21.0449219 C19.6386719,21.0351562 19.6337891,21.0229493 19.6289062,21.0083008 L19.6142578,20.9790039 C19.609375,20.9692382 19.6069336,20.9594727 19.6069336,20.949707 C19.5092769,20.7885734 19.4018561,20.6420905 19.284668,20.5102539 C19.1674799,20.3784173 19.0466315,20.2526861 18.9221191,20.1330566 C18.7976068,20.0134271 18.6682136,19.8974615 18.5339355,19.7851562 C18.3996575,19.672851 18.2641608,19.5532233 18.1274414,19.4262695 C18.0053705,19.3139643 17.8857428,19.1992193 17.7685547,19.0820312 C17.6513666,18.9648432 17.5341803,18.854981 17.4169922,18.7524414 C17.2802728,18.6352533 17.1472174,18.5217291 17.0178223,18.4118652 C16.8884271,18.3020014 16.7626959,18.1884771 16.640625,18.0712891 C16.4746085,17.8906241 16.311036,17.6867687 16.1499023,17.4597168 C15.9887687,17.2326649 15.8447272,16.9934095 15.7177734,16.7419434 C15.5908197,16.4904773 15.490723,16.2329115 15.4174805,15.9692383 C15.3442379,15.7055651 15.3149413,15.44922 15.3295898,15.2001953 C15.3442384,14.9951162 15.3869625,14.8034677 15.4577637,14.6252441 C15.5285648,14.4470206 15.6176752,14.2749032 15.7250977,14.1088867 C15.7348633,14.1088867 15.7470702,14.0966798 15.7617188,14.0722656 C15.7714844,14.0625 15.7788086,14.050293 15.7836914,14.0356445 C15.8081056,14.0014647 15.8386229,13.9562991 15.8752441,13.9001465 C15.9118654,13.8439939 15.9484861,13.7902835 15.9851074,13.7390137 C16.0217287,13.6877439 16.052246,13.643799 16.0766602,13.6071777 C16.1010743,13.5705565 16.1132812,13.5498047 16.1132812,13.5449219 C16.1181641,13.540039 16.1450193,13.5156252 16.1938477,13.4716797 C16.242676,13.4277342 16.2963864,13.3776858 16.3549805,13.3215332 C16.4135745,13.2653806 16.4733884,13.2104495 16.5344238,13.1567383 C16.5954593,13.1030271 16.6430662,13.0615236 16.6772461,13.0322266 C16.799317,12.929687 16.9226068,12.8454593 17.0471191,12.779541 C17.1716315,12.7136227 17.299804,12.6550296 17.4316406,12.6037598 C17.5634772,12.55249 17.6977532,12.5061037 17.8344727,12.4645996 C17.9711921,12.4230955 18.1127922,12.3779299 18.2592773,12.3291016 C18.3081057,12.3144531 18.3715816,12.3034668 18.449707,12.2961426 C18.5278324,12.2888183 18.608398,12.2839356 18.6914062,12.2814941 C18.7744145,12.2790527 18.8549801,12.2790527 18.9331055,12.2814941 C19.0112309,12.2839356 19.0771482,12.2875976 19.1308594,12.2924805 C19.3408214,12.307129 19.5336905,12.3327635 19.7094727,12.3693848 C19.8852548,12.406006 20.0524894,12.4548337 20.2111816,12.5158691 C20.3698738,12.5769046 20.527343,12.6501461 20.6835938,12.7355957 C20.8398445,12.8210453 21.0034171,12.9174799 21.1743164,13.0249023 C21.1791992,13.0297852 21.1865234,13.0346679 21.1962891,13.0395508 L21.2255859,13.0541992 C21.2353516,13.0639649 21.2451171,13.071289 21.2548828,13.0761719 L21.5039062,13.2519531 C21.5039062,13.2617188 21.5185545,13.2836912 21.5478516,13.3178711 C21.5771486,13.352051 21.599121,13.3740234 21.6137695,13.3837891 C21.628418,13.3984376 21.6674802,13.436279 21.730957,13.4973145 C21.7944339,13.5583499 21.8627926,13.6242672 21.9360352,13.6950684 C22.0092777,13.7658695 22.0764157,13.8342282 22.1374512,13.9001465 C22.1984866,13.9660648 22.2363281,14.008789 22.2509766,14.0283203 C22.2558594,14.0332031 22.2680663,14.0478514 22.2875977,14.0722656 C22.307129,14.0966798 22.3291014,14.1247557 22.3535156,14.1564941 C22.3779298,14.1882326 22.4035643,14.2199705 22.4304199,14.251709 C22.4572755,14.2834474 22.4780273,14.3090819 22.4926758,14.3286133 C22.5317385,14.3920902 22.5671385,14.4470213 22.598877,14.4934082 C22.6306154,14.5397952 22.644043,14.6020504 22.6391602,14.6801758 L22.6391602,14.753418 C22.6293945,14.7631836 22.6110841,14.7827147 22.5842285,14.8120117 C22.5573729,14.8413087 22.529297,14.8706053 22.5,14.8999023 L22.3608398,15.0390625 C22.355957,15.0439453 22.3437501,15.0537109 22.3242188,15.0683594 C22.3046874,15.0830079 22.282715,15.0988769 22.2583008,15.1159668 C22.2338866,15.1330567 22.2094728,15.1489257 22.1850586,15.1635742 C22.1606444,15.1782227 22.1459961,15.1855469 22.1411133,15.1855469 C22.1069334,15.2197267 22.0434575,15.2783199 21.9506836,15.3613281 C21.8579097,15.4443364 21.757813,15.5310054 21.6503906,15.6213379 C21.5429682,15.7116704 21.4416509,15.7983394 21.3464355,15.8813477 C21.2512202,15.9643559 21.1865236,16.022949 21.1523438,16.0571289 C21.1181639,16.0913088 21.0644535,16.1035157 20.9912109,16.09375 C20.9667968,16.09375 20.9313967,16.0900879 20.8850098,16.0827637 C20.8386228,16.0754394 20.8032228,16.0595704 20.7788086,16.0351562 C20.7739258,16.0302734 20.7666016,16.0156251 20.7568359,15.9912109 C20.7470703,15.9667968 20.7373047,15.9399416 20.7275391,15.9106445 C20.7177734,15.8813475 20.7067872,15.8544923 20.6945801,15.8300781 L20.6689453,15.7788086 C20.6249998,15.6860347 20.5725101,15.5908208 20.5114746,15.4931641 C20.4504391,15.3955073 20.3820805,15.3027348 20.3063965,15.2148438 C20.2307125,15.1269527 20.1501469,15.0451664 20.0646973,14.9694824 C19.9792476,14.8937984 19.8925786,14.8339846 19.8046875,14.7900391 C19.7949218,14.7900391 19.7741701,14.7851563 19.7424316,14.7753906 C19.7106932,14.765625 19.6752932,14.7546387 19.6362305,14.7424316 C19.5971678,14.7302245 19.560547,14.7180176 19.5263672,14.7058105 C19.4921873,14.6936035 19.4677735,14.6875 19.453125,14.6875 C19.4580078,14.6777343 19.4433595,14.6667481 19.4091797,14.654541 C19.3749998,14.6423339 19.3530274,14.6362305 19.3432617,14.6362305 L19.284668,14.6362305 C19.2749023,14.6362305 19.2651368,14.6337891 19.2553711,14.6289062 L18.9953613,14.6289062 C18.9099117,14.6289062 18.8281254,14.6362304 18.75,14.6508789 C18.6718746,14.6655274 18.5986332,14.6923826 18.5302734,14.7314453 C18.4619137,14.770508 18.4008792,14.8291012 18.347168,14.9072266 C18.3374023,14.9316407 18.3215333,14.9645994 18.2995605,15.0061035 C18.2775878,15.0476076 18.2666016,15.0732421 18.2666016,15.0830078 C18.2666016,15.0927735 18.2653809,15.1135252 18.2629395,15.1452637 C18.260498,15.1770021 18.2580567,15.2111815 18.2556152,15.2478027 C18.2531738,15.284424 18.2507324,15.319824 18.248291,15.3540039 C18.2458496,15.3881838 18.2446289,15.4077148 18.2446289,15.4125977 C18.2446289,15.4223633 18.2360841,15.4370116 18.2189941,15.456543 C18.2019042,15.4760743 18.1933594,15.4907226 18.1933594,15.5004883 L18.1933594,15.5444336 C18.2421877,15.6665045 18.3068844,15.7824702 18.3874512,15.892334 C18.468018,16.0021978 18.5534663,16.1071772 18.6437988,16.2072754 C18.7341313,16.3073735 18.8293452,16.4050288 18.9294434,16.5002441 C19.0295415,16.5954595 19.1259761,16.6894527 19.21875,16.7822266 C19.2236328,16.7919922 19.2431639,16.8151854 19.2773438,16.8518066 C19.3115236,16.8884279 19.3286133,16.911621 19.3286133,16.9213867 C19.3481446,16.9360352 19.3908688,16.9702146 19.4567871,17.0239258 C19.5227054,17.077637 19.5959469,17.1362302 19.6765137,17.199707 C19.7570805,17.2631839 19.8376461,17.3242185 19.9182129,17.3828125 C19.9987797,17.4414065 20.0610349,17.4853514 20.1049805,17.5146484 L20.1782227,17.565918 L20.2185059,17.6062012 C20.2404786,17.6281739 20.2624511,17.6513671 20.2844238,17.6757812 C20.3063966,17.7001954 20.3271483,17.7246093 20.3466797,17.7490234 C20.366211,17.7734376 20.3808593,17.7880859 20.390625,17.7929688 L20.4638672,17.8369141 C20.6298836,17.9541021 20.7861321,18.0957023 20.9326172,18.2617188 C21.0791023,18.4277352 21.2158197,18.586425 21.3427734,18.737793 C21.3574219,18.7524415 21.3903806,18.7915036 21.4416504,18.8549805 C21.4929202,18.9184573 21.5466306,18.9843747 21.6027832,19.0527344 C21.6589358,19.1210941 21.7114255,19.1857907 21.7602539,19.2468262 C21.8090823,19.3078616 21.8383789,19.3457031 21.8481445,19.3603516 C21.8579102,19.3701172 21.8725585,19.3859862 21.8920898,19.407959 C21.9116212,19.4299318 21.9262695,19.4458007 21.9360352,19.4555664 C21.9458008,19.4653321 21.9592284,19.493408 21.9763184,19.5397949 C21.9934083,19.5861819 22.0043945,19.6166991 22.0092773,19.6313477 C22.0141602,19.6411133 22.0263671,19.6630858 22.0458984,19.6972656 C22.0654298,19.7314455 22.0886229,19.7692869 22.1154785,19.810791 C22.1423341,19.8522951 22.1667479,19.8925779 22.1887207,19.9316406 C22.2106935,19.9707033 22.2290038,19.9999999 22.2436523,20.0195312 C22.2436523,20.0292969 22.2485351,20.0427245 22.2583008,20.0598145 C22.2680665,20.0769044 22.2802734,20.0952147 22.2949219,20.1147461 C22.3095704,20.1342774 22.322998,20.1525878 22.3352051,20.1696777 C22.3474122,20.1867677 22.355957,20.1977539 22.3608398,20.2026367 C22.3657227,20.2172852 22.380371,20.253906 22.4047852,20.3125 C22.4291993,20.371094 22.4560545,20.43457 22.4853516,20.5029297 C22.5146486,20.5712894 22.5427245,20.6347653 22.5695801,20.6933594 C22.5964357,20.7519534 22.614746,20.7885741 22.6245117,20.8032227 C22.6245117,20.8129883 22.6403807,20.8422849 22.6721191,20.8911133 C22.7038576,20.9399417 22.7246093,20.9692382 22.734375,20.9790039 C22.734375,20.9887696 22.7331543,21.0156248 22.7307129,21.0595703 C22.7282715,21.1035158 22.7270508,21.130371 22.7270508,21.1401367 C22.7221679,21.1499024 22.7294921,21.1779783 22.7490234,21.2243652 C22.7685548,21.2707522 22.7856445,21.3061522 22.800293,21.3305664 L22.8955078,21.8286133 L22.8442383,22.7148438 C22.8442383,22.7294923 22.8381348,22.7526854 22.8259277,22.7844238 C22.8137206,22.8161623 22.8027344,22.8393554 22.7929688,22.8540039 C22.7490232,23.0151375 22.6928714,23.1603997 22.6245117,23.2897949 C22.556152,23.4191901 22.453614,23.5424799 22.3168945,23.659668 C22.302246,23.6791993 22.2644046,23.71582 22.2033691,23.7695312 C22.1423337,23.8232425 22.073975,23.8818356 21.998291,23.9453125 C21.922607,24.0087894 21.8481449,24.0686032 21.7749023,24.1247559 C21.7016598,24.1809085 21.645508,24.2211913 21.6064453,24.2456055 C21.435546,24.3872077 21.2451182,24.5263665 21.0351562,24.6630859 C20.8251943,24.7998054 20.6103527,24.9072262 20.390625,24.9853516 C20.2978511,25.0097657 20.2148441,25.024414 20.1416016,25.0292969 C20.068359,25.0341797 19.9804693,25.048828 19.8779297,25.0732422 C19.7216789,25.1025392 19.5715339,25.1367186 19.4274902,25.1757812 C19.2834465,25.2148439 19.1333016,25.2294922 18.9770508,25.2197266 C18.8354485,25.2099609 18.6962897,25.1904298 18.5595703,25.1611328 C18.4228509,25.1318358 18.2836921,25.0976564 18.1420898,25.0585938 C17.7758771,24.9462885 17.4536147,24.802247 17.175293,24.6264648 C16.8969713,24.4506827 16.6552745,24.2431653 16.4501953,24.0039062 C16.4404296,23.9892577 16.4099124,23.9562991 16.3586426,23.9050293 C16.3073728,23.8537595 16.2536624,23.7988284 16.1975098,23.7402344 C16.1413571,23.6816403 16.0888674,23.6254885 16.0400391,23.5717773 C15.9912107,23.5180661 15.9619141,23.4838868 15.9521484,23.4692383 C15.9326171,23.4497069 15.8984377,23.4118655 15.8496094,23.3557129 C15.800781,23.2995603 15.7482913,23.2409671 15.6921387,23.1799316 C15.635986,23.1188962 15.5834963,23.0615237 15.534668,23.0078125 C15.4858396,22.9541013 15.4541016,22.9174806 15.4394531,22.8979492 Z M23.6499023,19.9536133 C23.6791994,19.7729483 23.7158201,19.5959481 23.7597656,19.4226074 C23.8037112,19.2492667 23.8525388,19.0747079 23.90625,18.8989258 C23.9453127,18.771972 23.9782714,18.6596685 24.005127,18.5620117 C24.0319826,18.464355 24.0649412,18.3544928 24.1040039,18.2324219 C24.1040039,18.2226562 24.1101074,18.195801 24.1223145,18.1518555 C24.1345215,18.1079099 24.1491698,18.060303 24.1662598,18.0090332 C24.1833497,17.9577634 24.1992187,17.9113772 24.2138672,17.869873 C24.2285157,17.8283689 24.2382812,17.8027344 24.2431641,17.7929688 C24.2968753,17.6220695 24.3749995,17.4682624 24.4775391,17.331543 C24.5800786,17.1948235 24.6874994,17.0581062 24.7998047,16.9213867 C24.8046875,16.9165039 24.8205565,16.8981935 24.8474121,16.8664551 C24.8742677,16.8347166 24.904785,16.8005373 24.9389648,16.763916 C24.9731447,16.7272947 25.0048827,16.6918947 25.0341797,16.6577148 C25.0634767,16.623535 25.0854491,16.5991212 25.1000977,16.5844727 C25.1049805,16.5795898 25.114746,16.5673829 25.1293945,16.5478516 C25.144043,16.5283202 25.159912,16.5051271 25.177002,16.4782715 C25.1940919,16.4514159 25.2099609,16.4282228 25.2246094,16.4086914 C25.2392579,16.3891601 25.2514648,16.3769531 25.2612305,16.3720703 C25.4663096,16.1962882 25.6921374,16.0375984 25.9387207,15.8959961 C26.185304,15.7543938 26.4416491,15.6323247 26.7077637,15.5297852 C26.9738783,15.4272456 27.2448717,15.3479007 27.520752,15.291748 C27.7966322,15.2355954 28.0688463,15.2050781 28.3374023,15.2001953 C28.6401382,15.1757811 28.9550765,15.1806639 29.2822266,15.2148438 C29.6093766,15.2490236 29.9145494,15.3295892 30.1977539,15.456543 C30.4370129,15.5297855 30.6433097,15.6127925 30.8166504,15.7055664 C30.9899911,15.7983403 31.136474,15.8886714 31.2561035,15.9765625 C31.375733,16.0644536 31.474609,16.1437985 31.5527344,16.2145996 C31.6308598,16.2854007 31.6992185,16.3354491 31.7578125,16.3647461 C31.9091804,16.4965827 32.0458978,16.6259759 32.1679688,16.7529297 C32.2900397,16.8798834 32.4011225,17.0117181 32.5012207,17.1484375 C32.6013189,17.2851569 32.6953121,17.4304192 32.7832031,17.5842285 C32.8710942,17.7380379 32.9565426,17.9101553 33.0395508,18.1005859 C33.0541993,18.1445315 33.074951,18.2238764 33.1018066,18.338623 C33.1286622,18.4533697 33.1567381,18.5742181 33.1860352,18.7011719 C33.2153322,18.8281256 33.2421874,18.948974 33.2666016,19.0637207 C33.2910157,19.1784674 33.305664,19.2578123 33.3105469,19.3017578 C33.3154297,19.3115235 33.3190918,19.3334959 33.3215332,19.3676758 C33.3239746,19.4018556 33.3251953,19.4433591 33.3251953,19.4921875 L33.3251953,19.7485352 C33.3251953,19.7778322 33.3239746,19.818115 33.3215332,19.8693848 C33.3190918,19.9206546 33.3178711,19.9719236 33.3178711,20.0231934 L33.3178711,20.1586914 C33.3178711,20.1977541 33.3154297,20.2197265 33.3105469,20.2246094 C33.3105469,20.2392579 33.3032227,20.2697752 33.2885742,20.3161621 C33.2739257,20.3625491 33.2592774,20.4113767 33.2446289,20.4626465 C33.2299804,20.5139163 33.2165528,20.5627439 33.2043457,20.6091309 C33.1921386,20.6555178 33.1860352,20.6835937 33.1860352,20.6933594 C33.0883784,20.7910161 32.9895025,20.8581541 32.8894043,20.8947754 C32.7893061,20.9313967 32.6721198,20.9545898 32.5378418,20.9643555 C32.4035638,20.9741211 32.2424326,20.9802246 32.0544434,20.982666 C31.8664541,20.9851074 31.6381849,21.0009764 31.3696289,21.0302734 L30.9887695,21.0302734 C30.9008785,21.0302734 30.8203129,21.0314941 30.7470703,21.0339355 C30.6738278,21.036377 30.6274415,21.0375977 30.6079102,21.0375977 L30.534668,21.0375977 C30.5249023,21.0473633 30.5041505,21.0546875 30.4724121,21.0595703 C30.4406737,21.0644531 30.407715,21.0656738 30.3735352,21.0632324 C30.3393553,21.060791 30.308838,21.0546875 30.2819824,21.0449219 C30.2551268,21.0351562 30.2392578,21.0205079 30.234375,21.0009766 C30.2294922,21.0009766 30.2075197,21.0021973 30.168457,21.0046387 C30.1293943,21.0070801 30.0866702,21.0083008 30.0402832,21.0083008 L29.901123,21.0083008 C29.8547361,21.0083008 29.8242188,21.0058594 29.8095703,21.0009766 C29.8046875,21.0058594 29.7973633,21.0083008 29.7875977,21.0083008 L29.7509766,21.0083008 C29.6337885,21.0131836 29.4995125,21.0180664 29.3481445,21.0229492 C29.1967766,21.0278321 29.0417488,21.0327148 28.8830566,21.0375977 C28.7243644,21.0424805 28.5693367,21.0461426 28.4179688,21.048584 C28.2666008,21.0510254 28.1323248,21.0522461 28.0151367,21.0522461 C27.8393546,21.0620118 27.6818855,21.0632325 27.5427246,21.0559082 C27.4035638,21.0485839 27.2692878,21.0412598 27.1398926,21.0339355 C27.0104974,21.0266113 26.8762214,21.0205078 26.7370605,21.015625 C26.5978997,21.0107422 26.4404306,21.0107422 26.2646484,21.015625 C26.2402343,21.015625 26.2158204,21.0168457 26.1914062,21.0192871 C26.1669921,21.0217285 26.1499024,21.0351561 26.1401367,21.0595703 C26.1401367,21.0839845 26.1462402,21.1206052 26.1584473,21.1694336 C26.1706544,21.218262 26.1767578,21.2499999 26.1767578,21.2646484 C26.2207033,21.4404306 26.2512206,21.5661617 26.2683105,21.6418457 C26.2854005,21.7175297 26.3012695,21.7712401 26.315918,21.8029785 C26.3305665,21.834717 26.3488768,21.8615722 26.3708496,21.8835449 C26.3928224,21.9055177 26.4282224,21.9506833 26.4770508,22.019043 C26.4770508,22.0239258 26.4855956,22.034912 26.5026855,22.052002 C26.5197755,22.0690919 26.5393065,22.0874022 26.5612793,22.1069336 C26.5832521,22.1264649 26.6027831,22.1447753 26.619873,22.1618652 C26.636963,22.1789552 26.6455078,22.1899414 26.6455078,22.1948242 C26.8066414,22.4536146 27.0190417,22.6403803 27.2827148,22.755127 C27.546388,22.8698736 27.8173814,22.9223633 28.0957031,22.9125977 C28.1347658,22.9125977 28.1884762,22.911377 28.2568359,22.9089355 C28.3251957,22.9064941 28.3642578,22.9052734 28.3740234,22.9052734 C28.4716802,22.8955078 28.5424802,22.8918457 28.5864258,22.8942871 C28.6303713,22.8967285 28.666992,22.9003906 28.6962891,22.9052734 C28.7255861,22.9101563 28.7561034,22.9138183 28.7878418,22.9162598 C28.8195802,22.9187012 28.8708493,22.9150391 28.9416504,22.9052734 C29.0124515,22.8955078 29.1101068,22.8771974 29.2346191,22.8503418 C29.3591315,22.8234862 29.5312489,22.7832034 29.7509766,22.7294922 C29.7558594,22.7294922 29.7827146,22.7172853 29.831543,22.6928711 C29.8803713,22.6684569 29.932861,22.6416017 29.9890137,22.6123047 C30.0451663,22.5830077 30.0988767,22.5549318 30.1501465,22.5280762 C30.2014163,22.5012206 30.2319335,22.4853516 30.2416992,22.4804688 C30.368653,22.4023434 30.4833979,22.3254398 30.5859375,22.2497559 C30.6884771,22.1740719 30.7824703,22.1044925 30.8679199,22.0410156 C30.9533696,21.9775387 31.0339352,21.921387 31.1096191,21.8725586 C31.1853031,21.8237302 31.2597653,21.7846681 31.3330078,21.7553711 L31.3769531,21.7553711 C31.3867188,21.7504883 31.4013671,21.7541503 31.4208984,21.7663574 C31.4404298,21.7785645 31.4501953,21.7895507 31.4501953,21.7993164 C31.4941408,21.8383791 31.5600582,21.8884274 31.6479492,21.9494629 C31.7358403,22.0104984 31.8249507,22.0727536 31.9152832,22.1362305 C32.0056157,22.1997073 32.0922847,22.2619626 32.175293,22.322998 C32.2583012,22.3840335 32.3193357,22.4365232 32.3583984,22.4804688 C32.3730469,22.4902344 32.4072263,22.5146482 32.4609375,22.5537109 C32.5146487,22.5927736 32.5708005,22.6354978 32.6293945,22.6818848 C32.6879886,22.7282717 32.7392576,22.7722166 32.7832031,22.8137207 C32.8271487,22.8552248 32.8491211,22.8784179 32.8491211,22.8833008 L32.8491211,22.9125977 C32.8491211,22.9223633 32.8503418,22.9296875 32.8527832,22.9345703 C32.8552246,22.9394531 32.8564453,22.9467773 32.8564453,22.956543 C32.8613281,23.0786139 32.8259281,23.1860347 32.7502441,23.2788086 C32.6745602,23.3715825 32.5952153,23.4619136 32.512207,23.5498047 C32.2827137,23.7988294 32.0397962,24.0417469 31.7834473,24.2785645 C31.5270983,24.515382 31.2475601,24.7119133 30.9448242,24.8681641 C30.8471675,24.9121096 30.7495122,24.9450682 30.6518555,24.967041 C30.5541987,24.9890138 30.4565435,25.0170897 30.3588867,25.0512695 C30.231933,25.0903322 30.1098639,25.1184081 29.9926758,25.135498 C29.8754877,25.152588 29.7607427,25.1635742 29.6484375,25.168457 C29.5361323,25.1733399 29.4201666,25.1745606 29.3005371,25.1721191 C29.1809076,25.1696777 29.0527351,25.1708984 28.9160156,25.1757812 C28.5644514,25.1855469 28.2299821,25.17334 27.9125977,25.1391602 C27.5952133,25.1049803 27.2680681,25.039063 26.9311523,24.9414062 C26.8041986,24.9023436 26.6870123,24.8596194 26.5795898,24.8132324 C26.4721674,24.7668455 26.3708501,24.7155765 26.2756348,24.6594238 C26.1804194,24.6032712 26.0864262,24.5397953 25.9936523,24.4689941 C25.9008784,24.398193 25.8056646,24.3212895 25.7080078,24.2382812 C25.5371085,24.0917961 25.3637704,23.950196 25.1879883,23.8134766 C25.0122062,23.6767571 24.8461922,23.5156259 24.6899414,23.3300781 C24.6801757,23.3251953 24.659424,23.2958987 24.6276855,23.2421875 C24.5959471,23.1884763 24.5776367,23.1542969 24.5727539,23.1396484 C24.5629882,23.1298828 24.5434572,23.1066896 24.5141602,23.0700684 C24.4848631,23.0334471 24.4543459,22.994385 24.4226074,22.9528809 C24.390869,22.9113767 24.359131,22.8723146 24.3273926,22.8356934 C24.2956541,22.7990721 24.2773438,22.775879 24.2724609,22.7661133 C24.2626953,22.7514648 24.2419435,22.7136234 24.2102051,22.6525879 C24.1784666,22.5915524 24.1418459,22.5207524 24.1003418,22.4401855 C24.0588377,22.3596187 24.0197756,22.2802738 23.9831543,22.2021484 C23.946533,22.124023 23.9184571,22.0605471 23.8989258,22.0117188 C23.8891601,22.0019531 23.8793946,21.982422 23.8696289,21.953125 C23.8598632,21.923828 23.8549805,21.9042969 23.8549805,21.8945312 C23.7963864,21.572264 23.7463381,21.2573258 23.704834,20.949707 C23.6633299,20.6420883 23.6450195,20.3222673 23.6499023,19.9902344 L23.6499023,19.9536133 Z M28.8647461,17.6098633 C28.6157214,17.6147461 28.3837901,17.6452634 28.1689453,17.701416 C27.9541005,17.7575686 27.7441417,17.8564446 27.5390625,17.9980469 C27.4707028,18.0419924 27.3937993,18.0981442 27.3083496,18.1665039 C27.2229,18.2348636 27.139893,18.3093258 27.0593262,18.3898926 C26.9787594,18.4704594 26.9116214,18.5559078 26.8579102,18.6462402 C26.804199,18.7365727 26.7773438,18.8256832 26.7773438,18.9135742 C26.9042975,18.9038085 27.0214838,18.8891603 27.1289062,18.8696289 C27.2363287,18.8500976 27.3510736,18.8378906 27.4731445,18.8330078 L27.5024414,18.8330078 C27.5122071,18.8378906 27.5427244,18.8415527 27.5939941,18.8439941 C27.6452639,18.8464356 27.7014157,18.8488769 27.7624512,18.8513184 C27.8234866,18.8537598 27.8808591,18.8562012 27.9345703,18.8586426 C27.9882815,18.861084 28.0224609,18.8623047 28.0371094,18.8623047 L28.7402344,18.8623047 C28.7841799,18.8623047 28.8452145,18.8598633 28.9233398,18.8549805 C29.0014652,18.8500976 29.0808101,18.8452149 29.161377,18.840332 C29.2419438,18.8354492 29.3139645,18.8317871 29.3774414,18.8293457 C29.4409183,18.8269043 29.477539,18.8256836 29.4873047,18.8256836 C29.5361331,18.8256836 29.6252435,18.8244629 29.7546387,18.8220215 C29.8840339,18.8195801 30.0219719,18.8171387 30.168457,18.8146973 C30.3149421,18.8122558 30.4528802,18.8085938 30.5822754,18.8037109 C30.7116706,18.7988281 30.800781,18.7939453 30.8496094,18.7890625 C30.859375,18.7890625 30.8691406,18.7841797 30.8789062,18.7744141 L30.8935547,18.7597656 C30.8935547,18.75 30.8886719,18.7353517 30.8789062,18.7158203 C30.8691406,18.696289 30.859375,18.6816407 30.8496094,18.671875 C30.8398437,18.6523437 30.8264161,18.6267091 30.8093262,18.5949707 C30.7922362,18.5632323 30.7739259,18.5314943 30.7543945,18.4997559 C30.7348632,18.4680174 30.7177735,18.4411622 30.703125,18.4191895 C30.6884765,18.3972167 30.678711,18.3837891 30.6738281,18.3789062 C30.4589833,18.1103502 30.1867692,17.9125983 29.8571777,17.7856445 C29.5275862,17.6586908 29.196779,17.6000976 28.8647461,17.6098633 Z M34.4604492,24.9707031 C34.3969723,24.9560546 34.3457033,24.9365236 34.3066406,24.9121094 C34.2626951,24.8828124 34.2297364,24.8474123 34.2077637,24.8059082 C34.1857909,24.7644041 34.1711426,24.7216799 34.1638184,24.6777344 C34.1564941,24.6337888 34.1540527,24.5922854 34.1564941,24.5532227 C34.1589356,24.51416 34.1601562,24.4799806 34.1601562,24.4506836 C34.1601562,24.079588 34.1552735,23.7097186 34.1455078,23.3410645 C34.1357421,22.9724103 34.1271973,22.6025409 34.119873,22.2314453 C34.1125488,21.8603497 34.1125488,21.4892597 34.119873,21.1181641 C34.1271973,20.7470685 34.1455077,20.3759784 34.1748047,20.0048828 L34.1455078,19.6606445 C34.1503906,19.6215818 34.1552734,19.5849611 34.1601562,19.5507812 C34.1650391,19.5214842 34.1674805,19.490967 34.1674805,19.4592285 C34.1674805,19.4274901 34.1699219,19.3994142 34.1748047,19.375 L34.1748047,18.4008789 C34.1748047,18.278808 34.1760254,18.1628423 34.1784668,18.0529785 C34.1809082,17.9431147 34.1821289,17.8735353 34.1821289,17.8442383 C34.1821289,17.8198241 34.185791,17.7539068 34.1931152,17.6464844 C34.2004395,17.539062 34.2077636,17.424317 34.2150879,17.3022461 C34.2224121,17.1801752 34.2272949,17.0654302 34.2297363,16.9580078 C34.2321777,16.8505854 34.2333984,16.7822267 34.2333984,16.7529297 C34.2382813,16.6455073 34.2346192,16.5234382 34.2224121,16.3867188 C34.210205,16.2499993 34.2016602,16.1254888 34.1967773,16.0131836 L34.2114258,15.7568359 C34.2114258,15.6982419 34.2272948,15.6579591 34.2590332,15.6359863 C34.2907716,15.6140136 34.324951,15.600586 34.3615723,15.5957031 C34.3981935,15.5908203 34.4323729,15.5908203 34.4641113,15.5957031 C34.4958498,15.600586 34.5141601,15.600586 34.519043,15.5957031 C34.5336915,15.5957031 34.5617674,15.5944824 34.6032715,15.592041 C34.6447756,15.5895996 34.6887205,15.5859375 34.7351074,15.5810547 C34.7814944,15.5761719 34.8242186,15.5712891 34.8632812,15.5664062 C34.9023439,15.5615234 34.9267578,15.5566406 34.9365234,15.5517578 L35.4528809,15.5517578 C35.5334477,15.5517578 35.615234,15.5529785 35.6982422,15.5554199 C35.7812504,15.5578613 35.8740229,15.5615234 35.9765625,15.5664062 L36.0571289,15.5737305 C36.0620117,15.5737305 36.0778807,15.5761719 36.1047363,15.5810547 C36.1315919,15.5859375 36.1608885,15.5908203 36.192627,15.5957031 C36.2243654,15.600586 36.2548827,15.6066894 36.2841797,15.6140137 C36.3134767,15.6213379 36.3354491,15.6274414 36.3500977,15.6323242 C36.4526372,15.6518556 36.524658,15.6750487 36.5661621,15.7019043 C36.6076662,15.7287599 36.6345214,15.7653806 36.6467285,15.8117676 C36.6589356,15.8581545 36.6662598,15.915527 36.6687012,15.9838867 C36.6711426,16.0522464 36.6821288,16.1352534 36.7016602,16.2329102 C36.9116221,16.0424795 37.1313465,15.8886725 37.3608398,15.7714844 C37.5903332,15.6542963 37.8271472,15.5651859 38.0712891,15.5041504 C38.3154309,15.4431149 38.5656725,15.4052735 38.8220215,15.390625 C39.0783704,15.3759765 39.3432604,15.3759765 39.6166992,15.390625 C39.6899418,15.390625 39.768066,15.3991698 39.8510742,15.4162598 C39.9340824,15.4333497 40.0183101,15.4541014 40.1037598,15.4785156 C40.1892094,15.5029298 40.2722164,15.5322264 40.3527832,15.5664062 C40.43335,15.6005861 40.5053708,15.6347655 40.5688477,15.6689453 C40.6127932,15.6982423 40.6701657,15.7397458 40.7409668,15.793457 C40.8117679,15.8471682 40.8813473,15.9020993 40.949707,15.958252 C41.0180667,16.0144046 41.0778806,16.0632322 41.1291504,16.1047363 C41.1804202,16.1462404 41.2084961,16.1669922 41.2133789,16.1669922 C41.3500983,16.2695318 41.4709467,16.3879388 41.5759277,16.5222168 C41.6809087,16.6564948 41.7712399,16.7993156 41.8469238,16.9506836 C41.9226078,17.1020515 41.9860837,17.2607414 42.0373535,17.4267578 C42.0886233,17.5927743 42.1313475,17.7563469 42.1655273,17.9174805 C42.1801759,17.9370118 42.1972655,17.9870601 42.2167969,18.067627 C42.2363282,18.1481938 42.2546386,18.2385249 42.2717285,18.338623 C42.2888184,18.4387212 42.3034667,18.5400385 42.3156738,18.6425781 C42.3278809,18.7451177 42.3339844,18.8256833 42.3339844,18.8842773 L42.3339844,19.1552734 C42.3339844,19.2333988 42.3352051,19.3188472 42.3376465,19.4116211 C42.3400879,19.504395 42.3425293,19.5898434 42.3449707,19.6679688 C42.3474121,19.7460941 42.3486328,19.7949218 42.3486328,19.8144531 L42.355957,21.0302734 L42.3413086,21.2866211 C42.3364258,21.3012696 42.331543,21.3305662 42.3266602,21.3745117 C42.3217773,21.4184573 42.3156739,21.4648435 42.3083496,21.5136719 C42.3010254,21.5625002 42.2949219,21.6088865 42.2900391,21.652832 C42.2851562,21.6967776 42.2827148,21.7285155 42.2827148,21.7480469 L42.2753906,21.9091797 C42.2705078,22.0019536 42.2680664,22.1203606 42.2680664,22.2644043 C42.2680664,22.408448 42.2668457,22.562255 42.2644043,22.7258301 C42.2619629,22.8894051 42.2607422,23.0554191 42.2607422,23.223877 L42.2607422,23.6889648 C42.2607422,23.8305671 42.2619629,23.9501948 42.2644043,24.0478516 C42.2668457,24.1455083 42.2680664,24.2065428 42.2680664,24.230957 L42.2680664,24.4726562 C42.2680664,24.5263675 42.2692871,24.5764158 42.2717285,24.6228027 C42.2741699,24.6691897 42.2753906,24.6972656 42.2753906,24.7070312 L42.2680664,24.7802734 C42.2680664,24.8339846 42.2375491,24.8669433 42.1765137,24.8791504 C42.1154782,24.8913575 42.0654299,24.8999023 42.0263672,24.9047852 C42.0117187,24.9047852 41.9909669,24.9060058 41.9641113,24.9084473 C41.9372557,24.9108887 41.9091798,24.9145508 41.8798828,24.9194336 C41.8505858,24.9243164 41.8249513,24.9279785 41.8029785,24.9304199 C41.7810057,24.9328613 41.7675781,24.9365234 41.7626953,24.9414062 L41.4624023,24.9414062 C41.3940426,24.9414062 41.3305667,24.9426269 41.2719727,24.9450684 C41.2133786,24.9475098 41.1767579,24.9511719 41.1621094,24.9560547 C40.932616,24.9658204 40.7189951,24.979248 40.5212402,24.9963379 C40.3234853,25.0134278 40.1049817,25.0170899 39.8657227,25.0073242 C39.7778316,25.0024414 39.716797,24.9792483 39.6826172,24.9377441 C39.6484373,24.89624 39.6264649,24.8461917 39.6166992,24.7875977 C39.6069335,24.7290036 39.6044922,24.6667484 39.609375,24.6008301 C39.6142578,24.5349118 39.6166992,24.4726565 39.6166992,24.4140625 L39.6166992,24.2419434 C39.6166992,24.1516109 39.6179199,24.0478521 39.6203613,23.9306641 C39.6228027,23.813476 39.6240234,23.6865241 39.6240234,23.5498047 C39.6240234,23.4130853 39.6252441,23.2861334 39.6276855,23.1689453 C39.630127,23.0517572 39.6313477,22.9492192 39.6313477,22.8613281 L39.6313477,22.6855469 L39.6386719,20.9863281 C39.6484375,20.8154288 39.6484375,20.6176769 39.6386719,20.3930664 C39.6289062,20.1684559 39.6057131,19.9365246 39.5690918,19.6972656 C39.5324705,19.4580066 39.4824222,19.223634 39.4189453,18.9941406 C39.3554684,18.7646473 39.2773442,18.5607919 39.1845703,18.3825684 C39.0917964,18.2043448 38.9843756,18.0639654 38.8623047,17.9614258 C38.7402338,17.8588862 38.6035164,17.8149413 38.4521484,17.8295898 L38.1958008,17.8149414 C38.0249015,17.8100586 37.884522,17.8295896 37.7746582,17.8735352 C37.6647944,17.9174807 37.5341804,17.983398 37.3828125,18.0712891 C37.3730468,18.0712891 37.3632813,18.0773925 37.3535156,18.0895996 C37.34375,18.1018067 37.3388672,18.1127929 37.3388672,18.1225586 C37.2021478,18.2250982 37.0861821,18.3703604 36.9909668,18.5583496 C36.8957515,18.7463388 36.8151859,18.9587391 36.7492676,19.1955566 C36.6833493,19.4323742 36.6284182,19.6838366 36.5844727,19.9499512 C36.5405271,20.2160658 36.5039064,20.4785143 36.4746094,20.7373047 C36.4697265,20.7617189 36.4624024,20.8227534 36.4526367,20.9204102 C36.442871,21.0180669 36.4318848,21.1267084 36.4196777,21.2463379 C36.4074706,21.3659674 36.3977051,21.4855951 36.3903809,21.6052246 C36.3830566,21.7248541 36.3769531,21.8164059 36.3720703,21.8798828 C36.3720703,21.8847656 36.3708496,21.9091795 36.3684082,21.953125 C36.3659668,21.9970705 36.3623047,22.0495602 36.3574219,22.1105957 C36.352539,22.1716312 36.3476563,22.231445 36.3427734,22.2900391 C36.3378906,22.3486331 36.3354492,22.3950194 36.3354492,22.4291992 C36.3354492,22.4536134 36.3342285,22.4926755 36.3317871,22.5463867 C36.3293457,22.6000979 36.328125,22.6574704 36.328125,22.7185059 C36.328125,22.7795413 36.3269043,22.8369138 36.3244629,22.890625 C36.3220215,22.9443362 36.3208008,22.9809569 36.3208008,23.0004883 L36.328125,24.0991211 C36.3232422,24.1137696 36.3256835,24.1430662 36.3354492,24.1870117 C36.3452149,24.2309573 36.3500977,24.2602538 36.3500977,24.2749023 C36.3500977,24.2797852 36.3513183,24.2932128 36.3537598,24.3151855 C36.3562012,24.3371583 36.3574219,24.3603514 36.3574219,24.3847656 L36.3574219,24.5019531 C36.3574219,24.5410158 36.3598633,24.5874021 36.3647461,24.6411133 C36.3696289,24.6948245 36.3671875,24.7473142 36.3574219,24.798584 C36.3476562,24.8498538 36.3269045,24.892578 36.295166,24.9267578 C36.2634276,24.9609377 36.2084965,24.975586 36.1303711,24.9707031 C36.0180658,24.9658203 35.8947761,24.9645996 35.760498,24.967041 C35.62622,24.9694824 35.4858406,24.9731445 35.3393555,24.9780273 C35.1928704,24.9829102 35.0439461,24.9865723 34.8925781,24.9890137 C34.7412102,24.9914551 34.5971687,24.9853516 34.4604492,24.9707031 Z M43.4619141,21.5063477 C43.4619141,21.467285 43.4692382,21.4306642 43.4838867,21.3964844 C43.4985352,21.3623045 43.5058594,21.3256838 43.5058594,21.2866211 C43.5058594,21.1352531 43.4985352,20.9875495 43.4838867,20.8435059 C43.4692382,20.6994622 43.4619141,20.5517586 43.4619141,20.4003906 L43.4619141,20.1000977 C43.4765626,19.7875961 43.4997557,19.4873061 43.5314941,19.1992188 C43.5632326,18.9111314 43.6096188,18.6291518 43.6706543,18.3532715 C43.7316898,18.0773912 43.809814,17.8051771 43.9050293,17.5366211 C44.0002446,17.2680651 44.1186516,16.9970717 44.2602539,16.7236328 C44.2651367,16.7138671 44.2785643,16.6882326 44.3005371,16.6467285 C44.3225099,16.6052244 44.3444823,16.5612795 44.3664551,16.5148926 C44.3884278,16.4685056 44.4091796,16.4245608 44.4287109,16.3830566 C44.4482423,16.3415525 44.4604492,16.315918 44.465332,16.3061523 C44.4750977,16.2915038 44.4970701,16.2622073 44.53125,16.2182617 C44.5654299,16.1743162 44.5898437,16.147461 44.6044922,16.1376953 C44.6240235,16.1132811 44.6582029,16.0766604 44.7070312,16.027832 L44.8535156,15.8813477 C44.902344,15.8325193 44.9475096,15.7885744 44.9890137,15.7495117 C45.0305178,15.710449 45.0561523,15.6860352 45.065918,15.6762695 C45.0708008,15.6713867 45.0866698,15.6591798 45.1135254,15.6396484 C45.140381,15.6201171 45.172119,15.5993653 45.2087402,15.5773926 C45.2453615,15.5554198 45.2807615,15.5334474 45.3149414,15.5114746 C45.3491213,15.4895018 45.3759765,15.4736329 45.3955078,15.4638672 C45.4150392,15.4541015 45.4418944,15.4394532 45.4760742,15.4199219 C45.5102541,15.4003905 45.5444334,15.3820802 45.5786133,15.3649902 C45.6127931,15.3479003 45.6457518,15.333252 45.6774902,15.3210449 C45.7092287,15.3088378 45.7299804,15.3027344 45.7397461,15.3027344 C45.7690431,15.2880859 45.8251949,15.2648927 45.9082031,15.2331543 C45.9912114,15.2014159 46.0803218,15.1696779 46.1755371,15.1379395 C46.2707524,15.106201 46.3598629,15.0781251 46.4428711,15.0537109 C46.5258793,15.0292968 46.5869139,15.0122071 46.6259766,15.0024414 L46.7138672,14.9804688 C46.7529299,14.9707031 46.7944334,14.9609375 46.8383789,14.9511719 C46.8823244,14.9414062 46.9250486,14.9328614 46.9665527,14.9255371 C47.0080568,14.9182129 47.0361327,14.9121094 47.0507812,14.9072266 L47.4389648,14.9072266 C47.6196298,14.9072266 47.780761,14.9218749 47.9223633,14.9511719 C48.0639656,14.9804689 48.220214,15.019531 48.3911133,15.0683594 C48.5815439,15.1025392 48.7670889,15.1525876 48.9477539,15.2185059 C49.1284189,15.2844242 49.3029777,15.360107 49.4714355,15.4455566 C49.6398934,15.5310063 49.8022453,15.618896 49.9584961,15.7092285 C50.1147469,15.799561 50.2636712,15.8837887 50.4052734,15.9619141 C50.4101563,15.9570312 50.415039,15.9411622 50.4199219,15.9143066 C50.4248047,15.887451 50.4296875,15.8581545 50.4345703,15.826416 C50.4394531,15.7946776 50.4431152,15.7641603 50.4455566,15.7348633 C50.4479981,15.7055663 50.4492188,15.6860352 50.4492188,15.6762695 L50.4492188,15.6176758 C50.4492188,15.3881824 50.4418946,15.1599132 50.4272461,14.9328613 C50.4125976,14.7058094 50.4052734,14.4775402 50.4052734,14.2480469 L50.4052734,13.9477539 C50.4101563,13.8940427 50.4125977,13.8208012 50.4125977,13.7280273 C50.4125977,13.6352534 50.411377,13.5400396 50.4089355,13.4423828 C50.4064941,13.3447261 50.4040527,13.2531743 50.4016113,13.1677246 C50.3991699,13.082275 50.3979492,13.0200197 50.3979492,12.980957 C50.4077149,12.922363 50.4223632,12.8625491 50.4418945,12.8015137 C50.4614259,12.7404782 50.4711914,12.7050782 50.4711914,12.6953125 L50.5151367,12.6513672 L50.6469727,12.6367188 C50.6860354,12.6318359 50.7226561,12.6269531 50.7568359,12.6220703 C50.7910158,12.6171875 50.8203124,12.6123047 50.8447266,12.6074219 C51.010743,12.5976562 51.1560052,12.5903321 51.2805176,12.5854492 C51.4050299,12.5805664 51.5380852,12.578125 51.6796875,12.578125 C51.8017584,12.578125 51.9128413,12.5744629 52.0129395,12.5671387 C52.1130376,12.5598144 52.2106929,12.553711 52.3059082,12.5488281 C52.4011235,12.5439453 52.4987788,12.5427246 52.598877,12.545166 C52.6989751,12.5476074 52.8076166,12.5585937 52.9248047,12.578125 C53.0371099,12.6416019 53.1005859,12.712402 53.1152344,12.7905273 C53.1152344,12.800293 53.1164551,12.8234861 53.1188965,12.8601074 C53.1213379,12.8967287 53.1225586,12.9345701 53.1225586,12.9736328 C53.1225586,13.0126955 53.1237793,13.0505369 53.1262207,13.0871582 C53.1286621,13.1237795 53.1298828,13.149414 53.1298828,13.1640625 C53.1298828,13.1884767 53.1286621,13.2214353 53.1262207,13.2629395 C53.1237793,13.3044436 53.1225586,13.3447264 53.1225586,13.3837891 C53.1225586,13.4228518 53.1213379,13.4582518 53.1188965,13.4899902 C53.1164551,13.5217287 53.1152344,13.540039 53.1152344,13.5449219 C53.1054687,13.8037122 53.0993652,14.0539539 53.0969238,14.2956543 C53.0944824,14.5373547 53.0932617,14.7766101 53.0932617,15.0134277 C53.0932617,15.2502453 53.0908203,15.4895007 53.0859375,15.7312012 C53.0810547,15.9729016 53.0737305,16.2231432 53.0639648,16.4819336 C53.0541992,16.7602553 53.043213,17.0568832 53.0310059,17.3718262 C53.0187988,17.6867692 53.0126953,17.983397 53.0126953,18.2617188 C53.0126953,18.3007814 53.013916,18.3886712 53.0163574,18.5253906 C53.0187988,18.6621101 53.0212402,18.8098137 53.0236816,18.9685059 C53.0261231,19.1271981 53.0285644,19.2761224 53.0310059,19.4152832 C53.0334473,19.5544441 53.034668,19.6435545 53.034668,19.6826172 C53.034668,19.6875 53.0334473,19.7119138 53.0310059,19.7558594 C53.0285644,19.7998049 53.0273438,19.8522946 53.0273438,19.9133301 C53.0273438,19.9743655 53.0261231,20.0366208 53.0236816,20.1000977 C53.0212402,20.1635745 53.0200195,20.2124022 53.0200195,20.246582 C53.0200195,20.2856447 53.0212402,20.3369137 53.0236816,20.4003906 C53.0261231,20.4638675 53.0273438,20.5273434 53.0273438,20.5908203 C53.0273438,20.6542972 53.0285644,20.7116697 53.0310059,20.7629395 C53.0334473,20.8142092 53.034668,20.8422851 53.034668,20.847168 C53.034668,20.8618165 53.0310059,20.8959958 53.0236816,20.949707 C53.0163574,21.0034182 53.0090332,21.05957 53.001709,21.1181641 C52.9943847,21.1767581 52.9870606,21.2316892 52.9797363,21.282959 C52.9724121,21.3342288 52.96875,21.3671874 52.96875,21.3818359 C52.9736328,21.4062501 52.9748535,21.4575191 52.9724121,21.5356445 C52.9699707,21.6137699 52.9663086,21.6967769 52.9614258,21.784668 C52.9565429,21.872559 52.9528809,21.9567867 52.9504395,22.0373535 C52.947998,22.1179203 52.9467773,22.1728514 52.9467773,22.2021484 C52.9467773,22.2265626 52.9455567,22.2924799 52.9431152,22.3999023 C52.9406738,22.5073248 52.9382324,22.6220697 52.935791,22.7441406 C52.9333496,22.8662115 52.9309082,22.9809565 52.9284668,23.0883789 C52.9260254,23.1958013 52.9248047,23.2617186 52.9248047,23.2861328 C52.9248047,23.2958985 52.9260254,23.3239744 52.9284668,23.3703613 C52.9309082,23.4167483 52.9321289,23.4716794 52.9321289,23.5351562 C52.9321289,23.5986331 52.9333496,23.6621091 52.935791,23.7255859 C52.9382324,23.7890628 52.9394531,23.8378905 52.9394531,23.8720703 C52.9394531,23.8964845 52.9382324,23.9465328 52.935791,24.0222168 C52.9333496,24.0979008 52.9321289,24.1796871 52.9321289,24.2675781 C52.9321289,24.3554692 52.9309082,24.4384762 52.9284668,24.5166016 C52.9260254,24.594727 52.9248047,24.6435546 52.9248047,24.6630859 C52.915039,24.7656255 52.8564458,24.838867 52.7490234,24.8828125 C52.641601,24.926758 52.5219733,24.9536132 52.3901367,24.9633789 C52.2583001,24.9731446 52.1350103,24.975586 52.0202637,24.9707031 C51.905517,24.9658203 51.838379,24.9682617 51.8188477,24.9780273 L51.5991211,24.9780273 C51.5209957,24.9780273 51.4477542,24.9926756 51.3793945,25.0219727 L50.4492188,25.0219727 L50.3759766,24.9414062 L50.2880859,24.2236328 C50.0878896,24.4091806 49.8754894,24.5532221 49.6508789,24.6557617 C49.4262684,24.7583013 49.2102061,24.8376462 49.0026855,24.8937988 C48.795165,24.9499515 48.6035165,24.9865722 48.4277344,25.0036621 C48.2519522,25.020752 48.1127935,25.0341796 48.0102539,25.0439453 L47.7758789,25.0439453 C47.7026364,25.0390625 47.6062018,25.0341797 47.4865723,25.0292969 C47.3669428,25.024414 47.2448737,25.020752 47.1203613,25.0183105 C46.995849,25.0158691 46.8835454,25.0122071 46.7834473,25.0073242 C46.6833491,25.0024414 46.6162111,24.9975586 46.5820312,24.9926758 C46.5478514,24.9877929 46.494141,24.9768067 46.4208984,24.9597168 C46.3476559,24.9426269 46.2707524,24.9255372 46.1901855,24.9084473 C46.1096187,24.8913573 46.0339359,24.873047 45.9631348,24.8535156 C45.8923336,24.8339843 45.8447267,24.819336 45.8203125,24.8095703 C45.805664,24.8046875 45.773926,24.7912599 45.7250977,24.7692871 C45.6762693,24.7473143 45.6250003,24.7229005 45.5712891,24.6960449 C45.5175779,24.6691893 45.4675295,24.6423341 45.4211426,24.6154785 C45.3747556,24.5886229 45.341797,24.5678712 45.3222656,24.5532227 C45.2978514,24.5385741 45.2563479,24.5117189 45.1977539,24.4726562 L45.0109863,24.3481445 C44.945068,24.304199 44.8852542,24.2626955 44.831543,24.2236328 C44.7778318,24.1845701 44.741211,24.1552735 44.7216797,24.1357422 C44.6923827,24.1015623 44.6655275,24.0698244 44.6411133,24.0405273 C44.6166991,24.0161132 44.5922853,23.989258 44.5678711,23.9599609 C44.5434569,23.9306639 44.5239259,23.9086915 44.5092773,23.894043 C44.3920893,23.7377922 44.2956547,23.5827644 44.2199707,23.4289551 C44.1442867,23.2751457 44.0625004,23.1054697 43.9746094,22.9199219 C43.9208982,22.8076166 43.8647464,22.6892096 43.8061523,22.5646973 C43.7475583,22.4401849 43.7036134,22.3193365 43.6743164,22.2021484 C43.6694336,22.1923828 43.6608887,22.1606448 43.6486816,22.1069336 C43.6364745,22.0532224 43.6242676,21.9946292 43.6120605,21.9311523 C43.5998535,21.8676755 43.5876465,21.8090823 43.5754395,21.7553711 C43.5632324,21.7016599 43.5546875,21.6699219 43.5498047,21.6601562 C43.540039,21.6503906 43.5253907,21.6284181 43.5058594,21.5942383 C43.486328,21.5600584 43.4716797,21.538086 43.4619141,21.5283203 L43.4619141,21.5063477 Z M46.8383789,21.8212891 C46.8383789,21.8261719 46.8505858,21.8432616 46.875,21.8725586 C46.8994142,21.9018556 46.9287108,21.9335936 46.9628906,21.9677734 C46.9970705,22.0019533 47.0336912,22.0373533 47.0727539,22.0739746 C47.1118166,22.1105959 47.1435546,22.1386718 47.1679688,22.1582031 C47.1777344,22.1679688 47.2045896,22.1826171 47.2485352,22.2021484 C47.2924807,22.2216798 47.3193359,22.2363281 47.3291016,22.2460938 C47.3388672,22.2558594 47.3620604,22.2705077 47.3986816,22.2900391 C47.4353029,22.3095704 47.458496,22.3242187 47.4682617,22.3339844 C47.4829102,22.34375 47.5109861,22.3583983 47.5524902,22.3779297 C47.5939943,22.397461 47.6196289,22.4072266 47.6293945,22.4072266 C47.7124028,22.4414064 47.7844235,22.4584961 47.845459,22.4584961 C47.9064944,22.4584961 47.9858394,22.4584961 48.0834961,22.4584961 C48.3227551,22.4584961 48.5607898,22.419434 48.7976074,22.3413086 C49.034425,22.2631832 49.2797839,22.1386727 49.5336914,21.9677734 C49.5776369,21.9287107 49.6252439,21.89209 49.6765137,21.8579102 C49.7277835,21.8237303 49.772949,21.7871096 49.8120117,21.7480469 C49.8120117,21.743164 49.8242186,21.7260744 49.8486328,21.6967773 C49.873047,21.6674803 49.9011229,21.6345217 49.9328613,21.5979004 C49.9645998,21.5612791 49.9938964,21.5283205 50.020752,21.4990234 C50.0476076,21.4697264 50.0634765,21.4501954 50.0683594,21.4404297 C50.078125,21.4208983 50.0964354,21.386719 50.123291,21.3378906 C50.1501466,21.2890623 50.1770018,21.2377932 50.2038574,21.184082 C50.230713,21.1303708 50.2575682,21.0803225 50.2844238,21.0339355 C50.3112794,20.9875486 50.3295898,20.9521486 50.3393555,20.9277344 C50.354004,20.8886717 50.3649902,20.8581544 50.3723145,20.8361816 C50.3796387,20.8142089 50.3833008,20.7836916 50.3833008,20.7446289 L50.4125977,20.6494141 C50.4272462,20.6054685 50.4467772,20.5358891 50.4711914,20.4406738 C50.4956056,20.3454585 50.5297849,20.2124032 50.5737305,20.0415039 C50.5737305,20.0317382 50.5786132,19.9963382 50.5883789,19.9353027 C50.5981446,19.8742673 50.6079101,19.8242189 50.6176758,19.7851562 C50.6225586,19.7607421 50.6262207,19.72168 50.6286621,19.6679688 C50.6311035,19.6142575 50.6323242,19.5556644 50.6323242,19.4921875 L50.6323242,19.2578125 C50.6323242,19.243164 50.6311035,19.2138674 50.6286621,19.1699219 C50.6262207,19.1259763 50.6225586,19.0795901 50.6176758,19.0307617 C50.6127929,18.9819333 50.6079102,18.9355471 50.6030273,18.8916016 C50.5981445,18.847656 50.5932617,18.8159181 50.5883789,18.7963867 C50.5883789,18.786621 50.5834961,18.7719728 50.5737305,18.7524414 C50.5639648,18.7329101 50.5541993,18.7182618 50.5444336,18.7084961 C50.5346679,18.6987304 50.5187989,18.6804201 50.4968262,18.6535645 C50.4748534,18.6267089 50.4504396,18.5974123 50.423584,18.5656738 C50.3967284,18.5339354 50.3698732,18.5034181 50.3430176,18.4741211 C50.316162,18.4448241 50.2978516,18.4228516 50.2880859,18.4082031 C50.1513665,18.2666009 50.0012215,18.1372076 49.8376465,18.0200195 C49.6740714,17.9028314 49.4995126,17.8051762 49.3139648,17.7270508 C49.3041992,17.7270508 49.2797854,17.722168 49.2407227,17.7124023 C49.2211913,17.7075195 49.2041016,17.7026367 49.1894531,17.6977539 L48.1860352,17.6977539 C48.161621,17.6538084 48.1408692,17.6281739 48.1237793,17.6208496 C48.1066894,17.6135254 48.0786135,17.6098633 48.0395508,17.6098633 C47.9516597,17.6098633 47.8564458,17.6196288 47.7539062,17.6391602 C47.6513667,17.6586915 47.55127,17.6892088 47.4536133,17.7307129 C47.3559565,17.772217 47.263184,17.8210446 47.175293,17.8771973 C47.0874019,17.9333499 47.0141604,17.9980465 46.9555664,18.0712891 C46.9458007,18.0859376 46.925049,18.1164548 46.8933105,18.1628418 C46.8615721,18.2092287 46.8249514,18.2617185 46.7834473,18.3203125 C46.7419432,18.3789065 46.702881,18.436279 46.6662598,18.4924316 C46.6296385,18.5485843 46.6015626,18.5888671 46.5820312,18.6132812 C46.5820312,18.6230469 46.5747071,18.6389159 46.5600586,18.6608887 C46.5454101,18.6828614 46.5380859,18.6987304 46.5380859,18.7084961 C46.4550777,18.8549812 46.3781742,19.0002434 46.307373,19.1442871 C46.2365719,19.2883308 46.188965,19.4506827 46.1645508,19.6313477 C46.1596679,19.6557618 46.1547852,19.6936033 46.1499023,19.744873 C46.1450195,19.7961428 46.1401367,19.8510739 46.1352539,19.909668 C46.1303711,19.968262 46.126709,20.0219724 46.1242676,20.0708008 C46.1218262,20.1196292 46.1206055,20.1538085 46.1206055,20.1733398 C46.1206055,20.1879884 46.1254882,20.2233884 46.1352539,20.279541 C46.1450196,20.3356936 46.1547851,20.3710937 46.1645508,20.3857422 C46.1791993,20.4296877 46.2011717,20.495605 46.2304688,20.5834961 C46.2597658,20.6713872 46.2890624,20.7604976 46.3183594,20.8508301 C46.3476564,20.9411626 46.3745116,21.0241695 46.3989258,21.0998535 C46.42334,21.1755375 46.4404296,21.2231444 46.4501953,21.2426758 L46.8383789,21.8212891 Z" id="path-1"></path>
    </defs>
    <g id="Page-1" stroke="none" stroke-width="1" fill="none" fill-rule="evenodd">
        <g id="Group-2-Copy-4">
            <g id="Next-Btn-Copy-3">
                <rect id="Rectangle" fill="#FFFFFF" x="0" y="0" width="89" height="38" rx="19"></rect>
                <g id="Send" fill-rule="nonzero">
                    <use fill="#FFFFFF" xlink:href="#path-1"></use>
                    <use fill="#3F8FE8" xlink:href="#path-1"></use>
                </g>
            </g>
        </g>
        <g id="send-button" transform="translate(66.000000, 14.000000)" fill="#3F8FE8" fill-rule="nonzero">
            <polygon id="Path" points="0 10 12 5 0 0 0 3.88888889 8.57142857 5 0 6.11111111"></polygon>
        </g>
    </g>
</svg>